<?xml version="1.0" encoding="UTF-8"?>
<!--Generator: Apple Native CoreSVG 123-->
<!DOCTYPE svg
PUBLIC "-//W3C//DTD SVG 1.1//EN"
       "http://www.w3.org/Graphics/SVG/1.1/DTD/svg11.dtd">
<svg version="1.1" xmlns="http://www.w3.org/2000/svg" xmlns:xlink="http://www.w3.org/1999/xlink" width="3300" height="2200">
 <!--glyph: "uni10000D.medium", point size: 100.000000, font version: "Version 15.0d7e11", template writer version: "5"-->
 <g id="Notes">
  <rect height="2200" id="artboard" style="fill:white;opacity:1" width="3300" x="0" y="0"/>
  <line id="" style="fill:none;stroke:black;opacity:1;stroke-width:0.5;" x1="263" x2="3036" y1="292" y2="292"/>
  <text style="stroke:none;fill:black;font-family:-apple-system,&quot;SF Pro Display&quot;,&quot;SF Pro Text&quot;,Helvetica,sans-serif;font-weight:bold;" transform="matrix(1 0 0 1 263 322)">Weight/Scale Variations</text>
  <text style="stroke:none;fill:black;font-family:-apple-system,&quot;SF Pro Display&quot;,&quot;SF Pro Text&quot;,Helvetica,sans-serif;text-anchor:middle;" transform="matrix(1 0 0 1 559.711 322)">Ultralight</text>
  <text style="stroke:none;fill:black;font-family:-apple-system,&quot;SF Pro Display&quot;,&quot;SF Pro Text&quot;,Helvetica,sans-serif;text-anchor:middle;" transform="matrix(1 0 0 1 856.422 322)">Thin</text>
  <text style="stroke:none;fill:black;font-family:-apple-system,&quot;SF Pro Display&quot;,&quot;SF Pro Text&quot;,Helvetica,sans-serif;text-anchor:middle;" transform="matrix(1 0 0 1 1153.13 322)">Light</text>
  <text style="stroke:none;fill:black;font-family:-apple-system,&quot;SF Pro Display&quot;,&quot;SF Pro Text&quot;,Helvetica,sans-serif;text-anchor:middle;" transform="matrix(1 0 0 1 1449.84 322)">Regular</text>
  <text style="stroke:none;fill:black;font-family:-apple-system,&quot;SF Pro Display&quot;,&quot;SF Pro Text&quot;,Helvetica,sans-serif;text-anchor:middle;" transform="matrix(1 0 0 1 1746.56 322)">Medium</text>
  <text style="stroke:none;fill:black;font-family:-apple-system,&quot;SF Pro Display&quot;,&quot;SF Pro Text&quot;,Helvetica,sans-serif;text-anchor:middle;" transform="matrix(1 0 0 1 2043.27 322)">Semibold</text>
  <text style="stroke:none;fill:black;font-family:-apple-system,&quot;SF Pro Display&quot;,&quot;SF Pro Text&quot;,Helvetica,sans-serif;text-anchor:middle;" transform="matrix(1 0 0 1 2339.98 322)">Bold</text>
  <text style="stroke:none;fill:black;font-family:-apple-system,&quot;SF Pro Display&quot;,&quot;SF Pro Text&quot;,Helvetica,sans-serif;text-anchor:middle;" transform="matrix(1 0 0 1 2636.69 322)">Heavy</text>
  <text style="stroke:none;fill:black;font-family:-apple-system,&quot;SF Pro Display&quot;,&quot;SF Pro Text&quot;,Helvetica,sans-serif;text-anchor:middle;" transform="matrix(1 0 0 1 2933.4 322)">Black</text>
  <line id="" style="fill:none;stroke:black;opacity:1;stroke-width:0.5;" x1="263" x2="3036" y1="1903" y2="1903"/>
  <g id="" transform="matrix(1 0 0 1 263 1933)">
   <path d="M 9.24805 0.830078 C 13.5547 0.830078 17.1387 -2.74414 17.1387 -7.05078 C 17.1387 -11.3574 13.5449 -14.9316 9.23828 -14.9316 C 4.94141 -14.9316 1.36719 -11.3574 1.36719 -7.05078 C 1.36719 -2.74414 4.95117 0.830078 9.24805 0.830078 Z M 9.24805 -0.654297 C 5.70312 -0.654297 2.87109 -3.49609 2.87109 -7.05078 C 2.87109 -10.6055 5.69336 -13.4473 9.23828 -13.4473 C 12.793 -13.4473 15.6348 -10.6055 15.6445 -7.05078 C 15.6543 -3.49609 12.8027 -0.654297 9.24805 -0.654297 Z M 9.22852 -3.42773 C 9.69727 -3.42773 9.9707 -3.74023 9.9707 -4.25781 L 9.9707 -6.31836 L 12.1973 -6.31836 C 12.6953 -6.31836 13.0371 -6.57227 13.0371 -7.04102 C 13.0371 -7.51953 12.7148 -7.7832 12.1973 -7.7832 L 9.9707 -7.7832 L 9.9707 -10.0098 C 9.9707 -10.5273 9.69727 -10.8496 9.22852 -10.8496 C 8.75977 -10.8496 8.50586 -10.5078 8.50586 -10.0098 L 8.50586 -7.7832 L 6.29883 -7.7832 C 5.78125 -7.7832 5.44922 -7.51953 5.44922 -7.04102 C 5.44922 -6.57227 5.80078 -6.31836 6.29883 -6.31836 L 8.50586 -6.31836 L 8.50586 -4.25781 C 8.50586 -3.75977 8.75977 -3.42773 9.22852 -3.42773 Z"/>
  </g>
  <g id="" transform="matrix(1 0 0 1 281.506 1933)">
   <path d="M 11.709 2.91016 C 17.1582 2.91016 21.6699 -1.60156 21.6699 -7.05078 C 21.6699 -12.4902 17.1484 -17.0117 11.6992 -17.0117 C 6.25977 -17.0117 1.74805 -12.4902 1.74805 -7.05078 C 1.74805 -1.60156 6.26953 2.91016 11.709 2.91016 Z M 11.709 1.25 C 7.09961 1.25 3.41797 -2.44141 3.41797 -7.05078 C 3.41797 -11.6504 7.08984 -15.3516 11.6992 -15.3516 C 16.3086 -15.3516 20 -11.6504 20.0098 -7.05078 C 20.0195 -2.44141 16.3184 1.25 11.709 1.25 Z M 11.6895 -2.41211 C 12.207 -2.41211 12.5195 -2.77344 12.5195 -3.33984 L 12.5195 -6.23047 L 15.5762 -6.23047 C 16.123 -6.23047 16.5039 -6.51367 16.5039 -7.03125 C 16.5039 -7.55859 16.1426 -7.86133 15.5762 -7.86133 L 12.5195 -7.86133 L 12.5195 -10.9277 C 12.5195 -11.5039 12.207 -11.8555 11.6895 -11.8555 C 11.1719 -11.8555 10.8789 -11.4844 10.8789 -10.9277 L 10.8789 -7.86133 L 7.83203 -7.86133 C 7.26562 -7.86133 6.89453 -7.55859 6.89453 -7.03125 C 6.89453 -6.51367 7.28516 -6.23047 7.83203 -6.23047 L 10.8789 -6.23047 L 10.8789 -3.33984 C 10.8789 -2.79297 11.1719 -2.41211 11.6895 -2.41211 Z"/>
  </g>
  <g id="" transform="matrix(1 0 0 1 304.924 1933)">
   <path d="M 14.9707 5.67383 C 21.9336 5.67383 27.6953 -0.078125 27.6953 -7.04102 C 27.6953 -14.0039 21.9238 -19.7559 14.9609 -19.7559 C 8.00781 -19.7559 2.25586 -14.0039 2.25586 -7.04102 C 2.25586 -0.078125 8.01758 5.67383 14.9707 5.67383 Z M 14.9707 3.85742 C 8.93555 3.85742 4.08203 -1.00586 4.08203 -7.04102 C 4.08203 -13.0762 8.92578 -17.9395 14.9609 -17.9395 C 21.0059 -17.9395 25.8594 -13.0762 25.8691 -7.04102 C 25.8789 -1.00586 21.0156 3.85742 14.9707 3.85742 Z M 14.9512 -1.06445 C 15.5176 -1.06445 15.8691 -1.45508 15.8691 -2.06055 L 15.8691 -6.13281 L 20.1074 -6.13281 C 20.6934 -6.13281 21.1133 -6.46484 21.1133 -7.02148 C 21.1133 -7.59766 20.7227 -7.93945 20.1074 -7.93945 L 15.8691 -7.93945 L 15.8691 -12.1875 C 15.8691 -12.8027 15.5176 -13.1934 14.9512 -13.1934 C 14.3848 -13.1934 14.0625 -12.7832 14.0625 -12.1875 L 14.0625 -7.93945 L 9.83398 -7.93945 C 9.21875 -7.93945 8.80859 -7.59766 8.80859 -7.02148 C 8.80859 -6.46484 9.23828 -6.13281 9.83398 -6.13281 L 14.0625 -6.13281 L 14.0625 -2.06055 C 14.0625 -1.47461 14.3848 -1.06445 14.9512 -1.06445 Z"/>
  </g>
  <text style="stroke:none;fill:black;font-family:-apple-system,&quot;SF Pro Display&quot;,&quot;SF Pro Text&quot;,Helvetica,sans-serif;font-weight:bold;" transform="matrix(1 0 0 1 263 1953)">Design Variations</text>
  <text style="stroke:none;fill:black;font-family:-apple-system,&quot;SF Pro Display&quot;,&quot;SF Pro Text&quot;,Helvetica,sans-serif;" transform="matrix(1 0 0 1 263 1971)">Symbols are supported in up to nine weights and three scales.</text>
  <text style="stroke:none;fill:black;font-family:-apple-system,&quot;SF Pro Display&quot;,&quot;SF Pro Text&quot;,Helvetica,sans-serif;" transform="matrix(1 0 0 1 263 1989)">For optimal layout with text and other symbols, vertically align</text>
  <text style="stroke:none;fill:black;font-family:-apple-system,&quot;SF Pro Display&quot;,&quot;SF Pro Text&quot;,Helvetica,sans-serif;" transform="matrix(1 0 0 1 263 2007)">symbols with the adjacent text.</text>
  <rect height="14" id="" style="fill:#00AEEF;stroke:none;opacity:0.4;" width="3" x="776" y="1919"/>
  <g id="" transform="matrix(1 0 0 1 779 1933)">
   <path d="M 10.5273 0 L 12.373 0 L 7.17773 -14.0918 L 5.43945 -14.0918 L 0.244141 0 L 2.08984 0 L 3.50586 -4.0332 L 9.11133 -4.0332 Z M 6.2793 -11.9531 L 6.33789 -11.9531 L 8.59375 -5.52734 L 4.02344 -5.52734 Z"/>
  </g>
  <rect height="14" id="" style="fill:#00AEEF;stroke:none;opacity:0.4;" width="3" x="791.617" y="1919"/>
  <text style="stroke:none;fill:black;font-family:-apple-system,&quot;SF Pro Display&quot;,&quot;SF Pro Text&quot;,Helvetica,sans-serif;font-weight:bold;" transform="matrix(1 0 0 1 776 1953)">Margins</text>
  <text style="stroke:none;fill:black;font-family:-apple-system,&quot;SF Pro Display&quot;,&quot;SF Pro Text&quot;,Helvetica,sans-serif;" transform="matrix(1 0 0 1 776 1971)">Leading and trailing margins on the left and right side of each symbol</text>
  <text style="stroke:none;fill:black;font-family:-apple-system,&quot;SF Pro Display&quot;,&quot;SF Pro Text&quot;,Helvetica,sans-serif;" transform="matrix(1 0 0 1 776 1989)">can be adjusted by modifying the width of the blue rectangles.</text>
  <text style="stroke:none;fill:black;font-family:-apple-system,&quot;SF Pro Display&quot;,&quot;SF Pro Text&quot;,Helvetica,sans-serif;" transform="matrix(1 0 0 1 776 2007)">Modifications are automatically applied proportionally to all</text>
  <text style="stroke:none;fill:black;font-family:-apple-system,&quot;SF Pro Display&quot;,&quot;SF Pro Text&quot;,Helvetica,sans-serif;" transform="matrix(1 0 0 1 776 2025)">scales and weights.</text>
  <g id="" transform="matrix(1 0 0 1 1289 1933)">
   <path d="M 2.83203 3.11523 L 4.375 4.6582 C 5.22461 5.48828 6.19141 5.41992 7.06055 4.46289 L 17.2754 -6.66016 C 17.7051 -6.36719 18.0957 -6.37695 18.5645 -6.47461 L 19.6094 -6.68945 L 20.3027 -5.99609 L 20.2539 -5.47852 C 20.1855 -4.95117 20.3516 -4.53125 20.8496 -4.0332 L 21.6602 -3.22266 C 22.168 -2.71484 22.8223 -2.68555 23.3008 -3.16406 L 26.5527 -6.41602 C 27.0312 -6.89453 27.0117 -7.54883 26.5039 -8.05664 L 25.6836 -8.87695 C 25.1855 -9.375 24.7754 -9.55078 24.2383 -9.47266 L 23.7109 -9.41406 L 23.0566 -10.0781 L 23.3398 -11.2207 C 23.4863 -11.7871 23.3398 -12.2559 22.7148 -12.8613 L 20.3027 -15.2539 C 16.7578 -18.7793 12.2266 -18.6719 9.11133 -15.5371 C 8.69141 -15.1074 8.64258 -14.5215 8.91602 -14.0918 C 9.15039 -13.7207 9.62891 -13.4961 10.2734 -13.6621 C 11.7871 -14.043 13.3008 -13.9258 14.7852 -12.9199 L 14.1602 -11.3379 C 13.9258 -10.752 13.9453 -10.2734 14.1797 -9.83398 L 3.01758 0.439453 C 2.08008 1.30859 1.97266 2.25586 2.83203 3.11523 Z M 10.6738 -15.1465 C 13.3398 -17.1387 16.6504 -16.8262 19.0527 -14.4141 L 21.6797 -11.8066 C 21.9141 -11.5723 21.9434 -11.3867 21.8848 -11.0938 L 21.5039 -9.53125 L 23.0762 -7.95898 L 24.043 -8.04688 C 24.3262 -8.07617 24.4141 -8.05664 24.6387 -7.83203 L 25.2637 -7.20703 L 22.5098 -4.46289 L 21.8848 -5.07812 C 21.6602 -5.30273 21.6406 -5.40039 21.6699 -5.68359 L 21.7578 -6.64062 L 20.1953 -8.20312 L 18.5742 -7.89062 C 18.291 -7.83203 18.1445 -7.83203 17.9102 -8.07617 L 15.7324 -10.2539 C 15.5078 -10.4883 15.4785 -10.625 15.6055 -10.9473 L 16.5527 -13.2227 C 14.9512 -14.7559 12.8418 -15.6055 10.8008 -14.9512 C 10.7129 -14.9219 10.6445 -14.9414 10.6152 -14.9805 C 10.5859 -15.0293 10.5859 -15.0781 10.6738 -15.1465 Z M 4.10156 2.41211 C 3.61328 1.91406 3.78906 1.61133 4.12109 1.30859 L 15.0781 -8.80859 L 16.3086 -7.57812 L 6.15234 3.34961 C 5.84961 3.68164 5.46875 3.7793 5.06836 3.37891 Z"/>
  </g>
  <text style="stroke:none;fill:black;font-family:-apple-system,&quot;SF Pro Display&quot;,&quot;SF Pro Text&quot;,Helvetica,sans-serif;font-weight:bold;" transform="matrix(1 0 0 1 1289 1953)">Exporting</text>
  <text style="stroke:none;fill:black;font-family:-apple-system,&quot;SF Pro Display&quot;,&quot;SF Pro Text&quot;,Helvetica,sans-serif;" transform="matrix(1 0 0 1 1289 1971)">Symbols should be outlined when exporting to ensure the</text>
  <text style="stroke:none;fill:black;font-family:-apple-system,&quot;SF Pro Display&quot;,&quot;SF Pro Text&quot;,Helvetica,sans-serif;" transform="matrix(1 0 0 1 1289 1989)">design is preserved when submitting to Xcode.</text>
  <text id="template-version" style="stroke:none;fill:black;font-family:-apple-system,&quot;SF Pro Display&quot;,&quot;SF Pro Text&quot;,Helvetica,sans-serif;text-anchor:end;" transform="matrix(1 0 0 1 3036 1933)">Template v.1.0</text>
  <text style="stroke:none;fill:black;font-family:-apple-system,&quot;SF Pro Display&quot;,&quot;SF Pro Text&quot;,Helvetica,sans-serif;text-anchor:end;" transform="matrix(1 0 0 1 3036 1951)">Generated from e.circle.fill</text>
  <text style="stroke:none;fill:black;font-family:-apple-system,&quot;SF Pro Display&quot;,&quot;SF Pro Text&quot;,Helvetica,sans-serif;text-anchor:end;" transform="matrix(1 0 0 1 3036 1969)">Typeset at 100 points</text>
  <text style="stroke:none;fill:black;font-family:-apple-system,&quot;SF Pro Display&quot;,&quot;SF Pro Text&quot;,Helvetica,sans-serif;" transform="matrix(1 0 0 1 263 726)">Small</text>
  <text style="stroke:none;fill:black;font-family:-apple-system,&quot;SF Pro Display&quot;,&quot;SF Pro Text&quot;,Helvetica,sans-serif;" transform="matrix(1 0 0 1 263 1156)">Medium</text>
  <text style="stroke:none;fill:black;font-family:-apple-system,&quot;SF Pro Display&quot;,&quot;SF Pro Text&quot;,Helvetica,sans-serif;" transform="matrix(1 0 0 1 263 1586)">Large</text>
 </g>
 <g id="Guides">
  <g id="H-reference" style="fill:#27AAE1;stroke:none;" transform="matrix(1 0 0 1 339 696)">
   <path d="M 54.9316 0 L 57.666 0 L 30.5664 -70.459 L 28.0762 -70.459 L 0.976562 0 L 3.66211 0 L 12.9395 -24.4629 L 45.7031 -24.4629 Z M 29.1992 -67.0898 L 29.4434 -67.0898 L 44.8242 -26.709 L 13.8184 -26.709 Z"/>
  </g>
  <line id="Baseline-S" style="fill:none;stroke:#27AAE1;opacity:1;stroke-width:0.577;" x1="263" x2="3036" y1="696" y2="696"/>
  <line id="Capline-S" style="fill:none;stroke:#27AAE1;opacity:1;stroke-width:0.577;" x1="263" x2="3036" y1="625.541" y2="625.541"/>
  <g id="H-reference" style="fill:#27AAE1;stroke:none;" transform="matrix(1 0 0 1 339 1126)">
   <path d="M 54.9316 0 L 57.666 0 L 30.5664 -70.459 L 28.0762 -70.459 L 0.976562 0 L 3.66211 0 L 12.9395 -24.4629 L 45.7031 -24.4629 Z M 29.1992 -67.0898 L 29.4434 -67.0898 L 44.8242 -26.709 L 13.8184 -26.709 Z"/>
  </g>
  <line id="Baseline-M" style="fill:none;stroke:#27AAE1;opacity:1;stroke-width:0.577;" x1="263" x2="3036" y1="1126" y2="1126"/>
  <line id="Capline-M" style="fill:none;stroke:#27AAE1;opacity:1;stroke-width:0.577;" x1="263" x2="3036" y1="1055.54" y2="1055.54"/>
  <g id="H-reference" style="fill:#27AAE1;stroke:none;" transform="matrix(1 0 0 1 339 1556)">
   <path d="M 54.9316 0 L 57.666 0 L 30.5664 -70.459 L 28.0762 -70.459 L 0.976562 0 L 3.66211 0 L 12.9395 -24.4629 L 45.7031 -24.4629 Z M 29.1992 -67.0898 L 29.4434 -67.0898 L 44.8242 -26.709 L 13.8184 -26.709 Z"/>
  </g>
  <line id="Baseline-L" style="fill:none;stroke:#27AAE1;opacity:1;stroke-width:0.577;" x1="263" x2="3036" y1="1556" y2="1556"/>
  <line id="Capline-L" style="fill:none;stroke:#27AAE1;opacity:1;stroke-width:0.577;" x1="263" x2="3036" y1="1485.54" y2="1485.54"/>
  <rect height="119.336" id="left-margin" style="fill:#00AEEF;stroke:none;opacity:0.4;" width="8.74023" x="1391.3" y="1030.79"/>
  <rect height="119.336" id="right-margin" style="fill:#00AEEF;stroke:none;opacity:0.4;" width="8.74023" x="1499.65" y="1030.79"/>
 </g>
 <g id="Symbols">
  <g id="Black-L" transform="matrix(1 0 0 1 2854.05 1556)">
   <path d="M 79.3457 32.8613 C 116.748 32.8613 147.412 2.19727 147.412 -35.2051 C 147.412 -72.6074 116.748 -103.271 79.2969 -103.271 C 41.8945 -103.271 11.2793 -72.6074 11.2793 -35.2051 C 11.2793 2.19727 41.9434 32.8613 79.3457 32.8613 Z M 67.041 -6.10352 C 59.7168 -6.10352 56.0059 -10.0586 56.0059 -17.4805 L 56.0059 -53.2715 C 56.0059 -60.5957 59.7656 -64.5996 67.041 -64.5996 L 93.2129 -64.5996 C 98.4375 -64.5996 101.465 -61.8652 101.465 -57.1777 C 101.465 -52.4902 98.4375 -49.8047 93.2129 -49.8047 L 74.8047 -49.8047 L 74.8047 -41.9434 L 92.8711 -41.9434 C 97.168 -41.9434 99.8047 -39.6484 99.8047 -35.5957 C 99.8047 -31.6406 97.168 -29.3457 92.8711 -29.3457 L 74.8047 -29.3457 L 74.8047 -20.9473 L 93.2129 -20.9473 C 98.4375 -20.9473 101.465 -18.2129 101.465 -13.5254 C 101.465 -8.78906 98.4375 -6.10352 93.2129 -6.10352 Z"/>
  </g>
  <g id="Heavy-L" transform="matrix(1 0 0 1 2558.39 1556)">
   <path d="M 78.2715 31.7871 C 115.088 31.7871 145.312 1.61133 145.312 -35.2051 C 145.312 -72.0215 115.039 -102.197 78.2715 -102.197 C 41.4551 -102.197 11.2793 -72.0215 11.2793 -35.2051 C 11.2793 1.61133 41.5039 31.7871 78.2715 31.7871 Z M 65.2344 -6.05469 C 58.9355 -6.05469 55.7617 -9.52148 55.7617 -15.918 L 55.7617 -54.9805 C 55.7617 -61.2793 58.9844 -64.8438 65.2344 -64.8438 L 92.6758 -64.8438 C 97.168 -64.8438 99.9023 -62.4512 99.9023 -58.3008 C 99.9023 -54.1504 97.168 -51.7578 92.6758 -51.7578 L 72.2656 -51.7578 L 72.2656 -41.4062 L 91.9922 -41.4062 C 95.8008 -41.4062 98.1934 -39.3555 98.1934 -35.7422 C 98.1934 -32.1777 95.8008 -30.127 91.9922 -30.127 L 72.2656 -30.127 L 72.2656 -19.1406 L 92.6758 -19.1406 C 97.168 -19.1406 99.9023 -16.6992 99.9023 -12.5977 C 99.9023 -8.44727 97.168 -6.05469 92.6758 -6.05469 Z"/>
  </g>
  <g id="Bold-L" transform="matrix(1 0 0 1 2262.88 1556)">
   <path d="M 77.0996 30.6152 C 113.232 30.6152 142.92 0.878906 142.92 -35.2051 C 142.92 -71.3379 113.184 -101.025 77.0508 -101.025 C 40.9668 -101.025 11.2793 -71.3379 11.2793 -35.2051 C 11.2793 0.878906 41.0156 30.6152 77.0996 30.6152 Z M 63.1836 -5.95703 C 58.1055 -5.95703 55.4688 -8.93555 55.4688 -14.1602 L 55.4688 -56.8848 C 55.4688 -62.1094 58.1543 -65.1367 63.1836 -65.1367 L 92.041 -65.1367 C 95.8008 -65.1367 98.0957 -63.0371 98.0957 -59.5215 C 98.0957 -56.0547 95.8008 -53.9551 92.041 -53.9551 L 69.4336 -53.9551 L 69.4336 -40.8691 L 91.0156 -40.8691 C 94.3359 -40.8691 96.4355 -39.0625 96.4355 -35.8887 C 96.4355 -32.8125 94.3359 -30.957 91.0156 -30.957 L 69.4336 -30.957 L 69.4336 -17.1387 L 92.041 -17.1387 C 95.8008 -17.1387 98.0957 -15.0391 98.0957 -11.5234 C 98.0957 -8.00781 95.8008 -5.95703 92.041 -5.95703 Z"/>
  </g>
  <g id="Semibold-L" transform="matrix(1 0 0 1 1966.97 1556)">
   <path d="M 76.2695 29.7852 C 111.914 29.7852 141.309 0.439453 141.309 -35.2051 C 141.309 -70.8496 111.865 -100.244 76.2695 -100.244 C 40.625 -100.244 11.2793 -70.8496 11.2793 -35.2051 C 11.2793 0.439453 40.6738 29.7852 76.2695 29.7852 Z M 61.8164 -5.9082 C 57.5195 -5.9082 55.2734 -8.54492 55.2734 -12.9883 L 55.2734 -58.252 C 55.2734 -62.6465 57.5684 -65.2832 61.8164 -65.2832 L 91.6504 -65.2832 C 94.8242 -65.2832 96.875 -63.4766 96.875 -60.4004 C 96.875 -57.373 94.8242 -55.4688 91.6504 -55.4688 L 67.4805 -55.4688 L 67.4805 -40.4785 L 90.3809 -40.4785 C 93.2617 -40.4785 95.166 -38.8672 95.166 -35.9863 C 95.166 -33.2031 93.2617 -31.543 90.3809 -31.543 L 67.4805 -31.543 L 67.4805 -15.7227 L 91.6504 -15.7227 C 94.8242 -15.7227 96.875 -13.8672 96.875 -10.791 C 96.875 -7.76367 94.8242 -5.9082 91.6504 -5.9082 Z"/>
  </g>
  <g id="Medium-L" transform="matrix(1 0 0 1 1670.87 1556)">
   <path d="M 75.6836 29.1992 C 110.938 29.1992 140.088 0.0488281 140.088 -35.2051 C 140.088 -70.459 110.889 -99.6094 75.6348 -99.6094 C 40.3809 -99.6094 11.2793 -70.459 11.2793 -35.2051 C 11.2793 0.0488281 40.3809 29.1992 75.6836 29.1992 Z M 60.7422 -5.85938 C 57.0801 -5.85938 55.127 -8.25195 55.127 -12.0605 L 55.127 -59.2285 C 55.127 -63.0371 57.0801 -65.4297 60.7422 -65.4297 L 91.3086 -65.4297 C 94.0918 -65.4297 95.9473 -63.8184 95.9473 -61.0352 C 95.9473 -58.3496 94.0918 -56.5918 91.3086 -56.5918 L 65.9668 -56.5918 L 65.9668 -40.1855 L 89.8438 -40.1855 C 92.4805 -40.1855 94.2383 -38.7207 94.2383 -36.084 C 94.2383 -33.4961 92.4805 -32.0312 89.8438 -32.0312 L 65.9668 -32.0312 L 65.9668 -14.6973 L 91.3086 -14.6973 C 94.0918 -14.6973 95.9473 -12.9883 95.9473 -10.2539 C 95.9473 -7.51953 94.0918 -5.85938 91.3086 -5.85938 Z"/>
  </g>
  <g id="Regular-L" transform="matrix(1 0 0 1 1374.97 1556)">
   <path d="M 74.8535 28.3691 C 109.668 28.3691 138.477 -0.390625 138.477 -35.2051 C 138.477 -70.0195 109.619 -98.7793 74.8047 -98.7793 C 40.0391 -98.7793 11.2793 -70.0195 11.2793 -35.2051 C 11.2793 -0.390625 40.0879 28.3691 74.8535 28.3691 Z M 59.375 -5.76172 C 56.543 -5.76172 54.9316 -7.86133 54.9316 -10.8887 L 54.9316 -60.5469 C 54.9316 -63.5742 56.543 -65.625 59.375 -65.625 L 90.8691 -65.625 C 93.1641 -65.625 94.7266 -64.209 94.7266 -61.8652 C 94.7266 -59.6191 93.1641 -58.1055 90.8691 -58.1055 L 64.0625 -58.1055 L 64.0625 -39.8438 L 89.209 -39.8438 C 91.4551 -39.8438 93.0176 -38.5254 93.0176 -36.1816 C 93.0176 -33.9355 91.4551 -32.6172 89.209 -32.6172 L 64.0625 -32.6172 L 64.0625 -13.3301 L 90.8691 -13.3301 C 93.1641 -13.3301 94.7266 -11.8164 94.7266 -9.52148 C 94.7266 -7.22656 93.1641 -5.76172 90.8691 -5.76172 Z"/>
  </g>
  <g id="Light-L" transform="matrix(1 0 0 1 1079.18 1556)">
   <path d="M 73.9258 27.4902 C 108.301 27.4902 136.621 -0.830078 136.621 -35.1562 C 136.621 -69.5312 108.252 -97.8516 73.9258 -97.8516 C 39.5508 -97.8516 11.2793 -69.5312 11.2793 -35.1562 C 11.2793 -0.830078 39.5996 27.4902 73.9258 27.4902 Z M 58.1543 -5.9082 C 56.0059 -5.9082 54.7852 -7.4707 54.7852 -9.81445 L 54.7852 -61.2305 C 54.7852 -63.5742 56.0059 -65.1367 58.1543 -65.1367 L 90.0391 -65.1367 C 91.8457 -65.1367 93.0664 -63.9648 93.0664 -62.1582 C 93.0664 -60.4492 91.8457 -59.1797 90.0391 -59.1797 L 61.8652 -59.1797 L 61.8652 -39.0137 L 88.3789 -39.0137 C 90.2344 -39.0137 91.4062 -37.8906 91.4062 -36.084 C 91.4062 -34.375 90.2344 -33.2031 88.3789 -33.2031 L 61.8652 -33.2031 L 61.8652 -11.8652 L 90.0391 -11.8652 C 91.8457 -11.8652 93.0664 -10.5957 93.0664 -8.88672 C 93.0664 -7.08008 91.8457 -5.9082 90.0391 -5.9082 Z"/>
  </g>
  <g id="Thin-L" transform="matrix(1 0 0 1 783.693 1556)">
   <path d="M 72.7051 26.3184 C 106.494 26.3184 134.18 -1.36719 134.18 -35.1074 C 134.18 -68.8965 106.494 -96.582 72.7051 -96.582 C 38.9648 -96.582 11.2793 -68.8965 11.2793 -35.1074 C 11.2793 -1.36719 38.9648 26.3184 72.7051 26.3184 Z M 56.5918 -6.05469 C 55.3711 -6.05469 54.5898 -6.93359 54.5898 -8.39844 L 54.5898 -62.1094 C 54.5898 -63.5742 55.3711 -64.4531 56.5918 -64.4531 L 88.8672 -64.4531 C 90.1367 -64.4531 90.8203 -63.6719 90.8203 -62.5 C 90.8203 -61.5234 90.1367 -60.5469 88.8672 -60.5469 L 58.9355 -60.5469 L 58.9355 -37.8906 L 87.3047 -37.8906 C 88.5742 -37.8906 89.3066 -37.1094 89.3066 -35.9375 C 89.3066 -34.9609 88.5742 -34.0332 87.3047 -34.0332 L 58.9355 -34.0332 L 58.9355 -9.96094 L 88.8672 -9.96094 C 90.1367 -9.96094 90.8203 -8.98438 90.8203 -8.00781 C 90.8203 -6.83594 90.1367 -6.05469 88.8672 -6.05469 Z"/>
  </g>
  <g id="Ultralight-L" transform="matrix(1 0 0 1 487.616 1556)">
   <path d="M 72.1191 25.7324 C 105.566 25.7324 132.91 -1.61133 132.91 -35.1074 C 132.91 -68.5547 105.566 -95.8984 72.1191 -95.8984 C 38.623 -95.8984 11.2793 -68.5547 11.2793 -35.1074 C 11.2793 -1.61133 38.623 25.7324 72.1191 25.7324 Z M 55.7617 -6.10352 C 55.0293 -6.10352 54.4922 -6.68945 54.4922 -7.66602 L 54.4922 -62.5977 C 54.4922 -63.5742 55.0293 -64.1602 55.7617 -64.1602 L 88.2812 -64.1602 C 89.2578 -64.1602 89.6973 -63.4766 89.6973 -62.6953 C 89.6973 -62.0605 89.2578 -61.2793 88.2812 -61.2793 L 57.4219 -61.2793 L 57.4219 -37.3535 L 86.7676 -37.3535 C 87.7441 -37.3535 88.1836 -36.6699 88.1836 -35.8887 C 88.1836 -35.2539 87.7441 -34.4238 86.7676 -34.4238 L 57.4219 -34.4238 L 57.4219 -8.98438 L 88.2812 -8.98438 C 89.2578 -8.98438 89.6973 -8.1543 89.6973 -7.56836 C 89.6973 -6.73828 89.2578 -6.10352 88.2812 -6.10352 Z"/>
  </g>
  <g id="Black-M" transform="matrix(1 0 0 1 2870.97 1126)">
   <path d="M 62.4023 18.457 C 91.9922 18.457 116.113 -5.61523 116.113 -35.2051 C 116.113 -64.7949 91.9922 -88.8672 62.4023 -88.8672 C 32.8125 -88.8672 8.74023 -64.7949 8.74023 -35.2051 C 8.74023 -5.61523 32.8125 18.457 62.4023 18.457 Z M 53.7598 -12.8418 C 47.0215 -12.8418 43.6523 -16.2109 43.6523 -22.998 L 43.6523 -47.2656 C 43.6523 -53.9551 47.0703 -57.4219 53.7598 -57.4219 L 72.5098 -57.4219 C 77.2461 -57.4219 79.8828 -55.0293 79.8828 -50.9277 C 79.8828 -46.7773 77.2461 -44.4336 72.5098 -44.4336 L 60.2051 -44.4336 L 60.2051 -40.625 L 72.7051 -40.625 C 76.4648 -40.625 78.6621 -38.6719 78.6621 -35.3027 C 78.6621 -31.9824 76.4648 -29.9805 72.7051 -29.9805 L 60.2051 -29.9805 L 60.2051 -25.7812 L 72.5098 -25.7812 C 77.2461 -25.7812 79.8828 -23.3887 79.8828 -19.3359 C 79.8828 -15.1855 77.2461 -12.8418 72.5098 -12.8418 Z"/>
  </g>
  <g id="Heavy-M" transform="matrix(1 0 0 1 2575.19 1126)">
   <path d="M 61.5234 17.5781 C 90.5273 17.5781 114.258 -6.15234 114.258 -35.2051 C 114.258 -64.2578 90.5273 -87.9883 61.4746 -87.9883 C 32.4707 -87.9883 8.74023 -64.2578 8.74023 -35.2051 C 8.74023 -6.15234 32.4707 17.5781 61.5234 17.5781 Z M 52.0996 -12.7441 C 46.3379 -12.7441 43.4082 -15.7715 43.4082 -21.582 L 43.4082 -48.9746 C 43.4082 -54.6875 46.3867 -57.8125 52.0996 -57.8125 L 72.168 -57.8125 C 76.2207 -57.8125 78.6133 -55.6641 78.6133 -52.0508 C 78.6133 -48.3887 76.2207 -46.2891 72.168 -46.2891 L 58.0078 -46.2891 L 58.0078 -40.332 L 71.9727 -40.332 C 75.293 -40.332 77.2949 -38.5742 77.2949 -35.4492 C 77.2949 -32.4707 75.293 -30.6641 71.9727 -30.6641 L 58.0078 -30.6641 L 58.0078 -24.2188 L 72.168 -24.2188 C 76.2207 -24.2188 78.6133 -22.0703 78.6133 -18.457 C 78.6133 -14.7949 76.2207 -12.7441 72.168 -12.7441 Z"/>
  </g>
  <g id="Bold-M" transform="matrix(1 0 0 1 2279.5 1126)">
   <path d="M 60.498 16.5039 C 88.8672 16.5039 112.207 -6.78711 112.207 -35.2051 C 112.207 -63.623 88.8672 -86.9629 60.4492 -86.9629 C 32.0312 -86.9629 8.74023 -63.623 8.74023 -35.2051 C 8.74023 -6.78711 32.0801 16.5039 60.498 16.5039 Z M 50.2441 -12.5977 C 45.5566 -12.5977 43.1641 -15.2344 43.1641 -19.9707 L 43.1641 -50.8789 C 43.1641 -55.5664 45.5566 -58.252 50.2441 -58.252 L 71.7285 -58.252 C 75.0977 -58.252 77.1484 -56.3965 77.1484 -53.3203 C 77.1484 -50.2441 75.0977 -48.3887 71.7285 -48.3887 L 55.5664 -48.3887 L 55.5664 -39.9414 L 71.1426 -39.9414 C 74.0234 -39.9414 75.8301 -38.4277 75.8301 -35.6445 C 75.8301 -32.959 74.0234 -31.3965 71.1426 -31.3965 L 55.5664 -31.3965 L 55.5664 -22.4121 L 71.7285 -22.4121 C 75.0977 -22.4121 77.1484 -20.6055 77.1484 -17.5293 C 77.1484 -14.4043 75.0977 -12.5977 71.7285 -12.5977 Z"/>
  </g>
  <g id="Semibold-M" transform="matrix(1 0 0 1 1983.5 1126)">
   <path d="M 59.7656 15.8203 C 87.7441 15.8203 110.791 -7.22656 110.791 -35.2051 C 110.791 -63.1836 87.6953 -86.2793 59.7656 -86.2793 C 31.7871 -86.2793 8.74023 -63.1836 8.74023 -35.2051 C 8.74023 -7.22656 31.7871 15.8203 59.7656 15.8203 Z M 48.9258 -12.5 C 45.0195 -12.5 42.9688 -14.8438 42.9688 -18.8965 L 42.9688 -52.1484 C 42.9688 -56.1523 45.0195 -58.5449 48.9258 -58.5449 L 71.4355 -58.5449 C 74.3164 -58.5449 76.123 -56.9336 76.123 -54.1992 C 76.123 -51.4648 74.3164 -49.8535 71.4355 -49.8535 L 53.8574 -49.8535 L 53.8574 -39.6973 L 70.5566 -39.6973 C 73.1445 -39.6973 74.8047 -38.2812 74.8047 -35.791 C 74.8047 -33.3496 73.1445 -31.9336 70.5566 -31.9336 L 53.8574 -31.9336 L 53.8574 -21.1914 L 71.4355 -21.1914 C 74.3164 -21.1914 76.123 -19.5801 76.123 -16.8457 C 76.123 -14.1113 74.3164 -12.5 71.4355 -12.5 Z"/>
  </g>
  <g id="Medium-M" transform="matrix(1 0 0 1 1687.3 1126)">
   <path d="M 59.2285 15.2832 C 86.9141 15.2832 109.766 -7.56836 109.766 -35.2051 C 109.766 -62.8906 86.8652 -85.7422 59.1797 -85.7422 C 31.543 -85.7422 8.74023 -62.8906 8.74023 -35.2051 C 8.74023 -7.56836 31.5918 15.2832 59.2285 15.2832 Z M 47.9492 -12.4512 C 44.6289 -12.4512 42.8223 -14.5996 42.8223 -18.0664 L 42.8223 -53.1738 C 42.8223 -56.5918 44.6289 -58.7891 47.9492 -58.7891 L 71.1914 -58.7891 C 73.6816 -58.7891 75.3906 -57.3242 75.3906 -54.834 C 75.3906 -52.4414 73.6816 -50.9277 71.1914 -50.9277 L 52.5391 -50.9277 L 52.5391 -39.502 L 70.166 -39.502 C 72.4609 -39.502 74.0234 -38.2324 74.0234 -35.8887 C 74.0234 -33.5938 72.4609 -32.3242 70.166 -32.3242 L 52.5391 -32.3242 L 52.5391 -20.2637 L 71.1914 -20.2637 C 73.6816 -20.2637 75.3906 -18.7988 75.3906 -16.3574 C 75.3906 -13.916 73.6816 -12.4512 71.1914 -12.4512 Z"/>
  </g>
  <g id="Regular-M" transform="matrix(1 0 0 1 1391.3 1126)">
   <path d="M 58.5449 14.5508 C 85.791 14.5508 108.35 -8.00781 108.35 -35.2539 C 108.35 -62.4512 85.7422 -85.0586 58.4961 -85.0586 C 31.2988 -85.0586 8.74023 -62.4512 8.74023 -35.2539 C 8.74023 -8.00781 31.3477 14.5508 58.5449 14.5508 Z M 46.6797 -12.3535 C 44.0918 -12.3535 42.6758 -14.209 42.6758 -16.9434 L 42.6758 -54.4434 C 42.6758 -57.1777 44.0918 -59.082 46.6797 -59.082 L 70.9473 -59.082 C 72.9004 -59.082 74.3652 -57.8125 74.3652 -55.7129 C 74.3652 -53.6621 72.9004 -52.3438 70.9473 -52.3438 L 50.8789 -52.3438 L 50.8789 -39.2578 L 69.5801 -39.2578 C 71.582 -39.2578 72.998 -38.1348 72.998 -35.9863 C 72.998 -33.9844 71.582 -32.8613 69.5801 -32.8613 L 50.8789 -32.8613 L 50.8789 -19.043 L 70.9473 -19.043 C 72.9004 -19.043 74.3652 -17.7734 74.3652 -15.7227 C 74.3652 -13.623 72.9004 -12.3535 70.9473 -12.3535 Z"/>
  </g>
  <g id="Light-M" transform="matrix(1 0 0 1 1095.42 1126)">
   <path d="M 57.7148 13.7695 C 84.5215 13.7695 106.689 -8.39844 106.689 -35.2051 C 106.689 -62.0117 84.5215 -84.1797 57.666 -84.1797 C 30.8594 -84.1797 8.74023 -62.0117 8.74023 -35.2051 C 8.74023 -8.39844 30.9082 13.7695 57.7148 13.7695 Z M 45.6055 -12.4512 C 43.6523 -12.4512 42.5293 -13.8672 42.5293 -16.0156 L 42.5293 -55.0781 C 42.5293 -57.1777 43.6523 -58.6426 45.6055 -58.6426 L 70.166 -58.6426 C 71.7773 -58.6426 72.8516 -57.6172 72.8516 -55.957 C 72.8516 -54.3945 71.7773 -53.3203 70.166 -53.3203 L 48.9258 -53.3203 L 48.9258 -38.5254 L 68.8477 -38.5254 C 70.459 -38.5254 71.582 -37.5488 71.582 -35.9375 C 71.582 -34.375 70.459 -33.3984 68.8477 -33.3984 L 48.9258 -33.3984 L 48.9258 -17.7734 L 70.166 -17.7734 C 71.7773 -17.7734 72.8516 -16.6992 72.8516 -15.0879 C 72.8516 -13.4766 71.7773 -12.4512 70.166 -12.4512 Z"/>
  </g>
  <g id="Thin-M" transform="matrix(1 0 0 1 799.806 1126)">
   <path d="M 56.6406 12.7441 C 82.9102 12.7441 104.492 -8.83789 104.492 -35.1562 C 104.492 -61.4746 82.9102 -83.0566 56.5918 -83.0566 C 30.3223 -83.0566 8.74023 -61.4746 8.74023 -35.1562 C 8.74023 -8.83789 30.3223 12.7441 56.6406 12.7441 Z M 44.1895 -12.5977 C 43.0664 -12.5977 42.334 -13.4277 42.334 -14.7461 L 42.334 -55.8594 C 42.334 -57.1777 43.0664 -58.0566 44.1895 -58.0566 L 69.1406 -58.0566 C 70.2148 -58.0566 70.8984 -57.3242 70.8984 -56.2988 C 70.8984 -55.3711 70.2148 -54.541 69.1406 -54.541 L 46.2891 -54.541 L 46.2891 -37.5488 L 67.9199 -37.5488 C 68.9941 -37.5488 69.6777 -36.8652 69.6777 -35.791 C 69.6777 -34.9121 68.9941 -34.1309 67.9199 -34.1309 L 46.2891 -34.1309 L 46.2891 -16.0645 L 69.1406 -16.0645 C 70.2148 -16.0645 70.8984 -15.2344 70.8984 -14.3066 C 70.8984 -13.2812 70.2148 -12.5977 69.1406 -12.5977 Z"/>
  </g>
  <g id="Ultralight-M" transform="matrix(1 0 0 1 503.656 1126)">
   <path d="M 56.0547 12.207 C 82.0801 12.207 103.369 -9.08203 103.369 -35.1562 C 103.369 -61.1816 82.0801 -82.4707 56.0547 -82.4707 C 30.0293 -82.4707 8.74023 -61.1816 8.74023 -35.1562 C 8.74023 -9.08203 30.0293 12.207 56.0547 12.207 Z M 43.457 -12.6465 C 42.7246 -12.6465 42.2852 -13.1836 42.2852 -14.0625 L 42.2852 -56.2988 C 42.2852 -57.1777 42.7246 -57.7148 43.457 -57.7148 L 68.6035 -57.7148 C 69.4336 -57.7148 69.873 -57.1777 69.873 -56.4453 C 69.873 -55.8594 69.4336 -55.1758 68.6035 -55.1758 L 44.9707 -55.1758 L 44.9707 -37.0117 L 67.4316 -37.0117 C 68.2617 -37.0117 68.7012 -36.4746 68.7012 -35.7422 C 68.7012 -35.1562 68.2617 -34.4727 67.4316 -34.4727 L 44.9707 -34.4727 L 44.9707 -15.1855 L 68.6035 -15.1855 C 69.4336 -15.1855 69.873 -14.502 69.873 -13.916 C 69.873 -13.1836 69.4336 -12.6465 68.6035 -12.6465 Z"/>
  </g>
  <g id="Black-S" transform="matrix(1 0 0 1 2884.57 696)">
   <path d="M 48.8281 6.78711 C 71.9727 6.78711 90.8203 -12.0605 90.8203 -35.2051 C 90.8203 -58.3496 71.9727 -77.1973 48.8281 -77.1973 C 25.6836 -77.1973 6.83594 -58.3496 6.83594 -35.2051 C 6.83594 -12.0605 25.6836 6.78711 48.8281 6.78711 Z M 41.9922 -17.6758 C 36.7676 -17.6758 34.1797 -20.3125 34.1797 -25.5371 L 34.1797 -44.7754 C 34.1797 -49.9512 36.8164 -52.6367 41.9922 -52.6367 L 56.7871 -52.6367 C 60.4492 -52.6367 62.5 -50.7812 62.5 -47.6074 C 62.5 -44.3848 60.4492 -42.5781 56.7871 -42.5781 L 47.0215 -42.5781 L 47.0215 -39.4531 L 56.8848 -39.4531 C 59.8145 -39.4531 61.5234 -37.9395 61.5234 -35.3027 C 61.5234 -32.7148 59.8145 -31.1523 56.8848 -31.1523 L 47.0215 -31.1523 L 47.0215 -27.7344 L 56.7871 -27.7344 C 60.4492 -27.7344 62.5 -25.8789 62.5 -22.7051 C 62.5 -19.4824 60.4492 -17.6758 56.7871 -17.6758 Z"/>
  </g>
  <g id="Heavy-S" transform="matrix(1 0 0 1 2588.47 696)">
   <path d="M 48.2422 6.15234 C 70.9961 6.15234 89.5996 -12.4512 89.5996 -35.2051 C 89.5996 -57.959 70.9961 -76.6113 48.1934 -76.6113 C 25.4395 -76.6113 6.83594 -57.959 6.83594 -35.2051 C 6.83594 -12.4512 25.4395 6.15234 48.2422 6.15234 Z M 40.8203 -17.5781 C 36.2793 -17.5781 34.0332 -19.9707 34.0332 -24.5605 L 34.0332 -45.9961 C 34.0332 -50.5371 36.3281 -52.9785 40.8203 -52.9785 L 56.5918 -52.9785 C 59.8145 -52.9785 61.6699 -51.3184 61.6699 -48.4375 C 61.6699 -45.5566 59.8145 -43.8965 56.5918 -43.8965 L 45.5566 -43.8965 L 45.5566 -39.3066 L 56.3965 -39.3066 C 59.082 -39.3066 60.6445 -37.8906 60.6445 -35.4492 C 60.6445 -33.0078 59.082 -31.5918 56.3965 -31.5918 L 45.5566 -31.5918 L 45.5566 -26.6602 L 56.5918 -26.6602 C 59.8145 -26.6602 61.6699 -25 61.6699 -22.1191 C 61.6699 -19.2383 59.8145 -17.5781 56.5918 -17.5781 Z"/>
  </g>
  <g id="Bold-S" transform="matrix(1 0 0 1 2292.44 696)">
   <path d="M 47.5586 5.46875 C 69.873 5.46875 88.2324 -12.8906 88.2324 -35.2051 C 88.2324 -57.5684 69.873 -75.9277 47.5098 -75.9277 C 25.1953 -75.9277 6.83594 -57.5684 6.83594 -35.2051 C 6.83594 -12.8906 25.1953 5.46875 47.5586 5.46875 Z M 39.5508 -17.4805 C 35.7422 -17.4805 33.8379 -19.6289 33.8379 -23.4375 L 33.8379 -47.3633 C 33.8379 -51.2207 35.791 -53.3691 39.5508 -53.3691 L 56.3477 -53.3691 C 59.082 -53.3691 60.7422 -51.9043 60.7422 -49.3652 C 60.7422 -46.875 59.082 -45.4102 56.3477 -45.4102 L 43.8965 -45.4102 L 43.8965 -39.1113 L 55.8594 -39.1113 C 58.2031 -39.1113 59.7168 -37.8418 59.7168 -35.5957 C 59.7168 -33.3984 58.2031 -32.1289 55.8594 -32.1289 L 43.8965 -32.1289 L 43.8965 -25.4395 L 56.3477 -25.4395 C 59.082 -25.4395 60.7422 -23.9746 60.7422 -21.4844 C 60.7422 -18.9453 59.082 -17.4805 56.3477 -17.4805 Z"/>
  </g>
  <g id="Semibold-S" transform="matrix(1 0 0 1 1996.2 696)">
   <path d="M 47.0703 4.98047 C 69.0918 4.98047 87.3047 -13.1836 87.3047 -35.2539 C 87.3047 -57.2754 69.0918 -75.4883 47.0215 -75.4883 C 25 -75.4883 6.83594 -57.2754 6.83594 -35.2539 C 6.83594 -13.1836 25.0488 4.98047 47.0703 4.98047 Z M 38.6719 -17.3828 C 35.4004 -17.3828 33.6914 -19.3848 33.6914 -22.7051 L 33.6914 -48.3398 C 33.6914 -51.6602 35.4004 -53.6621 38.6719 -53.6621 L 56.2012 -53.6621 C 58.5449 -53.6621 60.1074 -52.3438 60.1074 -50.0488 C 60.1074 -47.7539 58.5449 -46.3867 56.2012 -46.3867 L 42.7734 -46.3867 L 42.7734 -38.9648 L 55.5176 -38.9648 C 57.6172 -38.9648 59.0332 -37.793 59.0332 -35.6934 C 59.0332 -33.6426 57.6172 -32.4707 55.5176 -32.4707 L 42.7734 -32.4707 L 42.7734 -24.6582 L 56.2012 -24.6582 C 58.5449 -24.6582 60.1074 -23.291 60.1074 -20.9961 C 60.1074 -18.75 58.5449 -17.3828 56.2012 -17.3828 Z"/>
  </g>
  <g id="Medium-S" transform="matrix(1 0 0 1 1699.83 696)">
   <path d="M 46.7285 4.63867 C 68.5547 4.63867 86.6211 -13.4277 86.6211 -35.2539 C 86.6211 -57.0312 68.5059 -75.1465 46.6797 -75.1465 C 24.8535 -75.1465 6.83594 -57.0312 6.83594 -35.2539 C 6.83594 -13.4277 24.9023 4.63867 46.7285 4.63867 Z M 37.9883 -17.334 C 35.1074 -17.334 33.5938 -19.1895 33.5938 -22.1191 L 33.5938 -49.0723 C 33.5938 -52.002 35.1074 -53.8574 37.9883 -53.8574 L 56.1035 -53.8574 C 58.2031 -53.8574 59.6191 -52.6367 59.6191 -50.5371 C 59.6191 -48.4375 58.2031 -47.168 56.1035 -47.168 L 41.9434 -47.168 L 41.9434 -38.8672 L 55.2246 -38.8672 C 57.1777 -38.8672 58.5449 -37.793 58.5449 -35.791 C 58.5449 -33.7891 57.1777 -32.7637 55.2246 -32.7637 L 41.9434 -32.7637 L 41.9434 -24.0234 L 56.1035 -24.0234 C 58.2031 -24.0234 59.6191 -22.7539 59.6191 -20.6543 C 59.6191 -18.6035 58.2031 -17.334 56.1035 -17.334 Z"/>
  </g>
  <g id="Regular-S" transform="matrix(1 0 0 1 1403.58 696)">
   <path d="M 46.2402 4.15039 C 67.7734 4.15039 85.6934 -13.7207 85.6934 -35.2539 C 85.6934 -56.7871 67.7246 -74.6582 46.1914 -74.6582 C 24.707 -74.6582 6.83594 -56.7871 6.83594 -35.2539 C 6.83594 -13.7207 24.7559 4.15039 46.2402 4.15039 Z M 37.1094 -17.2363 C 34.7656 -17.2363 33.4961 -18.9453 33.4961 -21.3867 L 33.4961 -50 C 33.4961 -52.4414 34.7656 -54.1504 37.1094 -54.1504 L 55.957 -54.1504 C 57.666 -54.1504 58.9844 -53.0273 58.9844 -51.1719 C 58.9844 -49.3164 57.666 -48.1934 55.957 -48.1934 L 40.8203 -48.1934 L 40.8203 -38.7695 L 54.8828 -38.7695 C 56.5918 -38.7695 57.8613 -37.7441 57.8613 -35.8887 C 57.8613 -34.0332 56.5918 -33.1055 54.8828 -33.1055 L 40.8203 -33.1055 L 40.8203 -23.1934 L 55.957 -23.1934 C 57.666 -23.1934 58.9844 -22.1191 58.9844 -20.2148 C 58.9844 -18.4082 57.666 -17.2363 55.957 -17.2363 Z"/>
  </g>
  <g id="Light-S" transform="matrix(1 0 0 1 1107.6 696)">
   <path d="M 45.5078 3.4668 C 66.6992 3.4668 84.2285 -14.0625 84.2285 -35.2051 C 84.2285 -56.3965 66.6504 -73.9258 45.5078 -73.9258 C 24.3164 -73.9258 6.83594 -56.3965 6.83594 -35.2051 C 6.83594 -14.0625 24.3652 3.4668 45.5078 3.4668 Z M 36.1328 -17.334 C 34.3262 -17.334 33.3496 -18.6523 33.3496 -20.5566 L 33.3496 -50.5371 C 33.3496 -52.4414 34.3262 -53.7109 36.1328 -53.7109 L 55.2246 -53.7109 C 56.6406 -53.7109 57.666 -52.832 57.666 -51.3672 C 57.666 -50 56.6406 -49.0234 55.2246 -49.0234 L 39.0625 -49.0234 L 39.0625 -38.0859 L 54.1992 -38.0859 C 55.6152 -38.0859 56.5918 -37.2559 56.5918 -35.791 C 56.5918 -34.375 55.6152 -33.5938 54.1992 -33.5938 L 39.0625 -33.5938 L 39.0625 -22.0215 L 55.2246 -22.0215 C 56.6406 -22.0215 57.666 -21.1426 57.666 -19.6777 C 57.666 -18.2617 56.6406 -17.334 55.2246 -17.334 Z"/>
  </g>
  <g id="Thin-S" transform="matrix(1 0 0 1 811.867 696)">
   <path d="M 44.5801 2.53906 C 65.2832 2.53906 82.2754 -14.4531 82.2754 -35.2051 C 82.2754 -55.9082 65.2344 -72.9004 44.5312 -72.9004 C 23.8281 -72.9004 6.83594 -55.9082 6.83594 -35.2051 C 6.83594 -14.4531 23.877 2.53906 44.5801 2.53906 Z M 34.8633 -17.4316 C 33.8379 -17.4316 33.2031 -18.2129 33.2031 -19.4336 L 33.2031 -51.2695 C 33.2031 -52.4414 33.8379 -53.2227 34.8633 -53.2227 L 54.3457 -53.2227 C 55.3223 -53.2227 55.9082 -52.5879 55.9082 -51.6602 C 55.9082 -50.8301 55.3223 -50.1465 54.3457 -50.1465 L 36.7676 -50.1465 L 36.7676 -37.207 L 53.3691 -37.207 C 54.3457 -37.207 54.9316 -36.6211 54.9316 -35.6934 C 54.9316 -34.8633 54.3457 -34.2285 53.3691 -34.2285 L 36.7676 -34.2285 L 36.7676 -20.5566 L 54.3457 -20.5566 C 55.3223 -20.5566 55.9082 -19.873 55.9082 -18.9941 C 55.9082 -18.0664 55.3223 -17.4316 54.3457 -17.4316 Z"/>
  </g>
  <g id="Ultralight-S" transform="matrix(1 0 0 1 515.644 696)">
   <path d="M 44.043 2.05078 C 64.502 2.05078 81.2988 -14.6973 81.2988 -35.1562 C 81.2988 -55.6152 64.502 -72.3633 44.043 -72.3633 C 23.584 -72.3633 6.83594 -55.6152 6.83594 -35.1562 C 6.83594 -14.6973 23.584 2.05078 44.043 2.05078 Z M 34.2285 -17.5293 C 33.5449 -17.5293 33.1055 -18.0176 33.1055 -18.8477 L 33.1055 -51.6113 C 33.1055 -52.4414 33.5449 -52.9297 34.2285 -52.9297 L 53.8574 -52.9297 C 54.5898 -52.9297 54.9805 -52.4902 54.9805 -51.8066 C 54.9805 -51.2695 54.5898 -50.6836 53.8574 -50.6836 L 35.5957 -50.6836 L 35.5957 -36.7676 L 52.9297 -36.7676 C 53.6621 -36.7676 54.0527 -36.3281 54.0527 -35.6445 C 54.0527 -35.1074 53.6621 -34.5215 52.9297 -34.5215 L 35.5957 -34.5215 L 35.5957 -19.7754 L 53.8574 -19.7754 C 54.5898 -19.7754 54.9805 -19.1895 54.9805 -18.6523 C 54.9805 -17.9688 54.5898 -17.5293 53.8574 -17.5293 Z"/>
  </g>
 </g>
</svg>
