<?xml version="1.0" encoding="UTF-8"?>
<!--Generator: Apple Native CoreSVG 123-->
<!DOCTYPE svg
PUBLIC "-//W3C//DTD SVG 1.1//EN"
       "http://www.w3.org/Graphics/SVG/1.1/DTD/svg11.dtd">
<svg version="1.1" xmlns="http://www.w3.org/2000/svg" xmlns:xlink="http://www.w3.org/1999/xlink" width="3300" height="2200">
 <!--glyph: "uni100005.medium", point size: 100.000000, font version: "Version 15.0d7e11", template writer version: "5"-->
 <g id="Notes">
  <rect height="2200" id="artboard" style="fill:white;opacity:1" width="3300" x="0" y="0"/>
  <line id="" style="fill:none;stroke:black;opacity:1;stroke-width:0.5;" x1="263" x2="3036" y1="292" y2="292"/>
  <text style="stroke:none;fill:black;font-family:-apple-system,&quot;SF Pro Display&quot;,&quot;SF Pro Text&quot;,Helvetica,sans-serif;font-weight:bold;" transform="matrix(1 0 0 1 263 322)">Weight/Scale Variations</text>
  <text style="stroke:none;fill:black;font-family:-apple-system,&quot;SF Pro Display&quot;,&quot;SF Pro Text&quot;,Helvetica,sans-serif;text-anchor:middle;" transform="matrix(1 0 0 1 559.711 322)">Ultralight</text>
  <text style="stroke:none;fill:black;font-family:-apple-system,&quot;SF Pro Display&quot;,&quot;SF Pro Text&quot;,Helvetica,sans-serif;text-anchor:middle;" transform="matrix(1 0 0 1 856.422 322)">Thin</text>
  <text style="stroke:none;fill:black;font-family:-apple-system,&quot;SF Pro Display&quot;,&quot;SF Pro Text&quot;,Helvetica,sans-serif;text-anchor:middle;" transform="matrix(1 0 0 1 1153.13 322)">Light</text>
  <text style="stroke:none;fill:black;font-family:-apple-system,&quot;SF Pro Display&quot;,&quot;SF Pro Text&quot;,Helvetica,sans-serif;text-anchor:middle;" transform="matrix(1 0 0 1 1449.84 322)">Regular</text>
  <text style="stroke:none;fill:black;font-family:-apple-system,&quot;SF Pro Display&quot;,&quot;SF Pro Text&quot;,Helvetica,sans-serif;text-anchor:middle;" transform="matrix(1 0 0 1 1746.56 322)">Medium</text>
  <text style="stroke:none;fill:black;font-family:-apple-system,&quot;SF Pro Display&quot;,&quot;SF Pro Text&quot;,Helvetica,sans-serif;text-anchor:middle;" transform="matrix(1 0 0 1 2043.27 322)">Semibold</text>
  <text style="stroke:none;fill:black;font-family:-apple-system,&quot;SF Pro Display&quot;,&quot;SF Pro Text&quot;,Helvetica,sans-serif;text-anchor:middle;" transform="matrix(1 0 0 1 2339.98 322)">Bold</text>
  <text style="stroke:none;fill:black;font-family:-apple-system,&quot;SF Pro Display&quot;,&quot;SF Pro Text&quot;,Helvetica,sans-serif;text-anchor:middle;" transform="matrix(1 0 0 1 2636.69 322)">Heavy</text>
  <text style="stroke:none;fill:black;font-family:-apple-system,&quot;SF Pro Display&quot;,&quot;SF Pro Text&quot;,Helvetica,sans-serif;text-anchor:middle;" transform="matrix(1 0 0 1 2933.4 322)">Black</text>
  <line id="" style="fill:none;stroke:black;opacity:1;stroke-width:0.5;" x1="263" x2="3036" y1="1903" y2="1903"/>
  <g id="" transform="matrix(1 0 0 1 263 1933)">
   <path d="M 9.24805 0.830078 C 13.5547 0.830078 17.1387 -2.74414 17.1387 -7.05078 C 17.1387 -11.3574 13.5449 -14.9316 9.23828 -14.9316 C 4.94141 -14.9316 1.36719 -11.3574 1.36719 -7.05078 C 1.36719 -2.74414 4.95117 0.830078 9.24805 0.830078 Z M 9.24805 -0.654297 C 5.70312 -0.654297 2.87109 -3.49609 2.87109 -7.05078 C 2.87109 -10.6055 5.69336 -13.4473 9.23828 -13.4473 C 12.793 -13.4473 15.6348 -10.6055 15.6445 -7.05078 C 15.6543 -3.49609 12.8027 -0.654297 9.24805 -0.654297 Z M 9.22852 -3.42773 C 9.69727 -3.42773 9.9707 -3.74023 9.9707 -4.25781 L 9.9707 -6.31836 L 12.1973 -6.31836 C 12.6953 -6.31836 13.0371 -6.57227 13.0371 -7.04102 C 13.0371 -7.51953 12.7148 -7.7832 12.1973 -7.7832 L 9.9707 -7.7832 L 9.9707 -10.0098 C 9.9707 -10.5273 9.69727 -10.8496 9.22852 -10.8496 C 8.75977 -10.8496 8.50586 -10.5078 8.50586 -10.0098 L 8.50586 -7.7832 L 6.29883 -7.7832 C 5.78125 -7.7832 5.44922 -7.51953 5.44922 -7.04102 C 5.44922 -6.57227 5.80078 -6.31836 6.29883 -6.31836 L 8.50586 -6.31836 L 8.50586 -4.25781 C 8.50586 -3.75977 8.75977 -3.42773 9.22852 -3.42773 Z"/>
  </g>
  <g id="" transform="matrix(1 0 0 1 281.506 1933)">
   <path d="M 11.709 2.91016 C 17.1582 2.91016 21.6699 -1.60156 21.6699 -7.05078 C 21.6699 -12.4902 17.1484 -17.0117 11.6992 -17.0117 C 6.25977 -17.0117 1.74805 -12.4902 1.74805 -7.05078 C 1.74805 -1.60156 6.26953 2.91016 11.709 2.91016 Z M 11.709 1.25 C 7.09961 1.25 3.41797 -2.44141 3.41797 -7.05078 C 3.41797 -11.6504 7.08984 -15.3516 11.6992 -15.3516 C 16.3086 -15.3516 20 -11.6504 20.0098 -7.05078 C 20.0195 -2.44141 16.3184 1.25 11.709 1.25 Z M 11.6895 -2.41211 C 12.207 -2.41211 12.5195 -2.77344 12.5195 -3.33984 L 12.5195 -6.23047 L 15.5762 -6.23047 C 16.123 -6.23047 16.5039 -6.51367 16.5039 -7.03125 C 16.5039 -7.55859 16.1426 -7.86133 15.5762 -7.86133 L 12.5195 -7.86133 L 12.5195 -10.9277 C 12.5195 -11.5039 12.207 -11.8555 11.6895 -11.8555 C 11.1719 -11.8555 10.8789 -11.4844 10.8789 -10.9277 L 10.8789 -7.86133 L 7.83203 -7.86133 C 7.26562 -7.86133 6.89453 -7.55859 6.89453 -7.03125 C 6.89453 -6.51367 7.28516 -6.23047 7.83203 -6.23047 L 10.8789 -6.23047 L 10.8789 -3.33984 C 10.8789 -2.79297 11.1719 -2.41211 11.6895 -2.41211 Z"/>
  </g>
  <g id="" transform="matrix(1 0 0 1 304.924 1933)">
   <path d="M 14.9707 5.67383 C 21.9336 5.67383 27.6953 -0.078125 27.6953 -7.04102 C 27.6953 -14.0039 21.9238 -19.7559 14.9609 -19.7559 C 8.00781 -19.7559 2.25586 -14.0039 2.25586 -7.04102 C 2.25586 -0.078125 8.01758 5.67383 14.9707 5.67383 Z M 14.9707 3.85742 C 8.93555 3.85742 4.08203 -1.00586 4.08203 -7.04102 C 4.08203 -13.0762 8.92578 -17.9395 14.9609 -17.9395 C 21.0059 -17.9395 25.8594 -13.0762 25.8691 -7.04102 C 25.8789 -1.00586 21.0156 3.85742 14.9707 3.85742 Z M 14.9512 -1.06445 C 15.5176 -1.06445 15.8691 -1.45508 15.8691 -2.06055 L 15.8691 -6.13281 L 20.1074 -6.13281 C 20.6934 -6.13281 21.1133 -6.46484 21.1133 -7.02148 C 21.1133 -7.59766 20.7227 -7.93945 20.1074 -7.93945 L 15.8691 -7.93945 L 15.8691 -12.1875 C 15.8691 -12.8027 15.5176 -13.1934 14.9512 -13.1934 C 14.3848 -13.1934 14.0625 -12.7832 14.0625 -12.1875 L 14.0625 -7.93945 L 9.83398 -7.93945 C 9.21875 -7.93945 8.80859 -7.59766 8.80859 -7.02148 C 8.80859 -6.46484 9.23828 -6.13281 9.83398 -6.13281 L 14.0625 -6.13281 L 14.0625 -2.06055 C 14.0625 -1.47461 14.3848 -1.06445 14.9512 -1.06445 Z"/>
  </g>
  <text style="stroke:none;fill:black;font-family:-apple-system,&quot;SF Pro Display&quot;,&quot;SF Pro Text&quot;,Helvetica,sans-serif;font-weight:bold;" transform="matrix(1 0 0 1 263 1953)">Design Variations</text>
  <text style="stroke:none;fill:black;font-family:-apple-system,&quot;SF Pro Display&quot;,&quot;SF Pro Text&quot;,Helvetica,sans-serif;" transform="matrix(1 0 0 1 263 1971)">Symbols are supported in up to nine weights and three scales.</text>
  <text style="stroke:none;fill:black;font-family:-apple-system,&quot;SF Pro Display&quot;,&quot;SF Pro Text&quot;,Helvetica,sans-serif;" transform="matrix(1 0 0 1 263 1989)">For optimal layout with text and other symbols, vertically align</text>
  <text style="stroke:none;fill:black;font-family:-apple-system,&quot;SF Pro Display&quot;,&quot;SF Pro Text&quot;,Helvetica,sans-serif;" transform="matrix(1 0 0 1 263 2007)">symbols with the adjacent text.</text>
  <rect height="14" id="" style="fill:#00AEEF;stroke:none;opacity:0.4;" width="3" x="776" y="1919"/>
  <g id="" transform="matrix(1 0 0 1 779 1933)">
   <path d="M 10.5273 0 L 12.373 0 L 7.17773 -14.0918 L 5.43945 -14.0918 L 0.244141 0 L 2.08984 0 L 3.50586 -4.0332 L 9.11133 -4.0332 Z M 6.2793 -11.9531 L 6.33789 -11.9531 L 8.59375 -5.52734 L 4.02344 -5.52734 Z"/>
  </g>
  <rect height="14" id="" style="fill:#00AEEF;stroke:none;opacity:0.4;" width="3" x="791.617" y="1919"/>
  <text style="stroke:none;fill:black;font-family:-apple-system,&quot;SF Pro Display&quot;,&quot;SF Pro Text&quot;,Helvetica,sans-serif;font-weight:bold;" transform="matrix(1 0 0 1 776 1953)">Margins</text>
  <text style="stroke:none;fill:black;font-family:-apple-system,&quot;SF Pro Display&quot;,&quot;SF Pro Text&quot;,Helvetica,sans-serif;" transform="matrix(1 0 0 1 776 1971)">Leading and trailing margins on the left and right side of each symbol</text>
  <text style="stroke:none;fill:black;font-family:-apple-system,&quot;SF Pro Display&quot;,&quot;SF Pro Text&quot;,Helvetica,sans-serif;" transform="matrix(1 0 0 1 776 1989)">can be adjusted by modifying the width of the blue rectangles.</text>
  <text style="stroke:none;fill:black;font-family:-apple-system,&quot;SF Pro Display&quot;,&quot;SF Pro Text&quot;,Helvetica,sans-serif;" transform="matrix(1 0 0 1 776 2007)">Modifications are automatically applied proportionally to all</text>
  <text style="stroke:none;fill:black;font-family:-apple-system,&quot;SF Pro Display&quot;,&quot;SF Pro Text&quot;,Helvetica,sans-serif;" transform="matrix(1 0 0 1 776 2025)">scales and weights.</text>
  <g id="" transform="matrix(1 0 0 1 1289 1933)">
   <path d="M 2.83203 3.11523 L 4.375 4.6582 C 5.22461 5.48828 6.19141 5.41992 7.06055 4.46289 L 17.2754 -6.66016 C 17.7051 -6.36719 18.0957 -6.37695 18.5645 -6.47461 L 19.6094 -6.68945 L 20.3027 -5.99609 L 20.2539 -5.47852 C 20.1855 -4.95117 20.3516 -4.53125 20.8496 -4.0332 L 21.6602 -3.22266 C 22.168 -2.71484 22.8223 -2.68555 23.3008 -3.16406 L 26.5527 -6.41602 C 27.0312 -6.89453 27.0117 -7.54883 26.5039 -8.05664 L 25.6836 -8.87695 C 25.1855 -9.375 24.7754 -9.55078 24.2383 -9.47266 L 23.7109 -9.41406 L 23.0566 -10.0781 L 23.3398 -11.2207 C 23.4863 -11.7871 23.3398 -12.2559 22.7148 -12.8613 L 20.3027 -15.2539 C 16.7578 -18.7793 12.2266 -18.6719 9.11133 -15.5371 C 8.69141 -15.1074 8.64258 -14.5215 8.91602 -14.0918 C 9.15039 -13.7207 9.62891 -13.4961 10.2734 -13.6621 C 11.7871 -14.043 13.3008 -13.9258 14.7852 -12.9199 L 14.1602 -11.3379 C 13.9258 -10.752 13.9453 -10.2734 14.1797 -9.83398 L 3.01758 0.439453 C 2.08008 1.30859 1.97266 2.25586 2.83203 3.11523 Z M 10.6738 -15.1465 C 13.3398 -17.1387 16.6504 -16.8262 19.0527 -14.4141 L 21.6797 -11.8066 C 21.9141 -11.5723 21.9434 -11.3867 21.8848 -11.0938 L 21.5039 -9.53125 L 23.0762 -7.95898 L 24.043 -8.04688 C 24.3262 -8.07617 24.4141 -8.05664 24.6387 -7.83203 L 25.2637 -7.20703 L 22.5098 -4.46289 L 21.8848 -5.07812 C 21.6602 -5.30273 21.6406 -5.40039 21.6699 -5.68359 L 21.7578 -6.64062 L 20.1953 -8.20312 L 18.5742 -7.89062 C 18.291 -7.83203 18.1445 -7.83203 17.9102 -8.07617 L 15.7324 -10.2539 C 15.5078 -10.4883 15.4785 -10.625 15.6055 -10.9473 L 16.5527 -13.2227 C 14.9512 -14.7559 12.8418 -15.6055 10.8008 -14.9512 C 10.7129 -14.9219 10.6445 -14.9414 10.6152 -14.9805 C 10.5859 -15.0293 10.5859 -15.0781 10.6738 -15.1465 Z M 4.10156 2.41211 C 3.61328 1.91406 3.78906 1.61133 4.12109 1.30859 L 15.0781 -8.80859 L 16.3086 -7.57812 L 6.15234 3.34961 C 5.84961 3.68164 5.46875 3.7793 5.06836 3.37891 Z"/>
  </g>
  <text style="stroke:none;fill:black;font-family:-apple-system,&quot;SF Pro Display&quot;,&quot;SF Pro Text&quot;,Helvetica,sans-serif;font-weight:bold;" transform="matrix(1 0 0 1 1289 1953)">Exporting</text>
  <text style="stroke:none;fill:black;font-family:-apple-system,&quot;SF Pro Display&quot;,&quot;SF Pro Text&quot;,Helvetica,sans-serif;" transform="matrix(1 0 0 1 1289 1971)">Symbols should be outlined when exporting to ensure the</text>
  <text style="stroke:none;fill:black;font-family:-apple-system,&quot;SF Pro Display&quot;,&quot;SF Pro Text&quot;,Helvetica,sans-serif;" transform="matrix(1 0 0 1 1289 1989)">design is preserved when submitting to Xcode.</text>
  <text id="template-version" style="stroke:none;fill:black;font-family:-apple-system,&quot;SF Pro Display&quot;,&quot;SF Pro Text&quot;,Helvetica,sans-serif;text-anchor:end;" transform="matrix(1 0 0 1 3036 1933)">Template v.1.0</text>
  <text style="stroke:none;fill:black;font-family:-apple-system,&quot;SF Pro Display&quot;,&quot;SF Pro Text&quot;,Helvetica,sans-serif;text-anchor:end;" transform="matrix(1 0 0 1 3036 1951)">Generated from a.circle.fill</text>
  <text style="stroke:none;fill:black;font-family:-apple-system,&quot;SF Pro Display&quot;,&quot;SF Pro Text&quot;,Helvetica,sans-serif;text-anchor:end;" transform="matrix(1 0 0 1 3036 1969)">Typeset at 100 points</text>
  <text style="stroke:none;fill:black;font-family:-apple-system,&quot;SF Pro Display&quot;,&quot;SF Pro Text&quot;,Helvetica,sans-serif;" transform="matrix(1 0 0 1 263 726)">Small</text>
  <text style="stroke:none;fill:black;font-family:-apple-system,&quot;SF Pro Display&quot;,&quot;SF Pro Text&quot;,Helvetica,sans-serif;" transform="matrix(1 0 0 1 263 1156)">Medium</text>
  <text style="stroke:none;fill:black;font-family:-apple-system,&quot;SF Pro Display&quot;,&quot;SF Pro Text&quot;,Helvetica,sans-serif;" transform="matrix(1 0 0 1 263 1586)">Large</text>
 </g>
 <g id="Guides">
  <g id="H-reference" style="fill:#27AAE1;stroke:none;" transform="matrix(1 0 0 1 339 696)">
   <path d="M 54.9316 0 L 57.666 0 L 30.5664 -70.459 L 28.0762 -70.459 L 0.976562 0 L 3.66211 0 L 12.9395 -24.4629 L 45.7031 -24.4629 Z M 29.1992 -67.0898 L 29.4434 -67.0898 L 44.8242 -26.709 L 13.8184 -26.709 Z"/>
  </g>
  <line id="Baseline-S" style="fill:none;stroke:#27AAE1;opacity:1;stroke-width:0.577;" x1="263" x2="3036" y1="696" y2="696"/>
  <line id="Capline-S" style="fill:none;stroke:#27AAE1;opacity:1;stroke-width:0.577;" x1="263" x2="3036" y1="625.541" y2="625.541"/>
  <g id="H-reference" style="fill:#27AAE1;stroke:none;" transform="matrix(1 0 0 1 339 1126)">
   <path d="M 54.9316 0 L 57.666 0 L 30.5664 -70.459 L 28.0762 -70.459 L 0.976562 0 L 3.66211 0 L 12.9395 -24.4629 L 45.7031 -24.4629 Z M 29.1992 -67.0898 L 29.4434 -67.0898 L 44.8242 -26.709 L 13.8184 -26.709 Z"/>
  </g>
  <line id="Baseline-M" style="fill:none;stroke:#27AAE1;opacity:1;stroke-width:0.577;" x1="263" x2="3036" y1="1126" y2="1126"/>
  <line id="Capline-M" style="fill:none;stroke:#27AAE1;opacity:1;stroke-width:0.577;" x1="263" x2="3036" y1="1055.54" y2="1055.54"/>
  <g id="H-reference" style="fill:#27AAE1;stroke:none;" transform="matrix(1 0 0 1 339 1556)">
   <path d="M 54.9316 0 L 57.666 0 L 30.5664 -70.459 L 28.0762 -70.459 L 0.976562 0 L 3.66211 0 L 12.9395 -24.4629 L 45.7031 -24.4629 Z M 29.1992 -67.0898 L 29.4434 -67.0898 L 44.8242 -26.709 L 13.8184 -26.709 Z"/>
  </g>
  <line id="Baseline-L" style="fill:none;stroke:#27AAE1;opacity:1;stroke-width:0.577;" x1="263" x2="3036" y1="1556" y2="1556"/>
  <line id="Capline-L" style="fill:none;stroke:#27AAE1;opacity:1;stroke-width:0.577;" x1="263" x2="3036" y1="1485.54" y2="1485.54"/>
  <rect height="119.336" id="left-margin" style="fill:#00AEEF;stroke:none;opacity:0.4;" width="8.74023" x="1391.3" y="1030.79"/>
  <rect height="119.336" id="right-margin" style="fill:#00AEEF;stroke:none;opacity:0.4;" width="8.74023" x="1499.65" y="1030.79"/>
 </g>
 <g id="Symbols">
  <g id="Black-L" transform="matrix(1 0 0 1 2854.05 1556)">
   <path d="M 79.3457 32.8613 C 116.748 32.8613 147.412 2.19727 147.412 -35.2051 C 147.412 -72.6074 116.748 -103.271 79.2969 -103.271 C 41.8945 -103.271 11.2793 -72.6074 11.2793 -35.2051 C 11.2793 2.19727 41.9434 32.8613 79.3457 32.8613 Z M 60.498 -4.73633 C 54.6875 -4.73633 51.2695 -8.00781 51.2695 -13.5742 C 51.2695 -15.0391 51.7578 -17.1387 52.5391 -19.873 L 63.9648 -53.8574 C 66.6504 -62.1582 71.4844 -66.0156 79.1016 -66.0156 C 86.9629 -66.0156 92.041 -62.1094 94.6777 -53.8574 L 106.055 -19.873 C 106.885 -17.1387 107.324 -15.0391 107.324 -13.5742 C 107.324 -8.00781 103.906 -4.73633 98.1934 -4.73633 C 93.2129 -4.73633 90.1367 -7.4707 88.8672 -13.2812 L 87.7441 -16.8457 L 70.8984 -16.8457 L 69.7266 -13.2812 C 68.5059 -7.4707 65.4297 -4.73633 60.498 -4.73633 Z M 74.1211 -30.3223 L 84.4727 -30.3223 L 79.6387 -49.5605 L 78.9551 -49.5605 Z"/>
  </g>
  <g id="Heavy-L" transform="matrix(1 0 0 1 2558.39 1556)">
   <path d="M 78.2715 31.7871 C 115.088 31.7871 145.312 1.61133 145.312 -35.2051 C 145.312 -72.0215 115.039 -102.197 78.2715 -102.197 C 41.4551 -102.197 11.2793 -72.0215 11.2793 -35.2051 C 11.2793 1.61133 41.5039 31.7871 78.2715 31.7871 Z M 58.7402 -4.6875 C 53.7109 -4.6875 50.7324 -7.56836 50.7324 -12.3535 C 50.7324 -13.7207 51.123 -15.4785 51.8066 -17.8711 L 65.0391 -55.8594 C 67.334 -62.8906 71.5332 -66.2109 78.0762 -66.2109 C 84.8145 -66.2109 89.209 -62.8906 91.4551 -55.8594 L 104.688 -17.8711 C 105.371 -15.4785 105.811 -13.7207 105.811 -12.3535 C 105.811 -7.56836 102.783 -4.6875 97.8027 -4.6875 C 93.5059 -4.6875 90.8203 -7.03125 89.6484 -12.0605 L 87.5488 -18.3105 L 68.9941 -18.3105 L 66.8457 -12.0605 C 65.6738 -7.03125 62.9883 -4.6875 58.7402 -4.6875 Z M 72.0215 -30.2734 L 84.5215 -30.2734 L 78.5645 -51.2695 L 77.9297 -51.2695 Z"/>
  </g>
  <g id="Bold-L" transform="matrix(1 0 0 1 2262.88 1556)">
   <path d="M 77.0996 30.6152 C 113.232 30.6152 142.92 0.878906 142.92 -35.2051 C 142.92 -71.3379 113.184 -101.025 77.0508 -101.025 C 40.9668 -101.025 11.2793 -71.3379 11.2793 -35.2051 C 11.2793 0.878906 41.0156 30.6152 77.0996 30.6152 Z M 56.7871 -4.63867 C 52.6367 -4.63867 50.0977 -7.08008 50.0977 -11.0352 C 50.0977 -12.207 50.3906 -13.6719 51.0254 -15.625 L 66.2598 -58.1055 C 68.1152 -63.7695 71.582 -66.4062 76.9531 -66.4062 C 82.4219 -66.4062 86.0352 -63.7207 87.8906 -58.1055 L 103.125 -15.625 C 103.711 -13.6719 104.053 -12.207 104.053 -10.9863 C 104.053 -7.08008 101.465 -4.63867 97.3633 -4.63867 C 93.7988 -4.63867 91.6016 -6.54297 90.5273 -10.7422 L 87.3047 -19.9707 L 66.7969 -19.9707 L 63.623 -10.7422 C 62.5488 -6.54297 60.3027 -4.63867 56.7871 -4.63867 Z M 69.6289 -30.1758 L 84.5215 -30.1758 L 77.3926 -53.1738 L 76.7578 -53.1738 Z"/>
  </g>
  <g id="Semibold-L" transform="matrix(1 0 0 1 1966.97 1556)">
   <path d="M 76.2695 29.7852 C 111.914 29.7852 141.309 0.439453 141.309 -35.2051 C 141.309 -70.8496 111.865 -100.244 76.2695 -100.244 C 40.625 -100.244 11.2793 -70.8496 11.2793 -35.2051 C 11.2793 0.439453 40.6738 29.7852 76.2695 29.7852 Z M 55.4688 -4.58984 C 51.8555 -4.58984 49.6582 -6.73828 49.6582 -10.1074 C 49.6582 -11.1816 49.9023 -12.4023 50.4395 -14.1113 L 67.0898 -59.668 C 68.7012 -64.3555 71.6309 -66.6016 76.1719 -66.6016 C 80.7617 -66.6016 83.8379 -64.3066 85.4004 -59.668 L 102.051 -14.1113 C 102.588 -12.4023 102.832 -11.1816 102.832 -10.0586 C 102.832 -6.73828 100.586 -4.58984 97.0703 -4.58984 C 94.043 -4.58984 92.1387 -6.20117 91.1133 -9.81445 L 87.1582 -21.1426 L 65.332 -21.1426 L 61.377 -9.81445 C 60.3516 -6.15234 58.4473 -4.58984 55.4688 -4.58984 Z M 67.9688 -30.127 L 84.5215 -30.127 L 76.5625 -54.4922 L 75.9277 -54.4922 Z"/>
  </g>
  <g id="Medium-L" transform="matrix(1 0 0 1 1670.87 1556)">
   <path d="M 75.6836 29.1992 C 110.938 29.1992 140.088 0.0488281 140.088 -35.2051 C 140.088 -70.459 110.889 -99.6094 75.6348 -99.6094 C 40.3809 -99.6094 11.2793 -70.459 11.2793 -35.2051 C 11.2793 0.0488281 40.3809 29.1992 75.6836 29.1992 Z M 54.4434 -4.58984 C 51.2695 -4.58984 49.3164 -6.49414 49.3164 -9.42383 C 49.3164 -10.4004 49.5117 -11.4258 50 -12.9395 L 67.7246 -60.8398 C 69.0918 -64.7949 71.6309 -66.6992 75.5371 -66.6992 C 79.4922 -66.6992 82.1289 -64.7949 83.5449 -60.8398 L 101.221 -12.9395 C 101.709 -11.4258 101.953 -10.4004 101.953 -9.375 C 101.953 -6.49414 99.9023 -4.58984 96.875 -4.58984 C 94.1895 -4.58984 92.5293 -5.9082 91.5527 -9.13086 L 87.0605 -22.0215 L 64.1602 -22.0215 L 59.668 -9.13086 C 58.7402 -5.9082 57.0312 -4.58984 54.4434 -4.58984 Z M 66.6992 -30.127 L 84.5215 -30.127 L 75.9277 -55.4688 L 75.293 -55.4688 Z"/>
  </g>
  <g id="Regular-L" transform="matrix(1 0 0 1 1374.97 1556)">
   <path d="M 74.8535 28.3691 C 109.668 28.3691 138.477 -0.390625 138.477 -35.2051 C 138.477 -70.0195 109.619 -98.7793 74.8047 -98.7793 C 40.0391 -98.7793 11.2793 -70.0195 11.2793 -35.2051 C 11.2793 -0.390625 40.0879 28.3691 74.8535 28.3691 Z M 53.0762 -4.54102 C 50.5371 -4.54102 48.877 -6.15234 48.877 -8.49609 C 48.877 -9.375 49.0234 -10.2051 49.4629 -11.4258 L 68.5547 -62.4023 C 69.6289 -65.3809 71.6797 -66.8457 74.7559 -66.8457 C 77.8809 -66.8457 79.9805 -65.3809 81.0547 -62.4023 L 100.146 -11.4258 C 100.586 -10.2051 100.732 -9.375 100.732 -8.44727 C 100.732 -6.15234 99.0234 -4.54102 96.582 -4.54102 C 94.4336 -4.54102 93.0176 -5.56641 92.1387 -8.20312 L 86.9141 -23.1445 L 62.6953 -23.1445 L 57.4707 -8.20312 C 56.5918 -5.56641 55.1758 -4.54102 53.0762 -4.54102 Z M 65.0879 -30.0781 L 84.5215 -30.0781 L 75.0977 -56.7871 L 74.5117 -56.7871 Z"/>
  </g>
  <g id="Light-L" transform="matrix(1 0 0 1 1079.18 1556)">
   <path d="M 73.9258 27.4902 C 108.301 27.4902 136.621 -0.830078 136.621 -35.1562 C 136.621 -69.5312 108.252 -97.8516 73.9258 -97.8516 C 39.5508 -97.8516 11.2793 -69.5312 11.2793 -35.1562 C 11.2793 -0.830078 39.5996 27.4902 73.9258 27.4902 Z M 52.1973 -4.93164 C 50.1953 -4.93164 48.877 -6.15234 48.877 -8.00781 C 48.877 -8.74023 49.0234 -9.27734 49.3652 -10.2051 L 69.0918 -62.6465 C 69.9219 -64.9414 71.4844 -66.0645 73.877 -66.0645 C 76.2695 -66.0645 77.832 -64.9414 78.6621 -62.6465 L 98.4375 -10.2051 C 98.7305 -9.27734 98.877 -8.74023 98.877 -7.95898 C 98.877 -6.25 97.5098 -4.93164 95.6543 -4.93164 C 93.8965 -4.93164 92.8711 -5.76172 92.1387 -7.8125 L 86.377 -23.8281 L 61.4258 -23.8281 L 55.6152 -7.8125 C 54.9316 -5.71289 53.9062 -4.93164 52.1973 -4.93164 Z M 63.3789 -29.4434 L 84.375 -29.4434 L 74.1211 -57.666 L 73.6816 -57.666 Z"/>
  </g>
  <g id="Thin-L" transform="matrix(1 0 0 1 783.693 1556)">
   <path d="M 72.7051 26.3184 C 106.494 26.3184 134.18 -1.36719 134.18 -35.1074 C 134.18 -68.8965 106.494 -96.582 72.7051 -96.582 C 38.9648 -96.582 11.2793 -68.8965 11.2793 -35.1074 C 11.2793 -1.36719 38.9648 26.3184 72.7051 26.3184 Z M 51.0742 -5.46875 C 49.7559 -5.46875 48.9258 -6.20117 48.9258 -7.37305 C 48.9258 -7.86133 49.0234 -8.10547 49.2188 -8.64258 L 69.873 -62.9883 C 70.3613 -64.3555 71.2402 -65.0391 72.7051 -65.0391 C 74.0723 -65.0391 75 -64.3555 75.4883 -62.9883 L 96.1426 -8.64258 C 96.3379 -8.10547 96.4355 -7.86133 96.4355 -7.27539 C 96.4355 -6.29883 95.5078 -5.46875 94.4336 -5.46875 C 93.1641 -5.46875 92.627 -6.00586 92.1875 -7.27539 L 85.6445 -24.8047 L 59.7168 -24.8047 L 53.1738 -7.27539 C 52.7344 -5.95703 52.1973 -5.46875 51.0742 -5.46875 Z M 61.1816 -28.6621 L 84.1797 -28.6621 L 72.8027 -58.8867 L 72.5586 -58.8867 Z"/>
  </g>
  <g id="Ultralight-L" transform="matrix(1 0 0 1 487.616 1556)">
   <path d="M 72.1191 25.7324 C 105.566 25.7324 132.91 -1.61133 132.91 -35.1074 C 132.91 -68.5547 105.566 -95.8984 72.1191 -95.8984 C 38.623 -95.8984 11.2793 -68.5547 11.2793 -35.1074 C 11.2793 -1.61133 38.623 25.7324 72.1191 25.7324 Z M 50.4883 -5.71289 C 49.5117 -5.71289 48.9258 -6.25 48.9258 -7.03125 C 48.9258 -7.37305 48.9746 -7.4707 49.1211 -7.86133 L 70.2637 -63.1836 C 70.5566 -64.0625 71.1426 -64.5508 72.1191 -64.5508 C 72.998 -64.5508 73.5352 -64.0625 73.877 -63.1836 L 95.0195 -7.86133 C 95.1172 -7.4707 95.2148 -7.37305 95.2148 -6.98242 C 95.2148 -6.34766 94.4824 -5.71289 93.7988 -5.71289 C 92.8223 -5.71289 92.5293 -6.15234 92.1875 -6.98242 L 85.2539 -25.293 L 58.8867 -25.293 L 51.9531 -6.98242 C 51.6113 -6.05469 51.3184 -5.71289 50.4883 -5.71289 Z M 60.0098 -28.2227 L 84.082 -28.2227 L 72.168 -59.5215 L 71.9727 -59.5215 Z"/>
  </g>
  <g id="Black-M" transform="matrix(1 0 0 1 2870.97 1126)">
   <path d="M 62.4023 18.457 C 91.9922 18.457 116.113 -5.61523 116.113 -35.2051 C 116.113 -64.7949 91.9922 -88.8672 62.4023 -88.8672 C 32.8125 -88.8672 8.74023 -64.7949 8.74023 -35.2051 C 8.74023 -5.61523 32.8125 18.457 62.4023 18.457 Z M 48.7793 -11.8652 C 43.5547 -11.8652 40.5273 -14.7461 40.5273 -19.7754 C 40.5273 -21.0449 40.9668 -22.9492 41.6504 -25.3906 L 48.3887 -47.0703 C 50.8789 -54.834 55.2246 -58.3984 62.207 -58.3984 C 69.4336 -58.3984 74.0234 -54.7852 76.416 -47.0703 L 83.1543 -25.3906 C 83.8867 -22.9492 84.3262 -21.0449 84.3262 -19.7754 C 84.3262 -14.7461 81.2988 -11.8652 76.123 -11.8652 C 71.6309 -11.8652 68.9453 -14.3555 67.9199 -19.3359 L 56.9336 -19.3359 L 56.9824 -19.6289 L 56.8848 -19.3359 L 56.9336 -19.3359 C 55.957 -14.4531 53.2715 -11.8652 48.7793 -11.8652 Z M 59.4727 -31.2012 L 65.3809 -31.2012 L 62.6465 -44.5312 L 62.1582 -44.5312 Z M 67.8711 -19.6289 C 67.8711 -19.5312 67.9199 -19.4336 67.9199 -19.3359 L 67.9688 -19.3359 Z"/>
  </g>
  <g id="Heavy-M" transform="matrix(1 0 0 1 2575.19 1126)">
   <path d="M 61.5234 17.5781 C 90.5273 17.5781 114.258 -6.15234 114.258 -35.2051 C 114.258 -64.2578 90.5273 -87.9883 61.4746 -87.9883 C 32.4707 -87.9883 8.74023 -64.2578 8.74023 -35.2051 C 8.74023 -6.15234 32.4707 17.5781 61.5234 17.5781 Z M 47.1191 -11.7188 C 42.5781 -11.7188 39.8926 -14.2578 39.8926 -18.6035 C 39.8926 -19.7754 40.2832 -21.3867 40.8691 -23.5352 L 49.4629 -49.2188 C 51.5625 -55.8105 55.3223 -58.7891 61.3281 -58.7891 C 67.4805 -58.7891 71.4844 -55.7617 73.5352 -49.2188 L 82.0801 -23.5352 C 82.7148 -21.3867 83.1055 -19.7754 83.1055 -18.6035 C 83.1055 -14.2578 80.4199 -11.7188 75.9277 -11.7188 C 72.0215 -11.7188 69.6289 -13.916 68.7012 -18.4082 L 67.8711 -20.8008 L 55.0781 -20.8008 L 54.2969 -18.4082 C 53.3203 -13.916 50.9766 -11.7188 47.1191 -11.7188 Z M 57.5684 -31.2988 L 65.4297 -31.2988 L 61.7188 -46.1426 L 61.2305 -46.1426 Z"/>
  </g>
  <g id="Bold-M" transform="matrix(1 0 0 1 2279.5 1126)">
   <path d="M 60.498 16.5039 C 88.8672 16.5039 112.207 -6.78711 112.207 -35.2051 C 112.207 -63.623 88.8672 -86.9629 60.4492 -86.9629 C 32.0312 -86.9629 8.74023 -63.623 8.74023 -35.2051 C 8.74023 -6.78711 32.0801 16.5039 60.498 16.5039 Z M 45.2148 -11.5234 C 41.4551 -11.5234 39.209 -13.7207 39.209 -17.2852 C 39.209 -18.3105 39.502 -19.6289 40.0391 -21.4355 L 50.5859 -51.6113 C 52.3438 -56.8359 55.4199 -59.2773 60.3516 -59.2773 C 65.332 -59.2773 68.6035 -56.7871 70.3125 -51.6113 L 80.8594 -21.4355 C 81.3965 -19.6289 81.7383 -18.3105 81.7383 -17.2852 C 81.7383 -13.7207 79.4434 -11.5234 75.7324 -11.5234 C 72.5098 -11.5234 70.5078 -13.2812 69.6289 -17.041 L 67.8223 -22.4121 L 53.125 -22.4121 L 51.2695 -17.041 C 50.3906 -13.2812 48.3887 -11.5234 45.2148 -11.5234 Z M 55.4199 -31.3965 L 65.4785 -31.3965 L 60.6934 -47.9492 L 60.2051 -47.9492 Z"/>
  </g>
  <g id="Semibold-M" transform="matrix(1 0 0 1 1983.5 1126)">
   <path d="M 59.7656 15.8203 C 87.7441 15.8203 110.791 -7.22656 110.791 -35.2051 C 110.791 -63.1836 87.6953 -86.2793 59.7656 -86.2793 C 31.7871 -86.2793 8.74023 -63.1836 8.74023 -35.2051 C 8.74023 -7.22656 31.7871 15.8203 59.7656 15.8203 Z M 43.8965 -11.4258 C 40.6738 -11.4258 38.7207 -13.3301 38.7207 -16.3574 C 38.7207 -17.334 38.9648 -18.457 39.4531 -19.9707 L 51.416 -53.2715 C 52.832 -57.5684 55.5176 -59.6191 59.668 -59.6191 C 63.8672 -59.6191 66.6504 -57.5195 68.0664 -53.2715 L 80.0293 -19.9707 C 80.5176 -18.457 80.7617 -17.334 80.7617 -16.3574 C 80.7617 -13.3301 78.8086 -11.4258 75.5859 -11.4258 C 72.8516 -11.4258 71.1426 -12.8906 70.2637 -16.1621 L 67.7734 -23.4863 L 51.709 -23.4863 L 49.2188 -16.1621 C 48.3398 -12.8906 46.6309 -11.4258 43.8965 -11.4258 Z M 53.9551 -31.4453 L 65.5273 -31.4453 L 60.0098 -49.2188 L 59.4727 -49.2188 Z"/>
  </g>
  <g id="Medium-M" transform="matrix(1 0 0 1 1687.3 1126)">
   <path d="M 59.2285 15.2832 C 86.9141 15.2832 109.766 -7.56836 109.766 -35.2051 C 109.766 -62.8906 86.8652 -85.7422 59.1797 -85.7422 C 31.543 -85.7422 8.74023 -62.8906 8.74023 -35.2051 C 8.74023 -7.56836 31.5918 15.2832 59.2285 15.2832 Z M 42.9199 -11.3281 C 40.0879 -11.3281 38.3301 -13.0371 38.3301 -15.6738 C 38.3301 -16.5527 38.5742 -17.5293 38.9648 -18.8965 L 52.002 -54.4922 C 53.2715 -58.1055 55.5664 -59.8633 59.1309 -59.8633 C 62.7441 -59.8633 65.1367 -58.1055 66.4062 -54.4922 L 79.3945 -18.8965 C 79.834 -17.5293 80.0781 -16.5527 80.0781 -15.6738 C 80.0781 -13.0371 78.2715 -11.3281 75.4883 -11.3281 C 73.1445 -11.3281 71.582 -12.5488 70.752 -15.4297 L 67.7246 -24.3652 L 50.6836 -24.3652 L 47.6562 -15.4297 C 46.8262 -12.5488 45.2637 -11.3281 42.9199 -11.3281 Z M 52.832 -31.4941 L 65.5762 -31.4941 L 59.4727 -50.1465 L 58.9355 -50.1465 Z"/>
  </g>
  <g id="Regular-M" transform="matrix(1 0 0 1 1391.3 1126)">
   <path d="M 58.5449 14.5508 C 85.791 14.5508 108.35 -8.00781 108.35 -35.2539 C 108.35 -62.4512 85.7422 -85.0586 58.4961 -85.0586 C 31.2988 -85.0586 8.74023 -62.4512 8.74023 -35.2539 C 8.74023 -8.00781 31.3477 14.5508 58.5449 14.5508 Z M 41.6504 -11.2305 C 39.3555 -11.2305 37.8418 -12.6465 37.8418 -14.7949 C 37.8418 -15.5762 38.0371 -16.3574 38.3789 -17.4316 L 52.7832 -56.1523 C 53.7598 -58.8379 55.6641 -60.2051 58.4473 -60.2051 C 61.2793 -60.2051 63.1836 -58.8379 64.209 -56.1523 L 78.6133 -17.4316 C 78.9551 -16.3574 79.1016 -15.5762 79.1016 -14.7461 C 79.1016 -12.6953 77.6367 -11.2305 75.3906 -11.2305 C 73.4863 -11.2305 72.168 -12.1582 71.3867 -14.502 L 67.6758 -25.4395 L 49.3164 -25.4395 L 45.6055 -14.502 C 44.7754 -12.1582 43.5059 -11.2305 41.6504 -11.2305 Z M 51.3672 -31.5918 L 65.5762 -31.5918 L 58.7402 -51.416 L 58.2031 -51.416 Z"/>
  </g>
  <g id="Light-M" transform="matrix(1 0 0 1 1095.42 1126)">
   <path d="M 57.7148 13.7695 C 84.5215 13.7695 106.689 -8.39844 106.689 -35.2051 C 106.689 -62.0117 84.5215 -84.1797 57.666 -84.1797 C 30.8594 -84.1797 8.74023 -62.0117 8.74023 -35.2051 C 8.74023 -8.39844 30.9082 13.7695 57.7148 13.7695 Z M 40.8691 -11.5723 C 39.0625 -11.5723 37.8906 -12.6953 37.8906 -14.3555 C 37.8906 -14.9902 37.9883 -15.5273 38.2812 -16.4062 L 53.3203 -56.3965 C 54.0527 -58.4473 55.5176 -59.4727 57.666 -59.4727 C 59.8145 -59.4727 61.2793 -58.4473 62.0605 -56.3965 L 77.0508 -16.4062 C 77.3438 -15.5273 77.4902 -14.9902 77.4902 -14.3066 C 77.4902 -12.7441 76.2695 -11.5723 74.5605 -11.5723 C 72.998 -11.5723 72.0215 -12.3047 71.3867 -14.1602 L 67.1875 -26.0742 L 48.1934 -26.0742 L 43.9453 -14.1602 C 43.3105 -12.3047 42.334 -11.5723 40.8691 -11.5723 Z M 49.8535 -31.0059 L 65.4785 -31.0059 L 57.8613 -52.2461 L 57.4707 -52.2461 Z"/>
  </g>
  <g id="Thin-M" transform="matrix(1 0 0 1 799.806 1126)">
   <path d="M 56.6406 12.7441 C 82.9102 12.7441 104.492 -8.83789 104.492 -35.1562 C 104.492 -61.4746 82.9102 -83.0566 56.5918 -83.0566 C 30.3223 -83.0566 8.74023 -61.4746 8.74023 -35.1562 C 8.74023 -8.83789 30.3223 12.7441 56.6406 12.7441 Z M 39.8438 -12.0605 C 38.6719 -12.0605 37.8906 -12.7441 37.8906 -13.7695 C 37.8906 -14.209 37.9883 -14.4531 38.1348 -14.9902 L 54.0039 -56.6895 C 54.4434 -57.9102 55.2734 -58.5449 56.5918 -58.5449 C 57.9102 -58.5449 58.7402 -57.9102 59.1797 -56.6895 L 75 -14.9902 C 75.1953 -14.4531 75.293 -14.209 75.293 -13.7207 C 75.293 -12.793 74.4629 -12.0605 73.4375 -12.0605 C 72.3633 -12.0605 71.8262 -12.5488 71.4355 -13.6719 L 66.5039 -26.9531 L 46.6797 -26.9531 L 41.748 -13.6719 C 41.3086 -12.5 40.8203 -12.0605 39.8438 -12.0605 Z M 47.9004 -30.3223 L 65.2832 -30.3223 L 56.7383 -53.3203 L 56.4453 -53.3203 Z"/>
  </g>
  <g id="Ultralight-M" transform="matrix(1 0 0 1 503.656 1126)">
   <path d="M 56.0547 12.207 C 82.0801 12.207 103.369 -9.08203 103.369 -35.1562 C 103.369 -61.1816 82.0801 -82.4707 56.0547 -82.4707 C 30.0293 -82.4707 8.74023 -61.1816 8.74023 -35.1562 C 8.74023 -9.08203 30.0293 12.207 56.0547 12.207 Z M 39.3066 -12.3047 C 38.4766 -12.3047 37.8906 -12.7441 37.8906 -13.4766 C 37.8906 -13.7695 37.9883 -13.916 38.0859 -14.2578 L 54.3457 -56.8359 C 54.6387 -57.666 55.1758 -58.1055 56.0547 -58.1055 C 56.8848 -58.1055 57.4219 -57.666 57.7148 -56.8359 L 73.9746 -14.2578 C 74.0723 -13.916 74.1699 -13.7695 74.1699 -13.4277 C 74.1699 -12.8418 73.5352 -12.3047 72.9004 -12.3047 C 72.0215 -12.3047 71.7285 -12.6465 71.4355 -13.4277 L 66.1621 -27.3926 L 45.8984 -27.3926 L 40.625 -13.4277 C 40.332 -12.5977 40.0391 -12.3047 39.3066 -12.3047 Z M 46.875 -29.9316 L 65.1855 -29.9316 L 56.1035 -53.8574 L 55.957 -53.8574 Z"/>
  </g>
  <g id="Black-S" transform="matrix(1 0 0 1 2884.57 696)">
   <path d="M 48.8281 6.78711 C 71.9727 6.78711 90.8203 -12.0605 90.8203 -35.2051 C 90.8203 -58.3496 71.9727 -77.1973 48.8281 -77.1973 C 25.6836 -77.1973 6.83594 -58.3496 6.83594 -35.2051 C 6.83594 -12.0605 25.6836 6.78711 48.8281 6.78711 Z M 38.0859 -16.8945 C 34.0332 -16.8945 31.6895 -19.1406 31.6895 -23.0469 C 31.6895 -24.0234 32.0312 -25.4883 32.5684 -27.3926 L 37.9883 -44.6777 C 39.8926 -50.6836 43.2617 -53.418 48.6816 -53.418 C 54.248 -53.418 57.8125 -50.6348 59.668 -44.6777 L 65.0879 -27.3926 C 65.625 -25.4883 65.9668 -24.0234 65.9668 -23.0469 C 65.9668 -19.1406 63.623 -16.8945 59.6191 -16.8945 C 56.1035 -16.8945 54.0039 -18.8965 53.2227 -22.9004 L 44.4336 -22.9004 C 43.6523 -18.8965 41.5527 -16.8945 38.0859 -16.8945 Z M 46.4355 -32.0801 L 51.2207 -32.0801 L 49.0234 -42.627 L 48.6328 -42.627 Z"/>
  </g>
  <g id="Heavy-S" transform="matrix(1 0 0 1 2588.47 696)">
   <path d="M 48.2422 6.15234 C 70.9961 6.15234 89.5996 -12.4512 89.5996 -35.2051 C 89.5996 -57.959 70.9961 -76.6113 48.1934 -76.6113 C 25.4395 -76.6113 6.83594 -57.959 6.83594 -35.2051 C 6.83594 -12.4512 25.4395 6.15234 48.2422 6.15234 Z M 36.8652 -16.748 C 33.3008 -16.748 31.2012 -18.75 31.2012 -22.168 C 31.2012 -23.0957 31.4941 -24.3652 31.9824 -26.0742 L 38.7207 -46.2891 C 40.3809 -51.4648 43.3594 -53.8086 48.0957 -53.8086 C 52.9297 -53.8086 56.0547 -51.416 57.7148 -46.2891 L 64.4531 -26.0742 C 64.9414 -24.3652 65.2344 -23.0957 65.2344 -22.168 C 65.2344 -18.75 63.1348 -16.748 59.5703 -16.748 C 56.4941 -16.748 54.6387 -18.457 53.8574 -22.0215 L 53.2227 -23.9258 L 43.2129 -23.9258 L 42.5781 -22.0215 C 41.7969 -18.457 39.9414 -16.748 36.8652 -16.748 Z M 45.166 -32.2266 L 51.2695 -32.2266 L 48.4375 -43.7988 L 47.998 -43.7988 Z"/>
  </g>
  <g id="Bold-S" transform="matrix(1 0 0 1 2292.44 696)">
   <path d="M 47.5586 5.46875 C 69.873 5.46875 88.2324 -12.8906 88.2324 -35.2051 C 88.2324 -57.5684 69.873 -75.9277 47.5098 -75.9277 C 25.1953 -75.9277 6.83594 -57.5684 6.83594 -35.2051 C 6.83594 -12.8906 25.1953 5.46875 47.5586 5.46875 Z M 35.5469 -16.6016 C 32.5195 -16.6016 30.6641 -18.3594 30.6641 -21.2402 C 30.6641 -22.0703 30.9082 -23.1445 31.3477 -24.6094 L 39.5508 -48.0957 C 40.918 -52.2949 43.457 -54.248 47.4121 -54.248 C 51.4648 -54.248 54.1016 -52.2461 55.5176 -48.0957 L 63.7207 -24.6094 C 64.1113 -23.1445 64.3555 -22.0703 64.3555 -21.2402 C 64.3555 -18.3594 62.5488 -16.6016 59.5215 -16.6016 C 56.9336 -16.6016 55.3223 -17.9688 54.5898 -21.0449 L 53.2227 -25.0977 L 41.7969 -25.0977 L 40.4785 -21.0449 C 39.7461 -17.9688 38.0859 -16.6016 35.5469 -16.6016 Z M 43.7012 -32.373 L 51.3184 -32.373 L 47.7539 -45.0684 L 47.3145 -45.0684 Z"/>
  </g>
  <g id="Semibold-S" transform="matrix(1 0 0 1 1996.2 696)">
   <path d="M 47.0703 4.98047 C 69.0918 4.98047 87.3047 -13.1836 87.3047 -35.2539 C 87.3047 -57.2754 69.0918 -75.4883 47.0215 -75.4883 C 25 -75.4883 6.83594 -57.2754 6.83594 -35.2539 C 6.83594 -13.1836 25.0488 4.98047 47.0703 4.98047 Z M 34.6191 -16.4551 C 31.9336 -16.4551 30.2734 -18.0664 30.2734 -20.5566 C 30.2734 -21.3867 30.5176 -22.3145 30.9082 -23.584 L 40.0879 -49.3164 C 41.3086 -52.8809 43.5547 -54.5898 46.9727 -54.5898 C 50.4883 -54.5898 52.7832 -52.8809 53.9551 -49.3164 L 63.1836 -23.584 C 63.5742 -22.3145 63.7695 -21.3867 63.7695 -20.5566 C 63.7695 -18.0664 62.1582 -16.4551 59.5215 -16.4551 C 57.2754 -16.4551 55.8105 -17.627 55.0781 -20.3613 L 53.2227 -25.8789 L 40.8691 -25.8789 L 39.0137 -20.3613 C 38.2812 -17.627 36.8164 -16.4551 34.6191 -16.4551 Z M 42.7246 -32.4707 L 51.3672 -32.4707 L 47.2656 -45.9473 L 46.8262 -45.9473 Z"/>
  </g>
  <g id="Medium-S" transform="matrix(1 0 0 1 1699.83 696)">
   <path d="M 46.7285 4.63867 C 68.5547 4.63867 86.6211 -13.4277 86.6211 -35.2539 C 86.6211 -57.0312 68.5059 -75.1465 46.6797 -75.1465 C 24.8535 -75.1465 6.83594 -57.0312 6.83594 -35.2539 C 6.83594 -13.4277 24.9023 4.63867 46.7285 4.63867 Z M 33.8867 -16.3574 C 31.4941 -16.3574 30.0293 -17.8223 30.0293 -20.0684 C 30.0293 -20.8008 30.1758 -21.6797 30.5664 -22.8027 L 40.5273 -50.293 C 41.6016 -53.3203 43.6035 -54.834 46.6309 -54.834 C 49.707 -54.834 51.7578 -53.3203 52.832 -50.293 L 62.793 -22.8027 C 63.1836 -21.6797 63.3301 -20.8008 63.3301 -20.0684 C 63.3301 -17.8223 61.8652 -16.3574 59.4727 -16.3574 C 57.4707 -16.3574 56.1523 -17.3828 55.4199 -19.873 L 53.2227 -26.4648 L 40.1367 -26.4648 L 37.9395 -19.873 C 37.207 -17.3828 35.8887 -16.3574 33.8867 -16.3574 Z M 41.9434 -32.5195 L 51.416 -32.5195 L 46.9238 -46.6309 L 46.4355 -46.6309 Z"/>
  </g>
  <g id="Regular-S" transform="matrix(1 0 0 1 1403.58 696)">
   <path d="M 46.2402 4.15039 C 67.7734 4.15039 85.6934 -13.7207 85.6934 -35.2539 C 85.6934 -56.7871 67.7246 -74.6582 46.1914 -74.6582 C 24.707 -74.6582 6.83594 -56.7871 6.83594 -35.2539 C 6.83594 -13.7207 24.7559 4.15039 46.2402 4.15039 Z M 33.0078 -16.2598 C 30.957 -16.2598 29.6387 -17.5293 29.6387 -19.4336 C 29.6387 -20.1172 29.7852 -20.8008 30.127 -21.8262 L 41.1133 -51.5137 C 41.9922 -53.9062 43.6523 -55.127 46.1426 -55.127 C 48.6816 -55.127 50.4395 -53.9062 51.3184 -51.5137 L 62.3047 -21.8262 C 62.6465 -20.8008 62.793 -20.1172 62.793 -19.4336 C 62.793 -17.5293 61.4746 -16.2598 59.4238 -16.2598 C 57.7637 -16.2598 56.6406 -17.0898 55.9082 -19.1895 L 53.2227 -27.2461 L 39.1602 -27.2461 L 36.5234 -19.1895 C 35.791 -17.041 34.6191 -16.2598 33.0078 -16.2598 Z M 40.9668 -32.6172 L 51.4648 -32.6172 L 46.4355 -47.5098 L 45.9961 -47.5098 Z"/>
  </g>
  <g id="Light-S" transform="matrix(1 0 0 1 1107.6 696)">
   <path d="M 45.5078 3.4668 C 66.6992 3.4668 84.2285 -14.0625 84.2285 -35.2051 C 84.2285 -56.3965 66.6504 -73.9258 45.5078 -73.9258 C 24.3164 -73.9258 6.83594 -56.3965 6.83594 -35.2051 C 6.83594 -14.0625 24.3652 3.4668 45.5078 3.4668 Z M 32.2754 -16.5527 C 30.7129 -16.5527 29.6387 -17.5781 29.6387 -19.043 C 29.6387 -19.5801 29.7852 -20.1172 30.0293 -20.8496 L 41.5527 -51.709 C 42.2363 -53.5645 43.5059 -54.4922 45.459 -54.4922 C 47.4121 -54.4922 48.7305 -53.5645 49.4141 -51.709 L 60.9375 -20.8496 C 61.1816 -20.1172 61.3281 -19.5801 61.3281 -18.9941 C 61.3281 -17.5781 60.2539 -16.5527 58.6914 -16.5527 C 57.373 -16.5527 56.4941 -17.2363 55.9082 -18.8477 L 52.7832 -27.832 L 38.1836 -27.832 L 35.0586 -18.8477 C 34.4727 -17.1875 33.5938 -16.5527 32.2754 -16.5527 Z M 39.6484 -32.1289 L 51.3184 -32.1289 L 45.6543 -48.2422 L 45.3125 -48.2422 Z"/>
  </g>
  <g id="Thin-S" transform="matrix(1 0 0 1 811.867 696)">
   <path d="M 44.5801 2.53906 C 65.2832 2.53906 82.2754 -14.4531 82.2754 -35.2051 C 82.2754 -55.9082 65.2344 -72.9004 44.5312 -72.9004 C 23.8281 -72.9004 6.83594 -55.9082 6.83594 -35.2051 C 6.83594 -14.4531 23.877 2.53906 44.5801 2.53906 Z M 31.3965 -16.9922 C 30.3711 -16.9922 29.6875 -17.5781 29.6875 -18.5547 C 29.6875 -18.8965 29.7363 -19.1406 29.9316 -19.6289 L 42.1387 -51.9531 C 42.5781 -53.125 43.3594 -53.7109 44.5312 -53.7109 C 45.7031 -53.7109 46.4844 -53.125 46.9238 -51.9531 L 59.1309 -19.6289 C 59.3262 -19.1406 59.375 -18.8965 59.375 -18.5059 C 59.375 -17.627 58.6914 -16.9922 57.7637 -16.9922 C 56.7871 -16.9922 56.2988 -17.3828 55.957 -18.457 L 52.2461 -28.5645 L 36.8164 -28.5645 L 33.1055 -18.457 C 32.7637 -17.3828 32.2754 -16.9922 31.3965 -16.9922 Z M 37.8906 -31.4941 L 51.1719 -31.4941 L 44.6289 -49.1699 L 44.4336 -49.1699 Z"/>
  </g>
  <g id="Ultralight-S" transform="matrix(1 0 0 1 515.644 696)">
   <path d="M 44.043 2.05078 C 64.502 2.05078 81.2988 -14.6973 81.2988 -35.1562 C 81.2988 -55.6152 64.502 -72.3633 44.043 -72.3633 C 23.584 -72.3633 6.83594 -55.6152 6.83594 -35.1562 C 6.83594 -14.6973 23.584 2.05078 44.043 2.05078 Z M 30.9082 -17.1875 C 30.1758 -17.1875 29.6875 -17.627 29.6875 -18.2617 C 29.6875 -18.5547 29.7363 -18.6523 29.834 -18.9941 L 42.4805 -52.0996 C 42.7246 -52.8809 43.2129 -53.2715 44.043 -53.2715 C 44.8242 -53.2715 45.3125 -52.8809 45.6055 -52.0996 L 58.2031 -18.9941 C 58.3496 -18.6523 58.3984 -18.5547 58.3984 -18.2129 C 58.3984 -17.6758 57.8613 -17.1875 57.2266 -17.1875 C 56.4941 -17.1875 56.2012 -17.5293 55.957 -18.2129 L 51.9043 -28.9551 L 36.1328 -28.9551 L 32.1289 -18.2129 C 31.8359 -17.4805 31.543 -17.1875 30.9082 -17.1875 Z M 36.9629 -31.2012 L 51.0742 -31.2012 L 44.0918 -49.707 L 43.9453 -49.707 Z"/>
  </g>
 </g>
</svg>
