<?xml version="1.0" encoding="UTF-8"?>
<!--Generator: Apple Native CoreSVG 123-->
<!DOCTYPE svg
PUBLIC "-//W3C//DTD SVG 1.1//EN"
       "http://www.w3.org/Graphics/SVG/1.1/DTD/svg11.dtd">
<svg version="1.1" xmlns="http://www.w3.org/2000/svg" xmlns:xlink="http://www.w3.org/1999/xlink" width="3300" height="2200">
 <!--glyph: "uni100007.medium", point size: 100.000000, font version: "Version 15.0d7e11", template writer version: "5"-->
 <g id="Notes">
  <rect height="2200" id="artboard" style="fill:white;opacity:1" width="3300" x="0" y="0"/>
  <line id="" style="fill:none;stroke:black;opacity:1;stroke-width:0.5;" x1="263" x2="3036" y1="292" y2="292"/>
  <text style="stroke:none;fill:black;font-family:-apple-system,&quot;SF Pro Display&quot;,&quot;SF Pro Text&quot;,Helvetica,sans-serif;font-weight:bold;" transform="matrix(1 0 0 1 263 322)">Weight/Scale Variations</text>
  <text style="stroke:none;fill:black;font-family:-apple-system,&quot;SF Pro Display&quot;,&quot;SF Pro Text&quot;,Helvetica,sans-serif;text-anchor:middle;" transform="matrix(1 0 0 1 559.711 322)">Ultralight</text>
  <text style="stroke:none;fill:black;font-family:-apple-system,&quot;SF Pro Display&quot;,&quot;SF Pro Text&quot;,Helvetica,sans-serif;text-anchor:middle;" transform="matrix(1 0 0 1 856.422 322)">Thin</text>
  <text style="stroke:none;fill:black;font-family:-apple-system,&quot;SF Pro Display&quot;,&quot;SF Pro Text&quot;,Helvetica,sans-serif;text-anchor:middle;" transform="matrix(1 0 0 1 1153.13 322)">Light</text>
  <text style="stroke:none;fill:black;font-family:-apple-system,&quot;SF Pro Display&quot;,&quot;SF Pro Text&quot;,Helvetica,sans-serif;text-anchor:middle;" transform="matrix(1 0 0 1 1449.84 322)">Regular</text>
  <text style="stroke:none;fill:black;font-family:-apple-system,&quot;SF Pro Display&quot;,&quot;SF Pro Text&quot;,Helvetica,sans-serif;text-anchor:middle;" transform="matrix(1 0 0 1 1746.56 322)">Medium</text>
  <text style="stroke:none;fill:black;font-family:-apple-system,&quot;SF Pro Display&quot;,&quot;SF Pro Text&quot;,Helvetica,sans-serif;text-anchor:middle;" transform="matrix(1 0 0 1 2043.27 322)">Semibold</text>
  <text style="stroke:none;fill:black;font-family:-apple-system,&quot;SF Pro Display&quot;,&quot;SF Pro Text&quot;,Helvetica,sans-serif;text-anchor:middle;" transform="matrix(1 0 0 1 2339.98 322)">Bold</text>
  <text style="stroke:none;fill:black;font-family:-apple-system,&quot;SF Pro Display&quot;,&quot;SF Pro Text&quot;,Helvetica,sans-serif;text-anchor:middle;" transform="matrix(1 0 0 1 2636.69 322)">Heavy</text>
  <text style="stroke:none;fill:black;font-family:-apple-system,&quot;SF Pro Display&quot;,&quot;SF Pro Text&quot;,Helvetica,sans-serif;text-anchor:middle;" transform="matrix(1 0 0 1 2933.4 322)">Black</text>
  <line id="" style="fill:none;stroke:black;opacity:1;stroke-width:0.5;" x1="263" x2="3036" y1="1903" y2="1903"/>
  <g id="" transform="matrix(1 0 0 1 263 1933)">
   <path d="M 9.24805 0.830078 C 13.5547 0.830078 17.1387 -2.74414 17.1387 -7.05078 C 17.1387 -11.3574 13.5449 -14.9316 9.23828 -14.9316 C 4.94141 -14.9316 1.36719 -11.3574 1.36719 -7.05078 C 1.36719 -2.74414 4.95117 0.830078 9.24805 0.830078 Z M 9.24805 -0.654297 C 5.70312 -0.654297 2.87109 -3.49609 2.87109 -7.05078 C 2.87109 -10.6055 5.69336 -13.4473 9.23828 -13.4473 C 12.793 -13.4473 15.6348 -10.6055 15.6445 -7.05078 C 15.6543 -3.49609 12.8027 -0.654297 9.24805 -0.654297 Z M 9.22852 -3.42773 C 9.69727 -3.42773 9.9707 -3.74023 9.9707 -4.25781 L 9.9707 -6.31836 L 12.1973 -6.31836 C 12.6953 -6.31836 13.0371 -6.57227 13.0371 -7.04102 C 13.0371 -7.51953 12.7148 -7.7832 12.1973 -7.7832 L 9.9707 -7.7832 L 9.9707 -10.0098 C 9.9707 -10.5273 9.69727 -10.8496 9.22852 -10.8496 C 8.75977 -10.8496 8.50586 -10.5078 8.50586 -10.0098 L 8.50586 -7.7832 L 6.29883 -7.7832 C 5.78125 -7.7832 5.44922 -7.51953 5.44922 -7.04102 C 5.44922 -6.57227 5.80078 -6.31836 6.29883 -6.31836 L 8.50586 -6.31836 L 8.50586 -4.25781 C 8.50586 -3.75977 8.75977 -3.42773 9.22852 -3.42773 Z"/>
  </g>
  <g id="" transform="matrix(1 0 0 1 281.506 1933)">
   <path d="M 11.709 2.91016 C 17.1582 2.91016 21.6699 -1.60156 21.6699 -7.05078 C 21.6699 -12.4902 17.1484 -17.0117 11.6992 -17.0117 C 6.25977 -17.0117 1.74805 -12.4902 1.74805 -7.05078 C 1.74805 -1.60156 6.26953 2.91016 11.709 2.91016 Z M 11.709 1.25 C 7.09961 1.25 3.41797 -2.44141 3.41797 -7.05078 C 3.41797 -11.6504 7.08984 -15.3516 11.6992 -15.3516 C 16.3086 -15.3516 20 -11.6504 20.0098 -7.05078 C 20.0195 -2.44141 16.3184 1.25 11.709 1.25 Z M 11.6895 -2.41211 C 12.207 -2.41211 12.5195 -2.77344 12.5195 -3.33984 L 12.5195 -6.23047 L 15.5762 -6.23047 C 16.123 -6.23047 16.5039 -6.51367 16.5039 -7.03125 C 16.5039 -7.55859 16.1426 -7.86133 15.5762 -7.86133 L 12.5195 -7.86133 L 12.5195 -10.9277 C 12.5195 -11.5039 12.207 -11.8555 11.6895 -11.8555 C 11.1719 -11.8555 10.8789 -11.4844 10.8789 -10.9277 L 10.8789 -7.86133 L 7.83203 -7.86133 C 7.26562 -7.86133 6.89453 -7.55859 6.89453 -7.03125 C 6.89453 -6.51367 7.28516 -6.23047 7.83203 -6.23047 L 10.8789 -6.23047 L 10.8789 -3.33984 C 10.8789 -2.79297 11.1719 -2.41211 11.6895 -2.41211 Z"/>
  </g>
  <g id="" transform="matrix(1 0 0 1 304.924 1933)">
   <path d="M 14.9707 5.67383 C 21.9336 5.67383 27.6953 -0.078125 27.6953 -7.04102 C 27.6953 -14.0039 21.9238 -19.7559 14.9609 -19.7559 C 8.00781 -19.7559 2.25586 -14.0039 2.25586 -7.04102 C 2.25586 -0.078125 8.01758 5.67383 14.9707 5.67383 Z M 14.9707 3.85742 C 8.93555 3.85742 4.08203 -1.00586 4.08203 -7.04102 C 4.08203 -13.0762 8.92578 -17.9395 14.9609 -17.9395 C 21.0059 -17.9395 25.8594 -13.0762 25.8691 -7.04102 C 25.8789 -1.00586 21.0156 3.85742 14.9707 3.85742 Z M 14.9512 -1.06445 C 15.5176 -1.06445 15.8691 -1.45508 15.8691 -2.06055 L 15.8691 -6.13281 L 20.1074 -6.13281 C 20.6934 -6.13281 21.1133 -6.46484 21.1133 -7.02148 C 21.1133 -7.59766 20.7227 -7.93945 20.1074 -7.93945 L 15.8691 -7.93945 L 15.8691 -12.1875 C 15.8691 -12.8027 15.5176 -13.1934 14.9512 -13.1934 C 14.3848 -13.1934 14.0625 -12.7832 14.0625 -12.1875 L 14.0625 -7.93945 L 9.83398 -7.93945 C 9.21875 -7.93945 8.80859 -7.59766 8.80859 -7.02148 C 8.80859 -6.46484 9.23828 -6.13281 9.83398 -6.13281 L 14.0625 -6.13281 L 14.0625 -2.06055 C 14.0625 -1.47461 14.3848 -1.06445 14.9512 -1.06445 Z"/>
  </g>
  <text style="stroke:none;fill:black;font-family:-apple-system,&quot;SF Pro Display&quot;,&quot;SF Pro Text&quot;,Helvetica,sans-serif;font-weight:bold;" transform="matrix(1 0 0 1 263 1953)">Design Variations</text>
  <text style="stroke:none;fill:black;font-family:-apple-system,&quot;SF Pro Display&quot;,&quot;SF Pro Text&quot;,Helvetica,sans-serif;" transform="matrix(1 0 0 1 263 1971)">Symbols are supported in up to nine weights and three scales.</text>
  <text style="stroke:none;fill:black;font-family:-apple-system,&quot;SF Pro Display&quot;,&quot;SF Pro Text&quot;,Helvetica,sans-serif;" transform="matrix(1 0 0 1 263 1989)">For optimal layout with text and other symbols, vertically align</text>
  <text style="stroke:none;fill:black;font-family:-apple-system,&quot;SF Pro Display&quot;,&quot;SF Pro Text&quot;,Helvetica,sans-serif;" transform="matrix(1 0 0 1 263 2007)">symbols with the adjacent text.</text>
  <rect height="14" id="" style="fill:#00AEEF;stroke:none;opacity:0.4;" width="3" x="776" y="1919"/>
  <g id="" transform="matrix(1 0 0 1 779 1933)">
   <path d="M 10.5273 0 L 12.373 0 L 7.17773 -14.0918 L 5.43945 -14.0918 L 0.244141 0 L 2.08984 0 L 3.50586 -4.0332 L 9.11133 -4.0332 Z M 6.2793 -11.9531 L 6.33789 -11.9531 L 8.59375 -5.52734 L 4.02344 -5.52734 Z"/>
  </g>
  <rect height="14" id="" style="fill:#00AEEF;stroke:none;opacity:0.4;" width="3" x="791.617" y="1919"/>
  <text style="stroke:none;fill:black;font-family:-apple-system,&quot;SF Pro Display&quot;,&quot;SF Pro Text&quot;,Helvetica,sans-serif;font-weight:bold;" transform="matrix(1 0 0 1 776 1953)">Margins</text>
  <text style="stroke:none;fill:black;font-family:-apple-system,&quot;SF Pro Display&quot;,&quot;SF Pro Text&quot;,Helvetica,sans-serif;" transform="matrix(1 0 0 1 776 1971)">Leading and trailing margins on the left and right side of each symbol</text>
  <text style="stroke:none;fill:black;font-family:-apple-system,&quot;SF Pro Display&quot;,&quot;SF Pro Text&quot;,Helvetica,sans-serif;" transform="matrix(1 0 0 1 776 1989)">can be adjusted by modifying the width of the blue rectangles.</text>
  <text style="stroke:none;fill:black;font-family:-apple-system,&quot;SF Pro Display&quot;,&quot;SF Pro Text&quot;,Helvetica,sans-serif;" transform="matrix(1 0 0 1 776 2007)">Modifications are automatically applied proportionally to all</text>
  <text style="stroke:none;fill:black;font-family:-apple-system,&quot;SF Pro Display&quot;,&quot;SF Pro Text&quot;,Helvetica,sans-serif;" transform="matrix(1 0 0 1 776 2025)">scales and weights.</text>
  <g id="" transform="matrix(1 0 0 1 1289 1933)">
   <path d="M 2.83203 3.11523 L 4.375 4.6582 C 5.22461 5.48828 6.19141 5.41992 7.06055 4.46289 L 17.2754 -6.66016 C 17.7051 -6.36719 18.0957 -6.37695 18.5645 -6.47461 L 19.6094 -6.68945 L 20.3027 -5.99609 L 20.2539 -5.47852 C 20.1855 -4.95117 20.3516 -4.53125 20.8496 -4.0332 L 21.6602 -3.22266 C 22.168 -2.71484 22.8223 -2.68555 23.3008 -3.16406 L 26.5527 -6.41602 C 27.0312 -6.89453 27.0117 -7.54883 26.5039 -8.05664 L 25.6836 -8.87695 C 25.1855 -9.375 24.7754 -9.55078 24.2383 -9.47266 L 23.7109 -9.41406 L 23.0566 -10.0781 L 23.3398 -11.2207 C 23.4863 -11.7871 23.3398 -12.2559 22.7148 -12.8613 L 20.3027 -15.2539 C 16.7578 -18.7793 12.2266 -18.6719 9.11133 -15.5371 C 8.69141 -15.1074 8.64258 -14.5215 8.91602 -14.0918 C 9.15039 -13.7207 9.62891 -13.4961 10.2734 -13.6621 C 11.7871 -14.043 13.3008 -13.9258 14.7852 -12.9199 L 14.1602 -11.3379 C 13.9258 -10.752 13.9453 -10.2734 14.1797 -9.83398 L 3.01758 0.439453 C 2.08008 1.30859 1.97266 2.25586 2.83203 3.11523 Z M 10.6738 -15.1465 C 13.3398 -17.1387 16.6504 -16.8262 19.0527 -14.4141 L 21.6797 -11.8066 C 21.9141 -11.5723 21.9434 -11.3867 21.8848 -11.0938 L 21.5039 -9.53125 L 23.0762 -7.95898 L 24.043 -8.04688 C 24.3262 -8.07617 24.4141 -8.05664 24.6387 -7.83203 L 25.2637 -7.20703 L 22.5098 -4.46289 L 21.8848 -5.07812 C 21.6602 -5.30273 21.6406 -5.40039 21.6699 -5.68359 L 21.7578 -6.64062 L 20.1953 -8.20312 L 18.5742 -7.89062 C 18.291 -7.83203 18.1445 -7.83203 17.9102 -8.07617 L 15.7324 -10.2539 C 15.5078 -10.4883 15.4785 -10.625 15.6055 -10.9473 L 16.5527 -13.2227 C 14.9512 -14.7559 12.8418 -15.6055 10.8008 -14.9512 C 10.7129 -14.9219 10.6445 -14.9414 10.6152 -14.9805 C 10.5859 -15.0293 10.5859 -15.0781 10.6738 -15.1465 Z M 4.10156 2.41211 C 3.61328 1.91406 3.78906 1.61133 4.12109 1.30859 L 15.0781 -8.80859 L 16.3086 -7.57812 L 6.15234 3.34961 C 5.84961 3.68164 5.46875 3.7793 5.06836 3.37891 Z"/>
  </g>
  <text style="stroke:none;fill:black;font-family:-apple-system,&quot;SF Pro Display&quot;,&quot;SF Pro Text&quot;,Helvetica,sans-serif;font-weight:bold;" transform="matrix(1 0 0 1 1289 1953)">Exporting</text>
  <text style="stroke:none;fill:black;font-family:-apple-system,&quot;SF Pro Display&quot;,&quot;SF Pro Text&quot;,Helvetica,sans-serif;" transform="matrix(1 0 0 1 1289 1971)">Symbols should be outlined when exporting to ensure the</text>
  <text style="stroke:none;fill:black;font-family:-apple-system,&quot;SF Pro Display&quot;,&quot;SF Pro Text&quot;,Helvetica,sans-serif;" transform="matrix(1 0 0 1 1289 1989)">design is preserved when submitting to Xcode.</text>
  <text id="template-version" style="stroke:none;fill:black;font-family:-apple-system,&quot;SF Pro Display&quot;,&quot;SF Pro Text&quot;,Helvetica,sans-serif;text-anchor:end;" transform="matrix(1 0 0 1 3036 1933)">Template v.1.0</text>
  <text style="stroke:none;fill:black;font-family:-apple-system,&quot;SF Pro Display&quot;,&quot;SF Pro Text&quot;,Helvetica,sans-serif;text-anchor:end;" transform="matrix(1 0 0 1 3036 1951)">Generated from b.circle.fill</text>
  <text style="stroke:none;fill:black;font-family:-apple-system,&quot;SF Pro Display&quot;,&quot;SF Pro Text&quot;,Helvetica,sans-serif;text-anchor:end;" transform="matrix(1 0 0 1 3036 1969)">Typeset at 100 points</text>
  <text style="stroke:none;fill:black;font-family:-apple-system,&quot;SF Pro Display&quot;,&quot;SF Pro Text&quot;,Helvetica,sans-serif;" transform="matrix(1 0 0 1 263 726)">Small</text>
  <text style="stroke:none;fill:black;font-family:-apple-system,&quot;SF Pro Display&quot;,&quot;SF Pro Text&quot;,Helvetica,sans-serif;" transform="matrix(1 0 0 1 263 1156)">Medium</text>
  <text style="stroke:none;fill:black;font-family:-apple-system,&quot;SF Pro Display&quot;,&quot;SF Pro Text&quot;,Helvetica,sans-serif;" transform="matrix(1 0 0 1 263 1586)">Large</text>
 </g>
 <g id="Guides">
  <g id="H-reference" style="fill:#27AAE1;stroke:none;" transform="matrix(1 0 0 1 339 696)">
   <path d="M 54.9316 0 L 57.666 0 L 30.5664 -70.459 L 28.0762 -70.459 L 0.976562 0 L 3.66211 0 L 12.9395 -24.4629 L 45.7031 -24.4629 Z M 29.1992 -67.0898 L 29.4434 -67.0898 L 44.8242 -26.709 L 13.8184 -26.709 Z"/>
  </g>
  <line id="Baseline-S" style="fill:none;stroke:#27AAE1;opacity:1;stroke-width:0.577;" x1="263" x2="3036" y1="696" y2="696"/>
  <line id="Capline-S" style="fill:none;stroke:#27AAE1;opacity:1;stroke-width:0.577;" x1="263" x2="3036" y1="625.541" y2="625.541"/>
  <g id="H-reference" style="fill:#27AAE1;stroke:none;" transform="matrix(1 0 0 1 339 1126)">
   <path d="M 54.9316 0 L 57.666 0 L 30.5664 -70.459 L 28.0762 -70.459 L 0.976562 0 L 3.66211 0 L 12.9395 -24.4629 L 45.7031 -24.4629 Z M 29.1992 -67.0898 L 29.4434 -67.0898 L 44.8242 -26.709 L 13.8184 -26.709 Z"/>
  </g>
  <line id="Baseline-M" style="fill:none;stroke:#27AAE1;opacity:1;stroke-width:0.577;" x1="263" x2="3036" y1="1126" y2="1126"/>
  <line id="Capline-M" style="fill:none;stroke:#27AAE1;opacity:1;stroke-width:0.577;" x1="263" x2="3036" y1="1055.54" y2="1055.54"/>
  <g id="H-reference" style="fill:#27AAE1;stroke:none;" transform="matrix(1 0 0 1 339 1556)">
   <path d="M 54.9316 0 L 57.666 0 L 30.5664 -70.459 L 28.0762 -70.459 L 0.976562 0 L 3.66211 0 L 12.9395 -24.4629 L 45.7031 -24.4629 Z M 29.1992 -67.0898 L 29.4434 -67.0898 L 44.8242 -26.709 L 13.8184 -26.709 Z"/>
  </g>
  <line id="Baseline-L" style="fill:none;stroke:#27AAE1;opacity:1;stroke-width:0.577;" x1="263" x2="3036" y1="1556" y2="1556"/>
  <line id="Capline-L" style="fill:none;stroke:#27AAE1;opacity:1;stroke-width:0.577;" x1="263" x2="3036" y1="1485.54" y2="1485.54"/>
  <rect height="119.336" id="left-margin" style="fill:#00AEEF;stroke:none;opacity:0.4;" width="8.74023" x="1391.3" y="1030.79"/>
  <rect height="119.336" id="right-margin" style="fill:#00AEEF;stroke:none;opacity:0.4;" width="8.74023" x="1499.65" y="1030.79"/>
 </g>
 <g id="Symbols">
  <g id="Black-L" transform="matrix(1 0 0 1 2854.05 1556)">
   <path d="M 79.3457 32.8613 C 116.748 32.8613 147.412 2.19727 147.412 -35.2051 C 147.412 -72.6074 116.748 -103.271 79.2969 -103.271 C 41.8945 -103.271 11.2793 -72.6074 11.2793 -35.2051 C 11.2793 2.19727 41.9434 32.8613 79.3457 32.8613 Z M 65.7227 -6.10352 C 58.3008 -6.10352 54.4922 -10.0098 54.4922 -17.4316 L 54.4922 -53.2715 C 54.4922 -60.6934 58.3496 -64.5996 65.7227 -64.5996 L 85.791 -64.5996 C 97.4609 -64.5996 104.59 -59.1797 104.59 -50.2441 C 104.59 -43.6523 99.9512 -38.6719 92.9688 -37.5 L 92.9688 -36.9141 C 101.855 -35.791 107.031 -30.4199 107.031 -22.168 C 107.031 -12.6953 98.6816 -6.10352 86.7188 -6.10352 Z M 72.7051 -41.5527 L 78.6133 -41.5527 C 83.7402 -41.5527 86.5234 -43.6035 86.5234 -47.3633 C 86.5234 -50.6348 83.7891 -52.7832 79.6387 -52.7832 L 72.7051 -52.7832 Z M 72.6074 -18.7012 L 79.1016 -18.7012 C 84.9121 -18.7012 87.8418 -20.8496 87.8418 -24.9512 C 87.8418 -28.8086 84.9609 -31.1523 80.0293 -31.1523 L 72.6074 -31.1523 Z"/>
  </g>
  <g id="Heavy-L" transform="matrix(1 0 0 1 2558.39 1556)">
   <path d="M 78.2715 31.7871 C 115.088 31.7871 145.312 1.61133 145.312 -35.2051 C 145.312 -72.0215 115.039 -102.197 78.2715 -102.197 C 41.4551 -102.197 11.2793 -72.0215 11.2793 -35.2051 C 11.2793 1.61133 41.5039 31.7871 78.2715 31.7871 Z M 64.0625 -6.00586 C 57.666 -6.00586 54.2969 -9.42383 54.2969 -15.8203 L 54.2969 -55.0293 C 54.2969 -61.4746 57.7148 -64.8926 64.0625 -64.8926 L 83.9844 -64.8926 C 95.5078 -64.8926 102.637 -59.3262 102.637 -50.4395 C 102.637 -43.8477 98.1934 -38.7695 91.3086 -37.5 L 91.3086 -37.0117 C 100.146 -35.8887 105.371 -30.4199 105.371 -22.2168 C 105.371 -12.5488 96.9727 -6.00586 84.668 -6.00586 Z M 70.2637 -41.1621 L 77.4902 -41.1621 C 83.4473 -41.1621 86.8164 -43.6035 86.8164 -47.8516 C 86.8164 -51.7578 83.6914 -54.248 78.8574 -54.248 L 70.2637 -54.248 Z M 70.2148 -17.2363 L 77.9785 -17.2363 C 85.0586 -17.2363 88.5742 -19.6289 88.5742 -24.4629 C 88.5742 -28.9551 85.2051 -31.6895 79.4434 -31.6895 L 70.2148 -31.6895 Z"/>
  </g>
  <g id="Bold-L" transform="matrix(1 0 0 1 2262.88 1556)">
   <path d="M 77.0996 30.6152 C 113.232 30.6152 142.92 0.878906 142.92 -35.2051 C 142.92 -71.3379 113.184 -101.025 77.0508 -101.025 C 40.9668 -101.025 11.2793 -71.3379 11.2793 -35.2051 C 11.2793 0.878906 41.0156 30.6152 77.0996 30.6152 Z M 62.207 -5.85938 C 56.9336 -5.85938 54.1016 -8.78906 54.1016 -14.0625 L 54.1016 -57.0312 C 54.1016 -62.3535 56.9824 -65.2344 62.207 -65.2344 L 81.9336 -65.2344 C 93.3105 -65.2344 100.488 -59.5215 100.488 -50.6348 C 100.488 -44.043 96.1914 -38.916 89.502 -37.5488 L 89.502 -37.1094 C 98.2422 -35.9375 103.516 -30.4688 103.516 -22.3145 C 103.516 -12.4023 95.0684 -5.85938 82.373 -5.85938 Z M 67.5781 -40.6738 L 76.2207 -40.6738 C 83.1543 -40.6738 87.1094 -43.5547 87.1094 -48.4375 C 87.1094 -53.0273 83.5938 -55.9082 77.9785 -55.9082 L 67.5781 -55.9082 Z M 67.5781 -15.5762 L 76.7578 -15.5762 C 85.2539 -15.5762 89.3555 -18.3105 89.3555 -23.877 C 89.3555 -29.1504 85.498 -32.2754 78.8086 -32.2754 L 67.5781 -32.2754 Z"/>
  </g>
  <g id="Semibold-L" transform="matrix(1 0 0 1 1966.97 1556)">
   <path d="M 76.2695 29.7852 C 111.914 29.7852 141.309 0.439453 141.309 -35.2051 C 141.309 -70.8496 111.865 -100.244 76.2695 -100.244 C 40.625 -100.244 11.2793 -70.8496 11.2793 -35.2051 C 11.2793 0.439453 40.6738 29.7852 76.2695 29.7852 Z M 60.9375 -5.76172 C 56.4453 -5.76172 53.9551 -8.30078 53.9551 -12.8418 L 53.9551 -58.3984 C 53.9551 -62.9395 56.4453 -65.4297 60.9375 -65.4297 L 80.5176 -65.4297 C 91.7969 -65.4297 99.0234 -59.668 99.0234 -50.7324 C 99.0234 -44.1406 94.8242 -38.9648 88.2812 -37.5488 L 88.2812 -37.1582 C 96.9238 -36.0352 102.246 -30.4688 102.246 -22.3633 C 102.246 -12.3047 93.75 -5.76172 80.8105 -5.76172 Z M 65.7227 -40.3809 L 75.3418 -40.3809 C 82.959 -40.3809 87.3047 -43.5547 87.3047 -48.8281 C 87.3047 -53.9062 83.5449 -57.0312 77.3438 -57.0312 L 65.7227 -57.0312 Z M 65.7227 -14.4043 L 75.9277 -14.4043 C 85.3516 -14.4043 89.9414 -17.3828 89.9414 -23.4863 C 89.9414 -29.248 85.6934 -32.666 78.418 -32.666 L 65.7227 -32.666 Z"/>
  </g>
  <g id="Medium-L" transform="matrix(1 0 0 1 1670.87 1556)">
   <path d="M 75.6836 29.1992 C 110.938 29.1992 140.088 0.0488281 140.088 -35.2051 C 140.088 -70.459 110.889 -99.6094 75.6348 -99.6094 C 40.3809 -99.6094 11.2793 -70.459 11.2793 -35.2051 C 11.2793 0.0488281 40.3809 29.1992 75.6836 29.1992 Z M 59.9609 -5.71289 C 56.0547 -5.71289 53.8574 -7.95898 53.8574 -11.8652 L 53.8574 -59.4238 C 53.8574 -63.3789 56.0547 -65.625 59.9609 -65.625 L 79.4434 -65.625 C 90.625 -65.625 97.8516 -59.7656 97.8516 -50.8301 C 97.8516 -44.2383 93.75 -39.0625 87.3047 -37.5488 L 87.3047 -37.207 C 95.9473 -36.084 101.27 -30.4688 101.27 -22.3633 C 101.27 -12.207 92.7734 -5.71289 79.5898 -5.71289 Z M 64.3066 -40.1367 L 74.6582 -40.1367 C 82.7637 -40.1367 87.4512 -43.5547 87.4512 -49.1211 C 87.4512 -54.5898 83.4961 -57.8613 76.9043 -57.8613 L 64.3066 -57.8613 Z M 64.3066 -13.5742 L 75.2441 -13.5742 C 85.4492 -13.5742 90.332 -16.6992 90.332 -23.1445 C 90.332 -29.3457 85.8398 -33.0078 78.0762 -33.0078 L 64.3066 -33.0078 Z"/>
  </g>
  <g id="Regular-L" transform="matrix(1 0 0 1 1374.97 1556)">
   <path d="M 74.8535 28.3691 C 109.668 28.3691 138.477 -0.390625 138.477 -35.2051 C 138.477 -70.0195 109.619 -98.7793 74.8047 -98.7793 C 40.0391 -98.7793 11.2793 -70.0195 11.2793 -35.2051 C 11.2793 -0.390625 40.0879 28.3691 74.8535 28.3691 Z M 58.6426 -5.61523 C 55.5664 -5.61523 53.7109 -7.51953 53.7109 -10.6445 L 53.7109 -60.7422 C 53.7109 -63.9648 55.5664 -65.8203 58.6426 -65.8203 L 78.0762 -65.8203 C 89.1113 -65.8203 96.3867 -59.9121 96.3867 -50.9766 C 96.3867 -44.3848 92.4316 -39.1113 86.084 -37.5977 L 86.084 -37.2559 C 94.6289 -36.1328 100 -30.4688 100 -22.4121 C 100 -12.1094 91.4551 -5.61523 78.0273 -5.61523 Z M 62.5 -39.8438 L 73.7793 -39.8438 C 82.5684 -39.8438 87.6465 -43.5059 87.6465 -49.5117 C 87.6465 -55.4199 83.3984 -58.9844 76.3184 -58.9844 L 62.5 -58.9844 Z M 62.5 -12.4512 L 74.4141 -12.4512 C 85.5957 -12.4512 90.918 -15.7715 90.918 -22.7539 C 90.918 -29.4434 85.9863 -33.3984 77.6367 -33.3984 L 62.5 -33.3984 Z"/>
  </g>
  <g id="Light-L" transform="matrix(1 0 0 1 1079.18 1556)">
   <path d="M 73.9258 27.4902 C 108.301 27.4902 136.621 -0.830078 136.621 -35.1562 C 136.621 -69.5312 108.252 -97.8516 73.9258 -97.8516 C 39.5508 -97.8516 11.2793 -69.5312 11.2793 -35.1562 C 11.2793 -0.830078 39.5996 27.4902 73.9258 27.4902 Z M 57.3242 -5.61523 C 54.9805 -5.61523 53.6133 -7.12891 53.6133 -9.52148 L 53.6133 -61.5234 C 53.6133 -63.9648 54.9805 -65.4297 57.3242 -65.4297 L 76.6113 -65.4297 C 87.2559 -65.4297 94.4824 -59.4238 94.4824 -50.6836 C 94.4824 -44.0918 90.4785 -38.7207 84.4238 -37.3047 L 84.4238 -37.0117 C 92.7734 -35.8398 97.998 -30.2246 97.998 -22.2168 C 97.998 -11.9629 89.8438 -5.61523 76.7578 -5.61523 Z M 60.4004 -39.0625 L 73.4863 -39.0625 C 82.0801 -39.0625 87.5977 -43.2617 87.5977 -49.5605 C 87.5977 -56.0547 83.1055 -59.9121 75.3418 -59.9121 L 60.4004 -59.9121 Z M 60.4004 -11.1328 L 73.8281 -11.1328 C 85.2539 -11.1328 90.918 -14.8438 90.918 -22.3633 C 90.918 -29.4922 85.7422 -33.7891 77.0508 -33.7891 L 60.4004 -33.7891 Z"/>
  </g>
  <g id="Thin-L" transform="matrix(1 0 0 1 783.693 1556)">
   <path d="M 72.7051 26.3184 C 106.494 26.3184 134.18 -1.36719 134.18 -35.1074 C 134.18 -68.8965 106.494 -96.582 72.7051 -96.582 C 38.9648 -96.582 11.2793 -68.8965 11.2793 -35.1074 C 11.2793 -1.36719 38.9648 26.3184 72.7051 26.3184 Z M 55.5664 -5.61523 C 54.1992 -5.61523 53.4668 -6.54297 53.4668 -8.00781 L 53.4668 -62.5 C 53.4668 -63.9648 54.1992 -64.9414 55.5664 -64.9414 L 74.7559 -64.9414 C 84.8145 -64.9414 91.8945 -58.8379 91.8945 -50.3418 C 91.8945 -43.75 87.9395 -38.2324 82.2754 -36.9141 L 82.2754 -36.6699 C 90.2832 -35.498 95.3613 -29.8828 95.3613 -21.9238 C 95.3613 -11.7676 87.6953 -5.61523 75 -5.61523 Z M 57.666 -38.0371 L 73.1445 -38.0371 C 81.4941 -38.0371 87.5488 -42.9199 87.5488 -49.5605 C 87.5488 -56.8359 82.666 -61.084 74.0234 -61.084 L 57.666 -61.084 Z M 57.666 -9.42383 L 73.0957 -9.42383 C 84.8633 -9.42383 90.918 -13.623 90.918 -21.8262 C 90.918 -29.541 85.3516 -34.2773 76.2207 -34.2773 L 57.666 -34.2773 Z"/>
  </g>
  <g id="Ultralight-L" transform="matrix(1 0 0 1 487.616 1556)">
   <path d="M 72.1191 25.7324 C 105.566 25.7324 132.91 -1.61133 132.91 -35.1074 C 132.91 -68.5547 105.566 -95.8984 72.1191 -95.8984 C 38.623 -95.8984 11.2793 -68.5547 11.2793 -35.1074 C 11.2793 -1.61133 38.623 25.7324 72.1191 25.7324 Z M 54.6875 -5.61523 C 53.8086 -5.61523 53.3691 -6.25 53.3691 -7.22656 L 53.3691 -63.0371 C 53.3691 -63.9648 53.8086 -64.6484 54.6875 -64.6484 L 73.7793 -64.6484 C 83.5449 -64.6484 90.5762 -58.5449 90.5762 -50.1465 C 90.5762 -43.5547 86.6699 -37.9395 81.2012 -36.7188 L 81.2012 -36.4746 C 89.0137 -35.3516 94.043 -29.7363 94.043 -21.7773 C 94.043 -11.6699 86.5723 -5.61523 74.1699 -5.61523 Z M 56.2988 -37.5 L 72.9492 -37.5 C 81.1523 -37.5 87.5 -42.7246 87.5 -49.6094 C 87.5 -57.2754 82.4219 -61.7188 73.3887 -61.7188 L 56.2988 -61.7188 Z M 56.2988 -8.54492 L 72.7051 -8.54492 C 84.668 -8.54492 90.918 -13.0371 90.918 -21.5332 C 90.918 -29.5898 85.1562 -34.5215 75.8301 -34.5215 L 56.2988 -34.5215 Z"/>
  </g>
  <g id="Black-M" transform="matrix(1 0 0 1 2870.97 1126)">
   <path d="M 62.4023 18.457 C 91.9922 18.457 116.113 -5.61523 116.113 -35.2051 C 116.113 -64.7949 91.9922 -88.8672 62.4023 -88.8672 C 32.8125 -88.8672 8.74023 -64.7949 8.74023 -35.2051 C 8.74023 -5.61523 32.8125 18.457 62.4023 18.457 Z M 52.4902 -12.8418 C 45.752 -12.8418 42.4316 -16.2109 42.4316 -22.998 L 42.4316 -47.2656 C 42.4316 -53.9551 45.8008 -57.4219 52.4902 -57.4219 L 68.2129 -57.4219 C 77.1973 -57.4219 82.6172 -53.2715 82.6172 -46.5332 C 82.6172 -41.4062 78.8574 -37.5488 73.3398 -36.8164 L 73.3398 -36.2793 C 80.2246 -35.4492 84.1309 -31.2988 84.1309 -24.9023 C 84.1309 -17.8711 77.9297 -12.8418 69.2871 -12.8418 Z M 58.4473 -40.2344 L 62.3047 -40.2344 C 65.0391 -40.2344 66.6504 -41.6016 66.6504 -43.9453 C 66.6504 -45.9473 64.8926 -47.3633 62.2559 -47.3633 L 58.4473 -47.3633 Z M 58.3984 -23.7305 L 62.5 -23.7305 C 65.4297 -23.7305 67.1387 -25.1953 67.1387 -27.7832 C 67.1387 -30.0781 65.332 -31.543 62.4512 -31.543 L 58.3984 -31.543 Z"/>
  </g>
  <g id="Heavy-M" transform="matrix(1 0 0 1 2575.19 1126)">
   <path d="M 61.5234 17.5781 C 90.5273 17.5781 114.258 -6.15234 114.258 -35.2051 C 114.258 -64.2578 90.5273 -87.9883 61.4746 -87.9883 C 32.4707 -87.9883 8.74023 -64.2578 8.74023 -35.2051 C 8.74023 -6.15234 32.4707 17.5781 61.5234 17.5781 Z M 51.0254 -12.6953 C 45.166 -12.6953 42.2363 -15.7227 42.2363 -21.5332 L 42.2363 -48.9746 C 42.2363 -54.7852 45.2148 -57.8125 51.0254 -57.8125 L 66.6016 -57.8125 C 75.5371 -57.8125 81.0059 -53.6133 81.0059 -46.7773 C 81.0059 -41.6504 77.3926 -37.7441 72.0215 -36.9141 L 72.0215 -36.4746 C 78.8574 -35.5957 82.8125 -31.3965 82.8125 -25.0488 C 82.8125 -17.7734 76.4648 -12.6953 67.3828 -12.6953 Z M 56.3965 -40.0391 L 61.1328 -40.0391 C 64.8438 -40.0391 66.9922 -41.6504 66.9922 -44.4824 C 66.9922 -47.0215 64.8926 -48.7305 61.6699 -48.7305 L 56.3965 -48.7305 Z M 56.3477 -22.4121 L 61.4258 -22.4121 C 65.6738 -22.4121 67.9199 -24.1211 67.9199 -27.2949 C 67.9199 -30.2246 65.6738 -32.0312 61.9629 -32.0312 L 56.3477 -32.0312 Z"/>
  </g>
  <g id="Bold-M" transform="matrix(1 0 0 1 2279.5 1126)">
   <path d="M 60.498 16.5039 C 88.8672 16.5039 112.207 -6.78711 112.207 -35.2051 C 112.207 -63.623 88.8672 -86.9629 60.4492 -86.9629 C 32.0312 -86.9629 8.74023 -63.623 8.74023 -35.2051 C 8.74023 -6.78711 32.0801 16.5039 60.498 16.5039 Z M 49.3652 -12.5488 C 44.5801 -12.5488 42.041 -15.1367 42.041 -19.9219 L 42.041 -50.9277 C 42.041 -55.7129 44.5801 -58.3008 49.3652 -58.3008 L 64.7461 -58.3008 C 73.6816 -58.3008 79.1992 -53.9551 79.1992 -47.0703 C 79.1992 -41.9434 75.7812 -37.9883 70.5078 -37.0117 L 70.5078 -36.6211 C 77.2949 -35.7422 81.3965 -31.4941 81.3965 -25.1465 C 81.3965 -17.627 74.8535 -12.5488 65.2344 -12.5488 Z M 54.0527 -39.7461 L 59.8145 -39.7461 C 64.6484 -39.7461 67.334 -41.6992 67.334 -45.1172 C 67.334 -48.2422 64.8438 -50.2441 60.9863 -50.2441 L 54.0527 -50.2441 Z M 54.0039 -20.9961 L 60.2539 -20.9961 C 65.9668 -20.9961 68.7988 -22.9492 68.7988 -26.7578 C 68.7988 -30.4199 66.0645 -32.5684 61.4746 -32.5684 L 54.0039 -32.5684 Z"/>
  </g>
  <g id="Semibold-M" transform="matrix(1 0 0 1 1983.5 1126)">
   <path d="M 59.7656 15.8203 C 87.7441 15.8203 110.791 -7.22656 110.791 -35.2051 C 110.791 -63.1836 87.6953 -86.2793 59.7656 -86.2793 C 31.7871 -86.2793 8.74023 -63.1836 8.74023 -35.2051 C 8.74023 -7.22656 31.7871 15.8203 59.7656 15.8203 Z M 48.1934 -12.4512 C 44.1406 -12.4512 41.9434 -14.6973 41.9434 -18.7988 L 41.9434 -52.2461 C 41.9434 -56.3965 44.1406 -58.5938 48.1934 -58.5938 L 63.4766 -58.5938 C 72.3633 -58.5938 77.9785 -54.1992 77.9785 -47.2656 C 77.9785 -42.1387 74.6582 -38.1836 69.4336 -37.1094 L 69.4336 -36.7188 C 76.2695 -35.8887 80.3711 -31.5918 80.3711 -25.2441 C 80.3711 -17.5293 73.7305 -12.4512 63.7695 -12.4512 Z M 52.4414 -39.5508 L 58.9355 -39.5508 C 64.502 -39.5508 67.5781 -41.748 67.5781 -45.5566 C 67.5781 -49.0723 64.8438 -51.2695 60.498 -51.2695 L 52.4414 -51.2695 Z M 52.3926 -20.0195 L 59.4238 -20.0195 C 66.1621 -20.0195 69.3848 -22.1191 69.3848 -26.416 C 69.3848 -30.5176 66.3574 -32.959 61.1328 -32.959 L 52.3926 -32.959 Z"/>
  </g>
  <g id="Medium-M" transform="matrix(1 0 0 1 1687.3 1126)">
   <path d="M 59.2285 15.2832 C 86.9141 15.2832 109.766 -7.56836 109.766 -35.2051 C 109.766 -62.8906 86.8652 -85.7422 59.1797 -85.7422 C 31.543 -85.7422 8.74023 -62.8906 8.74023 -35.2051 C 8.74023 -7.56836 31.5918 15.2832 59.2285 15.2832 Z M 47.3633 -12.3535 C 43.7988 -12.3535 41.7969 -14.4043 41.7969 -17.9688 L 41.7969 -53.2715 C 41.7969 -56.8848 43.8477 -58.8379 47.3633 -58.8379 L 62.5488 -58.8379 C 71.3867 -58.8379 77.0508 -54.3945 77.0508 -47.4121 C 77.0508 -42.2852 73.8281 -38.2812 68.6523 -37.1582 L 68.6523 -36.8164 C 75.4395 -35.9375 79.6387 -31.6406 79.6387 -25.3418 C 79.6387 -17.4805 72.9004 -12.3535 62.6465 -12.3535 Z M 51.2207 -39.4043 L 58.252 -39.4043 C 64.4043 -39.4043 67.7246 -41.748 67.7246 -45.8984 C 67.7246 -49.707 64.8438 -52.0996 60.1562 -52.0996 L 51.2207 -52.0996 Z M 51.1719 -19.2871 L 58.7891 -19.2871 C 66.3086 -19.2871 69.8242 -21.4844 69.8242 -26.1719 C 69.8242 -30.6152 66.5527 -33.252 60.8887 -33.252 L 51.1719 -33.252 Z"/>
  </g>
  <g id="Regular-M" transform="matrix(1 0 0 1 1391.3 1126)">
   <path d="M 58.5449 14.5508 C 85.791 14.5508 108.35 -8.00781 108.35 -35.2539 C 108.35 -62.4512 85.7422 -85.0586 58.4961 -85.0586 C 31.2988 -85.0586 8.74023 -62.4512 8.74023 -35.2539 C 8.74023 -8.00781 31.3477 14.5508 58.5449 14.5508 Z M 46.2402 -12.2559 C 43.4082 -12.2559 41.6992 -14.0137 41.6992 -16.8457 L 41.6992 -54.5898 C 41.6992 -57.5195 43.4082 -59.1797 46.2402 -59.1797 L 61.2793 -59.1797 C 70.1172 -59.1797 75.8301 -54.6387 75.8301 -47.6074 C 75.8301 -42.4805 72.7051 -38.4766 67.627 -37.207 L 67.627 -36.9629 C 74.4141 -36.084 78.6621 -31.6895 78.6621 -25.4395 C 78.6621 -17.3828 71.8262 -12.2559 61.1816 -12.2559 Z M 49.6094 -39.2578 L 57.3242 -39.2578 C 64.2578 -39.2578 67.9688 -41.7969 67.9688 -46.2891 C 67.9688 -50.5371 64.8438 -53.125 59.668 -53.125 L 49.6094 -53.125 Z M 49.6094 -18.3105 L 58.0078 -18.3105 C 66.5039 -18.3105 70.459 -20.7031 70.459 -25.7812 C 70.459 -30.7617 66.7969 -33.5938 60.498 -33.5938 L 49.6094 -33.5938 Z"/>
  </g>
  <g id="Light-M" transform="matrix(1 0 0 1 1095.42 1126)">
   <path d="M 57.7148 13.7695 C 84.5215 13.7695 106.689 -8.39844 106.689 -35.2051 C 106.689 -62.0117 84.5215 -84.1797 57.666 -84.1797 C 30.8594 -84.1797 8.74023 -62.0117 8.74023 -35.2051 C 8.74023 -8.39844 30.9082 13.7695 57.7148 13.7695 Z M 45.0195 -12.2559 C 42.8711 -12.2559 41.6016 -13.623 41.6016 -15.8203 L 41.6016 -55.2734 C 41.6016 -57.5195 42.8711 -58.7891 45.0195 -58.7891 L 60.0098 -58.7891 C 68.457 -58.7891 74.0723 -54.1992 74.0723 -47.3145 C 74.0723 -42.2363 70.9961 -38.1348 66.1621 -36.9629 L 66.1621 -36.7188 C 72.7539 -35.8398 76.8555 -31.4941 76.8555 -25.2441 C 76.8555 -17.2363 70.3613 -12.2559 60.0586 -12.2559 Z M 47.7539 -38.5254 L 57.0801 -38.5254 C 63.8184 -38.5254 67.9199 -41.5527 67.9199 -46.3379 C 67.9199 -51.0742 64.5508 -53.9551 58.7891 -53.9551 L 47.7539 -53.9551 Z M 47.7539 -17.1387 L 57.4707 -17.1387 C 66.2109 -17.1387 70.459 -19.873 70.459 -25.4395 C 70.459 -30.7617 66.5527 -33.9355 59.9609 -33.9355 L 47.7539 -33.9355 Z"/>
  </g>
  <g id="Thin-M" transform="matrix(1 0 0 1 799.806 1126)">
   <path d="M 56.6406 12.7441 C 82.9102 12.7441 104.492 -8.83789 104.492 -35.1562 C 104.492 -61.4746 82.9102 -83.0566 56.5918 -83.0566 C 30.3223 -83.0566 8.74023 -61.4746 8.74023 -35.1562 C 8.74023 -8.83789 30.3223 12.7441 56.6406 12.7441 Z M 43.457 -12.2559 C 42.1875 -12.2559 41.4551 -13.1348 41.4551 -14.4531 L 41.4551 -56.1523 C 41.4551 -57.5195 42.1875 -58.3496 43.457 -58.3496 L 58.3496 -58.3496 C 66.2598 -58.3496 71.7773 -53.6621 71.7773 -47.0215 C 71.7773 -41.8945 68.7012 -37.6465 64.2578 -36.6211 L 64.2578 -36.4258 C 70.5078 -35.5469 74.4629 -31.1523 74.4629 -25 C 74.4629 -17.0898 68.4082 -12.2559 58.4961 -12.2559 Z M 45.3125 -37.6465 L 56.7383 -37.6465 C 63.2812 -37.6465 67.8711 -41.2598 67.8711 -46.3379 C 67.8711 -51.8066 64.1602 -55.0293 57.666 -55.0293 L 45.3125 -55.0293 Z M 45.3125 -15.625 L 56.7871 -15.625 C 65.8691 -15.625 70.459 -18.75 70.459 -24.9512 C 70.459 -30.8105 66.2109 -34.375 59.2285 -34.375 L 45.3125 -34.375 Z"/>
  </g>
  <g id="Ultralight-M" transform="matrix(1 0 0 1 503.656 1126)">
   <path d="M 56.0547 12.207 C 82.0801 12.207 103.369 -9.08203 103.369 -35.1562 C 103.369 -61.1816 82.0801 -82.4707 56.0547 -82.4707 C 30.0293 -82.4707 8.74023 -61.1816 8.74023 -35.1562 C 8.74023 -9.08203 30.0293 12.207 56.0547 12.207 Z M 42.627 -12.2559 C 41.7969 -12.2559 41.4062 -12.8418 41.4062 -13.7695 L 41.4062 -56.5918 C 41.4062 -57.5195 41.7969 -58.1055 42.627 -58.1055 L 57.4707 -58.1055 C 65.1367 -58.1055 70.6055 -53.3691 70.6055 -46.8262 C 70.6055 -41.748 67.5293 -37.4023 63.2324 -36.4258 L 63.2324 -36.2305 C 69.3359 -35.3516 73.291 -31.0059 73.291 -24.8535 C 73.291 -16.9922 67.4316 -12.2559 57.7148 -12.2559 Z M 44.043 -37.1582 L 56.5918 -37.1582 C 62.9883 -37.1582 67.8223 -41.1133 67.8223 -46.3379 C 67.8223 -52.1973 63.9648 -55.5664 57.0312 -55.5664 L 44.043 -55.5664 Z M 44.043 -14.7949 L 56.4453 -14.7949 C 65.6738 -14.7949 70.459 -18.2129 70.459 -24.707 C 70.459 -30.8594 66.0645 -34.5703 58.8867 -34.5703 L 44.043 -34.5703 Z"/>
  </g>
  <g id="Black-S" transform="matrix(1 0 0 1 2884.57 696)">
   <path d="M 48.8281 6.78711 C 71.9727 6.78711 90.8203 -12.0605 90.8203 -35.2051 C 90.8203 -58.3496 71.9727 -77.1973 48.8281 -77.1973 C 25.6836 -77.1973 6.83594 -58.3496 6.83594 -35.2051 C 6.83594 -12.0605 25.6836 6.78711 48.8281 6.78711 Z M 41.0156 -17.6758 C 35.791 -17.6758 33.2031 -20.3125 33.2031 -25.5371 L 33.2031 -44.7754 C 33.2031 -49.9512 35.8398 -52.6367 41.0156 -52.6367 L 53.3203 -52.6367 C 60.3516 -52.6367 64.5996 -49.4141 64.5996 -44.0918 C 64.5996 -40.0879 61.6699 -37.0605 57.373 -36.4746 L 57.373 -36.084 C 62.7441 -35.4004 65.8203 -32.1777 65.8203 -27.1484 C 65.8203 -21.6309 60.9375 -17.6758 54.1504 -17.6758 Z M 45.6543 -39.1602 L 48.7305 -39.1602 C 50.9277 -39.1602 52.2461 -40.2344 52.2461 -42.0898 C 52.2461 -43.7012 50.8301 -44.8242 48.7305 -44.8242 L 45.6543 -44.8242 Z M 45.6055 -26.123 L 48.877 -26.123 C 51.2695 -26.123 52.6367 -27.2949 52.6367 -29.3457 C 52.6367 -31.2012 51.2207 -32.373 48.877 -32.373 L 45.6055 -32.373 Z"/>
  </g>
  <g id="Heavy-S" transform="matrix(1 0 0 1 2588.47 696)">
   <path d="M 48.2422 6.15234 C 70.9961 6.15234 89.5996 -12.4512 89.5996 -35.2051 C 89.5996 -57.959 70.9961 -76.6113 48.1934 -76.6113 C 25.4395 -76.6113 6.83594 -57.959 6.83594 -35.2051 C 6.83594 -12.4512 25.4395 6.15234 48.2422 6.15234 Z M 40.0391 -17.5781 C 35.4492 -17.5781 33.1055 -19.9707 33.1055 -24.5605 L 33.1055 -46.0449 C 33.1055 -50.5859 35.4492 -52.9785 40.0391 -52.9785 L 52.1973 -52.9785 C 59.2773 -52.9785 63.5742 -49.707 63.5742 -44.3359 C 63.5742 -40.332 60.7422 -37.2559 56.4941 -36.5723 L 56.4941 -36.2305 C 61.8652 -35.5469 65.0391 -32.2754 65.0391 -27.2461 C 65.0391 -21.5332 60.0098 -17.5781 52.832 -17.5781 Z M 44.2383 -39.0625 L 47.8516 -39.0625 C 50.8301 -39.0625 52.4902 -40.2832 52.4902 -42.5293 C 52.4902 -44.4824 50.8301 -45.752 48.3398 -45.752 L 44.2383 -45.752 Z M 44.2383 -25.293 L 48.1445 -25.293 C 51.5137 -25.293 53.2227 -26.5625 53.2227 -29.0527 C 53.2227 -31.2988 51.5137 -32.7148 48.584 -32.7148 L 44.2383 -32.7148 Z"/>
  </g>
  <g id="Bold-S" transform="matrix(1 0 0 1 2292.44 696)">
   <path d="M 47.5586 5.46875 C 69.873 5.46875 88.2324 -12.8906 88.2324 -35.2051 C 88.2324 -57.5684 69.873 -75.9277 47.5098 -75.9277 C 25.1953 -75.9277 6.83594 -57.5684 6.83594 -35.2051 C 6.83594 -12.8906 25.1953 5.46875 47.5586 5.46875 Z M 38.916 -17.4805 C 35.0098 -17.4805 32.959 -19.5312 32.959 -23.4375 L 32.959 -47.4121 C 32.959 -51.3184 35.0586 -53.3691 38.916 -53.3691 L 50.9766 -53.3691 C 58.0566 -53.3691 62.4023 -50 62.4023 -44.5801 C 62.4023 -40.5762 59.7168 -37.5 55.5176 -36.7188 L 55.5176 -36.377 C 60.9375 -35.6934 64.1602 -32.373 64.1602 -27.3926 C 64.1602 -21.4844 58.9355 -17.4805 51.3184 -17.4805 Z M 42.7246 -38.916 L 46.875 -38.916 C 50.7324 -38.916 52.7344 -40.3809 52.7344 -43.0176 C 52.7344 -45.3125 50.8789 -46.8262 47.9492 -46.8262 L 42.7246 -46.8262 Z M 42.6758 -24.3164 L 47.2656 -24.3164 C 51.7578 -24.3164 53.9062 -25.7812 53.9062 -28.6621 C 53.9062 -31.4453 51.8555 -33.1055 48.291 -33.1055 L 42.6758 -33.1055 Z"/>
  </g>
  <g id="Semibold-S" transform="matrix(1 0 0 1 1996.2 696)">
   <path d="M 47.0703 4.98047 C 69.0918 4.98047 87.3047 -13.1836 87.3047 -35.2539 C 87.3047 -57.2754 69.0918 -75.4883 47.0215 -75.4883 C 25 -75.4883 6.83594 -57.2754 6.83594 -35.2539 C 6.83594 -13.1836 25.0488 4.98047 47.0703 4.98047 Z M 38.1348 -17.3828 C 34.7168 -17.3828 32.8613 -19.2871 32.8613 -22.6562 L 32.8613 -48.3887 C 32.8613 -51.8066 34.7656 -53.6621 38.1348 -53.6621 L 50.0977 -53.6621 C 57.2266 -53.6621 61.6211 -50.2441 61.6211 -44.7266 C 61.6211 -40.7227 59.0332 -37.6465 54.834 -36.7676 L 54.834 -36.4746 C 60.2539 -35.791 63.5254 -32.4707 63.5254 -27.4902 C 63.5254 -21.4355 58.2031 -17.3828 50.293 -17.3828 Z M 41.6504 -38.8672 L 46.1914 -38.8672 C 50.6348 -38.8672 52.9297 -40.4297 52.9297 -43.3105 C 52.9297 -45.9473 50.8789 -47.5586 47.6562 -47.5586 L 41.6504 -47.5586 Z M 41.6016 -23.6816 L 46.6797 -23.6816 C 51.9043 -23.6816 54.3457 -25.1953 54.3457 -28.418 C 54.3457 -31.543 52.0508 -33.3496 48.0469 -33.3496 L 41.6016 -33.3496 Z"/>
  </g>
  <g id="Medium-S" transform="matrix(1 0 0 1 1699.83 696)">
   <path d="M 46.7285 4.63867 C 68.5547 4.63867 86.6211 -13.4277 86.6211 -35.2539 C 86.6211 -57.0312 68.5059 -75.1465 46.6797 -75.1465 C 24.8535 -75.1465 6.83594 -57.0312 6.83594 -35.2539 C 6.83594 -13.4277 24.9023 4.63867 46.7285 4.63867 Z M 37.5488 -17.334 C 34.5215 -17.334 32.8125 -19.043 32.8125 -22.0703 L 32.8125 -49.1211 C 32.8125 -52.1973 34.5215 -53.8574 37.5488 -53.8574 L 49.4629 -53.8574 C 56.5918 -53.8574 61.0352 -50.3906 61.0352 -44.873 C 61.0352 -40.8691 58.4961 -37.793 54.3457 -36.8652 L 54.3457 -36.5723 C 59.7656 -35.8887 63.0859 -32.5195 63.0859 -27.5879 C 63.0859 -21.3867 57.666 -17.334 49.5117 -17.334 Z M 40.8203 -38.7695 L 45.7031 -38.7695 C 50.5859 -38.7695 53.0762 -40.4297 53.0762 -43.5547 C 53.0762 -46.3867 50.9277 -48.1445 47.4609 -48.1445 L 40.8203 -48.1445 Z M 40.8203 -23.1934 L 46.2402 -23.1934 C 52.0508 -23.1934 54.7363 -24.8047 54.7363 -28.2715 C 54.7363 -31.5918 52.2461 -33.5449 47.9004 -33.5449 L 40.8203 -33.5449 Z"/>
  </g>
  <g id="Regular-S" transform="matrix(1 0 0 1 1403.58 696)">
   <path d="M 46.2402 4.15039 C 67.7734 4.15039 85.6934 -13.7207 85.6934 -35.2539 C 85.6934 -56.7871 67.7246 -74.6582 46.1914 -74.6582 C 24.707 -74.6582 6.83594 -56.7871 6.83594 -35.2539 C 6.83594 -13.7207 24.7559 4.15039 46.2402 4.15039 Z M 36.7676 -17.2363 C 34.2285 -17.2363 32.7148 -18.7988 32.7148 -21.3379 L 32.7148 -50.0488 C 32.7148 -52.6855 34.2285 -54.1504 36.7676 -54.1504 L 48.6328 -54.1504 C 55.7617 -54.1504 60.2051 -50.6348 60.2051 -45.0195 C 60.2051 -41.0156 57.8125 -37.9395 53.6621 -36.9141 L 53.6621 -36.6699 C 59.1309 -35.9863 62.4512 -32.5684 62.4512 -27.6367 C 62.4512 -21.3379 56.9336 -17.2363 48.4863 -17.2363 Z M 39.7461 -38.7207 L 45.0195 -38.7207 C 50.5371 -38.7207 53.2715 -40.4785 53.2715 -43.8965 C 53.2715 -46.9727 50.9277 -48.877 47.168 -48.877 L 39.7461 -48.877 Z M 39.7461 -22.5098 L 45.6543 -22.5098 C 52.1973 -22.5098 55.1758 -24.2188 55.1758 -28.0273 C 55.1758 -31.6895 52.4414 -33.7891 47.6562 -33.7891 L 39.7461 -33.7891 Z"/>
  </g>
  <g id="Light-S" transform="matrix(1 0 0 1 1107.6 696)">
   <path d="M 45.5078 3.4668 C 66.6992 3.4668 84.2285 -14.0625 84.2285 -35.2051 C 84.2285 -56.3965 66.6504 -73.9258 45.5078 -73.9258 C 24.3164 -73.9258 6.83594 -56.3965 6.83594 -35.2051 C 6.83594 -14.0625 24.3652 3.4668 45.5078 3.4668 Z M 35.7422 -17.2363 C 33.7891 -17.2363 32.6172 -18.457 32.6172 -20.4102 L 32.6172 -50.6348 C 32.6172 -52.6855 33.7891 -53.8574 35.7422 -53.8574 L 47.5098 -53.8574 C 54.248 -53.8574 58.6914 -50.2441 58.6914 -44.8242 C 58.6914 -40.8203 56.25 -37.6465 52.3926 -36.6699 L 52.3926 -36.4746 C 57.6172 -35.791 60.8887 -32.373 60.8887 -27.4902 C 60.8887 -21.1914 55.6641 -17.2363 47.4609 -17.2363 Z M 38.0859 -38.0859 L 44.8242 -38.0859 C 50.1465 -38.0859 53.2227 -40.2832 53.2227 -43.8965 C 53.2227 -47.4609 50.6836 -49.5605 46.3867 -49.5605 L 38.0859 -49.5605 Z M 38.0859 -21.4844 L 45.2148 -21.4844 C 51.9531 -21.4844 55.1758 -23.4863 55.1758 -27.6855 C 55.1758 -31.7383 52.2461 -34.082 47.168 -34.082 L 38.0859 -34.082 Z"/>
  </g>
  <g id="Thin-S" transform="matrix(1 0 0 1 811.867 696)">
   <path d="M 44.5801 2.53906 C 65.2832 2.53906 82.2754 -14.4531 82.2754 -35.2051 C 82.2754 -55.9082 65.2344 -72.9004 44.5312 -72.9004 C 23.8281 -72.9004 6.83594 -55.9082 6.83594 -35.2051 C 6.83594 -14.4531 23.877 2.53906 44.5801 2.53906 Z M 34.3262 -17.2363 C 33.1543 -17.2363 32.5195 -18.0176 32.5195 -19.2383 L 32.5195 -51.4648 C 32.5195 -52.6855 33.1543 -53.418 34.3262 -53.418 L 45.9961 -53.418 C 52.2949 -53.418 56.6406 -49.7559 56.6406 -44.5312 C 56.6406 -40.5273 54.248 -37.207 50.6836 -36.377 L 50.6836 -36.2305 C 55.6641 -35.5469 58.7891 -32.1289 58.7891 -27.2461 C 58.7891 -21.0449 53.9551 -17.2363 46.1426 -17.2363 Z M 35.9375 -37.3047 L 44.5312 -37.3047 C 49.6582 -37.3047 53.1738 -40.0391 53.1738 -43.9453 C 53.1738 -48.0957 50.3418 -50.5371 45.3613 -50.5371 L 35.9375 -50.5371 Z M 35.9375 -20.166 L 44.6289 -20.166 C 51.6602 -20.166 55.1758 -22.5586 55.1758 -27.2949 C 55.1758 -31.7383 51.9531 -34.4727 46.5332 -34.4727 L 35.9375 -34.4727 Z"/>
  </g>
  <g id="Ultralight-S" transform="matrix(1 0 0 1 515.644 696)">
   <path d="M 44.043 2.05078 C 64.502 2.05078 81.2988 -14.6973 81.2988 -35.1562 C 81.2988 -55.6152 64.502 -72.3633 44.043 -72.3633 C 23.584 -72.3633 6.83594 -55.6152 6.83594 -35.1562 C 6.83594 -14.6973 23.584 2.05078 44.043 2.05078 Z M 33.5938 -17.2363 C 32.8125 -17.2363 32.4219 -17.7734 32.4219 -18.6035 L 32.4219 -51.8555 C 32.4219 -52.6855 32.8125 -53.2227 33.5938 -53.2227 L 45.2637 -53.2227 C 51.3184 -53.2227 55.6152 -49.5117 55.6152 -44.3848 C 55.6152 -40.3809 53.2227 -37.0117 49.8047 -36.2305 L 49.8047 -36.084 C 54.6387 -35.4004 57.7148 -31.9824 57.7148 -27.1484 C 57.7148 -20.9473 53.0762 -17.2363 45.4102 -17.2363 Z M 34.8145 -36.8652 L 44.3848 -36.8652 C 49.4141 -36.8652 53.125 -39.8926 53.125 -43.9453 C 53.125 -48.3887 50.1465 -51.0254 44.8242 -51.0254 L 34.8145 -51.0254 Z M 34.8145 -19.4336 L 44.2871 -19.4336 C 51.5137 -19.4336 55.1758 -22.0215 55.1758 -27.0508 C 55.1758 -31.7871 51.8066 -34.668 46.2402 -34.668 L 34.8145 -34.668 Z"/>
  </g>
 </g>
</svg>
