<?xml version="1.0" encoding="UTF-8"?>
<!--Generator: Apple Native CoreSVG 123-->
<!DOCTYPE svg
PUBLIC "-//W3C//DTD SVG 1.1//EN"
       "http://www.w3.org/Graphics/SVG/1.1/DTD/svg11.dtd">
<svg version="1.1" xmlns="http://www.w3.org/2000/svg" xmlns:xlink="http://www.w3.org/1999/xlink" width="3300" height="2200">
 <!--glyph: "uni10000F.medium", point size: 100.000000, font version: "Version 15.0d7e11", template writer version: "5"-->
 <g id="Notes">
  <rect height="2200" id="artboard" style="fill:white;opacity:1" width="3300" x="0" y="0"/>
  <line id="" style="fill:none;stroke:black;opacity:1;stroke-width:0.5;" x1="263" x2="3036" y1="292" y2="292"/>
  <text style="stroke:none;fill:black;font-family:-apple-system,&quot;SF Pro Display&quot;,&quot;SF Pro Text&quot;,Helvetica,sans-serif;font-weight:bold;" transform="matrix(1 0 0 1 263 322)">Weight/Scale Variations</text>
  <text style="stroke:none;fill:black;font-family:-apple-system,&quot;SF Pro Display&quot;,&quot;SF Pro Text&quot;,Helvetica,sans-serif;text-anchor:middle;" transform="matrix(1 0 0 1 559.711 322)">Ultralight</text>
  <text style="stroke:none;fill:black;font-family:-apple-system,&quot;SF Pro Display&quot;,&quot;SF Pro Text&quot;,Helvetica,sans-serif;text-anchor:middle;" transform="matrix(1 0 0 1 856.422 322)">Thin</text>
  <text style="stroke:none;fill:black;font-family:-apple-system,&quot;SF Pro Display&quot;,&quot;SF Pro Text&quot;,Helvetica,sans-serif;text-anchor:middle;" transform="matrix(1 0 0 1 1153.13 322)">Light</text>
  <text style="stroke:none;fill:black;font-family:-apple-system,&quot;SF Pro Display&quot;,&quot;SF Pro Text&quot;,Helvetica,sans-serif;text-anchor:middle;" transform="matrix(1 0 0 1 1449.84 322)">Regular</text>
  <text style="stroke:none;fill:black;font-family:-apple-system,&quot;SF Pro Display&quot;,&quot;SF Pro Text&quot;,Helvetica,sans-serif;text-anchor:middle;" transform="matrix(1 0 0 1 1746.56 322)">Medium</text>
  <text style="stroke:none;fill:black;font-family:-apple-system,&quot;SF Pro Display&quot;,&quot;SF Pro Text&quot;,Helvetica,sans-serif;text-anchor:middle;" transform="matrix(1 0 0 1 2043.27 322)">Semibold</text>
  <text style="stroke:none;fill:black;font-family:-apple-system,&quot;SF Pro Display&quot;,&quot;SF Pro Text&quot;,Helvetica,sans-serif;text-anchor:middle;" transform="matrix(1 0 0 1 2339.98 322)">Bold</text>
  <text style="stroke:none;fill:black;font-family:-apple-system,&quot;SF Pro Display&quot;,&quot;SF Pro Text&quot;,Helvetica,sans-serif;text-anchor:middle;" transform="matrix(1 0 0 1 2636.69 322)">Heavy</text>
  <text style="stroke:none;fill:black;font-family:-apple-system,&quot;SF Pro Display&quot;,&quot;SF Pro Text&quot;,Helvetica,sans-serif;text-anchor:middle;" transform="matrix(1 0 0 1 2933.4 322)">Black</text>
  <line id="" style="fill:none;stroke:black;opacity:1;stroke-width:0.5;" x1="263" x2="3036" y1="1903" y2="1903"/>
  <g id="" transform="matrix(1 0 0 1 263 1933)">
   <path d="M 9.24805 0.830078 C 13.5547 0.830078 17.1387 -2.74414 17.1387 -7.05078 C 17.1387 -11.3574 13.5449 -14.9316 9.23828 -14.9316 C 4.94141 -14.9316 1.36719 -11.3574 1.36719 -7.05078 C 1.36719 -2.74414 4.95117 0.830078 9.24805 0.830078 Z M 9.24805 -0.654297 C 5.70312 -0.654297 2.87109 -3.49609 2.87109 -7.05078 C 2.87109 -10.6055 5.69336 -13.4473 9.23828 -13.4473 C 12.793 -13.4473 15.6348 -10.6055 15.6445 -7.05078 C 15.6543 -3.49609 12.8027 -0.654297 9.24805 -0.654297 Z M 9.22852 -3.42773 C 9.69727 -3.42773 9.9707 -3.74023 9.9707 -4.25781 L 9.9707 -6.31836 L 12.1973 -6.31836 C 12.6953 -6.31836 13.0371 -6.57227 13.0371 -7.04102 C 13.0371 -7.51953 12.7148 -7.7832 12.1973 -7.7832 L 9.9707 -7.7832 L 9.9707 -10.0098 C 9.9707 -10.5273 9.69727 -10.8496 9.22852 -10.8496 C 8.75977 -10.8496 8.50586 -10.5078 8.50586 -10.0098 L 8.50586 -7.7832 L 6.29883 -7.7832 C 5.78125 -7.7832 5.44922 -7.51953 5.44922 -7.04102 C 5.44922 -6.57227 5.80078 -6.31836 6.29883 -6.31836 L 8.50586 -6.31836 L 8.50586 -4.25781 C 8.50586 -3.75977 8.75977 -3.42773 9.22852 -3.42773 Z"/>
  </g>
  <g id="" transform="matrix(1 0 0 1 281.506 1933)">
   <path d="M 11.709 2.91016 C 17.1582 2.91016 21.6699 -1.60156 21.6699 -7.05078 C 21.6699 -12.4902 17.1484 -17.0117 11.6992 -17.0117 C 6.25977 -17.0117 1.74805 -12.4902 1.74805 -7.05078 C 1.74805 -1.60156 6.26953 2.91016 11.709 2.91016 Z M 11.709 1.25 C 7.09961 1.25 3.41797 -2.44141 3.41797 -7.05078 C 3.41797 -11.6504 7.08984 -15.3516 11.6992 -15.3516 C 16.3086 -15.3516 20 -11.6504 20.0098 -7.05078 C 20.0195 -2.44141 16.3184 1.25 11.709 1.25 Z M 11.6895 -2.41211 C 12.207 -2.41211 12.5195 -2.77344 12.5195 -3.33984 L 12.5195 -6.23047 L 15.5762 -6.23047 C 16.123 -6.23047 16.5039 -6.51367 16.5039 -7.03125 C 16.5039 -7.55859 16.1426 -7.86133 15.5762 -7.86133 L 12.5195 -7.86133 L 12.5195 -10.9277 C 12.5195 -11.5039 12.207 -11.8555 11.6895 -11.8555 C 11.1719 -11.8555 10.8789 -11.4844 10.8789 -10.9277 L 10.8789 -7.86133 L 7.83203 -7.86133 C 7.26562 -7.86133 6.89453 -7.55859 6.89453 -7.03125 C 6.89453 -6.51367 7.28516 -6.23047 7.83203 -6.23047 L 10.8789 -6.23047 L 10.8789 -3.33984 C 10.8789 -2.79297 11.1719 -2.41211 11.6895 -2.41211 Z"/>
  </g>
  <g id="" transform="matrix(1 0 0 1 304.924 1933)">
   <path d="M 14.9707 5.67383 C 21.9336 5.67383 27.6953 -0.078125 27.6953 -7.04102 C 27.6953 -14.0039 21.9238 -19.7559 14.9609 -19.7559 C 8.00781 -19.7559 2.25586 -14.0039 2.25586 -7.04102 C 2.25586 -0.078125 8.01758 5.67383 14.9707 5.67383 Z M 14.9707 3.85742 C 8.93555 3.85742 4.08203 -1.00586 4.08203 -7.04102 C 4.08203 -13.0762 8.92578 -17.9395 14.9609 -17.9395 C 21.0059 -17.9395 25.8594 -13.0762 25.8691 -7.04102 C 25.8789 -1.00586 21.0156 3.85742 14.9707 3.85742 Z M 14.9512 -1.06445 C 15.5176 -1.06445 15.8691 -1.45508 15.8691 -2.06055 L 15.8691 -6.13281 L 20.1074 -6.13281 C 20.6934 -6.13281 21.1133 -6.46484 21.1133 -7.02148 C 21.1133 -7.59766 20.7227 -7.93945 20.1074 -7.93945 L 15.8691 -7.93945 L 15.8691 -12.1875 C 15.8691 -12.8027 15.5176 -13.1934 14.9512 -13.1934 C 14.3848 -13.1934 14.0625 -12.7832 14.0625 -12.1875 L 14.0625 -7.93945 L 9.83398 -7.93945 C 9.21875 -7.93945 8.80859 -7.59766 8.80859 -7.02148 C 8.80859 -6.46484 9.23828 -6.13281 9.83398 -6.13281 L 14.0625 -6.13281 L 14.0625 -2.06055 C 14.0625 -1.47461 14.3848 -1.06445 14.9512 -1.06445 Z"/>
  </g>
  <text style="stroke:none;fill:black;font-family:-apple-system,&quot;SF Pro Display&quot;,&quot;SF Pro Text&quot;,Helvetica,sans-serif;font-weight:bold;" transform="matrix(1 0 0 1 263 1953)">Design Variations</text>
  <text style="stroke:none;fill:black;font-family:-apple-system,&quot;SF Pro Display&quot;,&quot;SF Pro Text&quot;,Helvetica,sans-serif;" transform="matrix(1 0 0 1 263 1971)">Symbols are supported in up to nine weights and three scales.</text>
  <text style="stroke:none;fill:black;font-family:-apple-system,&quot;SF Pro Display&quot;,&quot;SF Pro Text&quot;,Helvetica,sans-serif;" transform="matrix(1 0 0 1 263 1989)">For optimal layout with text and other symbols, vertically align</text>
  <text style="stroke:none;fill:black;font-family:-apple-system,&quot;SF Pro Display&quot;,&quot;SF Pro Text&quot;,Helvetica,sans-serif;" transform="matrix(1 0 0 1 263 2007)">symbols with the adjacent text.</text>
  <rect height="14" id="" style="fill:#00AEEF;stroke:none;opacity:0.4;" width="3" x="776" y="1919"/>
  <g id="" transform="matrix(1 0 0 1 779 1933)">
   <path d="M 10.5273 0 L 12.373 0 L 7.17773 -14.0918 L 5.43945 -14.0918 L 0.244141 0 L 2.08984 0 L 3.50586 -4.0332 L 9.11133 -4.0332 Z M 6.2793 -11.9531 L 6.33789 -11.9531 L 8.59375 -5.52734 L 4.02344 -5.52734 Z"/>
  </g>
  <rect height="14" id="" style="fill:#00AEEF;stroke:none;opacity:0.4;" width="3" x="791.617" y="1919"/>
  <text style="stroke:none;fill:black;font-family:-apple-system,&quot;SF Pro Display&quot;,&quot;SF Pro Text&quot;,Helvetica,sans-serif;font-weight:bold;" transform="matrix(1 0 0 1 776 1953)">Margins</text>
  <text style="stroke:none;fill:black;font-family:-apple-system,&quot;SF Pro Display&quot;,&quot;SF Pro Text&quot;,Helvetica,sans-serif;" transform="matrix(1 0 0 1 776 1971)">Leading and trailing margins on the left and right side of each symbol</text>
  <text style="stroke:none;fill:black;font-family:-apple-system,&quot;SF Pro Display&quot;,&quot;SF Pro Text&quot;,Helvetica,sans-serif;" transform="matrix(1 0 0 1 776 1989)">can be adjusted by modifying the width of the blue rectangles.</text>
  <text style="stroke:none;fill:black;font-family:-apple-system,&quot;SF Pro Display&quot;,&quot;SF Pro Text&quot;,Helvetica,sans-serif;" transform="matrix(1 0 0 1 776 2007)">Modifications are automatically applied proportionally to all</text>
  <text style="stroke:none;fill:black;font-family:-apple-system,&quot;SF Pro Display&quot;,&quot;SF Pro Text&quot;,Helvetica,sans-serif;" transform="matrix(1 0 0 1 776 2025)">scales and weights.</text>
  <g id="" transform="matrix(1 0 0 1 1289 1933)">
   <path d="M 2.83203 3.11523 L 4.375 4.6582 C 5.22461 5.48828 6.19141 5.41992 7.06055 4.46289 L 17.2754 -6.66016 C 17.7051 -6.36719 18.0957 -6.37695 18.5645 -6.47461 L 19.6094 -6.68945 L 20.3027 -5.99609 L 20.2539 -5.47852 C 20.1855 -4.95117 20.3516 -4.53125 20.8496 -4.0332 L 21.6602 -3.22266 C 22.168 -2.71484 22.8223 -2.68555 23.3008 -3.16406 L 26.5527 -6.41602 C 27.0312 -6.89453 27.0117 -7.54883 26.5039 -8.05664 L 25.6836 -8.87695 C 25.1855 -9.375 24.7754 -9.55078 24.2383 -9.47266 L 23.7109 -9.41406 L 23.0566 -10.0781 L 23.3398 -11.2207 C 23.4863 -11.7871 23.3398 -12.2559 22.7148 -12.8613 L 20.3027 -15.2539 C 16.7578 -18.7793 12.2266 -18.6719 9.11133 -15.5371 C 8.69141 -15.1074 8.64258 -14.5215 8.91602 -14.0918 C 9.15039 -13.7207 9.62891 -13.4961 10.2734 -13.6621 C 11.7871 -14.043 13.3008 -13.9258 14.7852 -12.9199 L 14.1602 -11.3379 C 13.9258 -10.752 13.9453 -10.2734 14.1797 -9.83398 L 3.01758 0.439453 C 2.08008 1.30859 1.97266 2.25586 2.83203 3.11523 Z M 10.6738 -15.1465 C 13.3398 -17.1387 16.6504 -16.8262 19.0527 -14.4141 L 21.6797 -11.8066 C 21.9141 -11.5723 21.9434 -11.3867 21.8848 -11.0938 L 21.5039 -9.53125 L 23.0762 -7.95898 L 24.043 -8.04688 C 24.3262 -8.07617 24.4141 -8.05664 24.6387 -7.83203 L 25.2637 -7.20703 L 22.5098 -4.46289 L 21.8848 -5.07812 C 21.6602 -5.30273 21.6406 -5.40039 21.6699 -5.68359 L 21.7578 -6.64062 L 20.1953 -8.20312 L 18.5742 -7.89062 C 18.291 -7.83203 18.1445 -7.83203 17.9102 -8.07617 L 15.7324 -10.2539 C 15.5078 -10.4883 15.4785 -10.625 15.6055 -10.9473 L 16.5527 -13.2227 C 14.9512 -14.7559 12.8418 -15.6055 10.8008 -14.9512 C 10.7129 -14.9219 10.6445 -14.9414 10.6152 -14.9805 C 10.5859 -15.0293 10.5859 -15.0781 10.6738 -15.1465 Z M 4.10156 2.41211 C 3.61328 1.91406 3.78906 1.61133 4.12109 1.30859 L 15.0781 -8.80859 L 16.3086 -7.57812 L 6.15234 3.34961 C 5.84961 3.68164 5.46875 3.7793 5.06836 3.37891 Z"/>
  </g>
  <text style="stroke:none;fill:black;font-family:-apple-system,&quot;SF Pro Display&quot;,&quot;SF Pro Text&quot;,Helvetica,sans-serif;font-weight:bold;" transform="matrix(1 0 0 1 1289 1953)">Exporting</text>
  <text style="stroke:none;fill:black;font-family:-apple-system,&quot;SF Pro Display&quot;,&quot;SF Pro Text&quot;,Helvetica,sans-serif;" transform="matrix(1 0 0 1 1289 1971)">Symbols should be outlined when exporting to ensure the</text>
  <text style="stroke:none;fill:black;font-family:-apple-system,&quot;SF Pro Display&quot;,&quot;SF Pro Text&quot;,Helvetica,sans-serif;" transform="matrix(1 0 0 1 1289 1989)">design is preserved when submitting to Xcode.</text>
  <text id="template-version" style="stroke:none;fill:black;font-family:-apple-system,&quot;SF Pro Display&quot;,&quot;SF Pro Text&quot;,Helvetica,sans-serif;text-anchor:end;" transform="matrix(1 0 0 1 3036 1933)">Template v.1.0</text>
  <text style="stroke:none;fill:black;font-family:-apple-system,&quot;SF Pro Display&quot;,&quot;SF Pro Text&quot;,Helvetica,sans-serif;text-anchor:end;" transform="matrix(1 0 0 1 3036 1951)">Generated from f.circle.fill</text>
  <text style="stroke:none;fill:black;font-family:-apple-system,&quot;SF Pro Display&quot;,&quot;SF Pro Text&quot;,Helvetica,sans-serif;text-anchor:end;" transform="matrix(1 0 0 1 3036 1969)">Typeset at 100 points</text>
  <text style="stroke:none;fill:black;font-family:-apple-system,&quot;SF Pro Display&quot;,&quot;SF Pro Text&quot;,Helvetica,sans-serif;" transform="matrix(1 0 0 1 263 726)">Small</text>
  <text style="stroke:none;fill:black;font-family:-apple-system,&quot;SF Pro Display&quot;,&quot;SF Pro Text&quot;,Helvetica,sans-serif;" transform="matrix(1 0 0 1 263 1156)">Medium</text>
  <text style="stroke:none;fill:black;font-family:-apple-system,&quot;SF Pro Display&quot;,&quot;SF Pro Text&quot;,Helvetica,sans-serif;" transform="matrix(1 0 0 1 263 1586)">Large</text>
 </g>
 <g id="Guides">
  <g id="H-reference" style="fill:#27AAE1;stroke:none;" transform="matrix(1 0 0 1 339 696)">
   <path d="M 54.9316 0 L 57.666 0 L 30.5664 -70.459 L 28.0762 -70.459 L 0.976562 0 L 3.66211 0 L 12.9395 -24.4629 L 45.7031 -24.4629 Z M 29.1992 -67.0898 L 29.4434 -67.0898 L 44.8242 -26.709 L 13.8184 -26.709 Z"/>
  </g>
  <line id="Baseline-S" style="fill:none;stroke:#27AAE1;opacity:1;stroke-width:0.577;" x1="263" x2="3036" y1="696" y2="696"/>
  <line id="Capline-S" style="fill:none;stroke:#27AAE1;opacity:1;stroke-width:0.577;" x1="263" x2="3036" y1="625.541" y2="625.541"/>
  <g id="H-reference" style="fill:#27AAE1;stroke:none;" transform="matrix(1 0 0 1 339 1126)">
   <path d="M 54.9316 0 L 57.666 0 L 30.5664 -70.459 L 28.0762 -70.459 L 0.976562 0 L 3.66211 0 L 12.9395 -24.4629 L 45.7031 -24.4629 Z M 29.1992 -67.0898 L 29.4434 -67.0898 L 44.8242 -26.709 L 13.8184 -26.709 Z"/>
  </g>
  <line id="Baseline-M" style="fill:none;stroke:#27AAE1;opacity:1;stroke-width:0.577;" x1="263" x2="3036" y1="1126" y2="1126"/>
  <line id="Capline-M" style="fill:none;stroke:#27AAE1;opacity:1;stroke-width:0.577;" x1="263" x2="3036" y1="1055.54" y2="1055.54"/>
  <g id="H-reference" style="fill:#27AAE1;stroke:none;" transform="matrix(1 0 0 1 339 1556)">
   <path d="M 54.9316 0 L 57.666 0 L 30.5664 -70.459 L 28.0762 -70.459 L 0.976562 0 L 3.66211 0 L 12.9395 -24.4629 L 45.7031 -24.4629 Z M 29.1992 -67.0898 L 29.4434 -67.0898 L 44.8242 -26.709 L 13.8184 -26.709 Z"/>
  </g>
  <line id="Baseline-L" style="fill:none;stroke:#27AAE1;opacity:1;stroke-width:0.577;" x1="263" x2="3036" y1="1556" y2="1556"/>
  <line id="Capline-L" style="fill:none;stroke:#27AAE1;opacity:1;stroke-width:0.577;" x1="263" x2="3036" y1="1485.54" y2="1485.54"/>
  <rect height="119.336" id="left-margin" style="fill:#00AEEF;stroke:none;opacity:0.4;" width="8.74023" x="1391.3" y="1030.79"/>
  <rect height="119.336" id="right-margin" style="fill:#00AEEF;stroke:none;opacity:0.4;" width="8.74023" x="1499.65" y="1030.79"/>
 </g>
 <g id="Symbols">
  <g id="Black-L" transform="matrix(1 0 0 1 2854.05 1556)">
   <path d="M 79.3457 32.9102 C 116.748 32.9102 147.412 2.29492 147.412 -35.1074 C 147.412 -72.5586 116.748 -103.174 79.2969 -103.174 C 41.8945 -103.174 11.2793 -72.5586 11.2793 -35.1074 C 11.2793 2.29492 41.9434 32.9102 79.3457 32.9102 Z M 67.4316 -4.93164 C 61.1328 -4.93164 57.5195 -8.98438 57.5195 -15.8691 L 57.5195 -53.2227 C 57.5195 -60.5957 61.2305 -64.502 68.5547 -64.502 L 94.9707 -64.502 C 100.146 -64.502 103.223 -61.8652 103.223 -57.1777 C 103.223 -52.3926 100.146 -49.7559 94.9707 -49.7559 L 77.1973 -49.7559 L 77.1973 -40.7227 L 94.3359 -40.7227 C 98.6816 -40.7227 101.318 -38.2324 101.318 -34.1309 C 101.318 -30.0293 98.6816 -27.5391 94.3359 -27.5391 L 77.3926 -27.5391 L 77.3926 -15.8691 C 77.3926 -8.98438 73.6816 -4.93164 67.4316 -4.93164 Z"/>
  </g>
  <g id="Heavy-L" transform="matrix(1 0 0 1 2558.39 1556)">
   <path d="M 78.2715 31.8848 C 115.088 31.8848 145.312 1.66016 145.312 -35.1074 C 145.312 -71.9238 115.039 -102.148 78.2715 -102.148 C 41.4551 -102.148 11.2793 -71.9238 11.2793 -35.1074 C 11.2793 1.66016 41.5039 31.8848 78.2715 31.8848 Z M 65.918 -4.98047 C 60.4004 -4.98047 57.2754 -8.54492 57.2754 -14.502 L 57.2754 -54.9316 C 57.2754 -61.2793 60.4492 -64.7461 66.748 -64.7461 L 94.4336 -64.7461 C 98.9258 -64.7461 101.611 -62.4023 101.611 -58.252 C 101.611 -54.1016 98.9258 -51.709 94.4336 -51.709 L 74.4629 -51.709 L 74.4629 -40.332 L 93.3594 -40.332 C 97.2168 -40.332 99.6094 -38.0859 99.6094 -34.4238 C 99.6094 -30.7617 97.2168 -28.5156 93.3594 -28.5156 L 74.6094 -28.5156 L 74.6094 -14.502 C 74.6094 -8.49609 71.3867 -4.98047 65.918 -4.98047 Z"/>
  </g>
  <g id="Bold-L" transform="matrix(1 0 0 1 2262.88 1556)">
   <path d="M 77.0996 30.7129 C 113.232 30.7129 142.92 0.976562 142.92 -35.1074 C 142.92 -71.2402 113.184 -100.977 77.0508 -100.977 C 40.9668 -100.977 11.2793 -71.2402 11.2793 -35.1074 C 11.2793 0.976562 41.0156 30.7129 77.0996 30.7129 Z M 64.209 -4.98047 C 59.6191 -4.98047 57.0312 -8.00781 57.0312 -12.9883 L 57.0312 -56.8359 C 57.0312 -62.0605 59.6191 -65.0391 64.7461 -65.0391 L 93.8477 -65.0391 C 97.5586 -65.0391 99.8535 -62.9883 99.8535 -59.4727 C 99.8535 -55.957 97.5586 -53.9062 93.8477 -53.9062 L 71.3867 -53.9062 L 71.3867 -39.8926 L 92.2852 -39.8926 C 95.5566 -39.8926 97.6562 -37.9395 97.6562 -34.7656 C 97.6562 -31.543 95.5566 -29.6387 92.2852 -29.6387 L 71.4844 -29.6387 L 71.4844 -12.9883 C 71.4844 -7.95898 68.7988 -4.98047 64.209 -4.98047 Z"/>
  </g>
  <g id="Semibold-L" transform="matrix(1 0 0 1 1966.97 1556)">
   <path d="M 76.2695 29.8828 C 111.914 29.8828 141.309 0.488281 141.309 -35.1074 C 141.309 -70.752 111.865 -100.146 76.2695 -100.146 C 40.625 -100.146 11.2793 -70.752 11.2793 -35.1074 C 11.2793 0.488281 40.6738 29.8828 76.2695 29.8828 Z M 63.0371 -5.0293 C 59.0332 -5.0293 56.8359 -7.66602 56.8359 -11.9141 L 56.8359 -58.1543 C 56.8359 -62.5977 59.0332 -65.2344 63.3789 -65.2344 L 93.457 -65.2344 C 96.6309 -65.2344 98.6816 -63.4277 98.6816 -60.3027 C 98.6816 -57.2754 96.6309 -55.4199 93.457 -55.4199 L 69.2871 -55.4199 L 69.2871 -39.5508 L 91.5039 -39.5508 C 94.4336 -39.5508 96.3379 -37.8418 96.3379 -34.9609 C 96.3379 -32.1289 94.4336 -30.4199 91.5039 -30.4199 L 69.3359 -30.4199 L 69.3359 -11.9141 C 69.3359 -7.61719 67.041 -5.0293 63.0371 -5.0293 Z"/>
  </g>
  <g id="Medium-L" transform="matrix(1 0 0 1 1670.87 1556)">
   <path d="M 75.6836 29.248 C 110.938 29.248 140.088 0.146484 140.088 -35.1074 C 140.088 -70.4102 110.889 -99.5117 75.6348 -99.5117 C 40.3809 -99.5117 11.2793 -70.4102 11.2793 -35.1074 C 11.2793 0.146484 40.3809 29.248 75.6836 29.248 Z M 62.1582 -5.0293 C 58.6426 -5.0293 56.6895 -7.42188 56.6895 -11.1328 L 56.6895 -59.1797 C 56.6895 -63.0371 58.5938 -65.3809 62.3047 -65.3809 L 93.1152 -65.3809 C 95.8984 -65.3809 97.7539 -63.7207 97.7539 -60.9375 C 97.7539 -58.252 95.8984 -56.543 93.1152 -56.543 L 67.6758 -56.543 L 67.6758 -39.3066 L 90.9668 -39.3066 C 93.6035 -39.3066 95.3125 -37.793 95.3125 -35.1074 C 95.3125 -32.5684 93.6035 -31.0059 90.9668 -31.0059 L 67.7246 -31.0059 L 67.7246 -11.1328 C 67.7246 -7.32422 65.6738 -5.0293 62.1582 -5.0293 Z"/>
  </g>
  <g id="Regular-L" transform="matrix(1 0 0 1 1374.97 1556)">
   <path d="M 74.8535 28.4668 C 109.668 28.4668 138.477 -0.341797 138.477 -35.1074 C 138.477 -69.9219 109.619 -98.7305 74.8047 -98.7305 C 40.0391 -98.7305 11.2793 -69.9219 11.2793 -35.1074 C 11.2793 -0.341797 40.0879 28.4668 74.8535 28.4668 Z M 60.9863 -5.0293 C 58.1055 -5.0293 56.543 -7.08008 56.543 -10.0586 L 56.543 -60.4492 C 56.543 -63.5254 58.0078 -65.5762 60.9375 -65.5762 L 92.7246 -65.5762 C 94.9707 -65.5762 96.5332 -64.1602 96.5332 -61.7676 C 96.5332 -59.5703 94.9707 -58.0078 92.7246 -58.0078 L 65.5762 -58.0078 L 65.5762 -39.0137 L 90.1855 -39.0137 C 92.4805 -39.0137 93.9941 -37.6953 93.9941 -35.3516 C 93.9941 -33.1055 92.4805 -31.7871 90.1855 -31.7871 L 65.5762 -31.7871 L 65.5762 -10.0586 C 65.5762 -6.98242 63.916 -5.0293 60.9863 -5.0293 Z"/>
  </g>
  <g id="Light-L" transform="matrix(1 0 0 1 1079.18 1556)">
   <path d="M 73.9258 27.5879 C 108.301 27.5879 136.621 -0.732422 136.621 -35.1074 C 136.621 -69.4336 108.252 -97.7539 73.9258 -97.7539 C 39.5508 -97.7539 11.2793 -69.4336 11.2793 -35.1074 C 11.2793 -0.732422 39.5996 27.5879 73.9258 27.5879 Z M 60.0586 -5.27344 C 57.8613 -5.27344 56.5918 -6.78711 56.5918 -9.08203 L 56.5918 -61.1328 C 56.5918 -63.5254 57.7637 -65.0391 59.9609 -65.0391 L 91.6992 -65.0391 C 93.5547 -65.0391 94.7266 -63.916 94.7266 -62.0605 C 94.7266 -60.3516 93.5547 -59.082 91.6992 -59.082 L 63.5742 -59.082 L 63.5742 -38.1836 L 89.2578 -38.1836 C 91.1621 -38.1836 92.2852 -37.1094 92.2852 -35.3027 C 92.2852 -33.5938 91.1621 -32.4219 89.2578 -32.4219 L 63.5742 -32.4219 L 63.5742 -9.08203 C 63.5742 -6.73828 62.3047 -5.27344 60.0586 -5.27344 Z"/>
  </g>
  <g id="Thin-L" transform="matrix(1 0 0 1 783.693 1556)">
   <path d="M 72.7051 26.416 C 106.494 26.416 134.18 -1.26953 134.18 -35.0586 C 134.18 -68.7988 106.494 -96.4844 72.7051 -96.4844 C 38.9648 -96.4844 11.2793 -68.7988 11.2793 -35.0586 C 11.2793 -1.26953 38.9648 26.416 72.7051 26.416 Z M 58.8379 -5.51758 C 57.5195 -5.51758 56.6895 -6.39648 56.6895 -7.71484 L 56.6895 -62.0605 C 56.6895 -63.5254 57.373 -64.4043 58.6914 -64.4043 L 90.3809 -64.4043 C 91.6992 -64.4043 92.334 -63.5742 92.334 -62.4512 C 92.334 -61.4258 91.6992 -60.498 90.3809 -60.498 L 60.9375 -60.498 L 60.9375 -37.1582 L 87.9883 -37.1582 C 89.3555 -37.1582 89.9902 -36.377 89.9902 -35.2051 C 89.9902 -34.2285 89.3555 -33.252 87.9883 -33.252 L 60.9375 -33.252 L 60.9375 -7.71484 C 60.9375 -6.39648 60.1074 -5.51758 58.8379 -5.51758 Z"/>
  </g>
  <g id="Ultralight-L" transform="matrix(1 0 0 1 487.616 1556)">
   <path d="M 72.1191 25.7812 C 105.566 25.7812 132.91 -1.5625 132.91 -35.0098 C 132.91 -68.5059 105.566 -95.8496 72.1191 -95.8496 C 38.623 -95.8496 11.2793 -68.5059 11.2793 -35.0098 C 11.2793 -1.5625 38.623 25.7812 72.1191 25.7812 Z M 58.1543 -5.66406 C 57.373 -5.66406 56.7383 -6.25 56.7383 -7.03125 L 56.7383 -62.5 C 56.7383 -63.4766 57.1777 -64.0625 58.0078 -64.0625 L 89.6973 -64.0625 C 90.7715 -64.0625 91.1133 -63.4277 91.1133 -62.6465 C 91.1133 -62.0117 90.7715 -61.1816 89.6973 -61.1816 L 59.6191 -61.1816 L 59.6191 -36.6211 L 87.3535 -36.6211 C 88.4277 -36.6211 88.8184 -35.9863 88.8184 -35.1562 C 88.8184 -34.5215 88.4277 -33.6914 87.3535 -33.6914 L 59.6191 -33.6914 L 59.6191 -7.03125 C 59.6191 -6.25 58.9844 -5.66406 58.1543 -5.66406 Z"/>
  </g>
  <g id="Black-M" transform="matrix(1 0 0 1 2870.97 1126)">
   <path d="M 62.4023 18.5547 C 91.9922 18.5547 116.113 -5.56641 116.113 -35.1562 C 116.113 -64.7461 91.9922 -88.8184 62.4023 -88.8184 C 32.8125 -88.8184 8.74023 -64.7461 8.74023 -35.1562 C 8.74023 -5.56641 32.8125 18.5547 62.4023 18.5547 Z M 53.8086 -11.8164 C 48.1934 -11.8164 44.9219 -15.332 44.9219 -21.5332 L 44.9219 -47.2656 C 44.9219 -53.9551 48.3398 -57.3242 55.0293 -57.3242 L 73.7793 -57.3242 C 78.5156 -57.3242 81.1523 -55.0293 81.1523 -50.9277 C 81.1523 -46.6797 78.5156 -44.4336 73.7793 -44.4336 L 62.4512 -44.4336 L 62.4512 -39.6484 L 73.9258 -39.6484 C 77.7344 -39.6484 79.8828 -37.4512 79.8828 -33.9844 C 79.8828 -30.4688 77.7344 -28.2715 73.9258 -28.2715 L 62.6953 -28.2715 L 62.6953 -21.5332 C 62.6953 -15.4297 59.3262 -11.8164 53.8086 -11.8164 Z"/>
  </g>
  <g id="Heavy-M" transform="matrix(1 0 0 1 2575.19 1126)">
   <path d="M 61.5234 17.627 C 90.5273 17.627 114.258 -6.10352 114.258 -35.1562 C 114.258 -64.1602 90.5273 -87.8906 61.4746 -87.8906 C 32.4707 -87.8906 8.74023 -64.1602 8.74023 -35.1562 C 8.74023 -6.10352 32.4707 17.627 61.5234 17.627 Z M 52.3926 -11.8164 C 47.4609 -11.8164 44.6289 -14.9414 44.6289 -20.3125 L 44.6289 -48.9258 C 44.6289 -54.6875 47.5586 -57.7148 53.3203 -57.7148 L 73.4375 -57.7148 C 77.5391 -57.7148 79.8828 -55.6641 79.8828 -52.0508 C 79.8828 -48.3398 77.5391 -46.2891 73.4375 -46.2891 L 59.9609 -46.2891 L 59.9609 -39.4043 L 73.0957 -39.4043 C 76.4648 -39.4043 78.4668 -37.4512 78.4668 -34.3262 C 78.4668 -31.1523 76.4648 -29.1992 73.0957 -29.1992 L 60.1562 -29.1992 L 60.1562 -20.3125 C 60.1562 -14.9414 57.2754 -11.8164 52.3926 -11.8164 Z"/>
  </g>
  <g id="Bold-M" transform="matrix(1 0 0 1 2279.5 1126)">
   <path d="M 60.498 16.6016 C 88.8672 16.6016 112.207 -6.73828 112.207 -35.1562 C 112.207 -63.5742 88.8672 -86.9141 60.4492 -86.9141 C 32.0312 -86.9141 8.74023 -63.5742 8.74023 -35.1562 C 8.74023 -6.73828 32.0801 16.6016 60.498 16.6016 Z M 50.8301 -11.7676 C 46.6797 -11.7676 44.3359 -14.4531 44.3359 -18.9453 L 44.3359 -50.8301 C 44.3359 -55.5664 46.7285 -58.1543 51.416 -58.1543 L 73.0957 -58.1543 C 76.4648 -58.1543 78.4668 -56.3965 78.4668 -53.2715 C 78.4668 -50.1465 76.4648 -48.3887 73.0957 -48.3887 L 57.1777 -48.3887 L 57.1777 -39.1113 L 72.168 -39.1113 C 75.0977 -39.1113 76.8555 -37.4512 76.8555 -34.668 C 76.8555 -31.8848 75.0977 -30.2246 72.168 -30.2246 L 57.3242 -30.2246 L 57.3242 -18.9453 C 57.3242 -14.4531 54.9316 -11.7676 50.8301 -11.7676 Z"/>
  </g>
  <g id="Semibold-M" transform="matrix(1 0 0 1 1983.5 1126)">
   <path d="M 59.7656 15.8691 C 87.7441 15.8691 110.791 -7.17773 110.791 -35.1562 C 110.791 -63.1348 87.6953 -86.1816 59.7656 -86.1816 C 31.7871 -86.1816 8.74023 -63.1348 8.74023 -35.1562 C 8.74023 -7.17773 31.7871 15.8691 59.7656 15.8691 Z M 49.707 -11.7676 C 46.1426 -11.7676 44.1406 -14.1113 44.1406 -17.9688 L 44.1406 -52.1484 C 44.1406 -56.1523 46.1426 -58.4961 50.0977 -58.4961 L 72.8516 -58.4961 C 75.6836 -58.4961 77.5391 -56.8848 77.5391 -54.1504 C 77.5391 -51.416 75.6836 -49.8047 72.8516 -49.8047 L 55.2734 -49.8047 L 55.2734 -38.916 L 71.5332 -38.916 C 74.1211 -38.916 75.7812 -37.4512 75.7812 -34.9121 C 75.7812 -32.4219 74.1211 -30.957 71.5332 -30.957 L 55.3711 -30.957 L 55.3711 -17.9688 C 55.3711 -14.0625 53.3203 -11.7676 49.707 -11.7676 Z"/>
  </g>
  <g id="Medium-M" transform="matrix(1 0 0 1 1687.3 1126)">
   <path d="M 59.2285 15.332 C 86.9141 15.332 109.766 -7.51953 109.766 -35.1562 C 109.766 -62.793 86.8652 -85.6445 59.1797 -85.6445 C 31.543 -85.6445 8.74023 -62.793 8.74023 -35.1562 C 8.74023 -7.51953 31.5918 15.332 59.2285 15.332 Z M 48.877 -11.7676 C 45.7031 -11.7676 43.9453 -13.8672 43.9453 -17.2363 L 43.9453 -53.125 C 43.9453 -56.5918 45.7031 -58.6914 49.0723 -58.6914 L 72.6562 -58.6914 C 75.1465 -58.6914 76.8066 -57.2754 76.8066 -54.7852 C 76.8066 -52.3926 75.1465 -50.8789 72.6562 -50.8789 L 53.8574 -50.8789 L 53.8574 -38.7695 L 71.0449 -38.7695 C 73.3887 -38.7695 74.9512 -37.4512 74.9512 -35.1074 C 74.9512 -32.8125 73.3887 -31.4941 71.0449 -31.4941 L 53.9062 -31.4941 L 53.9062 -17.2363 C 53.9062 -13.8184 52.0508 -11.7676 48.877 -11.7676 Z"/>
  </g>
  <g id="Regular-M" transform="matrix(1 0 0 1 1391.3 1126)">
   <path d="M 58.5449 14.6484 C 85.791 14.6484 108.35 -7.95898 108.35 -35.1562 C 108.35 -62.4023 85.7422 -84.9609 58.4961 -84.9609 C 31.2988 -84.9609 8.74023 -62.4023 8.74023 -35.1562 C 8.74023 -7.95898 31.3477 14.6484 58.5449 14.6484 Z M 47.8027 -11.7188 C 45.166 -11.7188 43.75 -13.5742 43.75 -16.3086 L 43.75 -54.3945 C 43.75 -57.1777 45.1172 -59.0332 47.8027 -59.0332 L 72.4609 -59.0332 C 74.4141 -59.0332 75.8301 -57.7637 75.8301 -55.6641 C 75.8301 -53.6133 74.4141 -52.2949 72.4609 -52.2949 L 51.9531 -52.2949 L 51.9531 -38.623 L 70.459 -38.623 C 72.4609 -38.623 73.8281 -37.4512 73.8281 -35.3516 C 73.8281 -33.3008 72.4609 -32.1777 70.459 -32.1777 L 51.9531 -32.1777 L 51.9531 -16.3086 C 51.9531 -13.4766 50.4883 -11.7188 47.8027 -11.7188 Z"/>
  </g>
  <g id="Light-M" transform="matrix(1 0 0 1 1095.42 1126)">
   <path d="M 57.7148 13.8184 C 84.5215 13.8184 106.689 -8.30078 106.689 -35.1562 C 106.689 -61.9629 84.5215 -84.1309 57.666 -84.1309 C 30.8594 -84.1309 8.74023 -61.9629 8.74023 -35.1562 C 8.74023 -8.30078 30.9082 13.8184 57.7148 13.8184 Z M 46.9727 -11.9141 C 44.9219 -11.9141 43.8477 -13.3301 43.8477 -15.4297 L 43.8477 -55.0293 C 43.8477 -57.1777 44.873 -58.5449 46.9238 -58.5449 L 71.5332 -58.5449 C 73.1445 -58.5449 74.2188 -57.5684 74.2188 -55.9082 C 74.2188 -54.3457 73.1445 -53.2227 71.5332 -53.2227 L 50.1953 -53.2227 L 50.1953 -37.8906 L 69.5801 -37.8906 C 71.2402 -37.8906 72.2656 -36.9629 72.2656 -35.3027 C 72.2656 -33.7402 71.2402 -32.7637 69.5801 -32.7637 L 50.1953 -32.7637 L 50.1953 -15.4297 C 50.1953 -13.2324 49.0234 -11.9141 46.9727 -11.9141 Z"/>
  </g>
  <g id="Thin-M" transform="matrix(1 0 0 1 799.806 1126)">
   <path d="M 56.6406 12.793 C 82.9102 12.793 104.492 -8.78906 104.492 -35.1074 C 104.492 -61.377 82.9102 -82.959 56.5918 -82.959 C 30.3223 -82.959 8.74023 -61.377 8.74023 -35.1074 C 8.74023 -8.78906 30.3223 12.793 56.6406 12.793 Z M 45.8496 -12.1582 C 44.6289 -12.1582 43.8965 -12.9883 43.8965 -14.209 L 43.8965 -55.8105 C 43.8965 -57.1289 44.5312 -57.959 45.752 -57.959 L 70.3125 -57.959 C 71.4844 -57.959 72.0703 -57.2754 72.0703 -56.25 C 72.0703 -55.3223 71.4844 -54.4922 70.3125 -54.4922 L 47.8027 -54.4922 L 47.8027 -36.9629 L 68.457 -36.9629 C 69.6289 -36.9629 70.2148 -36.2793 70.2148 -35.2051 C 70.2148 -34.3262 69.6289 -33.5449 68.457 -33.5449 L 47.8027 -33.5449 L 47.8027 -14.209 C 47.8027 -12.9395 47.0703 -12.1582 45.8496 -12.1582 Z"/>
  </g>
  <g id="Ultralight-M" transform="matrix(1 0 0 1 503.656 1126)">
   <path d="M 56.0547 12.2559 C 82.0801 12.2559 103.369 -9.0332 103.369 -35.0586 C 103.369 -61.084 82.0801 -82.373 56.0547 -82.373 C 30.0293 -82.373 8.74023 -61.084 8.74023 -35.0586 C 8.74023 -9.0332 30.0293 12.2559 56.0547 12.2559 Z M 45.2637 -12.2559 C 44.4824 -12.2559 43.9453 -12.793 43.9453 -13.5742 L 43.9453 -56.25 C 43.9453 -57.1289 44.3848 -57.666 45.166 -57.666 L 69.7266 -57.666 C 70.6055 -57.666 70.9961 -57.1289 70.9961 -56.3965 C 70.9961 -55.8105 70.6055 -55.127 69.7266 -55.127 L 46.582 -55.127 L 46.582 -36.4746 L 67.9199 -36.4746 C 68.7988 -36.4746 69.1895 -35.9375 69.1895 -35.2051 C 69.1895 -34.6191 68.7988 -33.9355 67.9199 -33.9355 L 46.582 -33.9355 L 46.582 -13.5742 C 46.582 -12.793 46.0449 -12.2559 45.2637 -12.2559 Z"/>
  </g>
  <g id="Black-S" transform="matrix(1 0 0 1 2884.57 696)">
   <path d="M 48.8281 6.83594 C 71.9727 6.83594 90.8203 -12.0117 90.8203 -35.1562 C 90.8203 -58.3008 71.9727 -77.1484 48.8281 -77.1484 C 25.6836 -77.1484 6.83594 -58.3008 6.83594 -35.1562 C 6.83594 -12.0117 25.6836 6.83594 48.8281 6.83594 Z M 42.041 -16.8945 C 37.6953 -16.8945 35.1562 -19.6289 35.1562 -24.4141 L 35.1562 -44.7754 C 35.1562 -49.9512 37.793 -52.5879 42.9688 -52.5879 L 57.7637 -52.5879 C 61.4258 -52.5879 63.4766 -50.7812 63.4766 -47.6074 C 63.4766 -44.3359 61.4258 -42.5781 57.7637 -42.5781 L 48.7305 -42.5781 L 48.7305 -38.6719 L 57.8613 -38.6719 C 60.791 -38.6719 62.5 -36.9629 62.5 -34.2773 C 62.5 -31.543 60.791 -29.834 57.8613 -29.834 L 48.9258 -29.834 L 48.9258 -24.4141 C 48.9258 -19.6777 46.3379 -16.8945 42.041 -16.8945 Z"/>
  </g>
  <g id="Heavy-S" transform="matrix(1 0 0 1 2588.47 696)">
   <path d="M 48.2422 6.20117 C 70.9961 6.20117 89.5996 -12.4023 89.5996 -35.1562 C 89.5996 -57.9102 70.9961 -76.5625 48.1934 -76.5625 C 25.4395 -76.5625 6.83594 -57.9102 6.83594 -35.1562 C 6.83594 -12.4023 25.4395 6.20117 48.2422 6.20117 Z M 41.0645 -16.8457 C 37.1582 -16.8457 34.9609 -19.3359 34.9609 -23.584 L 34.9609 -45.9961 C 34.9609 -50.5371 37.2559 -52.9297 41.748 -52.9297 L 57.6172 -52.9297 C 60.8398 -52.9297 62.6953 -51.3184 62.6953 -48.4375 C 62.6953 -45.5078 60.8398 -43.8965 57.6172 -43.8965 L 47.0215 -43.8965 L 47.0215 -38.5742 L 57.3242 -38.5742 C 59.9609 -38.5742 61.5723 -37.0117 61.5723 -34.5215 C 61.5723 -32.0312 59.9609 -30.4688 57.3242 -30.4688 L 47.168 -30.4688 L 47.168 -23.584 C 47.168 -19.3359 44.9219 -16.8457 41.0645 -16.8457 Z"/>
  </g>
  <g id="Bold-S" transform="matrix(1 0 0 1 2292.44 696)">
   <path d="M 47.5586 5.51758 C 69.873 5.51758 88.2324 -12.8418 88.2324 -35.1562 C 88.2324 -57.5195 69.873 -75.8789 47.5098 -75.8789 C 25.1953 -75.8789 6.83594 -57.5195 6.83594 -35.1562 C 6.83594 -12.8418 25.1953 5.51758 47.5586 5.51758 Z M 39.9414 -16.7969 C 36.5723 -16.7969 34.7168 -18.9941 34.7168 -22.6562 L 34.7168 -47.3633 C 34.7168 -51.1719 36.6211 -53.3203 40.4297 -53.3203 L 57.4707 -53.3203 C 60.1562 -53.3203 61.8164 -51.9043 61.8164 -49.3652 C 61.8164 -46.8262 60.1562 -45.3613 57.4707 -45.3613 L 45.166 -45.3613 L 45.166 -38.4277 L 56.7383 -38.4277 C 59.082 -38.4277 60.5469 -37.1094 60.5469 -34.8145 C 60.5469 -32.5195 59.082 -31.2012 56.7383 -31.2012 L 45.2637 -31.2012 L 45.2637 -22.6562 C 45.2637 -18.9941 43.3105 -16.7969 39.9414 -16.7969 Z"/>
  </g>
  <g id="Semibold-S" transform="matrix(1 0 0 1 1996.2 696)">
   <path d="M 47.0703 5.0293 C 69.0918 5.0293 87.3047 -13.1348 87.3047 -35.2051 C 87.3047 -57.2266 69.0918 -75.4395 47.0215 -75.4395 C 25 -75.4395 6.83594 -57.2266 6.83594 -35.2051 C 6.83594 -13.1348 25.0488 5.0293 47.0703 5.0293 Z M 39.209 -16.7969 C 36.1816 -16.7969 34.5215 -18.75 34.5215 -21.9727 L 34.5215 -48.291 C 34.5215 -51.6602 36.1816 -53.6133 39.502 -53.6133 L 57.373 -53.6133 C 59.7168 -53.6133 61.2305 -52.2949 61.2305 -50 C 61.2305 -47.7051 59.7168 -46.3867 57.373 -46.3867 L 43.8477 -46.3867 L 43.8477 -38.3789 L 56.2988 -38.3789 C 58.4473 -38.3789 59.8145 -37.1582 59.8145 -35.0098 C 59.8145 -32.9102 58.4473 -31.6895 56.2988 -31.6895 L 43.8965 -31.6895 L 43.8965 -21.9727 C 43.8965 -18.7012 42.1875 -16.7969 39.209 -16.7969 Z"/>
  </g>
  <g id="Medium-S" transform="matrix(1 0 0 1 1699.83 696)">
   <path d="M 46.7285 4.6875 C 68.5547 4.6875 86.6211 -13.3789 86.6211 -35.2051 C 86.6211 -56.9824 68.5059 -75.0977 46.6797 -75.0977 C 24.8535 -75.0977 6.83594 -56.9824 6.83594 -35.2051 C 6.83594 -13.3789 24.9023 4.6875 46.7285 4.6875 Z M 38.623 -16.748 C 35.8887 -16.748 34.4238 -18.6035 34.4238 -21.4844 L 34.4238 -49.0234 C 34.4238 -52.002 35.8887 -53.8086 38.7695 -53.8086 L 57.2754 -53.8086 C 59.3262 -53.8086 60.791 -52.5879 60.791 -50.4883 C 60.791 -48.3887 59.3262 -47.1191 57.2754 -47.1191 L 42.8711 -47.1191 L 42.8711 -38.2812 L 56.0059 -38.2812 C 57.959 -38.2812 59.2773 -37.1582 59.2773 -35.1562 C 59.2773 -33.1543 57.959 -32.0801 56.0059 -32.0801 L 42.8711 -32.0801 L 42.8711 -21.4844 C 42.8711 -18.5059 41.3574 -16.748 38.623 -16.748 Z"/>
  </g>
  <g id="Regular-S" transform="matrix(1 0 0 1 1403.58 696)">
   <path d="M 46.2402 4.19922 C 67.7734 4.19922 85.6934 -13.6719 85.6934 -35.2051 C 85.6934 -56.7383 67.7246 -74.6094 46.1914 -74.6094 C 24.707 -74.6094 6.83594 -56.7383 6.83594 -35.2051 C 6.83594 -13.6719 24.7559 4.19922 46.2402 4.19922 Z M 37.8418 -16.748 C 35.4492 -16.748 34.2285 -18.3594 34.2285 -20.8496 L 34.2285 -49.9512 C 34.2285 -52.4414 35.4492 -54.1016 37.8418 -54.1016 L 57.1777 -54.1016 C 58.8867 -54.1016 60.2051 -52.9785 60.2051 -51.123 C 60.2051 -49.2676 58.8867 -48.1445 57.1777 -48.1445 L 41.5527 -48.1445 L 41.5527 -38.2324 L 55.5664 -38.2324 C 57.3242 -38.2324 58.5938 -37.207 58.5938 -35.3516 C 58.5938 -33.4961 57.3242 -32.5684 55.5664 -32.5684 L 41.5527 -32.5684 L 41.5527 -20.8496 C 41.5527 -18.2617 40.2344 -16.748 37.8418 -16.748 Z"/>
  </g>
  <g id="Light-S" transform="matrix(1 0 0 1 1107.6 696)">
   <path d="M 45.5078 3.51562 C 66.6992 3.51562 84.2285 -14.0137 84.2285 -35.1562 C 84.2285 -56.3477 66.6504 -73.877 45.5078 -73.877 C 24.3164 -73.877 6.83594 -56.3477 6.83594 -35.1562 C 6.83594 -14.0137 24.3652 3.51562 45.5078 3.51562 Z M 37.1094 -16.8945 C 35.2539 -16.8945 34.2773 -18.1641 34.2773 -20.0684 L 34.2773 -50.4883 C 34.2773 -52.4414 35.2539 -53.6621 37.0605 -53.6621 L 56.3965 -53.6621 C 57.7637 -53.6621 58.7402 -52.7832 58.7402 -51.3184 C 58.7402 -49.9512 57.7637 -48.9746 56.3965 -48.9746 L 39.9902 -48.9746 L 39.9902 -37.5977 L 54.834 -37.5977 C 56.25 -37.5977 57.2266 -36.7676 57.2266 -35.3027 C 57.2266 -33.8867 56.25 -33.0566 54.834 -33.0566 L 39.9902 -33.0566 L 39.9902 -20.0684 C 39.9902 -18.0664 38.9648 -16.8945 37.1094 -16.8945 Z"/>
  </g>
  <g id="Thin-S" transform="matrix(1 0 0 1 811.867 696)">
   <path d="M 44.5801 2.58789 C 65.2832 2.58789 82.2754 -14.4043 82.2754 -35.1562 C 82.2754 -55.8594 65.2344 -72.8516 44.5312 -72.8516 C 23.8281 -72.8516 6.83594 -55.8594 6.83594 -35.1562 C 6.83594 -14.4043 23.877 2.58789 44.5801 2.58789 Z M 36.1328 -17.0898 C 35.0098 -17.0898 34.375 -17.8711 34.375 -18.9941 L 34.375 -51.2207 C 34.375 -52.3926 34.9609 -53.1738 36.0352 -53.1738 L 55.3223 -53.1738 C 56.2988 -53.1738 56.8848 -52.5391 56.8848 -51.6113 C 56.8848 -50.7812 56.2988 -50.0977 55.3223 -50.0977 L 37.8906 -50.0977 L 37.8906 -36.7676 L 53.8574 -36.7676 C 54.834 -36.7676 55.4199 -36.1816 55.4199 -35.2539 C 55.4199 -34.375 54.834 -33.7402 53.8574 -33.7402 L 37.8906 -33.7402 L 37.8906 -18.9941 C 37.8906 -17.8223 37.207 -17.0898 36.1328 -17.0898 Z"/>
  </g>
  <g id="Ultralight-S" transform="matrix(1 0 0 1 515.644 696)">
   <path d="M 44.043 2.09961 C 64.502 2.09961 81.2988 -14.6484 81.2988 -35.1074 C 81.2988 -55.5664 64.502 -72.3145 44.043 -72.3145 C 23.584 -72.3145 6.83594 -55.5664 6.83594 -35.1074 C 6.83594 -14.6484 23.584 2.09961 44.043 2.09961 Z M 35.5957 -17.1875 C 34.9121 -17.1875 34.4238 -17.7246 34.4238 -18.457 L 34.4238 -51.5625 C 34.4238 -52.3926 34.8145 -52.8809 35.498 -52.8809 L 54.7852 -52.8809 C 55.5664 -52.8809 55.9082 -52.4414 55.9082 -51.7578 C 55.9082 -51.2207 55.5664 -50.6348 54.7852 -50.6348 L 36.8164 -50.6348 L 36.8164 -36.3281 L 53.3203 -36.3281 C 54.1016 -36.3281 54.4434 -35.8398 54.4434 -35.2051 C 54.4434 -34.668 54.1016 -34.082 53.3203 -34.082 L 36.8164 -34.082 L 36.8164 -18.457 C 36.8164 -17.7246 36.3281 -17.1875 35.5957 -17.1875 Z"/>
  </g>
 </g>
</svg>
