<?xml version="1.0" encoding="UTF-8"?>
<!--Generator: Apple Native CoreSVG 123-->
<!DOCTYPE svg
PUBLIC "-//W3C//DTD SVG 1.1//EN"
       "http://www.w3.org/Graphics/SVG/1.1/DTD/svg11.dtd">
<svg version="1.1" xmlns="http://www.w3.org/2000/svg" xmlns:xlink="http://www.w3.org/1999/xlink" width="3300" height="2200">
 <!--glyph: "uni100011.medium", point size: 100.000000, font version: "Version 15.0d7e11", template writer version: "5"-->
 <g id="Notes">
  <rect height="2200" id="artboard" style="fill:white;opacity:1" width="3300" x="0" y="0"/>
  <line id="" style="fill:none;stroke:black;opacity:1;stroke-width:0.5;" x1="263" x2="3036" y1="292" y2="292"/>
  <text style="stroke:none;fill:black;font-family:-apple-system,&quot;SF Pro Display&quot;,&quot;SF Pro Text&quot;,Helvetica,sans-serif;font-weight:bold;" transform="matrix(1 0 0 1 263 322)">Weight/Scale Variations</text>
  <text style="stroke:none;fill:black;font-family:-apple-system,&quot;SF Pro Display&quot;,&quot;SF Pro Text&quot;,Helvetica,sans-serif;text-anchor:middle;" transform="matrix(1 0 0 1 559.711 322)">Ultralight</text>
  <text style="stroke:none;fill:black;font-family:-apple-system,&quot;SF Pro Display&quot;,&quot;SF Pro Text&quot;,Helvetica,sans-serif;text-anchor:middle;" transform="matrix(1 0 0 1 856.422 322)">Thin</text>
  <text style="stroke:none;fill:black;font-family:-apple-system,&quot;SF Pro Display&quot;,&quot;SF Pro Text&quot;,Helvetica,sans-serif;text-anchor:middle;" transform="matrix(1 0 0 1 1153.13 322)">Light</text>
  <text style="stroke:none;fill:black;font-family:-apple-system,&quot;SF Pro Display&quot;,&quot;SF Pro Text&quot;,Helvetica,sans-serif;text-anchor:middle;" transform="matrix(1 0 0 1 1449.84 322)">Regular</text>
  <text style="stroke:none;fill:black;font-family:-apple-system,&quot;SF Pro Display&quot;,&quot;SF Pro Text&quot;,Helvetica,sans-serif;text-anchor:middle;" transform="matrix(1 0 0 1 1746.56 322)">Medium</text>
  <text style="stroke:none;fill:black;font-family:-apple-system,&quot;SF Pro Display&quot;,&quot;SF Pro Text&quot;,Helvetica,sans-serif;text-anchor:middle;" transform="matrix(1 0 0 1 2043.27 322)">Semibold</text>
  <text style="stroke:none;fill:black;font-family:-apple-system,&quot;SF Pro Display&quot;,&quot;SF Pro Text&quot;,Helvetica,sans-serif;text-anchor:middle;" transform="matrix(1 0 0 1 2339.98 322)">Bold</text>
  <text style="stroke:none;fill:black;font-family:-apple-system,&quot;SF Pro Display&quot;,&quot;SF Pro Text&quot;,Helvetica,sans-serif;text-anchor:middle;" transform="matrix(1 0 0 1 2636.69 322)">Heavy</text>
  <text style="stroke:none;fill:black;font-family:-apple-system,&quot;SF Pro Display&quot;,&quot;SF Pro Text&quot;,Helvetica,sans-serif;text-anchor:middle;" transform="matrix(1 0 0 1 2933.4 322)">Black</text>
  <line id="" style="fill:none;stroke:black;opacity:1;stroke-width:0.5;" x1="263" x2="3036" y1="1903" y2="1903"/>
  <g id="" transform="matrix(1 0 0 1 263 1933)">
   <path d="M 9.24805 0.830078 C 13.5547 0.830078 17.1387 -2.74414 17.1387 -7.05078 C 17.1387 -11.3574 13.5449 -14.9316 9.23828 -14.9316 C 4.94141 -14.9316 1.36719 -11.3574 1.36719 -7.05078 C 1.36719 -2.74414 4.95117 0.830078 9.24805 0.830078 Z M 9.24805 -0.654297 C 5.70312 -0.654297 2.87109 -3.49609 2.87109 -7.05078 C 2.87109 -10.6055 5.69336 -13.4473 9.23828 -13.4473 C 12.793 -13.4473 15.6348 -10.6055 15.6445 -7.05078 C 15.6543 -3.49609 12.8027 -0.654297 9.24805 -0.654297 Z M 9.22852 -3.42773 C 9.69727 -3.42773 9.9707 -3.74023 9.9707 -4.25781 L 9.9707 -6.31836 L 12.1973 -6.31836 C 12.6953 -6.31836 13.0371 -6.57227 13.0371 -7.04102 C 13.0371 -7.51953 12.7148 -7.7832 12.1973 -7.7832 L 9.9707 -7.7832 L 9.9707 -10.0098 C 9.9707 -10.5273 9.69727 -10.8496 9.22852 -10.8496 C 8.75977 -10.8496 8.50586 -10.5078 8.50586 -10.0098 L 8.50586 -7.7832 L 6.29883 -7.7832 C 5.78125 -7.7832 5.44922 -7.51953 5.44922 -7.04102 C 5.44922 -6.57227 5.80078 -6.31836 6.29883 -6.31836 L 8.50586 -6.31836 L 8.50586 -4.25781 C 8.50586 -3.75977 8.75977 -3.42773 9.22852 -3.42773 Z"/>
  </g>
  <g id="" transform="matrix(1 0 0 1 281.506 1933)">
   <path d="M 11.709 2.91016 C 17.1582 2.91016 21.6699 -1.60156 21.6699 -7.05078 C 21.6699 -12.4902 17.1484 -17.0117 11.6992 -17.0117 C 6.25977 -17.0117 1.74805 -12.4902 1.74805 -7.05078 C 1.74805 -1.60156 6.26953 2.91016 11.709 2.91016 Z M 11.709 1.25 C 7.09961 1.25 3.41797 -2.44141 3.41797 -7.05078 C 3.41797 -11.6504 7.08984 -15.3516 11.6992 -15.3516 C 16.3086 -15.3516 20 -11.6504 20.0098 -7.05078 C 20.0195 -2.44141 16.3184 1.25 11.709 1.25 Z M 11.6895 -2.41211 C 12.207 -2.41211 12.5195 -2.77344 12.5195 -3.33984 L 12.5195 -6.23047 L 15.5762 -6.23047 C 16.123 -6.23047 16.5039 -6.51367 16.5039 -7.03125 C 16.5039 -7.55859 16.1426 -7.86133 15.5762 -7.86133 L 12.5195 -7.86133 L 12.5195 -10.9277 C 12.5195 -11.5039 12.207 -11.8555 11.6895 -11.8555 C 11.1719 -11.8555 10.8789 -11.4844 10.8789 -10.9277 L 10.8789 -7.86133 L 7.83203 -7.86133 C 7.26562 -7.86133 6.89453 -7.55859 6.89453 -7.03125 C 6.89453 -6.51367 7.28516 -6.23047 7.83203 -6.23047 L 10.8789 -6.23047 L 10.8789 -3.33984 C 10.8789 -2.79297 11.1719 -2.41211 11.6895 -2.41211 Z"/>
  </g>
  <g id="" transform="matrix(1 0 0 1 304.924 1933)">
   <path d="M 14.9707 5.67383 C 21.9336 5.67383 27.6953 -0.078125 27.6953 -7.04102 C 27.6953 -14.0039 21.9238 -19.7559 14.9609 -19.7559 C 8.00781 -19.7559 2.25586 -14.0039 2.25586 -7.04102 C 2.25586 -0.078125 8.01758 5.67383 14.9707 5.67383 Z M 14.9707 3.85742 C 8.93555 3.85742 4.08203 -1.00586 4.08203 -7.04102 C 4.08203 -13.0762 8.92578 -17.9395 14.9609 -17.9395 C 21.0059 -17.9395 25.8594 -13.0762 25.8691 -7.04102 C 25.8789 -1.00586 21.0156 3.85742 14.9707 3.85742 Z M 14.9512 -1.06445 C 15.5176 -1.06445 15.8691 -1.45508 15.8691 -2.06055 L 15.8691 -6.13281 L 20.1074 -6.13281 C 20.6934 -6.13281 21.1133 -6.46484 21.1133 -7.02148 C 21.1133 -7.59766 20.7227 -7.93945 20.1074 -7.93945 L 15.8691 -7.93945 L 15.8691 -12.1875 C 15.8691 -12.8027 15.5176 -13.1934 14.9512 -13.1934 C 14.3848 -13.1934 14.0625 -12.7832 14.0625 -12.1875 L 14.0625 -7.93945 L 9.83398 -7.93945 C 9.21875 -7.93945 8.80859 -7.59766 8.80859 -7.02148 C 8.80859 -6.46484 9.23828 -6.13281 9.83398 -6.13281 L 14.0625 -6.13281 L 14.0625 -2.06055 C 14.0625 -1.47461 14.3848 -1.06445 14.9512 -1.06445 Z"/>
  </g>
  <text style="stroke:none;fill:black;font-family:-apple-system,&quot;SF Pro Display&quot;,&quot;SF Pro Text&quot;,Helvetica,sans-serif;font-weight:bold;" transform="matrix(1 0 0 1 263 1953)">Design Variations</text>
  <text style="stroke:none;fill:black;font-family:-apple-system,&quot;SF Pro Display&quot;,&quot;SF Pro Text&quot;,Helvetica,sans-serif;" transform="matrix(1 0 0 1 263 1971)">Symbols are supported in up to nine weights and three scales.</text>
  <text style="stroke:none;fill:black;font-family:-apple-system,&quot;SF Pro Display&quot;,&quot;SF Pro Text&quot;,Helvetica,sans-serif;" transform="matrix(1 0 0 1 263 1989)">For optimal layout with text and other symbols, vertically align</text>
  <text style="stroke:none;fill:black;font-family:-apple-system,&quot;SF Pro Display&quot;,&quot;SF Pro Text&quot;,Helvetica,sans-serif;" transform="matrix(1 0 0 1 263 2007)">symbols with the adjacent text.</text>
  <rect height="14" id="" style="fill:#00AEEF;stroke:none;opacity:0.4;" width="3" x="776" y="1919"/>
  <g id="" transform="matrix(1 0 0 1 779 1933)">
   <path d="M 10.5273 0 L 12.373 0 L 7.17773 -14.0918 L 5.43945 -14.0918 L 0.244141 0 L 2.08984 0 L 3.50586 -4.0332 L 9.11133 -4.0332 Z M 6.2793 -11.9531 L 6.33789 -11.9531 L 8.59375 -5.52734 L 4.02344 -5.52734 Z"/>
  </g>
  <rect height="14" id="" style="fill:#00AEEF;stroke:none;opacity:0.4;" width="3" x="791.617" y="1919"/>
  <text style="stroke:none;fill:black;font-family:-apple-system,&quot;SF Pro Display&quot;,&quot;SF Pro Text&quot;,Helvetica,sans-serif;font-weight:bold;" transform="matrix(1 0 0 1 776 1953)">Margins</text>
  <text style="stroke:none;fill:black;font-family:-apple-system,&quot;SF Pro Display&quot;,&quot;SF Pro Text&quot;,Helvetica,sans-serif;" transform="matrix(1 0 0 1 776 1971)">Leading and trailing margins on the left and right side of each symbol</text>
  <text style="stroke:none;fill:black;font-family:-apple-system,&quot;SF Pro Display&quot;,&quot;SF Pro Text&quot;,Helvetica,sans-serif;" transform="matrix(1 0 0 1 776 1989)">can be adjusted by modifying the width of the blue rectangles.</text>
  <text style="stroke:none;fill:black;font-family:-apple-system,&quot;SF Pro Display&quot;,&quot;SF Pro Text&quot;,Helvetica,sans-serif;" transform="matrix(1 0 0 1 776 2007)">Modifications are automatically applied proportionally to all</text>
  <text style="stroke:none;fill:black;font-family:-apple-system,&quot;SF Pro Display&quot;,&quot;SF Pro Text&quot;,Helvetica,sans-serif;" transform="matrix(1 0 0 1 776 2025)">scales and weights.</text>
  <g id="" transform="matrix(1 0 0 1 1289 1933)">
   <path d="M 2.83203 3.11523 L 4.375 4.6582 C 5.22461 5.48828 6.19141 5.41992 7.06055 4.46289 L 17.2754 -6.66016 C 17.7051 -6.36719 18.0957 -6.37695 18.5645 -6.47461 L 19.6094 -6.68945 L 20.3027 -5.99609 L 20.2539 -5.47852 C 20.1855 -4.95117 20.3516 -4.53125 20.8496 -4.0332 L 21.6602 -3.22266 C 22.168 -2.71484 22.8223 -2.68555 23.3008 -3.16406 L 26.5527 -6.41602 C 27.0312 -6.89453 27.0117 -7.54883 26.5039 -8.05664 L 25.6836 -8.87695 C 25.1855 -9.375 24.7754 -9.55078 24.2383 -9.47266 L 23.7109 -9.41406 L 23.0566 -10.0781 L 23.3398 -11.2207 C 23.4863 -11.7871 23.3398 -12.2559 22.7148 -12.8613 L 20.3027 -15.2539 C 16.7578 -18.7793 12.2266 -18.6719 9.11133 -15.5371 C 8.69141 -15.1074 8.64258 -14.5215 8.91602 -14.0918 C 9.15039 -13.7207 9.62891 -13.4961 10.2734 -13.6621 C 11.7871 -14.043 13.3008 -13.9258 14.7852 -12.9199 L 14.1602 -11.3379 C 13.9258 -10.752 13.9453 -10.2734 14.1797 -9.83398 L 3.01758 0.439453 C 2.08008 1.30859 1.97266 2.25586 2.83203 3.11523 Z M 10.6738 -15.1465 C 13.3398 -17.1387 16.6504 -16.8262 19.0527 -14.4141 L 21.6797 -11.8066 C 21.9141 -11.5723 21.9434 -11.3867 21.8848 -11.0938 L 21.5039 -9.53125 L 23.0762 -7.95898 L 24.043 -8.04688 C 24.3262 -8.07617 24.4141 -8.05664 24.6387 -7.83203 L 25.2637 -7.20703 L 22.5098 -4.46289 L 21.8848 -5.07812 C 21.6602 -5.30273 21.6406 -5.40039 21.6699 -5.68359 L 21.7578 -6.64062 L 20.1953 -8.20312 L 18.5742 -7.89062 C 18.291 -7.83203 18.1445 -7.83203 17.9102 -8.07617 L 15.7324 -10.2539 C 15.5078 -10.4883 15.4785 -10.625 15.6055 -10.9473 L 16.5527 -13.2227 C 14.9512 -14.7559 12.8418 -15.6055 10.8008 -14.9512 C 10.7129 -14.9219 10.6445 -14.9414 10.6152 -14.9805 C 10.5859 -15.0293 10.5859 -15.0781 10.6738 -15.1465 Z M 4.10156 2.41211 C 3.61328 1.91406 3.78906 1.61133 4.12109 1.30859 L 15.0781 -8.80859 L 16.3086 -7.57812 L 6.15234 3.34961 C 5.84961 3.68164 5.46875 3.7793 5.06836 3.37891 Z"/>
  </g>
  <text style="stroke:none;fill:black;font-family:-apple-system,&quot;SF Pro Display&quot;,&quot;SF Pro Text&quot;,Helvetica,sans-serif;font-weight:bold;" transform="matrix(1 0 0 1 1289 1953)">Exporting</text>
  <text style="stroke:none;fill:black;font-family:-apple-system,&quot;SF Pro Display&quot;,&quot;SF Pro Text&quot;,Helvetica,sans-serif;" transform="matrix(1 0 0 1 1289 1971)">Symbols should be outlined when exporting to ensure the</text>
  <text style="stroke:none;fill:black;font-family:-apple-system,&quot;SF Pro Display&quot;,&quot;SF Pro Text&quot;,Helvetica,sans-serif;" transform="matrix(1 0 0 1 1289 1989)">design is preserved when submitting to Xcode.</text>
  <text id="template-version" style="stroke:none;fill:black;font-family:-apple-system,&quot;SF Pro Display&quot;,&quot;SF Pro Text&quot;,Helvetica,sans-serif;text-anchor:end;" transform="matrix(1 0 0 1 3036 1933)">Template v.1.0</text>
  <text style="stroke:none;fill:black;font-family:-apple-system,&quot;SF Pro Display&quot;,&quot;SF Pro Text&quot;,Helvetica,sans-serif;text-anchor:end;" transform="matrix(1 0 0 1 3036 1951)">Generated from g.circle.fill</text>
  <text style="stroke:none;fill:black;font-family:-apple-system,&quot;SF Pro Display&quot;,&quot;SF Pro Text&quot;,Helvetica,sans-serif;text-anchor:end;" transform="matrix(1 0 0 1 3036 1969)">Typeset at 100 points</text>
  <text style="stroke:none;fill:black;font-family:-apple-system,&quot;SF Pro Display&quot;,&quot;SF Pro Text&quot;,Helvetica,sans-serif;" transform="matrix(1 0 0 1 263 726)">Small</text>
  <text style="stroke:none;fill:black;font-family:-apple-system,&quot;SF Pro Display&quot;,&quot;SF Pro Text&quot;,Helvetica,sans-serif;" transform="matrix(1 0 0 1 263 1156)">Medium</text>
  <text style="stroke:none;fill:black;font-family:-apple-system,&quot;SF Pro Display&quot;,&quot;SF Pro Text&quot;,Helvetica,sans-serif;" transform="matrix(1 0 0 1 263 1586)">Large</text>
 </g>
 <g id="Guides">
  <g id="H-reference" style="fill:#27AAE1;stroke:none;" transform="matrix(1 0 0 1 339 696)">
   <path d="M 54.9316 0 L 57.666 0 L 30.5664 -70.459 L 28.0762 -70.459 L 0.976562 0 L 3.66211 0 L 12.9395 -24.4629 L 45.7031 -24.4629 Z M 29.1992 -67.0898 L 29.4434 -67.0898 L 44.8242 -26.709 L 13.8184 -26.709 Z"/>
  </g>
  <line id="Baseline-S" style="fill:none;stroke:#27AAE1;opacity:1;stroke-width:0.577;" x1="263" x2="3036" y1="696" y2="696"/>
  <line id="Capline-S" style="fill:none;stroke:#27AAE1;opacity:1;stroke-width:0.577;" x1="263" x2="3036" y1="625.541" y2="625.541"/>
  <g id="H-reference" style="fill:#27AAE1;stroke:none;" transform="matrix(1 0 0 1 339 1126)">
   <path d="M 54.9316 0 L 57.666 0 L 30.5664 -70.459 L 28.0762 -70.459 L 0.976562 0 L 3.66211 0 L 12.9395 -24.4629 L 45.7031 -24.4629 Z M 29.1992 -67.0898 L 29.4434 -67.0898 L 44.8242 -26.709 L 13.8184 -26.709 Z"/>
  </g>
  <line id="Baseline-M" style="fill:none;stroke:#27AAE1;opacity:1;stroke-width:0.577;" x1="263" x2="3036" y1="1126" y2="1126"/>
  <line id="Capline-M" style="fill:none;stroke:#27AAE1;opacity:1;stroke-width:0.577;" x1="263" x2="3036" y1="1055.54" y2="1055.54"/>
  <g id="H-reference" style="fill:#27AAE1;stroke:none;" transform="matrix(1 0 0 1 339 1556)">
   <path d="M 54.9316 0 L 57.666 0 L 30.5664 -70.459 L 28.0762 -70.459 L 0.976562 0 L 3.66211 0 L 12.9395 -24.4629 L 45.7031 -24.4629 Z M 29.1992 -67.0898 L 29.4434 -67.0898 L 44.8242 -26.709 L 13.8184 -26.709 Z"/>
  </g>
  <line id="Baseline-L" style="fill:none;stroke:#27AAE1;opacity:1;stroke-width:0.577;" x1="263" x2="3036" y1="1556" y2="1556"/>
  <line id="Capline-L" style="fill:none;stroke:#27AAE1;opacity:1;stroke-width:0.577;" x1="263" x2="3036" y1="1485.54" y2="1485.54"/>
  <rect height="119.336" id="left-margin" style="fill:#00AEEF;stroke:none;opacity:0.4;" width="8.74023" x="1391.3" y="1030.79"/>
  <rect height="119.336" id="right-margin" style="fill:#00AEEF;stroke:none;opacity:0.4;" width="8.74023" x="1499.65" y="1030.79"/>
 </g>
 <g id="Symbols">
  <g id="Black-L" transform="matrix(1 0 0 1 2854.05 1556)">
   <path d="M 79.3457 32.8613 C 116.748 32.8613 147.412 2.19727 147.412 -35.2051 C 147.412 -72.6074 116.748 -103.271 79.2969 -103.271 C 41.8945 -103.271 11.2793 -72.6074 11.2793 -35.2051 C 11.2793 2.19727 41.9434 32.8613 79.3457 32.8613 Z M 79.9805 -4.73633 C 62.1094 -4.73633 50.4395 -16.748 50.4395 -35.3516 C 50.4395 -53.9062 62.1094 -66.0156 79.8828 -66.0156 C 91.748 -66.0156 101.221 -61.2793 104.443 -53.8086 C 105.078 -52.3926 105.371 -50.9766 105.371 -49.4629 C 105.371 -45.166 102.344 -42.5781 97.3633 -42.5781 C 92.4805 -42.5781 90.5273 -44.4336 88.8672 -46.582 C 87.0117 -49.3652 84.7168 -51.2695 80.6641 -51.2695 C 74.0723 -51.2695 70.0195 -44.9219 70.0195 -35.3516 C 70.0195 -25.5859 74.1699 -18.7988 80.7129 -18.7988 C 86.2793 -18.7988 89.5508 -21.9238 89.5508 -26.123 L 89.5508 -27.6367 L 85.5957 -27.6367 C 81.4453 -27.6367 79.1504 -29.9805 79.1504 -33.4473 C 79.1504 -36.9629 81.3965 -39.2578 85.5957 -39.2578 L 99.1211 -39.2578 C 104.736 -39.2578 107.715 -36.2305 107.715 -30.5176 L 107.715 -28.7109 C 107.715 -15.1855 96.9727 -4.73633 79.9805 -4.73633 Z"/>
  </g>
  <g id="Heavy-L" transform="matrix(1 0 0 1 2558.39 1556)">
   <path d="M 78.2715 31.7871 C 115.088 31.7871 145.312 1.61133 145.312 -35.2051 C 145.312 -72.0215 115.039 -102.197 78.2715 -102.197 C 41.4551 -102.197 11.2793 -72.0215 11.2793 -35.2051 C 11.2793 1.61133 41.5039 31.7871 78.2715 31.7871 Z M 78.8574 -4.63867 C 61.2305 -4.63867 49.7559 -16.748 49.7559 -35.4492 C 49.7559 -54.1016 61.2305 -66.2598 78.7598 -66.2598 C 90.8203 -66.2598 100 -61.0352 103.125 -53.418 C 103.662 -52.1484 103.955 -50.8301 103.955 -49.4629 C 103.955 -45.6055 101.27 -43.2617 96.875 -43.2617 C 92.7734 -43.2617 90.9668 -44.873 89.502 -47.0215 C 87.5488 -50.7812 84.375 -53.2227 79.3457 -53.2227 C 71.7285 -53.2227 66.8945 -46.0938 66.8945 -35.4492 C 66.8945 -24.6094 71.8262 -17.1875 79.4434 -17.1875 C 86.1328 -17.1875 89.9414 -20.9473 89.9414 -26.2207 L 89.9414 -28.3203 L 83.7402 -28.3203 C 80.0781 -28.3203 78.0273 -30.4688 78.0273 -33.5449 C 78.0273 -36.6699 80.0293 -38.7695 83.7402 -38.7695 L 98.291 -38.7695 C 103.271 -38.7695 105.957 -36.0352 105.957 -30.957 L 105.957 -28.4668 C 105.957 -14.8438 95.5078 -4.63867 78.8574 -4.63867 Z"/>
  </g>
  <g id="Bold-L" transform="matrix(1 0 0 1 2262.88 1556)">
   <path d="M 77.0996 30.6152 C 113.232 30.6152 142.92 0.878906 142.92 -35.2051 C 142.92 -71.3379 113.184 -101.025 77.0508 -101.025 C 40.9668 -101.025 11.2793 -71.3379 11.2793 -35.2051 C 11.2793 0.878906 41.0156 30.6152 77.0996 30.6152 Z M 77.5879 -4.54102 C 60.2539 -4.54102 48.9746 -16.6992 48.9746 -35.498 C 48.9746 -54.2969 60.2539 -66.5039 77.4902 -66.5039 C 89.7461 -66.5039 98.6816 -60.7422 101.66 -52.9785 C 102.148 -51.8066 102.393 -50.6836 102.393 -49.4629 C 102.393 -46.0938 100.098 -44.043 96.3867 -44.043 C 93.0176 -44.043 91.5039 -45.3613 90.2344 -47.5098 C 88.1348 -52.3438 83.9844 -55.3711 77.9297 -55.3711 C 69.1406 -55.3711 63.3789 -47.3633 63.3789 -35.498 C 63.3789 -23.5352 69.1895 -15.3809 78.0273 -15.3809 C 85.9375 -15.3809 90.3809 -19.8242 90.3809 -26.3184 L 90.3809 -29.0527 L 81.6895 -29.0527 C 78.5156 -29.0527 76.7578 -31.0547 76.7578 -33.6426 C 76.7578 -36.377 78.5156 -38.2324 81.6895 -38.2324 L 97.3145 -38.2324 C 101.611 -38.2324 103.955 -35.8398 103.955 -31.3965 L 103.955 -28.1738 C 103.955 -14.502 93.8965 -4.54102 77.5879 -4.54102 Z"/>
  </g>
  <g id="Semibold-L" transform="matrix(1 0 0 1 1966.97 1556)">
   <path d="M 76.2695 29.7852 C 111.914 29.7852 141.309 0.439453 141.309 -35.2051 C 141.309 -70.8496 111.865 -100.244 76.2695 -100.244 C 40.625 -100.244 11.2793 -70.8496 11.2793 -35.2051 C 11.2793 0.439453 40.6738 29.7852 76.2695 29.7852 Z M 76.7578 -4.49219 C 59.5703 -4.49219 48.4375 -16.6504 48.4375 -35.5957 C 48.4375 -54.4434 59.5703 -66.6992 76.6113 -66.6992 C 89.0137 -66.6992 97.7539 -60.498 100.635 -52.6855 C 101.074 -51.6113 101.27 -50.5859 101.27 -49.4629 C 101.27 -46.4355 99.2676 -44.5312 96.0449 -44.5312 C 93.2129 -44.5312 91.8457 -45.7031 90.7227 -47.8027 C 88.5254 -53.4668 83.7402 -56.8359 76.9531 -56.8359 C 67.334 -56.8359 60.9375 -48.291 60.9375 -35.5957 C 60.9375 -22.8027 67.3828 -14.1602 77.0508 -14.1602 C 85.8398 -14.1602 90.6738 -19.043 90.6738 -26.3672 L 90.6738 -29.5898 L 80.2246 -29.5898 C 77.4414 -29.5898 75.8789 -31.4453 75.8789 -33.7402 C 75.8789 -36.1816 77.4414 -37.8418 80.2246 -37.8418 L 96.6797 -37.8418 C 100.439 -37.8418 102.637 -35.6934 102.637 -31.7383 L 102.637 -27.9297 C 102.637 -14.2578 92.7734 -4.49219 76.7578 -4.49219 Z"/>
  </g>
  <g id="Medium-L" transform="matrix(1 0 0 1 1670.87 1556)">
   <path d="M 75.6836 29.1992 C 110.938 29.1992 140.088 0.0488281 140.088 -35.2051 C 140.088 -70.459 110.889 -99.6094 75.6348 -99.6094 C 40.3809 -99.6094 11.2793 -70.459 11.2793 -35.2051 C 11.2793 0.0488281 40.3809 29.1992 75.6836 29.1992 Z M 76.0742 -4.44336 C 59.0332 -4.44336 48.0469 -16.6504 48.0469 -35.6445 C 48.0469 -54.5898 59.0332 -66.8457 75.9766 -66.8457 C 88.4766 -66.8457 97.0703 -60.3516 99.8535 -52.4902 C 100.293 -51.416 100.439 -50.4883 100.439 -49.4629 C 100.439 -46.6797 98.6328 -44.9707 95.8008 -44.9707 C 93.3594 -44.9707 92.1387 -45.9961 91.0645 -48.0469 C 88.8184 -54.248 83.4961 -57.959 76.1719 -57.959 C 65.9668 -57.959 59.1309 -48.9258 59.1309 -35.6445 C 59.1309 -22.2168 66.0156 -13.1836 76.3184 -13.1836 C 85.7422 -13.1836 90.918 -18.457 90.918 -26.416 L 90.918 -29.9805 L 79.1504 -29.9805 C 76.6602 -29.9805 75.1953 -31.7383 75.1953 -33.7891 C 75.1953 -36.0352 76.6602 -37.5488 79.1504 -37.5488 L 96.1426 -37.5488 C 99.5605 -37.5488 101.562 -35.5957 101.562 -31.9824 L 101.562 -27.7832 C 101.562 -14.0625 91.9434 -4.44336 76.0742 -4.44336 Z"/>
  </g>
  <g id="Regular-L" transform="matrix(1 0 0 1 1374.97 1556)">
   <path d="M 74.8535 28.3691 C 109.668 28.3691 138.477 -0.390625 138.477 -35.2051 C 138.477 -70.0195 109.619 -98.7793 74.8047 -98.7793 C 40.0391 -98.7793 11.2793 -70.0195 11.2793 -35.2051 C 11.2793 -0.390625 40.0879 28.3691 74.8535 28.3691 Z M 75.2441 -4.39453 C 58.3984 -4.39453 47.5586 -16.6016 47.5586 -35.6934 C 47.5586 -54.7363 58.3984 -66.9922 75.0977 -66.9922 C 87.7441 -66.9922 96.1426 -60.1562 98.8281 -52.1973 C 99.2188 -51.2207 99.3652 -50.3906 99.3652 -49.4629 C 99.3652 -47.0215 97.8027 -45.459 95.459 -45.459 C 93.5547 -45.459 92.4805 -46.2891 91.5527 -48.3887 C 89.2578 -55.3223 83.252 -59.4238 75.1953 -59.4238 C 64.1602 -59.4238 56.6895 -49.8535 56.6895 -35.6934 C 56.6895 -21.4844 64.209 -11.9629 75.3418 -11.9629 C 85.6445 -11.9629 91.2109 -17.7246 91.2109 -26.5137 L 91.2109 -30.5176 L 77.7344 -30.5176 C 75.5859 -30.5176 74.3164 -32.1289 74.3164 -33.8867 C 74.3164 -35.8398 75.5859 -37.207 77.7344 -37.207 L 95.5078 -37.207 C 98.4375 -37.207 100.244 -35.4004 100.244 -32.3242 L 100.244 -27.5879 C 100.244 -13.8672 90.8203 -4.39453 75.2441 -4.39453 Z"/>
  </g>
  <g id="Light-L" transform="matrix(1 0 0 1 1079.18 1556)">
   <path d="M 73.9258 27.4902 C 108.301 27.4902 136.621 -0.830078 136.621 -35.1562 C 136.621 -69.5312 108.252 -97.8516 73.9258 -97.8516 C 39.5508 -97.8516 11.2793 -69.5312 11.2793 -35.1562 C 11.2793 -0.830078 39.5996 27.4902 73.9258 27.4902 Z M 74.4629 -4.6875 C 58.252 -4.6875 47.6562 -16.8945 47.6562 -35.498 C 47.6562 -54.1016 58.252 -66.3086 74.3652 -66.3086 C 87.4512 -66.3086 95.3613 -58.4961 97.5098 -51.0742 C 97.7539 -50.1953 97.8516 -49.5117 97.8516 -48.6816 C 97.8516 -46.6797 96.6797 -45.459 94.7754 -45.459 C 93.2129 -45.459 92.3828 -46.1914 91.748 -47.9492 C 89.8438 -55.5664 83.252 -60.3027 74.4141 -60.3027 C 62.6953 -60.3027 54.6875 -50.2441 54.6875 -35.498 C 54.6875 -20.752 62.7441 -10.6934 74.5117 -10.6934 C 85.3516 -10.6934 91.4551 -17.1387 91.4551 -27.2949 L 91.4551 -30.957 L 76.0742 -30.957 C 74.3164 -30.957 73.291 -32.2266 73.291 -33.6914 C 73.291 -35.3027 74.3164 -36.4258 76.0742 -36.4258 L 94.873 -36.4258 C 97.0703 -36.4258 98.4375 -35.0586 98.4375 -32.666 L 98.4375 -27.9785 C 98.4375 -14.0625 89.2578 -4.6875 74.4629 -4.6875 Z"/>
  </g>
  <g id="Thin-L" transform="matrix(1 0 0 1 783.693 1556)">
   <path d="M 72.7051 26.3184 C 106.494 26.3184 134.18 -1.36719 134.18 -35.1074 C 134.18 -68.8965 106.494 -96.582 72.7051 -96.582 C 38.9648 -96.582 11.2793 -68.8965 11.2793 -35.1074 C 11.2793 -1.36719 38.9648 26.3184 72.7051 26.3184 Z M 73.3887 -5.07812 C 58.1055 -5.07812 47.7539 -17.2363 47.7539 -35.2539 C 47.7539 -53.2715 58.1055 -65.4297 73.3887 -65.4297 C 87.0605 -65.4297 94.3848 -56.2988 95.7031 -49.5605 C 95.8496 -48.877 95.8984 -48.291 95.8984 -47.6562 C 95.8984 -46.2891 95.2148 -45.459 93.9453 -45.459 C 92.7246 -45.459 92.2363 -45.9961 91.9434 -47.4121 C 90.625 -55.8594 83.252 -61.4746 73.3887 -61.4746 C 60.791 -61.4746 52.0508 -50.7324 52.0508 -35.2539 C 52.0508 -19.7754 60.791 -9.0332 73.4375 -9.0332 C 84.9609 -9.0332 91.7969 -16.3574 91.7969 -28.3691 L 91.7969 -31.5918 L 73.877 -31.5918 C 72.6562 -31.5918 71.9727 -32.4219 71.9727 -33.4961 C 71.9727 -34.5703 72.6562 -35.4004 73.877 -35.4004 L 93.9941 -35.4004 C 95.3125 -35.4004 96.0449 -34.5215 96.0449 -33.1543 L 96.0449 -28.5156 C 96.0449 -14.3555 87.207 -5.07812 73.3887 -5.07812 Z"/>
  </g>
  <g id="Ultralight-L" transform="matrix(1 0 0 1 487.616 1556)">
   <path d="M 72.1191 25.7324 C 105.566 25.7324 132.91 -1.61133 132.91 -35.1074 C 132.91 -68.5547 105.566 -95.8984 72.1191 -95.8984 C 38.623 -95.8984 11.2793 -68.5547 11.2793 -35.1074 C 11.2793 -1.61133 38.623 25.7324 72.1191 25.7324 Z M 72.8516 -5.27344 C 58.0566 -5.27344 47.8027 -17.4316 47.8027 -35.1074 C 47.8027 -52.832 58.0566 -64.9414 72.9004 -64.9414 C 86.8652 -64.9414 93.8477 -55.1758 94.7754 -48.8281 C 94.8242 -48.1934 94.9219 -47.6562 94.9219 -47.168 C 94.9219 -46.0938 94.4824 -45.459 93.5059 -45.459 C 92.4805 -45.459 92.1387 -45.9473 92.0898 -47.1191 C 91.0156 -56.0059 83.252 -62.1094 72.8516 -62.1094 C 59.7656 -62.1094 50.6836 -50.9766 50.6836 -35.1074 C 50.6836 -19.2871 59.7656 -8.1543 72.8516 -8.1543 C 84.7656 -8.1543 91.9434 -15.918 91.9434 -28.9551 L 91.9434 -31.8848 L 72.7539 -31.8848 C 71.8262 -31.8848 71.2402 -32.5195 71.2402 -33.3496 C 71.2402 -34.2285 71.8262 -34.8633 72.7539 -34.8633 L 93.5547 -34.8633 C 94.3848 -34.8633 94.8242 -34.2773 94.8242 -33.3984 L 94.8242 -28.8086 C 94.8242 -14.502 86.1328 -5.27344 72.8516 -5.27344 Z"/>
  </g>
  <g id="Black-M" transform="matrix(1 0 0 1 2870.97 1126)">
   <path d="M 62.4023 18.457 C 91.9922 18.457 116.113 -5.61523 116.113 -35.2051 C 116.113 -64.7949 91.9922 -88.8672 62.4023 -88.8672 C 32.8125 -88.8672 8.74023 -64.7949 8.74023 -35.2051 C 8.74023 -5.61523 32.8125 18.457 62.4023 18.457 Z M 63.0371 -11.8652 C 49.2676 -11.8652 40.0391 -21.1426 40.0391 -35.1074 C 40.0391 -49.1211 49.2676 -58.3984 63.0371 -58.3984 C 72.2168 -58.3984 79.6387 -54.9316 81.9824 -49.5117 C 82.5195 -48.3887 82.8125 -47.1191 82.8125 -45.8984 C 82.8125 -42.1875 80.1758 -39.9902 75.6836 -39.9902 C 71.1426 -39.9902 69.4336 -41.6992 68.0664 -43.2129 C 67.041 -44.3848 66.1133 -45.5566 63.8184 -45.5566 C 59.8145 -45.5566 57.4219 -41.3574 57.4219 -35.1074 C 57.4219 -28.6621 59.8633 -23.9746 63.8184 -23.9746 C 66.8945 -23.9746 68.9941 -25.9277 68.9941 -28.5156 L 68.9941 -28.6621 L 67.9688 -28.6621 C 64.3066 -28.6621 62.3535 -30.5176 62.3535 -33.6426 C 62.3535 -36.6211 64.2578 -38.5742 67.9688 -38.5742 L 77.5879 -38.5742 C 82.4707 -38.5742 84.9121 -36.084 84.9121 -31.2012 L 84.9121 -30.7617 C 84.9121 -20.2148 76.2695 -11.8652 63.0371 -11.8652 Z"/>
  </g>
  <g id="Heavy-M" transform="matrix(1 0 0 1 2575.19 1126)">
   <path d="M 61.5234 17.5781 C 90.5273 17.5781 114.258 -6.15234 114.258 -35.2051 C 114.258 -64.2578 90.5273 -87.9883 61.4746 -87.9883 C 32.4707 -87.9883 8.74023 -64.2578 8.74023 -35.2051 C 8.74023 -6.15234 32.4707 17.5781 61.5234 17.5781 Z M 62.0605 -11.6699 C 48.3398 -11.6699 39.2578 -20.9961 39.2578 -35.2539 C 39.2578 -49.4629 48.3398 -58.8379 62.0117 -58.8379 C 71.2402 -58.8379 78.5156 -55.0293 80.9082 -49.4141 C 81.3477 -48.3398 81.6406 -47.2168 81.6406 -46.0938 C 81.6406 -42.7246 79.2969 -40.7227 75.3906 -40.7227 C 71.5332 -40.7227 69.9707 -42.1875 68.75 -43.7988 C 67.4805 -45.8984 65.7227 -47.4121 62.5977 -47.4121 C 57.6172 -47.4121 54.4922 -42.5293 54.4922 -35.2539 C 54.4922 -27.7832 57.666 -22.5586 62.6465 -22.5586 C 66.7969 -22.5586 69.3359 -25 69.3359 -28.3691 L 69.3359 -29.2969 L 66.3574 -29.2969 C 63.1348 -29.2969 61.377 -31.0547 61.377 -33.7891 C 61.377 -36.4746 63.0859 -38.2324 66.3574 -38.2324 L 76.8555 -38.2324 C 81.2012 -38.2324 83.4473 -35.9863 83.4473 -31.543 L 83.4473 -30.3711 C 83.4473 -19.8242 75.0977 -11.6699 62.0605 -11.6699 Z"/>
  </g>
  <g id="Bold-M" transform="matrix(1 0 0 1 2279.5 1126)">
   <path d="M 60.498 16.5039 C 88.8672 16.5039 112.207 -6.78711 112.207 -35.2051 C 112.207 -63.623 88.8672 -86.9629 60.4492 -86.9629 C 32.0312 -86.9629 8.74023 -63.623 8.74023 -35.2051 C 8.74023 -6.78711 32.0801 16.5039 60.498 16.5039 Z M 60.8887 -11.5234 C 47.3145 -11.5234 38.4277 -20.8984 38.4277 -35.4004 C 38.4277 -49.9023 47.3145 -59.3262 60.8398 -59.3262 C 70.2148 -59.3262 77.2949 -55.1758 79.6875 -49.2676 C 80.127 -48.291 80.3223 -47.3145 80.3223 -46.2891 C 80.3223 -43.3594 78.3203 -41.6016 75 -41.6016 C 71.9238 -41.6016 70.6055 -42.7734 69.4824 -44.4336 C 67.9199 -47.5586 65.332 -49.5117 61.2793 -49.5117 C 55.1758 -49.5117 51.2695 -43.8477 51.2695 -35.4004 C 51.2695 -26.8555 55.2246 -20.9473 61.3281 -20.9473 C 66.6992 -20.9473 69.7754 -23.9746 69.7754 -28.2715 L 69.7754 -29.9805 L 64.5508 -29.9805 C 61.8164 -29.9805 60.2539 -31.6406 60.2539 -33.9355 C 60.2539 -36.3281 61.7676 -37.8906 64.5508 -37.8906 L 76.0254 -37.8906 C 79.7363 -37.8906 81.7871 -35.8398 81.7871 -31.9824 L 81.7871 -29.9316 C 81.7871 -19.3848 73.7793 -11.5234 60.8887 -11.5234 Z"/>
  </g>
  <g id="Semibold-M" transform="matrix(1 0 0 1 1983.5 1126)">
   <path d="M 59.7656 15.8203 C 87.7441 15.8203 110.791 -7.22656 110.791 -35.2051 C 110.791 -63.1836 87.6953 -86.2793 59.7656 -86.2793 C 31.7871 -86.2793 8.74023 -63.1836 8.74023 -35.2051 C 8.74023 -7.22656 31.7871 15.8203 59.7656 15.8203 Z M 60.1074 -11.377 C 46.582 -11.377 37.8418 -20.8008 37.8418 -35.498 C 37.8418 -50.1953 46.582 -59.668 60.0098 -59.668 C 69.4336 -59.668 76.416 -55.3223 78.8574 -49.1699 C 79.248 -48.2422 79.3945 -47.3633 79.3945 -46.4355 C 79.3945 -43.75 77.6367 -42.1387 74.7559 -42.1387 C 72.2168 -42.1387 70.9961 -43.2129 69.9707 -44.873 C 68.2617 -48.6816 65.0391 -50.9766 60.3516 -50.9766 C 53.4668 -50.9766 49.0234 -44.7754 49.0234 -35.498 C 49.0234 -26.1719 53.5645 -19.873 60.4492 -19.873 C 66.6504 -19.873 70.0684 -23.2422 70.0684 -28.1738 L 70.0684 -30.4688 L 63.3301 -30.4688 C 60.8887 -30.4688 59.5215 -32.0312 59.5215 -34.082 C 59.5215 -36.1816 60.8887 -37.6465 63.3301 -37.6465 L 75.4395 -37.6465 C 78.7598 -37.6465 80.6641 -35.7422 80.6641 -32.2754 L 80.6641 -29.5898 C 80.6641 -19.0918 72.8516 -11.377 60.1074 -11.377 Z"/>
  </g>
  <g id="Medium-M" transform="matrix(1 0 0 1 1687.3 1126)">
   <path d="M 59.2285 15.2832 C 86.9141 15.2832 109.766 -7.56836 109.766 -35.2051 C 109.766 -62.8906 86.8652 -85.7422 59.1797 -85.7422 C 31.543 -85.7422 8.74023 -62.8906 8.74023 -35.2051 C 8.74023 -7.56836 31.5918 15.2832 59.2285 15.2832 Z M 59.5215 -11.2793 C 46.0449 -11.2793 37.3535 -20.7031 37.3535 -35.5957 C 37.3535 -50.3906 46.0449 -59.9121 59.4238 -59.9121 C 68.8965 -59.9121 75.7812 -55.3711 78.2227 -49.1211 C 78.5645 -48.2422 78.7109 -47.4121 78.7109 -46.5332 C 78.7109 -44.0918 77.0996 -42.5781 74.5605 -42.5781 C 72.4609 -42.5781 71.3379 -43.5059 70.3613 -45.2148 C 68.5059 -49.5605 64.7949 -52.0508 59.6191 -52.0508 C 52.1973 -52.0508 47.3145 -45.459 47.3145 -35.5957 C 47.3145 -25.6348 52.2461 -19.043 59.7656 -19.043 C 66.6016 -19.043 70.2637 -22.7051 70.2637 -28.0762 L 70.2637 -30.8105 L 62.4023 -30.8105 C 60.2051 -30.8105 58.9355 -32.3242 58.9355 -34.1309 C 58.9355 -36.084 60.2051 -37.4512 62.4023 -37.4512 L 74.9512 -37.4512 C 78.0273 -37.4512 79.834 -35.6934 79.834 -32.4707 L 79.834 -29.3945 C 79.834 -18.8477 72.168 -11.2793 59.5215 -11.2793 Z"/>
  </g>
  <g id="Regular-M" transform="matrix(1 0 0 1 1391.3 1126)">
   <path d="M 58.5449 14.5508 C 85.791 14.5508 108.35 -8.00781 108.35 -35.2539 C 108.35 -62.4512 85.7422 -85.0586 58.4961 -85.0586 C 31.2988 -85.0586 8.74023 -62.4512 8.74023 -35.2539 C 8.74023 -8.00781 31.3477 14.5508 58.5449 14.5508 Z M 58.7891 -11.1816 C 45.3125 -11.1816 36.7676 -20.6543 36.7676 -35.6934 C 36.7676 -50.6836 45.3125 -60.2539 58.6426 -60.2539 C 68.1641 -60.2539 74.9512 -55.4688 77.3926 -49.0234 C 77.7344 -48.1934 77.832 -47.5098 77.832 -46.6797 C 77.832 -44.5312 76.416 -43.1641 74.3164 -43.1641 C 72.7051 -43.1641 71.7285 -43.8965 70.8984 -45.6543 C 68.7988 -50.6836 64.502 -53.4668 58.7402 -53.4668 C 50.5371 -53.4668 45.1172 -46.3379 45.1172 -35.6934 C 45.1172 -25 50.5859 -17.9199 58.8867 -17.9199 C 66.5527 -17.9199 70.5566 -21.9727 70.5566 -27.9785 L 70.5566 -31.2988 L 61.1816 -31.2988 C 59.2773 -31.2988 58.1543 -32.7148 58.1543 -34.2773 C 58.1543 -35.9863 59.2773 -37.207 61.1816 -37.207 L 74.4141 -37.207 C 77.0508 -37.207 78.7109 -35.5957 78.7109 -32.7637 L 78.7109 -29.0527 C 78.7109 -18.5547 71.2891 -11.1816 58.7891 -11.1816 Z"/>
  </g>
  <g id="Light-M" transform="matrix(1 0 0 1 1095.42 1126)">
   <path d="M 57.7148 13.7695 C 84.5215 13.7695 106.689 -8.39844 106.689 -35.2051 C 106.689 -62.0117 84.5215 -84.1797 57.666 -84.1797 C 30.8594 -84.1797 8.74023 -62.0117 8.74023 -35.2051 C 8.74023 -8.39844 30.9082 13.7695 57.7148 13.7695 Z M 58.0566 -11.4258 C 45.2148 -11.4258 36.8652 -20.8984 36.8652 -35.498 C 36.8652 -50.1465 45.2148 -59.6191 57.959 -59.6191 C 67.9199 -59.6191 74.2676 -54.0039 76.1719 -47.998 C 76.416 -47.2656 76.5137 -46.6797 76.5137 -45.9961 C 76.5137 -44.2383 75.4395 -43.1641 73.7305 -43.1641 C 72.4121 -43.1641 71.6309 -43.7988 71.0449 -45.3125 C 69.3359 -50.8789 64.502 -54.2969 58.0078 -54.2969 C 49.2188 -54.2969 43.3105 -46.6797 43.3105 -35.498 C 43.3105 -24.3164 49.2676 -16.7969 58.1055 -16.7969 C 66.2598 -16.7969 70.752 -21.4355 70.752 -28.7109 L 70.752 -31.6895 L 59.7168 -31.6895 C 58.1543 -31.6895 57.2754 -32.8613 57.2754 -34.1309 C 57.2754 -35.498 58.1543 -36.4746 59.7168 -36.4746 L 73.8281 -36.4746 C 75.8301 -36.4746 77.0996 -35.2539 77.0996 -33.1055 L 77.0996 -29.4434 C 77.0996 -18.75 69.873 -11.4258 58.0566 -11.4258 Z"/>
  </g>
  <g id="Thin-M" transform="matrix(1 0 0 1 799.806 1126)">
   <path d="M 56.6406 12.7441 C 82.9102 12.7441 104.492 -8.83789 104.492 -35.1562 C 104.492 -61.4746 82.9102 -83.0566 56.5918 -83.0566 C 30.3223 -83.0566 8.74023 -61.4746 8.74023 -35.1562 C 8.74023 -8.83789 30.3223 12.7441 56.6406 12.7441 Z M 57.1289 -11.7676 C 45.0684 -11.7676 36.9629 -21.1914 36.9629 -35.3027 C 36.9629 -49.3652 45.0684 -58.8379 57.0801 -58.8379 C 67.5293 -58.8379 73.3398 -52.002 74.5605 -46.6797 C 74.707 -46.0938 74.7559 -45.6055 74.7559 -45.1172 C 74.7559 -43.8965 74.1211 -43.1641 72.998 -43.1641 C 71.9727 -43.1641 71.4844 -43.6035 71.2402 -44.7754 C 70.0684 -51.1719 64.502 -55.3223 57.0801 -55.3223 C 47.5098 -55.3223 40.918 -47.1191 40.918 -35.3027 C 40.918 -23.4375 47.5098 -15.2832 57.1289 -15.2832 C 65.918 -15.2832 71.0449 -20.752 71.0449 -29.6875 L 71.0449 -32.2754 L 57.7148 -32.2754 C 56.6895 -32.2754 56.0547 -33.0078 56.0547 -33.9355 C 56.0547 -34.8633 56.6895 -35.5469 57.7148 -35.5469 L 73.0469 -35.5469 C 74.2676 -35.5469 74.9512 -34.8145 74.9512 -33.4961 L 74.9512 -29.9316 C 74.9512 -18.9941 68.0176 -11.7676 57.1289 -11.7676 Z"/>
  </g>
  <g id="Ultralight-M" transform="matrix(1 0 0 1 503.656 1126)">
   <path d="M 56.0547 12.207 C 82.0801 12.207 103.369 -9.08203 103.369 -35.1562 C 103.369 -61.1816 82.0801 -82.4707 56.0547 -82.4707 C 30.0293 -82.4707 8.74023 -61.1816 8.74023 -35.1562 C 8.74023 -9.08203 30.0293 12.207 56.0547 12.207 Z M 56.6406 -11.9629 C 45.0195 -11.9629 37.0605 -21.3867 37.0605 -35.2051 C 37.0605 -49.0234 45.0195 -58.3984 56.6406 -58.3984 C 67.3828 -58.3984 72.9004 -51.0254 73.7305 -45.9961 C 73.7793 -45.5078 73.877 -45.0684 73.877 -44.6289 C 73.877 -43.7012 73.4375 -43.1641 72.6074 -43.1641 C 71.7285 -43.1641 71.4355 -43.5547 71.3379 -44.5312 C 70.4102 -51.2695 64.502 -55.8594 56.6406 -55.8594 C 46.6309 -55.8594 39.6973 -47.3633 39.6973 -35.2051 C 39.6973 -22.998 46.6309 -14.502 56.6406 -14.502 C 65.7715 -14.502 71.1914 -20.4102 71.1914 -30.1758 L 71.1914 -32.5195 L 56.6895 -32.5195 C 55.9082 -32.5195 55.4199 -33.1055 55.4199 -33.8379 C 55.4199 -34.5703 55.9082 -35.1074 56.6895 -35.1074 L 72.6562 -35.1074 C 73.4375 -35.1074 73.8281 -34.5703 73.8281 -33.7402 L 73.8281 -30.1758 C 73.8281 -19.1406 67.041 -11.9629 56.6406 -11.9629 Z"/>
  </g>
  <g id="Black-S" transform="matrix(1 0 0 1 2884.57 696)">
   <path d="M 48.8281 6.78711 C 71.9727 6.78711 90.8203 -12.0605 90.8203 -35.2051 C 90.8203 -58.3496 71.9727 -77.1973 48.8281 -77.1973 C 25.6836 -77.1973 6.83594 -58.3496 6.83594 -35.2051 C 6.83594 -12.0605 25.6836 6.78711 48.8281 6.78711 Z M 49.3164 -16.8945 C 38.5254 -16.8945 31.2988 -24.1699 31.2988 -35.1562 C 31.2988 -46.1426 38.5254 -53.418 49.3164 -53.418 C 56.4941 -53.418 62.3047 -50.6836 64.1602 -46.4355 C 64.5508 -45.5566 64.7949 -44.5801 64.7949 -43.6035 C 64.7949 -40.7227 62.7441 -39.0137 59.2773 -39.0137 C 55.7617 -39.0137 54.4434 -40.332 53.3691 -41.5527 C 52.5391 -42.5293 51.7578 -43.457 49.9023 -43.457 C 46.6797 -43.457 44.7754 -40.1367 44.7754 -35.1562 C 44.7754 -30.0293 46.7285 -26.3184 49.9023 -26.3184 C 52.3926 -26.3184 54.0527 -27.8809 54.0527 -29.9316 L 54.0527 -30.127 L 53.125 -30.127 C 50.293 -30.127 48.7793 -31.5918 48.7793 -33.9844 C 48.7793 -36.3281 50.2441 -37.8418 53.125 -37.8418 L 60.7422 -37.8418 C 64.502 -37.8418 66.4062 -35.8887 66.4062 -32.0801 L 66.4062 -31.6895 C 66.4062 -23.4375 59.668 -16.8945 49.3164 -16.8945 Z"/>
  </g>
  <g id="Heavy-S" transform="matrix(1 0 0 1 2588.47 696)">
   <path d="M 48.2422 6.15234 C 70.9961 6.15234 89.5996 -12.4512 89.5996 -35.2051 C 89.5996 -57.959 70.9961 -76.6113 48.1934 -76.6113 C 25.4395 -76.6113 6.83594 -57.959 6.83594 -35.2051 C 6.83594 -12.4512 25.4395 6.15234 48.2422 6.15234 Z M 48.6328 -16.748 C 37.8418 -16.748 30.7129 -24.0723 30.7129 -35.2539 C 30.7129 -46.4844 37.8418 -53.8086 48.584 -53.8086 C 55.8105 -53.8086 61.5234 -50.9277 63.4766 -46.4355 C 63.8184 -45.6055 64.0625 -44.7266 64.0625 -43.7988 C 64.0625 -41.1621 62.1582 -39.5996 59.082 -39.5996 C 56.1035 -39.5996 54.8828 -40.7227 53.8574 -42.041 C 52.7832 -43.6523 51.4648 -44.8242 49.0723 -44.8242 C 45.166 -44.8242 42.7734 -40.9668 42.7734 -35.2539 C 42.7734 -29.4434 45.2148 -25.3418 49.0723 -25.3418 C 52.3438 -25.3418 54.2969 -27.2461 54.2969 -29.7852 L 54.2969 -30.5664 L 52.0508 -30.5664 C 49.5117 -30.5664 48.1445 -31.9824 48.1445 -34.1309 C 48.1445 -36.2793 49.4629 -37.6465 52.0508 -37.6465 L 60.2051 -37.6465 C 63.6719 -37.6465 65.4785 -35.8398 65.4785 -32.3242 L 65.4785 -31.3477 C 65.4785 -23.0957 58.9355 -16.748 48.6328 -16.748 Z"/>
  </g>
  <g id="Bold-S" transform="matrix(1 0 0 1 2292.44 696)">
   <path d="M 47.5586 5.46875 C 69.873 5.46875 88.2324 -12.8906 88.2324 -35.2051 C 88.2324 -57.5684 69.873 -75.9277 47.5098 -75.9277 C 25.1953 -75.9277 6.83594 -57.5684 6.83594 -35.2051 C 6.83594 -12.8906 25.1953 5.46875 47.5586 5.46875 Z M 47.8516 -16.5527 C 37.0117 -16.5527 30.0293 -23.9258 30.0293 -35.4004 C 30.0293 -46.875 37.0117 -54.2969 47.7539 -54.2969 C 55.0293 -54.2969 60.6445 -51.2695 62.6953 -46.4844 C 63.0371 -45.7031 63.1836 -44.9219 63.1836 -44.043 C 63.1836 -41.6992 61.5234 -40.2344 58.8867 -40.2344 C 56.4453 -40.2344 55.3223 -41.2109 54.3945 -42.5781 C 53.0762 -44.873 51.1719 -46.2891 48.0957 -46.2891 C 43.457 -46.2891 40.4785 -41.9434 40.4785 -35.4004 C 40.4785 -28.7598 43.5059 -24.2676 48.1934 -24.2676 C 52.3438 -24.2676 54.5898 -26.5137 54.5898 -29.5898 L 54.5898 -31.0547 L 50.8789 -31.0547 C 48.6328 -31.0547 47.4121 -32.4219 47.4121 -34.2773 C 47.4121 -36.1816 48.6328 -37.4512 50.8789 -37.4512 L 59.668 -37.4512 C 62.7441 -37.4512 64.4043 -35.791 64.4043 -32.6172 L 64.4043 -30.957 C 64.4043 -22.7539 58.1055 -16.5527 47.8516 -16.5527 Z"/>
  </g>
  <g id="Semibold-S" transform="matrix(1 0 0 1 1996.2 696)">
   <path d="M 47.0703 4.98047 C 69.0918 4.98047 87.3047 -13.1836 87.3047 -35.2539 C 87.3047 -57.2754 69.0918 -75.4883 47.0215 -75.4883 C 25 -75.4883 6.83594 -57.2754 6.83594 -35.2539 C 6.83594 -13.1836 25.0488 4.98047 47.0703 4.98047 Z M 47.3145 -16.4551 C 36.4746 -16.4551 29.5898 -23.8281 29.5898 -35.498 C 29.5898 -47.168 36.4746 -54.5898 47.2168 -54.5898 C 54.4922 -54.5898 60.0586 -51.4648 62.1582 -46.4844 C 62.5 -45.752 62.6465 -45.0195 62.6465 -44.2383 C 62.6465 -42.041 61.084 -40.6738 58.7402 -40.6738 C 56.6895 -40.6738 55.6641 -41.5039 54.7852 -42.9688 C 53.2715 -45.752 50.9277 -47.3145 47.4609 -47.3145 C 42.2852 -47.3145 38.916 -42.627 38.916 -35.498 C 38.916 -28.3203 42.334 -23.5352 47.5586 -23.5352 C 52.2949 -23.5352 54.7852 -25.9766 54.7852 -29.4434 L 54.7852 -31.3477 L 50.0488 -31.3477 C 48.0469 -31.3477 46.875 -32.7148 46.875 -34.375 C 46.875 -36.1328 48.0469 -37.3535 50.0488 -37.3535 L 59.2285 -37.3535 C 62.0605 -37.3535 63.7207 -35.7422 63.7207 -32.8125 L 63.7207 -30.7129 C 63.7207 -22.5098 57.5195 -16.4551 47.3145 -16.4551 Z"/>
  </g>
  <g id="Medium-S" transform="matrix(1 0 0 1 1699.83 696)">
   <path d="M 46.7285 4.63867 C 68.5547 4.63867 86.6211 -13.4277 86.6211 -35.2539 C 86.6211 -57.0312 68.5059 -75.1465 46.6797 -75.1465 C 24.8535 -75.1465 6.83594 -57.0312 6.83594 -35.2539 C 6.83594 -13.4277 24.9023 4.63867 46.7285 4.63867 Z M 46.9238 -16.3574 C 36.084 -16.3574 29.248 -23.7793 29.248 -35.5957 C 29.248 -47.3633 36.084 -54.834 46.7773 -54.834 C 54.0527 -54.834 59.6191 -51.6113 61.7188 -46.4844 C 62.0605 -45.752 62.207 -45.1172 62.207 -44.3359 C 62.207 -42.2852 60.791 -41.0156 58.6426 -41.0156 C 56.8848 -41.0156 55.9082 -41.748 55.0781 -43.2129 C 53.4668 -46.3867 50.7812 -48.1445 46.9727 -48.1445 C 41.4062 -48.1445 37.7441 -43.1152 37.7441 -35.5957 C 37.7441 -27.9785 41.4551 -22.9492 47.0703 -22.9492 C 52.2949 -22.9492 54.9805 -25.6348 54.9805 -29.3457 L 54.9805 -31.6406 L 49.4629 -31.6406 C 47.6074 -31.6406 46.4844 -32.9102 46.4844 -34.4238 C 46.4844 -36.084 47.5586 -37.2559 49.4629 -37.2559 L 58.9355 -37.2559 C 61.5723 -37.2559 63.1348 -35.7422 63.1348 -32.959 L 63.1348 -30.5176 C 63.1348 -22.3145 57.0801 -16.3574 46.9238 -16.3574 Z"/>
  </g>
  <g id="Regular-S" transform="matrix(1 0 0 1 1403.58 696)">
   <path d="M 46.2402 4.15039 C 67.7734 4.15039 85.6934 -13.7207 85.6934 -35.2539 C 85.6934 -56.7871 67.7246 -74.6582 46.1914 -74.6582 C 24.707 -74.6582 6.83594 -56.7871 6.83594 -35.2539 C 6.83594 -13.7207 24.7559 4.15039 46.2402 4.15039 Z M 46.3867 -16.2598 C 35.5469 -16.2598 28.7598 -23.6816 28.7598 -35.6445 C 28.7598 -47.6074 35.5469 -55.127 46.2402 -55.127 C 53.5156 -55.127 59.0332 -51.8066 61.1816 -46.5332 C 61.5234 -45.8008 61.6211 -45.2148 61.6211 -44.5312 C 61.6211 -42.627 60.3516 -41.4551 58.4961 -41.4551 C 57.1289 -41.4551 56.25 -42.0898 55.4199 -43.6035 C 53.6621 -47.2656 50.5371 -49.1699 46.3379 -49.1699 C 40.2344 -49.1699 36.1816 -43.75 36.1816 -35.6445 C 36.1816 -27.5391 40.2832 -22.2168 46.4844 -22.2168 C 52.2461 -22.2168 55.1758 -25.0977 55.1758 -29.1992 L 55.1758 -31.9336 L 48.6328 -31.9336 C 46.9727 -31.9336 45.9961 -33.2031 45.9961 -34.5703 C 45.9961 -36.0352 46.9727 -37.1094 48.6328 -37.1094 L 58.5449 -37.1094 C 60.9375 -37.1094 62.4512 -35.6934 62.4512 -33.1543 L 62.4512 -30.2246 C 62.4512 -22.0703 56.543 -16.2598 46.3867 -16.2598 Z"/>
  </g>
  <g id="Light-S" transform="matrix(1 0 0 1 1107.6 696)">
   <path d="M 45.5078 3.4668 C 66.6992 3.4668 84.2285 -14.0625 84.2285 -35.2051 C 84.2285 -56.3965 66.6504 -73.9258 45.5078 -73.9258 C 24.3164 -73.9258 6.83594 -56.3965 6.83594 -35.2051 C 6.83594 -14.0625 24.3652 3.4668 45.5078 3.4668 Z M 45.752 -16.5039 C 35.4492 -16.5039 28.8574 -23.877 28.8574 -35.498 C 28.8574 -47.1191 35.4492 -54.5898 45.6543 -54.5898 C 53.2715 -54.5898 58.4473 -50.4883 60.1074 -45.6055 C 60.3516 -45.0195 60.4492 -44.5312 60.4492 -43.9453 C 60.4492 -42.3828 59.4727 -41.4551 58.0078 -41.4551 C 56.8359 -41.4551 56.1523 -41.9922 55.5664 -43.2617 C 54.1016 -47.4121 50.5371 -49.8535 45.7031 -49.8535 C 39.0625 -49.8535 34.6191 -44.043 34.6191 -35.498 C 34.6191 -26.9531 39.1113 -21.2402 45.8008 -21.2402 C 52.002 -21.2402 55.3711 -24.6582 55.3711 -29.8828 L 55.3711 -32.3242 L 47.3145 -32.3242 C 45.9961 -32.3242 45.2148 -33.3008 45.2148 -34.4238 C 45.2148 -35.6445 45.9961 -36.4746 47.3145 -36.4746 L 58.0566 -36.4746 C 59.8633 -36.4746 60.9863 -35.4004 60.9863 -33.4473 L 60.9863 -30.5664 C 60.9863 -22.2168 55.2734 -16.5039 45.752 -16.5039 Z"/>
  </g>
  <g id="Thin-S" transform="matrix(1 0 0 1 811.867 696)">
   <path d="M 44.5801 2.53906 C 65.2832 2.53906 82.2754 -14.4531 82.2754 -35.2051 C 82.2754 -55.9082 65.2344 -72.9004 44.5312 -72.9004 C 23.8281 -72.9004 6.83594 -55.9082 6.83594 -35.2051 C 6.83594 -14.4531 23.877 2.53906 44.5801 2.53906 Z M 44.9219 -16.7969 C 35.3516 -16.7969 28.9551 -24.1699 28.9551 -35.3516 C 28.9551 -46.4844 35.3516 -53.8574 44.873 -53.8574 C 52.9785 -53.8574 57.6172 -48.7793 58.6914 -44.4336 C 58.8379 -43.9941 58.8867 -43.5547 58.8867 -43.1152 C 58.8867 -42.0898 58.3008 -41.4551 57.3242 -41.4551 C 56.4453 -41.4551 56.0547 -41.8457 55.7617 -42.8223 C 54.7363 -47.6562 50.5371 -50.7812 44.9219 -50.7812 C 37.5488 -50.7812 32.4707 -44.4824 32.4707 -35.3516 C 32.4707 -26.1719 37.5488 -19.873 44.9219 -19.873 C 51.709 -19.873 55.6152 -24.0234 55.6152 -30.7129 L 55.6152 -32.8125 L 45.6055 -32.8125 C 44.6777 -32.8125 44.1406 -33.4473 44.1406 -34.2285 C 44.1406 -35.0586 44.6777 -35.6934 45.6055 -35.6934 L 57.373 -35.6934 C 58.4473 -35.6934 59.1309 -34.9609 59.1309 -33.7891 L 59.1309 -30.957 C 59.1309 -22.4609 53.6133 -16.7969 44.9219 -16.7969 Z"/>
  </g>
  <g id="Ultralight-S" transform="matrix(1 0 0 1 515.644 696)">
   <path d="M 44.043 2.05078 C 64.502 2.05078 81.2988 -14.6973 81.2988 -35.1562 C 81.2988 -55.6152 64.502 -72.3633 44.043 -72.3633 C 23.584 -72.3633 6.83594 -55.6152 6.83594 -35.1562 C 6.83594 -14.6973 23.584 2.05078 44.043 2.05078 Z M 44.4824 -16.9434 C 35.2539 -16.9434 29.0039 -24.3164 29.0039 -35.2051 C 29.0039 -46.1426 35.2539 -53.5156 44.4824 -53.5156 C 52.832 -53.5156 57.2266 -47.8516 57.959 -43.8477 C 58.0566 -43.457 58.1055 -43.0664 58.1055 -42.7246 C 58.1055 -41.9434 57.7148 -41.4551 56.9824 -41.4551 C 56.25 -41.4551 55.957 -41.748 55.8594 -42.5781 C 55.0781 -47.7539 50.5371 -51.2695 44.4824 -51.2695 C 36.7676 -51.2695 31.3965 -44.6777 31.3965 -35.2051 C 31.3965 -25.7812 36.7676 -19.1895 44.4824 -19.1895 C 51.5625 -19.1895 55.7129 -23.6816 55.7129 -31.1523 L 55.7129 -33.0566 L 44.6777 -33.0566 C 43.9941 -33.0566 43.6035 -33.5449 43.6035 -34.1309 C 43.6035 -34.7656 43.9941 -35.2539 44.6777 -35.2539 L 57.0312 -35.2539 C 57.7148 -35.2539 58.1543 -34.7656 58.1543 -33.9844 L 58.1543 -31.2012 C 58.1543 -22.5586 52.7832 -16.9434 44.4824 -16.9434 Z"/>
  </g>
 </g>
</svg>
