<?xml version="1.0" encoding="UTF-8"?>
<!--Generator: Apple Native CoreSVG 123-->
<!DOCTYPE svg
PUBLIC "-//W3C//DTD SVG 1.1//EN"
       "http://www.w3.org/Graphics/SVG/1.1/DTD/svg11.dtd">
<svg version="1.1" xmlns="http://www.w3.org/2000/svg" xmlns:xlink="http://www.w3.org/1999/xlink" width="3300" height="2200">
 <!--glyph: "uni100009.medium", point size: 100.000000, font version: "Version 15.0d7e11", template writer version: "5"-->
 <g id="Notes">
  <rect height="2200" id="artboard" style="fill:white;opacity:1" width="3300" x="0" y="0"/>
  <line id="" style="fill:none;stroke:black;opacity:1;stroke-width:0.5;" x1="263" x2="3036" y1="292" y2="292"/>
  <text style="stroke:none;fill:black;font-family:-apple-system,&quot;SF Pro Display&quot;,&quot;SF Pro Text&quot;,Helvetica,sans-serif;font-weight:bold;" transform="matrix(1 0 0 1 263 322)">Weight/Scale Variations</text>
  <text style="stroke:none;fill:black;font-family:-apple-system,&quot;SF Pro Display&quot;,&quot;SF Pro Text&quot;,Helvetica,sans-serif;text-anchor:middle;" transform="matrix(1 0 0 1 559.711 322)">Ultralight</text>
  <text style="stroke:none;fill:black;font-family:-apple-system,&quot;SF Pro Display&quot;,&quot;SF Pro Text&quot;,Helvetica,sans-serif;text-anchor:middle;" transform="matrix(1 0 0 1 856.422 322)">Thin</text>
  <text style="stroke:none;fill:black;font-family:-apple-system,&quot;SF Pro Display&quot;,&quot;SF Pro Text&quot;,Helvetica,sans-serif;text-anchor:middle;" transform="matrix(1 0 0 1 1153.13 322)">Light</text>
  <text style="stroke:none;fill:black;font-family:-apple-system,&quot;SF Pro Display&quot;,&quot;SF Pro Text&quot;,Helvetica,sans-serif;text-anchor:middle;" transform="matrix(1 0 0 1 1449.84 322)">Regular</text>
  <text style="stroke:none;fill:black;font-family:-apple-system,&quot;SF Pro Display&quot;,&quot;SF Pro Text&quot;,Helvetica,sans-serif;text-anchor:middle;" transform="matrix(1 0 0 1 1746.56 322)">Medium</text>
  <text style="stroke:none;fill:black;font-family:-apple-system,&quot;SF Pro Display&quot;,&quot;SF Pro Text&quot;,Helvetica,sans-serif;text-anchor:middle;" transform="matrix(1 0 0 1 2043.27 322)">Semibold</text>
  <text style="stroke:none;fill:black;font-family:-apple-system,&quot;SF Pro Display&quot;,&quot;SF Pro Text&quot;,Helvetica,sans-serif;text-anchor:middle;" transform="matrix(1 0 0 1 2339.98 322)">Bold</text>
  <text style="stroke:none;fill:black;font-family:-apple-system,&quot;SF Pro Display&quot;,&quot;SF Pro Text&quot;,Helvetica,sans-serif;text-anchor:middle;" transform="matrix(1 0 0 1 2636.69 322)">Heavy</text>
  <text style="stroke:none;fill:black;font-family:-apple-system,&quot;SF Pro Display&quot;,&quot;SF Pro Text&quot;,Helvetica,sans-serif;text-anchor:middle;" transform="matrix(1 0 0 1 2933.4 322)">Black</text>
  <line id="" style="fill:none;stroke:black;opacity:1;stroke-width:0.5;" x1="263" x2="3036" y1="1903" y2="1903"/>
  <g id="" transform="matrix(1 0 0 1 263 1933)">
   <path d="M 9.24805 0.830078 C 13.5547 0.830078 17.1387 -2.74414 17.1387 -7.05078 C 17.1387 -11.3574 13.5449 -14.9316 9.23828 -14.9316 C 4.94141 -14.9316 1.36719 -11.3574 1.36719 -7.05078 C 1.36719 -2.74414 4.95117 0.830078 9.24805 0.830078 Z M 9.24805 -0.654297 C 5.70312 -0.654297 2.87109 -3.49609 2.87109 -7.05078 C 2.87109 -10.6055 5.69336 -13.4473 9.23828 -13.4473 C 12.793 -13.4473 15.6348 -10.6055 15.6445 -7.05078 C 15.6543 -3.49609 12.8027 -0.654297 9.24805 -0.654297 Z M 9.22852 -3.42773 C 9.69727 -3.42773 9.9707 -3.74023 9.9707 -4.25781 L 9.9707 -6.31836 L 12.1973 -6.31836 C 12.6953 -6.31836 13.0371 -6.57227 13.0371 -7.04102 C 13.0371 -7.51953 12.7148 -7.7832 12.1973 -7.7832 L 9.9707 -7.7832 L 9.9707 -10.0098 C 9.9707 -10.5273 9.69727 -10.8496 9.22852 -10.8496 C 8.75977 -10.8496 8.50586 -10.5078 8.50586 -10.0098 L 8.50586 -7.7832 L 6.29883 -7.7832 C 5.78125 -7.7832 5.44922 -7.51953 5.44922 -7.04102 C 5.44922 -6.57227 5.80078 -6.31836 6.29883 -6.31836 L 8.50586 -6.31836 L 8.50586 -4.25781 C 8.50586 -3.75977 8.75977 -3.42773 9.22852 -3.42773 Z"/>
  </g>
  <g id="" transform="matrix(1 0 0 1 281.506 1933)">
   <path d="M 11.709 2.91016 C 17.1582 2.91016 21.6699 -1.60156 21.6699 -7.05078 C 21.6699 -12.4902 17.1484 -17.0117 11.6992 -17.0117 C 6.25977 -17.0117 1.74805 -12.4902 1.74805 -7.05078 C 1.74805 -1.60156 6.26953 2.91016 11.709 2.91016 Z M 11.709 1.25 C 7.09961 1.25 3.41797 -2.44141 3.41797 -7.05078 C 3.41797 -11.6504 7.08984 -15.3516 11.6992 -15.3516 C 16.3086 -15.3516 20 -11.6504 20.0098 -7.05078 C 20.0195 -2.44141 16.3184 1.25 11.709 1.25 Z M 11.6895 -2.41211 C 12.207 -2.41211 12.5195 -2.77344 12.5195 -3.33984 L 12.5195 -6.23047 L 15.5762 -6.23047 C 16.123 -6.23047 16.5039 -6.51367 16.5039 -7.03125 C 16.5039 -7.55859 16.1426 -7.86133 15.5762 -7.86133 L 12.5195 -7.86133 L 12.5195 -10.9277 C 12.5195 -11.5039 12.207 -11.8555 11.6895 -11.8555 C 11.1719 -11.8555 10.8789 -11.4844 10.8789 -10.9277 L 10.8789 -7.86133 L 7.83203 -7.86133 C 7.26562 -7.86133 6.89453 -7.55859 6.89453 -7.03125 C 6.89453 -6.51367 7.28516 -6.23047 7.83203 -6.23047 L 10.8789 -6.23047 L 10.8789 -3.33984 C 10.8789 -2.79297 11.1719 -2.41211 11.6895 -2.41211 Z"/>
  </g>
  <g id="" transform="matrix(1 0 0 1 304.924 1933)">
   <path d="M 14.9707 5.67383 C 21.9336 5.67383 27.6953 -0.078125 27.6953 -7.04102 C 27.6953 -14.0039 21.9238 -19.7559 14.9609 -19.7559 C 8.00781 -19.7559 2.25586 -14.0039 2.25586 -7.04102 C 2.25586 -0.078125 8.01758 5.67383 14.9707 5.67383 Z M 14.9707 3.85742 C 8.93555 3.85742 4.08203 -1.00586 4.08203 -7.04102 C 4.08203 -13.0762 8.92578 -17.9395 14.9609 -17.9395 C 21.0059 -17.9395 25.8594 -13.0762 25.8691 -7.04102 C 25.8789 -1.00586 21.0156 3.85742 14.9707 3.85742 Z M 14.9512 -1.06445 C 15.5176 -1.06445 15.8691 -1.45508 15.8691 -2.06055 L 15.8691 -6.13281 L 20.1074 -6.13281 C 20.6934 -6.13281 21.1133 -6.46484 21.1133 -7.02148 C 21.1133 -7.59766 20.7227 -7.93945 20.1074 -7.93945 L 15.8691 -7.93945 L 15.8691 -12.1875 C 15.8691 -12.8027 15.5176 -13.1934 14.9512 -13.1934 C 14.3848 -13.1934 14.0625 -12.7832 14.0625 -12.1875 L 14.0625 -7.93945 L 9.83398 -7.93945 C 9.21875 -7.93945 8.80859 -7.59766 8.80859 -7.02148 C 8.80859 -6.46484 9.23828 -6.13281 9.83398 -6.13281 L 14.0625 -6.13281 L 14.0625 -2.06055 C 14.0625 -1.47461 14.3848 -1.06445 14.9512 -1.06445 Z"/>
  </g>
  <text style="stroke:none;fill:black;font-family:-apple-system,&quot;SF Pro Display&quot;,&quot;SF Pro Text&quot;,Helvetica,sans-serif;font-weight:bold;" transform="matrix(1 0 0 1 263 1953)">Design Variations</text>
  <text style="stroke:none;fill:black;font-family:-apple-system,&quot;SF Pro Display&quot;,&quot;SF Pro Text&quot;,Helvetica,sans-serif;" transform="matrix(1 0 0 1 263 1971)">Symbols are supported in up to nine weights and three scales.</text>
  <text style="stroke:none;fill:black;font-family:-apple-system,&quot;SF Pro Display&quot;,&quot;SF Pro Text&quot;,Helvetica,sans-serif;" transform="matrix(1 0 0 1 263 1989)">For optimal layout with text and other symbols, vertically align</text>
  <text style="stroke:none;fill:black;font-family:-apple-system,&quot;SF Pro Display&quot;,&quot;SF Pro Text&quot;,Helvetica,sans-serif;" transform="matrix(1 0 0 1 263 2007)">symbols with the adjacent text.</text>
  <rect height="14" id="" style="fill:#00AEEF;stroke:none;opacity:0.4;" width="3" x="776" y="1919"/>
  <g id="" transform="matrix(1 0 0 1 779 1933)">
   <path d="M 10.5273 0 L 12.373 0 L 7.17773 -14.0918 L 5.43945 -14.0918 L 0.244141 0 L 2.08984 0 L 3.50586 -4.0332 L 9.11133 -4.0332 Z M 6.2793 -11.9531 L 6.33789 -11.9531 L 8.59375 -5.52734 L 4.02344 -5.52734 Z"/>
  </g>
  <rect height="14" id="" style="fill:#00AEEF;stroke:none;opacity:0.4;" width="3" x="791.617" y="1919"/>
  <text style="stroke:none;fill:black;font-family:-apple-system,&quot;SF Pro Display&quot;,&quot;SF Pro Text&quot;,Helvetica,sans-serif;font-weight:bold;" transform="matrix(1 0 0 1 776 1953)">Margins</text>
  <text style="stroke:none;fill:black;font-family:-apple-system,&quot;SF Pro Display&quot;,&quot;SF Pro Text&quot;,Helvetica,sans-serif;" transform="matrix(1 0 0 1 776 1971)">Leading and trailing margins on the left and right side of each symbol</text>
  <text style="stroke:none;fill:black;font-family:-apple-system,&quot;SF Pro Display&quot;,&quot;SF Pro Text&quot;,Helvetica,sans-serif;" transform="matrix(1 0 0 1 776 1989)">can be adjusted by modifying the width of the blue rectangles.</text>
  <text style="stroke:none;fill:black;font-family:-apple-system,&quot;SF Pro Display&quot;,&quot;SF Pro Text&quot;,Helvetica,sans-serif;" transform="matrix(1 0 0 1 776 2007)">Modifications are automatically applied proportionally to all</text>
  <text style="stroke:none;fill:black;font-family:-apple-system,&quot;SF Pro Display&quot;,&quot;SF Pro Text&quot;,Helvetica,sans-serif;" transform="matrix(1 0 0 1 776 2025)">scales and weights.</text>
  <g id="" transform="matrix(1 0 0 1 1289 1933)">
   <path d="M 2.83203 3.11523 L 4.375 4.6582 C 5.22461 5.48828 6.19141 5.41992 7.06055 4.46289 L 17.2754 -6.66016 C 17.7051 -6.36719 18.0957 -6.37695 18.5645 -6.47461 L 19.6094 -6.68945 L 20.3027 -5.99609 L 20.2539 -5.47852 C 20.1855 -4.95117 20.3516 -4.53125 20.8496 -4.0332 L 21.6602 -3.22266 C 22.168 -2.71484 22.8223 -2.68555 23.3008 -3.16406 L 26.5527 -6.41602 C 27.0312 -6.89453 27.0117 -7.54883 26.5039 -8.05664 L 25.6836 -8.87695 C 25.1855 -9.375 24.7754 -9.55078 24.2383 -9.47266 L 23.7109 -9.41406 L 23.0566 -10.0781 L 23.3398 -11.2207 C 23.4863 -11.7871 23.3398 -12.2559 22.7148 -12.8613 L 20.3027 -15.2539 C 16.7578 -18.7793 12.2266 -18.6719 9.11133 -15.5371 C 8.69141 -15.1074 8.64258 -14.5215 8.91602 -14.0918 C 9.15039 -13.7207 9.62891 -13.4961 10.2734 -13.6621 C 11.7871 -14.043 13.3008 -13.9258 14.7852 -12.9199 L 14.1602 -11.3379 C 13.9258 -10.752 13.9453 -10.2734 14.1797 -9.83398 L 3.01758 0.439453 C 2.08008 1.30859 1.97266 2.25586 2.83203 3.11523 Z M 10.6738 -15.1465 C 13.3398 -17.1387 16.6504 -16.8262 19.0527 -14.4141 L 21.6797 -11.8066 C 21.9141 -11.5723 21.9434 -11.3867 21.8848 -11.0938 L 21.5039 -9.53125 L 23.0762 -7.95898 L 24.043 -8.04688 C 24.3262 -8.07617 24.4141 -8.05664 24.6387 -7.83203 L 25.2637 -7.20703 L 22.5098 -4.46289 L 21.8848 -5.07812 C 21.6602 -5.30273 21.6406 -5.40039 21.6699 -5.68359 L 21.7578 -6.64062 L 20.1953 -8.20312 L 18.5742 -7.89062 C 18.291 -7.83203 18.1445 -7.83203 17.9102 -8.07617 L 15.7324 -10.2539 C 15.5078 -10.4883 15.4785 -10.625 15.6055 -10.9473 L 16.5527 -13.2227 C 14.9512 -14.7559 12.8418 -15.6055 10.8008 -14.9512 C 10.7129 -14.9219 10.6445 -14.9414 10.6152 -14.9805 C 10.5859 -15.0293 10.5859 -15.0781 10.6738 -15.1465 Z M 4.10156 2.41211 C 3.61328 1.91406 3.78906 1.61133 4.12109 1.30859 L 15.0781 -8.80859 L 16.3086 -7.57812 L 6.15234 3.34961 C 5.84961 3.68164 5.46875 3.7793 5.06836 3.37891 Z"/>
  </g>
  <text style="stroke:none;fill:black;font-family:-apple-system,&quot;SF Pro Display&quot;,&quot;SF Pro Text&quot;,Helvetica,sans-serif;font-weight:bold;" transform="matrix(1 0 0 1 1289 1953)">Exporting</text>
  <text style="stroke:none;fill:black;font-family:-apple-system,&quot;SF Pro Display&quot;,&quot;SF Pro Text&quot;,Helvetica,sans-serif;" transform="matrix(1 0 0 1 1289 1971)">Symbols should be outlined when exporting to ensure the</text>
  <text style="stroke:none;fill:black;font-family:-apple-system,&quot;SF Pro Display&quot;,&quot;SF Pro Text&quot;,Helvetica,sans-serif;" transform="matrix(1 0 0 1 1289 1989)">design is preserved when submitting to Xcode.</text>
  <text id="template-version" style="stroke:none;fill:black;font-family:-apple-system,&quot;SF Pro Display&quot;,&quot;SF Pro Text&quot;,Helvetica,sans-serif;text-anchor:end;" transform="matrix(1 0 0 1 3036 1933)">Template v.1.0</text>
  <text style="stroke:none;fill:black;font-family:-apple-system,&quot;SF Pro Display&quot;,&quot;SF Pro Text&quot;,Helvetica,sans-serif;text-anchor:end;" transform="matrix(1 0 0 1 3036 1951)">Generated from c.circle.fill</text>
  <text style="stroke:none;fill:black;font-family:-apple-system,&quot;SF Pro Display&quot;,&quot;SF Pro Text&quot;,Helvetica,sans-serif;text-anchor:end;" transform="matrix(1 0 0 1 3036 1969)">Typeset at 100 points</text>
  <text style="stroke:none;fill:black;font-family:-apple-system,&quot;SF Pro Display&quot;,&quot;SF Pro Text&quot;,Helvetica,sans-serif;" transform="matrix(1 0 0 1 263 726)">Small</text>
  <text style="stroke:none;fill:black;font-family:-apple-system,&quot;SF Pro Display&quot;,&quot;SF Pro Text&quot;,Helvetica,sans-serif;" transform="matrix(1 0 0 1 263 1156)">Medium</text>
  <text style="stroke:none;fill:black;font-family:-apple-system,&quot;SF Pro Display&quot;,&quot;SF Pro Text&quot;,Helvetica,sans-serif;" transform="matrix(1 0 0 1 263 1586)">Large</text>
 </g>
 <g id="Guides">
  <g id="H-reference" style="fill:#27AAE1;stroke:none;" transform="matrix(1 0 0 1 339 696)">
   <path d="M 54.9316 0 L 57.666 0 L 30.5664 -70.459 L 28.0762 -70.459 L 0.976562 0 L 3.66211 0 L 12.9395 -24.4629 L 45.7031 -24.4629 Z M 29.1992 -67.0898 L 29.4434 -67.0898 L 44.8242 -26.709 L 13.8184 -26.709 Z"/>
  </g>
  <line id="Baseline-S" style="fill:none;stroke:#27AAE1;opacity:1;stroke-width:0.577;" x1="263" x2="3036" y1="696" y2="696"/>
  <line id="Capline-S" style="fill:none;stroke:#27AAE1;opacity:1;stroke-width:0.577;" x1="263" x2="3036" y1="625.541" y2="625.541"/>
  <g id="H-reference" style="fill:#27AAE1;stroke:none;" transform="matrix(1 0 0 1 339 1126)">
   <path d="M 54.9316 0 L 57.666 0 L 30.5664 -70.459 L 28.0762 -70.459 L 0.976562 0 L 3.66211 0 L 12.9395 -24.4629 L 45.7031 -24.4629 Z M 29.1992 -67.0898 L 29.4434 -67.0898 L 44.8242 -26.709 L 13.8184 -26.709 Z"/>
  </g>
  <line id="Baseline-M" style="fill:none;stroke:#27AAE1;opacity:1;stroke-width:0.577;" x1="263" x2="3036" y1="1126" y2="1126"/>
  <line id="Capline-M" style="fill:none;stroke:#27AAE1;opacity:1;stroke-width:0.577;" x1="263" x2="3036" y1="1055.54" y2="1055.54"/>
  <g id="H-reference" style="fill:#27AAE1;stroke:none;" transform="matrix(1 0 0 1 339 1556)">
   <path d="M 54.9316 0 L 57.666 0 L 30.5664 -70.459 L 28.0762 -70.459 L 0.976562 0 L 3.66211 0 L 12.9395 -24.4629 L 45.7031 -24.4629 Z M 29.1992 -67.0898 L 29.4434 -67.0898 L 44.8242 -26.709 L 13.8184 -26.709 Z"/>
  </g>
  <line id="Baseline-L" style="fill:none;stroke:#27AAE1;opacity:1;stroke-width:0.577;" x1="263" x2="3036" y1="1556" y2="1556"/>
  <line id="Capline-L" style="fill:none;stroke:#27AAE1;opacity:1;stroke-width:0.577;" x1="263" x2="3036" y1="1485.54" y2="1485.54"/>
  <rect height="119.336" id="left-margin" style="fill:#00AEEF;stroke:none;opacity:0.4;" width="8.74023" x="1391.3" y="1030.79"/>
  <rect height="119.336" id="right-margin" style="fill:#00AEEF;stroke:none;opacity:0.4;" width="8.74023" x="1499.65" y="1030.79"/>
 </g>
 <g id="Symbols">
  <g id="Black-L" transform="matrix(1 0 0 1 2854.05 1556)">
   <path d="M 79.3457 32.8613 C 116.748 32.8613 147.412 2.19727 147.412 -35.2051 C 147.412 -72.6074 116.748 -103.271 79.2969 -103.271 C 41.8945 -103.271 11.2793 -72.6074 11.2793 -35.2051 C 11.2793 2.19727 41.9434 32.8613 79.3457 32.8613 Z M 80.6152 -4.15039 C 62.4023 -4.15039 50.4395 -16.4551 50.4395 -35.3516 C 50.4395 -54.248 62.4023 -66.6016 80.6152 -66.6016 C 92.627 -66.6016 102.588 -61.1328 106.25 -52.5879 C 106.934 -51.0742 107.275 -49.4629 107.275 -47.8027 C 107.275 -42.9199 103.906 -40.0391 98.291 -40.0391 C 94.2383 -40.0391 91.9922 -41.3086 89.8438 -45.0684 C 87.9395 -48.5352 84.9609 -50.293 80.957 -50.293 C 74.4141 -50.293 70.5078 -44.6777 70.5078 -35.3516 C 70.5078 -26.0254 74.4141 -20.4102 80.8594 -20.4102 C 84.9609 -20.4102 87.9395 -22.1191 89.7949 -25.4883 C 91.7969 -29.0527 94.3848 -30.5176 98.291 -30.5176 C 103.906 -30.5176 107.275 -27.5879 107.275 -22.7539 C 107.275 -21.0449 106.934 -19.4824 106.25 -17.9688 C 102.588 -9.42383 92.7246 -4.15039 80.6152 -4.15039 Z"/>
  </g>
  <g id="Heavy-L" transform="matrix(1 0 0 1 2558.39 1556)">
   <path d="M 78.2715 31.7871 C 115.088 31.7871 145.312 1.61133 145.312 -35.2051 C 145.312 -72.0215 115.039 -102.197 78.2715 -102.197 C 41.4551 -102.197 11.2793 -72.0215 11.2793 -35.2051 C 11.2793 1.61133 41.5039 31.7871 78.2715 31.7871 Z M 79.2969 -4.19922 C 61.4258 -4.19922 49.7559 -16.5039 49.7559 -35.4492 C 49.7559 -54.3457 61.4746 -66.6992 79.2969 -66.6992 C 91.2109 -66.6992 101.025 -61.1328 104.541 -52.4902 C 105.127 -51.0742 105.42 -49.6582 105.42 -48.1934 C 105.42 -43.8965 102.49 -41.3574 97.6074 -41.3574 C 94.0918 -41.3574 92.0898 -42.5293 90.2832 -45.8496 C 88.2812 -50.1465 84.5703 -52.4414 79.5898 -52.4414 C 72.0215 -52.4414 67.2363 -45.8984 67.2363 -35.4492 C 67.2363 -24.9512 72.0215 -18.457 79.541 -18.457 C 84.5703 -18.457 88.2324 -20.7031 90.2344 -24.9023 C 91.9922 -28.125 94.2383 -29.4434 97.6074 -29.4434 C 102.49 -29.4434 105.42 -26.8555 105.42 -22.5586 C 105.42 -21.0938 105.127 -19.6777 104.541 -18.2617 C 101.025 -9.61914 91.3086 -4.19922 79.2969 -4.19922 Z"/>
  </g>
  <g id="Bold-L" transform="matrix(1 0 0 1 2262.88 1556)">
   <path d="M 77.0996 30.6152 C 113.232 30.6152 142.92 0.878906 142.92 -35.2051 C 142.92 -71.3379 113.184 -101.025 77.0508 -101.025 C 40.9668 -101.025 11.2793 -71.3379 11.2793 -35.2051 C 11.2793 0.878906 41.0156 30.6152 77.0996 30.6152 Z M 77.832 -4.24805 C 60.3516 -4.24805 49.0234 -16.5527 49.0234 -35.498 C 49.0234 -54.4922 60.4004 -66.7969 77.832 -66.7969 C 89.5996 -66.7969 99.3164 -61.1328 102.588 -52.3926 C 103.076 -51.0254 103.32 -49.9023 103.32 -48.6328 C 103.32 -44.9707 100.879 -42.7734 96.875 -42.7734 C 93.9453 -42.7734 92.2363 -43.7988 90.7227 -46.7285 C 88.623 -51.9531 84.082 -54.8828 78.0762 -54.8828 C 69.2871 -54.8828 63.5742 -47.2656 63.5742 -35.498 C 63.5742 -23.7793 69.2871 -16.2109 78.0273 -16.2109 C 84.082 -16.2109 88.5742 -19.0918 90.6738 -24.2676 C 92.1387 -27.0508 94.043 -28.2227 96.875 -28.2227 C 100.879 -28.2227 103.32 -26.0254 103.32 -22.3633 C 103.32 -21.0938 103.076 -19.9219 102.588 -18.6035 C 99.3164 -9.81445 89.6973 -4.24805 77.832 -4.24805 Z"/>
  </g>
  <g id="Semibold-L" transform="matrix(1 0 0 1 1966.97 1556)">
   <path d="M 76.2695 29.7852 C 111.914 29.7852 141.309 0.439453 141.309 -35.2051 C 141.309 -70.8496 111.865 -100.244 76.2695 -100.244 C 40.625 -100.244 11.2793 -70.8496 11.2793 -35.2051 C 11.2793 0.439453 40.6738 29.7852 76.2695 29.7852 Z M 76.8555 -4.29688 C 59.6191 -4.29688 48.4863 -16.6016 48.4863 -35.5957 C 48.4863 -54.541 59.668 -66.8945 76.8555 -66.8945 C 88.5254 -66.8945 98.0957 -61.1328 101.221 -52.2949 C 101.709 -51.0254 101.855 -50.0488 101.855 -48.9258 C 101.855 -45.7031 99.8047 -43.75 96.3379 -43.75 C 93.8477 -43.75 92.334 -44.7266 91.0645 -47.3145 C 88.8672 -53.1738 83.7891 -56.543 77.002 -56.543 C 67.4316 -56.543 61.084 -48.1934 61.084 -35.5957 C 61.084 -22.998 67.4316 -14.6484 77.002 -14.6484 C 83.7891 -14.6484 88.8184 -18.0176 91.0156 -23.8281 C 92.2852 -26.3672 93.8965 -27.3926 96.3379 -27.3926 C 99.8047 -27.3926 101.855 -25.4395 101.855 -22.2168 C 101.855 -21.1426 101.709 -20.1172 101.221 -18.8477 C 98.1445 -10.0098 88.623 -4.29688 76.8555 -4.29688 Z"/>
  </g>
  <g id="Medium-L" transform="matrix(1 0 0 1 1670.87 1556)">
   <path d="M 75.6836 29.1992 C 110.938 29.1992 140.088 0.0488281 140.088 -35.2051 C 140.088 -70.459 110.889 -99.6094 75.6348 -99.6094 C 40.3809 -99.6094 11.2793 -70.459 11.2793 -35.2051 C 11.2793 0.0488281 40.3809 29.1992 75.6836 29.1992 Z M 76.0742 -4.3457 C 59.082 -4.3457 48.0957 -16.6504 48.0957 -35.6445 C 48.0957 -54.5898 59.1309 -66.9434 76.0742 -66.9434 C 87.6953 -66.9434 97.2168 -61.084 100.244 -52.2461 C 100.635 -51.0254 100.781 -50.1465 100.781 -49.1211 C 100.781 -46.2891 98.9746 -44.4824 95.9473 -44.4824 C 93.7988 -44.4824 92.3828 -45.4102 91.2598 -47.8027 C 89.0137 -54.1016 83.5449 -57.8125 76.2207 -57.8125 C 66.0156 -57.8125 59.1797 -48.877 59.1797 -35.6445 C 59.1797 -22.3633 66.0156 -13.4766 76.2207 -13.4766 C 83.5449 -13.4766 89.0137 -17.1875 91.2598 -23.4863 C 92.3828 -25.8301 93.7988 -26.7578 95.9473 -26.7578 C 98.9746 -26.7578 100.781 -25 100.781 -22.1191 C 100.781 -21.1426 100.635 -20.2148 100.244 -18.9941 C 97.2168 -10.1074 87.793 -4.3457 76.0742 -4.3457 Z"/>
  </g>
  <g id="Regular-L" transform="matrix(1 0 0 1 1374.97 1556)">
   <path d="M 74.8535 28.3691 C 109.668 28.3691 138.477 -0.390625 138.477 -35.2051 C 138.477 -70.0195 109.619 -98.7793 74.8047 -98.7793 C 40.0391 -98.7793 11.2793 -70.0195 11.2793 -35.2051 C 11.2793 -0.390625 40.0879 28.3691 74.8535 28.3691 Z M 75.0977 -4.39453 C 58.3496 -4.39453 47.5586 -16.6992 47.5586 -35.6934 C 47.5586 -54.6875 58.3984 -66.9922 75.0977 -66.9922 C 86.6211 -66.9922 96.0449 -61.084 98.877 -52.1973 C 99.2676 -51.0254 99.3652 -50.293 99.3652 -49.4629 C 99.3652 -47.0215 97.9004 -45.459 95.459 -45.459 C 93.7012 -45.459 92.4805 -46.2891 91.6016 -48.3887 C 89.2578 -55.3223 83.252 -59.4238 75.1953 -59.4238 C 64.1602 -59.4238 56.6895 -49.8047 56.6895 -35.6934 C 56.6895 -21.582 64.1602 -11.9629 75.1953 -11.9629 C 83.252 -11.9629 89.2578 -16.1133 91.6016 -23.0469 C 92.4805 -25.0977 93.7012 -25.9277 95.459 -25.9277 C 97.9004 -25.9277 99.3652 -24.4629 99.3652 -21.9727 C 99.3652 -21.1426 99.2676 -20.4102 98.877 -19.2383 C 96.0449 -10.2539 86.6699 -4.39453 75.0977 -4.39453 Z"/>
  </g>
  <g id="Light-L" transform="matrix(1 0 0 1 1079.18 1556)">
   <path d="M 73.9258 27.4902 C 108.301 27.4902 136.621 -0.830078 136.621 -35.1562 C 136.621 -69.5312 108.252 -97.8516 73.9258 -97.8516 C 39.5508 -97.8516 11.2793 -69.5312 11.2793 -35.1562 C 11.2793 -0.830078 39.5996 27.4902 73.9258 27.4902 Z M 74.3652 -4.6875 C 58.252 -4.6875 47.6074 -16.9922 47.6074 -35.498 C 47.6074 -54.0527 58.252 -66.3086 74.3652 -66.3086 C 85.5957 -66.3086 95.166 -60.0098 97.5098 -51.0742 C 97.8027 -49.9023 97.8516 -49.3652 97.8516 -48.6816 C 97.8516 -46.6797 96.7773 -45.459 94.7754 -45.459 C 93.3105 -45.459 92.334 -46.1914 91.748 -47.9492 C 89.8926 -55.5176 83.252 -60.3027 74.4141 -60.3027 C 62.6953 -60.3027 54.6387 -50.1953 54.6387 -35.498 C 54.6387 -20.8008 62.6953 -10.6934 74.4141 -10.6934 C 83.252 -10.6934 89.8438 -15.5273 91.748 -23.0469 C 92.334 -24.8535 93.3105 -25.5371 94.7754 -25.5371 C 96.7773 -25.5371 97.8516 -24.3652 97.8516 -22.3633 C 97.8516 -21.7285 97.8027 -21.0938 97.5098 -19.9707 C 95.2148 -10.9375 85.7422 -4.6875 74.3652 -4.6875 Z"/>
  </g>
  <g id="Thin-L" transform="matrix(1 0 0 1 783.693 1556)">
   <path d="M 72.7051 26.3184 C 106.494 26.3184 134.18 -1.36719 134.18 -35.1074 C 134.18 -68.8965 106.494 -96.582 72.7051 -96.582 C 38.9648 -96.582 11.2793 -68.8965 11.2793 -35.1074 C 11.2793 -1.36719 38.9648 26.3184 72.7051 26.3184 Z M 73.3887 -5.07812 C 58.1055 -5.07812 47.7051 -17.3828 47.7051 -35.2539 C 47.7051 -53.1738 58.1055 -65.4297 73.3887 -65.4297 C 84.3262 -65.4297 93.9941 -58.5938 95.7031 -49.5605 C 95.8984 -48.4375 95.8984 -48.0957 95.8984 -47.6562 C 95.8984 -46.2891 95.3125 -45.459 93.9453 -45.459 C 92.8711 -45.459 92.1387 -45.9961 91.8945 -47.4121 C 90.6738 -55.7617 83.252 -61.4746 73.3887 -61.4746 C 60.791 -61.4746 51.9531 -50.6836 51.9531 -35.2539 C 51.9531 -19.8242 60.791 -9.0332 73.3887 -9.0332 C 83.252 -9.0332 90.625 -14.7461 91.8945 -23.0957 C 92.1387 -24.5117 92.8711 -25.0488 93.9453 -25.0488 C 95.3125 -25.0488 95.8984 -24.2676 95.8984 -22.8516 C 95.8984 -22.4609 95.8984 -22.0703 95.7031 -20.9473 C 94.0918 -11.8164 84.5215 -5.07812 73.3887 -5.07812 Z"/>
  </g>
  <g id="Ultralight-L" transform="matrix(1 0 0 1 487.616 1556)">
   <path d="M 72.1191 25.7324 C 105.566 25.7324 132.91 -1.61133 132.91 -35.1074 C 132.91 -68.5547 105.566 -95.8984 72.1191 -95.8984 C 38.623 -95.8984 11.2793 -68.5547 11.2793 -35.1074 C 11.2793 -1.61133 38.623 25.7324 72.1191 25.7324 Z M 72.9004 -5.27344 C 58.0566 -5.27344 47.7051 -17.5781 47.7051 -35.1074 C 47.7051 -52.7344 58.0566 -64.9414 72.9004 -64.9414 C 83.6426 -64.9414 93.4082 -57.8125 94.7754 -48.8281 C 94.9219 -47.7051 94.9219 -47.4121 94.9219 -47.168 C 94.9219 -46.0938 94.5312 -45.459 93.5059 -45.459 C 92.627 -45.459 92.041 -45.9473 91.9922 -47.1191 C 91.1133 -55.9082 83.252 -62.1094 72.8516 -62.1094 C 59.7656 -62.1094 50.5859 -50.9277 50.5859 -35.1074 C 50.5859 -19.3359 59.7656 -8.1543 72.8516 -8.1543 C 83.252 -8.1543 91.0156 -14.3066 91.9922 -23.1445 C 92.041 -24.3164 92.627 -24.7559 93.5059 -24.7559 C 94.5312 -24.7559 94.9219 -24.2188 94.9219 -23.0957 C 94.9219 -22.8027 94.9219 -22.5586 94.7754 -21.4355 C 93.5059 -12.2559 83.9355 -5.27344 72.9004 -5.27344 Z"/>
  </g>
  <g id="Black-M" transform="matrix(1 0 0 1 2870.97 1126)">
   <path d="M 62.4023 18.457 C 91.9922 18.457 116.113 -5.61523 116.113 -35.2051 C 116.113 -64.7949 91.9922 -88.8672 62.4023 -88.8672 C 32.8125 -88.8672 8.74023 -64.7949 8.74023 -35.2051 C 8.74023 -5.61523 32.8125 18.457 62.4023 18.457 Z M 63.8184 -11.2305 C 49.6094 -11.2305 40.0391 -20.752 40.0391 -35.1074 C 40.0391 -49.5117 49.6094 -59.0332 63.8184 -59.0332 C 73.1934 -59.0332 81.1035 -54.7363 83.9844 -48.1934 C 84.5215 -46.9238 84.8633 -45.459 84.8633 -44.043 C 84.8633 -39.7461 81.8359 -37.2559 76.709 -37.2559 C 72.998 -37.2559 71.0449 -38.2812 69.1406 -41.5527 C 68.0664 -43.5059 66.3574 -44.4824 64.1602 -44.4824 C 60.1562 -44.4824 57.959 -41.1133 57.959 -35.1074 C 57.959 -29.1016 60.1562 -25.7812 64.0625 -25.7812 C 66.3574 -25.7812 68.0664 -26.6602 69.0918 -28.4668 C 70.8496 -31.543 73.1934 -32.8125 76.709 -32.8125 C 81.8359 -32.8125 84.8633 -30.2734 84.8633 -26.0254 C 84.8633 -24.5117 84.5215 -23.0957 83.9844 -21.875 C 81.1035 -15.332 73.291 -11.2305 63.8184 -11.2305 Z"/>
  </g>
  <g id="Heavy-M" transform="matrix(1 0 0 1 2575.19 1126)">
   <path d="M 61.5234 17.5781 C 90.5273 17.5781 114.258 -6.15234 114.258 -35.2051 C 114.258 -64.2578 90.5273 -87.9883 61.4746 -87.9883 C 32.4707 -87.9883 8.74023 -64.2578 8.74023 -35.2051 C 8.74023 -6.15234 32.4707 17.5781 61.5234 17.5781 Z M 62.5977 -11.1816 C 48.584 -11.1816 39.3066 -20.752 39.3066 -35.2539 C 39.3066 -49.7559 48.584 -59.3262 62.5977 -59.3262 C 71.875 -59.3262 79.6387 -54.9805 82.4219 -48.3887 C 82.9102 -47.2168 83.2031 -45.9473 83.2031 -44.6777 C 83.2031 -40.8691 80.5664 -38.623 76.1719 -38.623 C 72.9492 -38.623 71.1914 -39.5996 69.5801 -42.5293 C 68.2617 -45.2148 65.918 -46.582 62.8418 -46.582 C 57.9102 -46.582 54.8828 -42.334 54.8828 -35.2539 C 54.8828 -28.1738 57.9102 -23.9258 62.793 -23.9258 C 65.918 -23.9258 68.2617 -25.2441 69.5312 -27.832 C 71.0449 -30.6152 73.0957 -31.7383 76.1719 -31.7383 C 80.5664 -31.7383 83.2031 -29.4922 83.2031 -25.7324 C 83.2031 -24.3652 82.9102 -23.1445 82.4219 -21.9727 C 79.6387 -15.3809 71.9727 -11.1816 62.5977 -11.1816 Z"/>
  </g>
  <g id="Bold-M" transform="matrix(1 0 0 1 2279.5 1126)">
   <path d="M 60.498 16.5039 C 88.8672 16.5039 112.207 -6.78711 112.207 -35.2051 C 112.207 -63.623 88.8672 -86.9629 60.4492 -86.9629 C 32.0312 -86.9629 8.74023 -63.623 8.74023 -35.2051 C 8.74023 -6.78711 32.0801 16.5039 60.498 16.5039 Z M 61.2305 -11.1816 C 47.4121 -11.1816 38.4277 -20.7031 38.4277 -35.4004 C 38.4277 -50.0977 47.4609 -59.6191 61.2305 -59.6191 C 70.4102 -59.6191 78.0273 -55.3223 80.7129 -48.584 C 81.1523 -47.5098 81.3477 -46.4844 81.3477 -45.3613 C 81.3477 -42.1387 79.1504 -40.1855 75.5371 -40.1855 C 72.9004 -40.1855 71.3867 -41.1133 70.0195 -43.6035 C 68.457 -47.0703 65.4297 -48.9746 61.4258 -48.9746 C 55.3711 -48.9746 51.5137 -43.7012 51.5137 -35.4004 C 51.5137 -27.0996 55.3711 -21.875 61.377 -21.875 C 65.4297 -21.875 68.457 -23.6816 70.0195 -27.0996 C 71.2891 -29.541 72.998 -30.5176 75.5371 -30.5176 C 79.1504 -30.5176 81.3477 -28.6133 81.3477 -25.3906 C 81.3477 -24.2676 81.1523 -23.2422 80.7129 -22.1191 C 78.0273 -15.4297 70.5078 -11.1816 61.2305 -11.1816 Z"/>
  </g>
  <g id="Semibold-M" transform="matrix(1 0 0 1 1983.5 1126)">
   <path d="M 59.7656 15.8203 C 87.7441 15.8203 110.791 -7.22656 110.791 -35.2051 C 110.791 -63.1836 87.6953 -86.2793 59.7656 -86.2793 C 31.7871 -86.2793 8.74023 -63.1836 8.74023 -35.2051 C 8.74023 -7.22656 31.7871 15.8203 59.7656 15.8203 Z M 60.2539 -11.1816 C 46.6309 -11.1816 37.8418 -20.7031 37.8418 -35.498 C 37.8418 -50.293 46.6797 -59.8633 60.2539 -59.8633 C 69.4336 -59.8633 76.9043 -55.5176 79.4922 -48.7305 C 79.8828 -47.7051 80.0781 -46.8262 80.0781 -45.8496 C 80.0781 -43.0176 78.1738 -41.3086 75.0977 -41.3086 C 72.8516 -41.3086 71.5332 -42.1387 70.3613 -44.3848 C 68.6035 -48.3887 65.0879 -50.6348 60.4492 -50.6348 C 53.6133 -50.6348 49.1699 -44.6777 49.1699 -35.498 C 49.1699 -26.3672 53.6133 -20.4102 60.4004 -20.4102 C 65.0879 -20.4102 68.5547 -22.6074 70.3125 -26.6113 C 71.4844 -28.8086 72.9004 -29.6875 75.0977 -29.6875 C 78.1738 -29.6875 80.0781 -27.9785 80.0781 -25.1465 C 80.0781 -24.1699 79.8828 -23.2422 79.4922 -22.2168 C 76.9043 -15.4297 69.4824 -11.1816 60.2539 -11.1816 Z"/>
  </g>
  <g id="Medium-M" transform="matrix(1 0 0 1 1687.3 1126)">
   <path d="M 59.2285 15.2832 C 86.9141 15.2832 109.766 -7.56836 109.766 -35.2051 C 109.766 -62.8906 86.8652 -85.7422 59.1797 -85.7422 C 31.543 -85.7422 8.74023 -62.8906 8.74023 -35.2051 C 8.74023 -7.56836 31.5918 15.2832 59.2285 15.2832 Z M 59.5703 -11.1816 C 46.0449 -11.1816 37.4023 -20.7031 37.4023 -35.5957 C 37.4023 -50.4883 46.0938 -60.0098 59.5703 -60.0098 C 68.6523 -60.0098 76.0254 -55.7129 78.6133 -48.877 C 78.9551 -47.9004 79.1016 -47.1191 79.1016 -46.1914 C 79.1016 -43.6523 77.4414 -42.0898 74.7559 -42.0898 C 72.8516 -42.0898 71.6309 -42.8711 70.6055 -44.9219 C 68.7012 -49.3652 64.8438 -51.8555 59.7168 -51.8555 C 52.2949 -51.8555 47.4121 -45.3613 47.4121 -35.5957 C 47.4121 -25.7812 52.2949 -19.3359 59.668 -19.3359 C 64.8438 -19.3359 68.7012 -21.8262 70.6055 -26.2207 C 71.582 -28.2715 72.8516 -29.0527 74.7559 -29.0527 C 77.4414 -29.0527 79.1016 -27.5391 79.1016 -25 C 79.1016 -24.1211 78.9551 -23.291 78.6133 -22.3145 C 76.0254 -15.4785 68.7012 -11.1816 59.5703 -11.1816 Z"/>
  </g>
  <g id="Regular-M" transform="matrix(1 0 0 1 1391.3 1126)">
   <path d="M 58.5449 14.5508 C 85.791 14.5508 108.35 -8.00781 108.35 -35.2539 C 108.35 -62.4512 85.7422 -85.0586 58.4961 -85.0586 C 31.2988 -85.0586 8.74023 -62.4512 8.74023 -35.2539 C 8.74023 -8.00781 31.3477 14.5508 58.5449 14.5508 Z M 58.6426 -11.1816 C 45.2637 -11.1816 36.8164 -20.7031 36.8164 -35.6934 C 36.8164 -50.6836 45.3125 -60.2539 58.6426 -60.2539 C 67.6758 -60.2539 74.9023 -55.9082 77.4414 -49.0234 C 77.7344 -48.0957 77.832 -47.4609 77.832 -46.6797 C 77.832 -44.5312 76.4648 -43.1641 74.3164 -43.1641 C 72.8027 -43.1641 71.7773 -43.8965 70.8984 -45.6543 C 68.8477 -50.6836 64.502 -53.4668 58.7402 -53.4668 C 50.5371 -53.4668 45.0684 -46.2891 45.0684 -35.6934 C 45.0684 -25.0488 50.5371 -17.9199 58.7402 -17.9199 C 64.502 -17.9199 68.7988 -20.752 70.8984 -25.7324 C 71.7773 -27.5391 72.8027 -28.2227 74.3164 -28.2227 C 76.4648 -28.2227 77.832 -26.9043 77.832 -24.7559 C 77.832 -24.0234 77.7344 -23.3398 77.4414 -22.4121 C 74.9512 -15.4785 67.7246 -11.1816 58.6426 -11.1816 Z"/>
  </g>
  <g id="Light-M" transform="matrix(1 0 0 1 1095.42 1126)">
   <path d="M 57.7148 13.7695 C 84.5215 13.7695 106.689 -8.39844 106.689 -35.2051 C 106.689 -62.0117 84.5215 -84.1797 57.666 -84.1797 C 30.8594 -84.1797 8.74023 -62.0117 8.74023 -35.2051 C 8.74023 -8.39844 30.9082 13.7695 57.7148 13.7695 Z M 57.959 -11.4258 C 45.166 -11.4258 36.8652 -20.9473 36.8652 -35.498 C 36.8652 -50.0977 45.2148 -59.6191 57.959 -59.6191 C 66.7969 -59.6191 74.1211 -54.9316 76.1719 -47.998 C 76.4648 -47.1191 76.5137 -46.582 76.5137 -45.9961 C 76.5137 -44.2383 75.4883 -43.1641 73.7305 -43.1641 C 72.5098 -43.1641 71.6309 -43.7988 71.0449 -45.3125 C 69.3848 -50.8789 64.502 -54.2969 58.0078 -54.2969 C 49.2188 -54.2969 43.2617 -46.6309 43.2617 -35.498 C 43.2617 -24.4141 49.2188 -16.7969 58.0078 -16.7969 C 64.502 -16.7969 69.3359 -20.2148 71.0449 -25.7812 C 71.6309 -27.2949 72.5098 -27.8809 73.7305 -27.8809 C 75.4883 -27.8809 76.5137 -26.8555 76.5137 -25.0977 C 76.5137 -24.5117 76.4648 -23.9746 76.1719 -23.0469 C 74.1699 -16.0645 66.8945 -11.4258 57.959 -11.4258 Z"/>
  </g>
  <g id="Thin-M" transform="matrix(1 0 0 1 799.806 1126)">
   <path d="M 56.6406 12.7441 C 82.9102 12.7441 104.492 -8.83789 104.492 -35.1562 C 104.492 -61.4746 82.9102 -83.0566 56.5918 -83.0566 C 30.3223 -83.0566 8.74023 -61.4746 8.74023 -35.1562 C 8.74023 -8.83789 30.3223 12.7441 56.6406 12.7441 Z M 57.0801 -11.7676 C 45.0684 -11.7676 36.9629 -21.3379 36.9629 -35.3027 C 36.9629 -49.3164 45.0684 -58.8379 57.0801 -58.8379 C 65.625 -58.8379 73.0957 -53.6133 74.5605 -46.6797 C 74.7559 -45.8008 74.7559 -45.459 74.7559 -45.1172 C 74.7559 -43.8965 74.1699 -43.1641 72.998 -43.1641 C 72.0703 -43.1641 71.4355 -43.6035 71.1914 -44.7754 C 70.1172 -51.123 64.502 -55.3223 57.0801 -55.3223 C 47.5098 -55.3223 40.8691 -47.0703 40.8691 -35.3027 C 40.8691 -23.5352 47.5098 -15.2832 57.0801 -15.2832 C 64.502 -15.2832 70.0684 -19.5312 71.1914 -25.8301 C 71.4355 -27.002 72.0703 -27.4414 72.998 -27.4414 C 74.1699 -27.4414 74.7559 -26.7578 74.7559 -25.5371 C 74.7559 -25.1465 74.7559 -24.8047 74.5605 -23.9258 C 73.1445 -16.8945 65.7715 -11.7676 57.0801 -11.7676 Z"/>
  </g>
  <g id="Ultralight-M" transform="matrix(1 0 0 1 503.656 1126)">
   <path d="M 56.0547 12.207 C 82.0801 12.207 103.369 -9.08203 103.369 -35.1562 C 103.369 -61.1816 82.0801 -82.4707 56.0547 -82.4707 C 30.0293 -82.4707 8.74023 -61.1816 8.74023 -35.1562 C 8.74023 -9.08203 30.0293 12.207 56.0547 12.207 Z M 56.6406 -11.9629 C 45.0195 -11.9629 36.9629 -21.4844 36.9629 -35.2051 C 36.9629 -48.9258 45.0195 -58.3984 56.6406 -58.3984 C 65.0391 -58.3984 72.5586 -52.9785 73.7305 -45.9961 C 73.877 -45.1172 73.877 -44.873 73.877 -44.6289 C 73.877 -43.7012 73.4863 -43.1641 72.6074 -43.1641 C 71.875 -43.1641 71.3867 -43.5547 71.2402 -44.5312 C 70.459 -51.2207 64.502 -55.8594 56.6406 -55.8594 C 46.6309 -55.8594 39.5996 -47.3145 39.5996 -35.2051 C 39.5996 -23.0469 46.6309 -14.502 56.6406 -14.502 C 64.502 -14.502 70.4102 -19.1406 71.2402 -25.8301 C 71.3867 -26.8555 71.875 -27.1973 72.6074 -27.1973 C 73.4863 -27.1973 73.877 -26.709 73.877 -25.7324 C 73.877 -25.4883 73.877 -25.2441 73.7305 -24.4141 C 72.6562 -17.2852 65.2344 -11.9629 56.6406 -11.9629 Z"/>
  </g>
  <g id="Black-S" transform="matrix(1 0 0 1 2884.57 696)">
   <path d="M 48.8281 6.78711 C 71.9727 6.78711 90.8203 -12.0605 90.8203 -35.2051 C 90.8203 -58.3496 71.9727 -77.1973 48.8281 -77.1973 C 25.6836 -77.1973 6.83594 -58.3496 6.83594 -35.2051 C 6.83594 -12.0605 25.6836 6.78711 48.8281 6.78711 Z M 49.9023 -16.4062 C 38.7695 -16.4062 31.2988 -23.877 31.2988 -35.1562 C 31.2988 -46.4355 38.7695 -53.9062 49.9023 -53.9062 C 57.2266 -53.9062 63.4277 -50.5371 65.6738 -45.4102 C 66.1133 -44.4336 66.3574 -43.3105 66.3574 -42.1875 C 66.3574 -38.8672 64.0137 -36.9141 60.0586 -36.9141 C 57.1777 -36.9141 55.6641 -37.7441 54.1992 -40.2832 C 53.3203 -41.8457 51.9531 -42.627 50.1465 -42.627 C 46.9727 -42.627 45.166 -39.9414 45.166 -35.1562 C 45.166 -30.3711 46.9727 -27.6855 50.0977 -27.6855 C 51.9531 -27.6855 53.3203 -28.418 54.1504 -29.8828 C 55.5176 -32.2754 57.3242 -33.252 60.0586 -33.252 C 64.0137 -33.252 66.3574 -31.2988 66.3574 -27.9785 C 66.3574 -26.8066 66.1133 -25.7324 65.6738 -24.7559 C 63.4277 -19.6289 57.3242 -16.4062 49.9023 -16.4062 Z"/>
  </g>
  <g id="Heavy-S" transform="matrix(1 0 0 1 2588.47 696)">
   <path d="M 48.2422 6.15234 C 70.9961 6.15234 89.5996 -12.4512 89.5996 -35.2051 C 89.5996 -57.959 70.9961 -76.6113 48.1934 -76.6113 C 25.4395 -76.6113 6.83594 -57.959 6.83594 -35.2051 C 6.83594 -12.4512 25.4395 6.15234 48.2422 6.15234 Z M 49.0234 -16.3574 C 37.9883 -16.3574 30.7129 -23.8281 30.7129 -35.2539 C 30.7129 -46.7285 37.9883 -54.1992 49.0234 -54.1992 C 56.3477 -54.1992 62.4023 -50.8789 64.6484 -45.6543 C 65.0391 -44.7754 65.2344 -43.75 65.2344 -42.7246 C 65.2344 -39.7461 63.1348 -37.9883 59.668 -37.9883 C 57.1777 -37.9883 55.8105 -38.7695 54.4922 -41.0645 C 53.418 -43.1152 51.6113 -44.1895 49.2676 -44.1895 C 45.3613 -44.1895 43.0664 -40.8203 43.0664 -35.2539 C 43.0664 -29.7363 45.3613 -26.416 49.2188 -26.416 C 51.6113 -26.416 53.418 -27.3926 54.4434 -29.3945 C 55.7129 -31.5918 57.2754 -32.4707 59.668 -32.4707 C 63.1348 -32.4707 65.2344 -30.7129 65.2344 -27.7344 C 65.2344 -26.6602 65.0391 -25.6836 64.6484 -24.7559 C 62.4023 -19.5801 56.3965 -16.3574 49.0234 -16.3574 Z"/>
  </g>
  <g id="Bold-S" transform="matrix(1 0 0 1 2292.44 696)">
   <path d="M 47.5586 5.46875 C 69.873 5.46875 88.2324 -12.8906 88.2324 -35.2051 C 88.2324 -57.5684 69.873 -75.9277 47.5098 -75.9277 C 25.1953 -75.9277 6.83594 -57.5684 6.83594 -35.2051 C 6.83594 -12.8906 25.1953 5.46875 47.5586 5.46875 Z M 48.0469 -16.3086 C 37.1094 -16.3086 30.0781 -23.7793 30.0781 -35.4004 C 30.0781 -47.0215 37.1582 -54.541 48.0469 -54.541 C 55.3223 -54.541 61.2305 -51.2207 63.4766 -45.9473 C 63.8184 -45.1172 63.9648 -44.2871 63.9648 -43.3594 C 63.9648 -40.7715 62.207 -39.209 59.2773 -39.209 C 57.1777 -39.209 55.957 -39.8926 54.834 -41.9434 C 53.4668 -44.5312 51.2695 -45.8984 48.2422 -45.8984 C 43.6035 -45.8984 40.6738 -41.8457 40.6738 -35.4004 C 40.6738 -28.9551 43.6035 -24.9512 48.1934 -24.9512 C 51.2695 -24.9512 53.4668 -26.2695 54.834 -28.8574 C 55.9082 -30.8105 57.2754 -31.5918 59.2773 -31.5918 C 62.207 -31.5918 63.9648 -30.0293 63.9648 -27.4414 C 63.9648 -26.5137 63.8184 -25.6836 63.4766 -24.8047 C 61.2305 -19.5312 55.3711 -16.3086 48.0469 -16.3086 Z"/>
  </g>
  <g id="Semibold-S" transform="matrix(1 0 0 1 1996.2 696)">
   <path d="M 47.0703 4.98047 C 69.0918 4.98047 87.3047 -13.1836 87.3047 -35.2539 C 87.3047 -57.2754 69.0918 -75.4883 47.0215 -75.4883 C 25 -75.4883 6.83594 -57.2754 6.83594 -35.2539 C 6.83594 -13.1836 25.0488 4.98047 47.0703 4.98047 Z M 47.4121 -16.3086 C 36.5234 -16.3086 29.5898 -23.7793 29.5898 -35.498 C 29.5898 -47.2168 36.5723 -54.7363 47.4121 -54.7363 C 54.6387 -54.7363 60.4492 -51.4648 62.6465 -46.1914 C 62.9883 -45.3613 63.1348 -44.6289 63.1348 -43.7988 C 63.1348 -41.4551 61.5234 -39.9902 58.9844 -39.9902 C 57.1777 -39.9902 56.1035 -40.6738 55.0781 -42.5293 C 53.5645 -45.5078 50.9766 -47.0703 47.5586 -47.0703 C 42.3828 -47.0703 39.0625 -42.5293 39.0625 -35.498 C 39.0625 -28.4668 42.3828 -23.9746 47.5098 -23.9746 C 50.9766 -23.9746 53.5645 -25.4883 55.0781 -28.4668 C 56.0547 -30.2734 57.2266 -31.0059 58.9844 -31.0059 C 61.5234 -31.0059 63.1348 -29.541 63.1348 -27.1973 C 63.1348 -26.416 62.9883 -25.6348 62.6465 -24.8047 C 60.4492 -19.5312 54.6875 -16.3086 47.4121 -16.3086 Z"/>
  </g>
  <g id="Medium-S" transform="matrix(1 0 0 1 1699.83 696)">
   <path d="M 46.7285 4.63867 C 68.5547 4.63867 86.6211 -13.4277 86.6211 -35.2539 C 86.6211 -57.0312 68.5059 -75.1465 46.6797 -75.1465 C 24.8535 -75.1465 6.83594 -57.0312 6.83594 -35.2539 C 6.83594 -13.4277 24.9023 4.63867 46.7285 4.63867 Z M 46.875 -16.2598 C 36.084 -16.2598 29.248 -23.7305 29.248 -35.5957 C 29.248 -47.4121 36.1328 -54.9316 46.875 -54.9316 C 54.1016 -54.9316 59.8633 -51.6602 62.0117 -46.3379 C 62.3535 -45.5566 62.4512 -44.873 62.4512 -44.0918 C 62.4512 -41.9434 61.0352 -40.625 58.7891 -40.625 C 57.1777 -40.625 56.1523 -41.3086 55.2734 -43.0176 C 53.6133 -46.2891 50.7812 -47.9492 47.0215 -47.9492 C 41.4551 -47.9492 37.793 -43.0664 37.793 -35.5957 C 37.793 -28.0762 41.4551 -23.1934 47.0215 -23.1934 C 50.7812 -23.1934 53.5645 -24.9023 55.2246 -28.1738 C 56.1523 -29.834 57.2266 -30.5176 58.7891 -30.5176 C 61.0352 -30.5176 62.4512 -29.1992 62.4512 -27.0508 C 62.4512 -26.3184 62.3535 -25.6348 62.0117 -24.8535 C 59.8633 -19.4824 54.1504 -16.2598 46.875 -16.2598 Z"/>
  </g>
  <g id="Regular-S" transform="matrix(1 0 0 1 1403.58 696)">
   <path d="M 46.2402 4.15039 C 67.7734 4.15039 85.6934 -13.7207 85.6934 -35.2539 C 85.6934 -56.7871 67.7246 -74.6582 46.1914 -74.6582 C 24.707 -74.6582 6.83594 -56.7871 6.83594 -35.2539 C 6.83594 -13.7207 24.7559 4.15039 46.2402 4.15039 Z M 46.2402 -16.2598 C 35.498 -16.2598 28.8086 -23.7305 28.8086 -35.6445 C 28.8086 -47.6074 35.5469 -55.127 46.2402 -55.127 C 53.418 -55.127 59.082 -51.9043 61.2305 -46.5332 C 61.5234 -45.8008 61.6211 -45.2148 61.6211 -44.5312 C 61.6211 -42.627 60.4004 -41.4551 58.4961 -41.4551 C 57.1777 -41.4551 56.2988 -42.0898 55.4688 -43.6035 C 53.6621 -47.2656 50.5371 -49.1699 46.3379 -49.1699 C 40.2344 -49.1699 36.1816 -43.75 36.1816 -35.6445 C 36.1816 -27.5879 40.2344 -22.2168 46.3379 -22.2168 C 50.5371 -22.2168 53.6621 -24.1211 55.4688 -27.7832 C 56.2988 -29.2969 57.1777 -29.9316 58.4961 -29.9316 C 60.4004 -29.9316 61.6211 -28.7598 61.6211 -26.8555 C 61.6211 -26.2207 61.5234 -25.5859 61.2305 -24.8535 C 59.082 -19.4824 53.418 -16.2598 46.2402 -16.2598 Z"/>
  </g>
  <g id="Light-S" transform="matrix(1 0 0 1 1107.6 696)">
   <path d="M 45.5078 3.4668 C 66.6992 3.4668 84.2285 -14.0625 84.2285 -35.2051 C 84.2285 -56.3965 66.6504 -73.9258 45.5078 -73.9258 C 24.3164 -73.9258 6.83594 -56.3965 6.83594 -35.2051 C 6.83594 -14.0625 24.3652 3.4668 45.5078 3.4668 Z M 45.6543 -16.5039 C 35.4004 -16.5039 28.8574 -23.9746 28.8574 -35.498 C 28.8574 -47.1191 35.4492 -54.5898 45.6543 -54.5898 C 52.6367 -54.5898 58.3496 -51.0254 60.1562 -45.6055 C 60.3516 -44.9219 60.4492 -44.4824 60.4492 -43.9453 C 60.4492 -42.3828 59.5215 -41.4551 58.0078 -41.4551 C 56.8848 -41.4551 56.1523 -41.9922 55.5664 -43.2617 C 54.1504 -47.4121 50.5371 -49.8535 45.7031 -49.8535 C 39.0625 -49.8535 34.5703 -44.043 34.5703 -35.498 C 34.5703 -27.002 39.0625 -21.2402 45.7031 -21.2402 C 50.5371 -21.2402 54.1016 -23.6816 55.5664 -27.832 C 56.1523 -29.1016 56.8848 -29.6387 58.0078 -29.6387 C 59.5215 -29.6387 60.4492 -28.7109 60.4492 -27.1484 C 60.4492 -26.6602 60.3516 -26.1719 60.1562 -25.4395 C 58.3984 -20.0195 52.6855 -16.5039 45.6543 -16.5039 Z"/>
  </g>
  <g id="Thin-S" transform="matrix(1 0 0 1 811.867 696)">
   <path d="M 44.5801 2.53906 C 65.2832 2.53906 82.2754 -14.4531 82.2754 -35.2051 C 82.2754 -55.9082 65.2344 -72.9004 44.5312 -72.9004 C 23.8281 -72.9004 6.83594 -55.9082 6.83594 -35.2051 C 6.83594 -14.4531 23.877 2.53906 44.5801 2.53906 Z M 44.873 -16.7969 C 35.3027 -16.7969 28.9062 -24.2676 28.9062 -35.3516 C 28.9062 -46.4355 35.3516 -53.8574 44.873 -53.8574 C 51.6113 -53.8574 57.4707 -49.9023 58.7402 -44.4336 C 58.8867 -43.75 58.8867 -43.457 58.8867 -43.1152 C 58.8867 -42.0898 58.3496 -41.4551 57.3242 -41.4551 C 56.543 -41.4551 56.0059 -41.8457 55.7129 -42.8223 C 54.7852 -47.6074 50.5371 -50.7812 44.9219 -50.7812 C 37.5488 -50.7812 32.4707 -44.4336 32.4707 -35.3516 C 32.4707 -26.2207 37.5488 -19.873 44.9219 -19.873 C 50.5371 -19.873 54.7363 -23.0469 55.7129 -27.832 C 56.0059 -28.8574 56.543 -29.1992 57.3242 -29.1992 C 58.3496 -29.1992 58.8867 -28.6133 58.8867 -27.5391 C 58.8867 -27.1973 58.8867 -26.9043 58.7402 -26.2207 C 57.5195 -20.7031 51.7578 -16.7969 44.873 -16.7969 Z"/>
  </g>
  <g id="Ultralight-S" transform="matrix(1 0 0 1 515.644 696)">
   <path d="M 44.043 2.05078 C 64.502 2.05078 81.2988 -14.6973 81.2988 -35.1562 C 81.2988 -55.6152 64.502 -72.3633 44.043 -72.3633 C 23.584 -72.3633 6.83594 -55.6152 6.83594 -35.1562 C 6.83594 -14.6973 23.584 2.05078 44.043 2.05078 Z M 44.4824 -16.9434 C 35.2539 -16.9434 28.9551 -24.4141 28.9551 -35.2051 C 28.9551 -46.0938 35.2539 -53.5156 44.4824 -53.5156 C 51.0742 -53.5156 56.9824 -49.3164 57.959 -43.8477 C 58.1055 -43.1641 58.1055 -42.9199 58.1055 -42.7246 C 58.1055 -41.9434 57.7637 -41.4551 56.9824 -41.4551 C 56.3477 -41.4551 55.9082 -41.748 55.8105 -42.5781 C 55.0781 -47.7051 50.5371 -51.2695 44.4824 -51.2695 C 36.7676 -51.2695 31.3477 -44.6289 31.3477 -35.2051 C 31.3477 -25.8301 36.7676 -19.1895 44.4824 -19.1895 C 50.5371 -19.1895 55.0781 -22.7051 55.8105 -27.8809 C 55.9082 -28.7109 56.3477 -29.0039 56.9824 -29.0039 C 57.7637 -29.0039 58.1055 -28.5645 58.1055 -27.7344 C 58.1055 -27.5391 58.1055 -27.2949 57.959 -26.6113 C 57.0312 -21.0449 51.2207 -16.9434 44.4824 -16.9434 Z"/>
  </g>
 </g>
</svg>
