<?xml version="1.0" encoding="UTF-8"?>
<!--Generator: Apple Native CoreSVG 123-->
<!DOCTYPE svg
PUBLIC "-//W3C//DTD SVG 1.1//EN"
       "http://www.w3.org/Graphics/SVG/1.1/DTD/svg11.dtd">
<svg version="1.1" xmlns="http://www.w3.org/2000/svg" xmlns:xlink="http://www.w3.org/1999/xlink" width="3300" height="2200">
 <!--glyph: "uni10000B.medium", point size: 100.000000, font version: "Version 15.0d7e11", template writer version: "5"-->
 <g id="Notes">
  <rect height="2200" id="artboard" style="fill:white;opacity:1" width="3300" x="0" y="0"/>
  <line id="" style="fill:none;stroke:black;opacity:1;stroke-width:0.5;" x1="263" x2="3036" y1="292" y2="292"/>
  <text style="stroke:none;fill:black;font-family:-apple-system,&quot;SF Pro Display&quot;,&quot;SF Pro Text&quot;,Helvetica,sans-serif;font-weight:bold;" transform="matrix(1 0 0 1 263 322)">Weight/Scale Variations</text>
  <text style="stroke:none;fill:black;font-family:-apple-system,&quot;SF Pro Display&quot;,&quot;SF Pro Text&quot;,Helvetica,sans-serif;text-anchor:middle;" transform="matrix(1 0 0 1 559.711 322)">Ultralight</text>
  <text style="stroke:none;fill:black;font-family:-apple-system,&quot;SF Pro Display&quot;,&quot;SF Pro Text&quot;,Helvetica,sans-serif;text-anchor:middle;" transform="matrix(1 0 0 1 856.422 322)">Thin</text>
  <text style="stroke:none;fill:black;font-family:-apple-system,&quot;SF Pro Display&quot;,&quot;SF Pro Text&quot;,Helvetica,sans-serif;text-anchor:middle;" transform="matrix(1 0 0 1 1153.13 322)">Light</text>
  <text style="stroke:none;fill:black;font-family:-apple-system,&quot;SF Pro Display&quot;,&quot;SF Pro Text&quot;,Helvetica,sans-serif;text-anchor:middle;" transform="matrix(1 0 0 1 1449.84 322)">Regular</text>
  <text style="stroke:none;fill:black;font-family:-apple-system,&quot;SF Pro Display&quot;,&quot;SF Pro Text&quot;,Helvetica,sans-serif;text-anchor:middle;" transform="matrix(1 0 0 1 1746.56 322)">Medium</text>
  <text style="stroke:none;fill:black;font-family:-apple-system,&quot;SF Pro Display&quot;,&quot;SF Pro Text&quot;,Helvetica,sans-serif;text-anchor:middle;" transform="matrix(1 0 0 1 2043.27 322)">Semibold</text>
  <text style="stroke:none;fill:black;font-family:-apple-system,&quot;SF Pro Display&quot;,&quot;SF Pro Text&quot;,Helvetica,sans-serif;text-anchor:middle;" transform="matrix(1 0 0 1 2339.98 322)">Bold</text>
  <text style="stroke:none;fill:black;font-family:-apple-system,&quot;SF Pro Display&quot;,&quot;SF Pro Text&quot;,Helvetica,sans-serif;text-anchor:middle;" transform="matrix(1 0 0 1 2636.69 322)">Heavy</text>
  <text style="stroke:none;fill:black;font-family:-apple-system,&quot;SF Pro Display&quot;,&quot;SF Pro Text&quot;,Helvetica,sans-serif;text-anchor:middle;" transform="matrix(1 0 0 1 2933.4 322)">Black</text>
  <line id="" style="fill:none;stroke:black;opacity:1;stroke-width:0.5;" x1="263" x2="3036" y1="1903" y2="1903"/>
  <g id="" transform="matrix(1 0 0 1 263 1933)">
   <path d="M 9.24805 0.830078 C 13.5547 0.830078 17.1387 -2.74414 17.1387 -7.05078 C 17.1387 -11.3574 13.5449 -14.9316 9.23828 -14.9316 C 4.94141 -14.9316 1.36719 -11.3574 1.36719 -7.05078 C 1.36719 -2.74414 4.95117 0.830078 9.24805 0.830078 Z M 9.24805 -0.654297 C 5.70312 -0.654297 2.87109 -3.49609 2.87109 -7.05078 C 2.87109 -10.6055 5.69336 -13.4473 9.23828 -13.4473 C 12.793 -13.4473 15.6348 -10.6055 15.6445 -7.05078 C 15.6543 -3.49609 12.8027 -0.654297 9.24805 -0.654297 Z M 9.22852 -3.42773 C 9.69727 -3.42773 9.9707 -3.74023 9.9707 -4.25781 L 9.9707 -6.31836 L 12.1973 -6.31836 C 12.6953 -6.31836 13.0371 -6.57227 13.0371 -7.04102 C 13.0371 -7.51953 12.7148 -7.7832 12.1973 -7.7832 L 9.9707 -7.7832 L 9.9707 -10.0098 C 9.9707 -10.5273 9.69727 -10.8496 9.22852 -10.8496 C 8.75977 -10.8496 8.50586 -10.5078 8.50586 -10.0098 L 8.50586 -7.7832 L 6.29883 -7.7832 C 5.78125 -7.7832 5.44922 -7.51953 5.44922 -7.04102 C 5.44922 -6.57227 5.80078 -6.31836 6.29883 -6.31836 L 8.50586 -6.31836 L 8.50586 -4.25781 C 8.50586 -3.75977 8.75977 -3.42773 9.22852 -3.42773 Z"/>
  </g>
  <g id="" transform="matrix(1 0 0 1 281.506 1933)">
   <path d="M 11.709 2.91016 C 17.1582 2.91016 21.6699 -1.60156 21.6699 -7.05078 C 21.6699 -12.4902 17.1484 -17.0117 11.6992 -17.0117 C 6.25977 -17.0117 1.74805 -12.4902 1.74805 -7.05078 C 1.74805 -1.60156 6.26953 2.91016 11.709 2.91016 Z M 11.709 1.25 C 7.09961 1.25 3.41797 -2.44141 3.41797 -7.05078 C 3.41797 -11.6504 7.08984 -15.3516 11.6992 -15.3516 C 16.3086 -15.3516 20 -11.6504 20.0098 -7.05078 C 20.0195 -2.44141 16.3184 1.25 11.709 1.25 Z M 11.6895 -2.41211 C 12.207 -2.41211 12.5195 -2.77344 12.5195 -3.33984 L 12.5195 -6.23047 L 15.5762 -6.23047 C 16.123 -6.23047 16.5039 -6.51367 16.5039 -7.03125 C 16.5039 -7.55859 16.1426 -7.86133 15.5762 -7.86133 L 12.5195 -7.86133 L 12.5195 -10.9277 C 12.5195 -11.5039 12.207 -11.8555 11.6895 -11.8555 C 11.1719 -11.8555 10.8789 -11.4844 10.8789 -10.9277 L 10.8789 -7.86133 L 7.83203 -7.86133 C 7.26562 -7.86133 6.89453 -7.55859 6.89453 -7.03125 C 6.89453 -6.51367 7.28516 -6.23047 7.83203 -6.23047 L 10.8789 -6.23047 L 10.8789 -3.33984 C 10.8789 -2.79297 11.1719 -2.41211 11.6895 -2.41211 Z"/>
  </g>
  <g id="" transform="matrix(1 0 0 1 304.924 1933)">
   <path d="M 14.9707 5.67383 C 21.9336 5.67383 27.6953 -0.078125 27.6953 -7.04102 C 27.6953 -14.0039 21.9238 -19.7559 14.9609 -19.7559 C 8.00781 -19.7559 2.25586 -14.0039 2.25586 -7.04102 C 2.25586 -0.078125 8.01758 5.67383 14.9707 5.67383 Z M 14.9707 3.85742 C 8.93555 3.85742 4.08203 -1.00586 4.08203 -7.04102 C 4.08203 -13.0762 8.92578 -17.9395 14.9609 -17.9395 C 21.0059 -17.9395 25.8594 -13.0762 25.8691 -7.04102 C 25.8789 -1.00586 21.0156 3.85742 14.9707 3.85742 Z M 14.9512 -1.06445 C 15.5176 -1.06445 15.8691 -1.45508 15.8691 -2.06055 L 15.8691 -6.13281 L 20.1074 -6.13281 C 20.6934 -6.13281 21.1133 -6.46484 21.1133 -7.02148 C 21.1133 -7.59766 20.7227 -7.93945 20.1074 -7.93945 L 15.8691 -7.93945 L 15.8691 -12.1875 C 15.8691 -12.8027 15.5176 -13.1934 14.9512 -13.1934 C 14.3848 -13.1934 14.0625 -12.7832 14.0625 -12.1875 L 14.0625 -7.93945 L 9.83398 -7.93945 C 9.21875 -7.93945 8.80859 -7.59766 8.80859 -7.02148 C 8.80859 -6.46484 9.23828 -6.13281 9.83398 -6.13281 L 14.0625 -6.13281 L 14.0625 -2.06055 C 14.0625 -1.47461 14.3848 -1.06445 14.9512 -1.06445 Z"/>
  </g>
  <text style="stroke:none;fill:black;font-family:-apple-system,&quot;SF Pro Display&quot;,&quot;SF Pro Text&quot;,Helvetica,sans-serif;font-weight:bold;" transform="matrix(1 0 0 1 263 1953)">Design Variations</text>
  <text style="stroke:none;fill:black;font-family:-apple-system,&quot;SF Pro Display&quot;,&quot;SF Pro Text&quot;,Helvetica,sans-serif;" transform="matrix(1 0 0 1 263 1971)">Symbols are supported in up to nine weights and three scales.</text>
  <text style="stroke:none;fill:black;font-family:-apple-system,&quot;SF Pro Display&quot;,&quot;SF Pro Text&quot;,Helvetica,sans-serif;" transform="matrix(1 0 0 1 263 1989)">For optimal layout with text and other symbols, vertically align</text>
  <text style="stroke:none;fill:black;font-family:-apple-system,&quot;SF Pro Display&quot;,&quot;SF Pro Text&quot;,Helvetica,sans-serif;" transform="matrix(1 0 0 1 263 2007)">symbols with the adjacent text.</text>
  <rect height="14" id="" style="fill:#00AEEF;stroke:none;opacity:0.4;" width="3" x="776" y="1919"/>
  <g id="" transform="matrix(1 0 0 1 779 1933)">
   <path d="M 10.5273 0 L 12.373 0 L 7.17773 -14.0918 L 5.43945 -14.0918 L 0.244141 0 L 2.08984 0 L 3.50586 -4.0332 L 9.11133 -4.0332 Z M 6.2793 -11.9531 L 6.33789 -11.9531 L 8.59375 -5.52734 L 4.02344 -5.52734 Z"/>
  </g>
  <rect height="14" id="" style="fill:#00AEEF;stroke:none;opacity:0.4;" width="3" x="791.617" y="1919"/>
  <text style="stroke:none;fill:black;font-family:-apple-system,&quot;SF Pro Display&quot;,&quot;SF Pro Text&quot;,Helvetica,sans-serif;font-weight:bold;" transform="matrix(1 0 0 1 776 1953)">Margins</text>
  <text style="stroke:none;fill:black;font-family:-apple-system,&quot;SF Pro Display&quot;,&quot;SF Pro Text&quot;,Helvetica,sans-serif;" transform="matrix(1 0 0 1 776 1971)">Leading and trailing margins on the left and right side of each symbol</text>
  <text style="stroke:none;fill:black;font-family:-apple-system,&quot;SF Pro Display&quot;,&quot;SF Pro Text&quot;,Helvetica,sans-serif;" transform="matrix(1 0 0 1 776 1989)">can be adjusted by modifying the width of the blue rectangles.</text>
  <text style="stroke:none;fill:black;font-family:-apple-system,&quot;SF Pro Display&quot;,&quot;SF Pro Text&quot;,Helvetica,sans-serif;" transform="matrix(1 0 0 1 776 2007)">Modifications are automatically applied proportionally to all</text>
  <text style="stroke:none;fill:black;font-family:-apple-system,&quot;SF Pro Display&quot;,&quot;SF Pro Text&quot;,Helvetica,sans-serif;" transform="matrix(1 0 0 1 776 2025)">scales and weights.</text>
  <g id="" transform="matrix(1 0 0 1 1289 1933)">
   <path d="M 2.83203 3.11523 L 4.375 4.6582 C 5.22461 5.48828 6.19141 5.41992 7.06055 4.46289 L 17.2754 -6.66016 C 17.7051 -6.36719 18.0957 -6.37695 18.5645 -6.47461 L 19.6094 -6.68945 L 20.3027 -5.99609 L 20.2539 -5.47852 C 20.1855 -4.95117 20.3516 -4.53125 20.8496 -4.0332 L 21.6602 -3.22266 C 22.168 -2.71484 22.8223 -2.68555 23.3008 -3.16406 L 26.5527 -6.41602 C 27.0312 -6.89453 27.0117 -7.54883 26.5039 -8.05664 L 25.6836 -8.87695 C 25.1855 -9.375 24.7754 -9.55078 24.2383 -9.47266 L 23.7109 -9.41406 L 23.0566 -10.0781 L 23.3398 -11.2207 C 23.4863 -11.7871 23.3398 -12.2559 22.7148 -12.8613 L 20.3027 -15.2539 C 16.7578 -18.7793 12.2266 -18.6719 9.11133 -15.5371 C 8.69141 -15.1074 8.64258 -14.5215 8.91602 -14.0918 C 9.15039 -13.7207 9.62891 -13.4961 10.2734 -13.6621 C 11.7871 -14.043 13.3008 -13.9258 14.7852 -12.9199 L 14.1602 -11.3379 C 13.9258 -10.752 13.9453 -10.2734 14.1797 -9.83398 L 3.01758 0.439453 C 2.08008 1.30859 1.97266 2.25586 2.83203 3.11523 Z M 10.6738 -15.1465 C 13.3398 -17.1387 16.6504 -16.8262 19.0527 -14.4141 L 21.6797 -11.8066 C 21.9141 -11.5723 21.9434 -11.3867 21.8848 -11.0938 L 21.5039 -9.53125 L 23.0762 -7.95898 L 24.043 -8.04688 C 24.3262 -8.07617 24.4141 -8.05664 24.6387 -7.83203 L 25.2637 -7.20703 L 22.5098 -4.46289 L 21.8848 -5.07812 C 21.6602 -5.30273 21.6406 -5.40039 21.6699 -5.68359 L 21.7578 -6.64062 L 20.1953 -8.20312 L 18.5742 -7.89062 C 18.291 -7.83203 18.1445 -7.83203 17.9102 -8.07617 L 15.7324 -10.2539 C 15.5078 -10.4883 15.4785 -10.625 15.6055 -10.9473 L 16.5527 -13.2227 C 14.9512 -14.7559 12.8418 -15.6055 10.8008 -14.9512 C 10.7129 -14.9219 10.6445 -14.9414 10.6152 -14.9805 C 10.5859 -15.0293 10.5859 -15.0781 10.6738 -15.1465 Z M 4.10156 2.41211 C 3.61328 1.91406 3.78906 1.61133 4.12109 1.30859 L 15.0781 -8.80859 L 16.3086 -7.57812 L 6.15234 3.34961 C 5.84961 3.68164 5.46875 3.7793 5.06836 3.37891 Z"/>
  </g>
  <text style="stroke:none;fill:black;font-family:-apple-system,&quot;SF Pro Display&quot;,&quot;SF Pro Text&quot;,Helvetica,sans-serif;font-weight:bold;" transform="matrix(1 0 0 1 1289 1953)">Exporting</text>
  <text style="stroke:none;fill:black;font-family:-apple-system,&quot;SF Pro Display&quot;,&quot;SF Pro Text&quot;,Helvetica,sans-serif;" transform="matrix(1 0 0 1 1289 1971)">Symbols should be outlined when exporting to ensure the</text>
  <text style="stroke:none;fill:black;font-family:-apple-system,&quot;SF Pro Display&quot;,&quot;SF Pro Text&quot;,Helvetica,sans-serif;" transform="matrix(1 0 0 1 1289 1989)">design is preserved when submitting to Xcode.</text>
  <text id="template-version" style="stroke:none;fill:black;font-family:-apple-system,&quot;SF Pro Display&quot;,&quot;SF Pro Text&quot;,Helvetica,sans-serif;text-anchor:end;" transform="matrix(1 0 0 1 3036 1933)">Template v.1.0</text>
  <text style="stroke:none;fill:black;font-family:-apple-system,&quot;SF Pro Display&quot;,&quot;SF Pro Text&quot;,Helvetica,sans-serif;text-anchor:end;" transform="matrix(1 0 0 1 3036 1951)">Generated from d.circle.fill</text>
  <text style="stroke:none;fill:black;font-family:-apple-system,&quot;SF Pro Display&quot;,&quot;SF Pro Text&quot;,Helvetica,sans-serif;text-anchor:end;" transform="matrix(1 0 0 1 3036 1969)">Typeset at 100 points</text>
  <text style="stroke:none;fill:black;font-family:-apple-system,&quot;SF Pro Display&quot;,&quot;SF Pro Text&quot;,Helvetica,sans-serif;" transform="matrix(1 0 0 1 263 726)">Small</text>
  <text style="stroke:none;fill:black;font-family:-apple-system,&quot;SF Pro Display&quot;,&quot;SF Pro Text&quot;,Helvetica,sans-serif;" transform="matrix(1 0 0 1 263 1156)">Medium</text>
  <text style="stroke:none;fill:black;font-family:-apple-system,&quot;SF Pro Display&quot;,&quot;SF Pro Text&quot;,Helvetica,sans-serif;" transform="matrix(1 0 0 1 263 1586)">Large</text>
 </g>
 <g id="Guides">
  <g id="H-reference" style="fill:#27AAE1;stroke:none;" transform="matrix(1 0 0 1 339 696)">
   <path d="M 54.9316 0 L 57.666 0 L 30.5664 -70.459 L 28.0762 -70.459 L 0.976562 0 L 3.66211 0 L 12.9395 -24.4629 L 45.7031 -24.4629 Z M 29.1992 -67.0898 L 29.4434 -67.0898 L 44.8242 -26.709 L 13.8184 -26.709 Z"/>
  </g>
  <line id="Baseline-S" style="fill:none;stroke:#27AAE1;opacity:1;stroke-width:0.577;" x1="263" x2="3036" y1="696" y2="696"/>
  <line id="Capline-S" style="fill:none;stroke:#27AAE1;opacity:1;stroke-width:0.577;" x1="263" x2="3036" y1="625.541" y2="625.541"/>
  <g id="H-reference" style="fill:#27AAE1;stroke:none;" transform="matrix(1 0 0 1 339 1126)">
   <path d="M 54.9316 0 L 57.666 0 L 30.5664 -70.459 L 28.0762 -70.459 L 0.976562 0 L 3.66211 0 L 12.9395 -24.4629 L 45.7031 -24.4629 Z M 29.1992 -67.0898 L 29.4434 -67.0898 L 44.8242 -26.709 L 13.8184 -26.709 Z"/>
  </g>
  <line id="Baseline-M" style="fill:none;stroke:#27AAE1;opacity:1;stroke-width:0.577;" x1="263" x2="3036" y1="1126" y2="1126"/>
  <line id="Capline-M" style="fill:none;stroke:#27AAE1;opacity:1;stroke-width:0.577;" x1="263" x2="3036" y1="1055.54" y2="1055.54"/>
  <g id="H-reference" style="fill:#27AAE1;stroke:none;" transform="matrix(1 0 0 1 339 1556)">
   <path d="M 54.9316 0 L 57.666 0 L 30.5664 -70.459 L 28.0762 -70.459 L 0.976562 0 L 3.66211 0 L 12.9395 -24.4629 L 45.7031 -24.4629 Z M 29.1992 -67.0898 L 29.4434 -67.0898 L 44.8242 -26.709 L 13.8184 -26.709 Z"/>
  </g>
  <line id="Baseline-L" style="fill:none;stroke:#27AAE1;opacity:1;stroke-width:0.577;" x1="263" x2="3036" y1="1556" y2="1556"/>
  <line id="Capline-L" style="fill:none;stroke:#27AAE1;opacity:1;stroke-width:0.577;" x1="263" x2="3036" y1="1485.54" y2="1485.54"/>
  <rect height="119.336" id="left-margin" style="fill:#00AEEF;stroke:none;opacity:0.4;" width="8.74023" x="1391.3" y="1030.79"/>
  <rect height="119.336" id="right-margin" style="fill:#00AEEF;stroke:none;opacity:0.4;" width="8.74023" x="1499.65" y="1030.79"/>
 </g>
 <g id="Symbols">
  <g id="Black-L" transform="matrix(1 0 0 1 2854.05 1556)">
   <path d="M 79.3457 32.8613 C 116.748 32.8613 147.412 2.19727 147.412 -35.2051 C 147.412 -72.6074 116.748 -103.271 79.2969 -103.271 C 41.8945 -103.271 11.2793 -72.6074 11.2793 -35.2051 C 11.2793 2.19727 41.9434 32.8613 79.3457 32.8613 Z M 65.0879 -6.10352 C 57.7148 -6.10352 54.0527 -10.0586 54.0527 -17.4805 L 54.0527 -53.2715 C 54.0527 -60.5957 57.7637 -64.5996 65.0879 -64.5996 L 81.1523 -64.5996 C 99.4141 -64.5996 109.619 -54.1504 109.619 -35.3516 C 109.619 -16.6016 99.3652 -6.10352 81.1523 -6.10352 Z M 72.9492 -20.7031 L 77.8809 -20.7031 C 85.9863 -20.7031 89.502 -25.0977 89.502 -35.3027 C 89.502 -45.459 85.9375 -49.9512 77.8809 -49.9512 L 72.9492 -49.9512 Z"/>
  </g>
  <g id="Heavy-L" transform="matrix(1 0 0 1 2558.39 1556)">
   <path d="M 78.2715 31.7871 C 115.088 31.7871 145.312 1.61133 145.312 -35.2051 C 145.312 -72.0215 115.039 -102.197 78.2715 -102.197 C 41.4551 -102.197 11.2793 -72.0215 11.2793 -35.2051 C 11.2793 1.61133 41.5039 31.7871 78.2715 31.7871 Z M 63.2324 -6.05469 C 56.9336 -6.05469 53.7598 -9.52148 53.7598 -15.918 L 53.7598 -54.9805 C 53.7598 -61.2793 56.9824 -64.8438 63.2324 -64.8438 L 79.541 -64.8438 C 97.8027 -64.8438 108.057 -54.2969 108.057 -35.4492 C 108.057 -16.5527 97.7539 -6.05469 79.541 -6.05469 Z M 70.2637 -18.8965 L 76.8066 -18.8965 C 86.1328 -18.8965 90.5273 -24.0234 90.5273 -35.4004 C 90.5273 -46.6309 86.0352 -51.9531 76.8066 -51.9531 L 70.2637 -51.9531 Z"/>
  </g>
  <g id="Bold-L" transform="matrix(1 0 0 1 2262.88 1556)">
   <path d="M 77.0996 30.6152 C 113.232 30.6152 142.92 0.878906 142.92 -35.2051 C 142.92 -71.3379 113.184 -101.025 77.0508 -101.025 C 40.9668 -101.025 11.2793 -71.3379 11.2793 -35.2051 C 11.2793 0.878906 41.0156 30.6152 77.0996 30.6152 Z M 61.1816 -5.95703 C 56.0547 -5.95703 53.418 -8.93555 53.418 -14.1602 L 53.418 -56.8848 C 53.418 -62.1094 56.1035 -65.1367 61.1816 -65.1367 L 77.7344 -65.1367 C 96.0449 -65.1367 106.348 -54.4922 106.348 -35.5957 C 106.348 -16.5527 95.9961 -5.95703 77.7344 -5.95703 Z M 67.2852 -16.8457 L 75.5859 -16.8457 C 86.2305 -16.8457 91.6992 -22.8516 91.6992 -35.498 C 91.6992 -47.9492 86.1816 -54.1992 75.5859 -54.1992 L 67.2852 -54.1992 Z"/>
  </g>
  <g id="Semibold-L" transform="matrix(1 0 0 1 1966.97 1556)">
   <path d="M 76.2695 29.7852 C 111.914 29.7852 141.309 0.439453 141.309 -35.2051 C 141.309 -70.8496 111.865 -100.244 76.2695 -100.244 C 40.625 -100.244 11.2793 -70.8496 11.2793 -35.2051 C 11.2793 0.439453 40.6738 29.7852 76.2695 29.7852 Z M 59.7656 -5.9082 C 55.4688 -5.9082 53.2227 -8.54492 53.2227 -12.9883 L 53.2227 -58.252 C 53.2227 -62.6465 55.5176 -65.2832 59.7656 -65.2832 L 76.5137 -65.2832 C 94.7754 -65.2832 105.176 -54.6387 105.176 -35.6934 C 105.176 -16.5039 94.7754 -5.9082 76.5137 -5.9082 Z M 65.2344 -15.4297 L 74.7559 -15.4297 C 86.3281 -15.4297 92.4805 -22.0703 92.4805 -35.5957 C 92.4805 -48.8281 86.2305 -55.7617 74.7559 -55.7617 L 65.2344 -55.7617 Z"/>
  </g>
  <g id="Medium-L" transform="matrix(1 0 0 1 1670.87 1556)">
   <path d="M 75.6836 29.1992 C 110.938 29.1992 140.088 0.0488281 140.088 -35.2051 C 140.088 -70.459 110.889 -99.6094 75.6348 -99.6094 C 40.3809 -99.6094 11.2793 -70.459 11.2793 -35.2051 C 11.2793 0.0488281 40.3809 29.1992 75.6836 29.1992 Z M 58.6914 -5.85938 C 55.0293 -5.85938 53.0762 -8.25195 53.0762 -12.0605 L 53.0762 -59.2285 C 53.0762 -63.0371 55.0293 -65.4297 58.6914 -65.4297 L 75.5859 -65.4297 C 93.8477 -65.4297 104.297 -54.7363 104.297 -35.791 C 104.297 -16.5039 93.8477 -5.85938 75.5859 -5.85938 Z M 63.6719 -14.3555 L 74.1211 -14.3555 C 86.4258 -14.3555 93.1152 -21.4355 93.1152 -35.6445 C 93.1152 -49.5117 86.2793 -56.9336 74.1211 -56.9336 L 63.6719 -56.9336 Z"/>
  </g>
  <g id="Regular-L" transform="matrix(1 0 0 1 1374.97 1556)">
   <path d="M 74.8535 28.3691 C 109.668 28.3691 138.477 -0.390625 138.477 -35.2051 C 138.477 -70.0195 109.619 -98.7793 74.8047 -98.7793 C 40.0391 -98.7793 11.2793 -70.0195 11.2793 -35.2051 C 11.2793 -0.390625 40.0879 28.3691 74.8535 28.3691 Z M 57.2754 -5.76172 C 54.4434 -5.76172 52.832 -7.86133 52.832 -10.8887 L 52.832 -60.5469 C 52.832 -63.5742 54.4434 -65.625 57.2754 -65.625 L 74.3652 -65.625 C 92.627 -65.625 103.125 -54.8828 103.125 -35.8887 C 103.125 -16.4551 92.627 -5.76172 74.3652 -5.76172 Z M 61.6699 -12.9395 L 73.291 -12.9395 C 86.5234 -12.9395 93.8965 -20.6543 93.8965 -35.7422 C 93.8965 -50.3906 86.377 -58.4473 73.291 -58.4473 L 61.6699 -58.4473 Z"/>
  </g>
  <g id="Light-L" transform="matrix(1 0 0 1 1079.18 1556)">
   <path d="M 73.9258 27.4902 C 108.301 27.4902 136.621 -0.830078 136.621 -35.1562 C 136.621 -69.5312 108.252 -97.8516 73.9258 -97.8516 C 39.5508 -97.8516 11.2793 -69.5312 11.2793 -35.1562 C 11.2793 -0.830078 39.5996 27.4902 73.9258 27.4902 Z M 56.0547 -5.9082 C 53.9551 -5.9082 52.6855 -7.4707 52.6855 -9.81445 L 52.6855 -61.2305 C 52.6855 -63.5742 53.9551 -65.1367 56.0547 -65.1367 L 73.3398 -65.1367 C 90.918 -65.1367 101.318 -54.248 101.318 -35.6934 C 101.318 -16.5039 90.9668 -5.9082 73.3398 -5.9082 Z M 59.5703 -11.6699 L 72.5586 -11.6699 C 86.0352 -11.6699 94.0918 -19.7266 94.0918 -35.5957 C 94.0918 -50.7812 85.9375 -59.375 72.5586 -59.375 L 59.5703 -59.375 Z"/>
  </g>
  <g id="Thin-L" transform="matrix(1 0 0 1 783.693 1556)">
   <path d="M 72.7051 26.3184 C 106.494 26.3184 134.18 -1.36719 134.18 -35.1074 C 134.18 -68.8965 106.494 -96.582 72.7051 -96.582 C 38.9648 -96.582 11.2793 -68.8965 11.2793 -35.1074 C 11.2793 -1.36719 38.9648 26.3184 72.7051 26.3184 Z M 54.4922 -6.05469 C 53.2715 -6.05469 52.4902 -6.93359 52.4902 -8.39844 L 52.4902 -62.1094 C 52.4902 -63.5742 53.2715 -64.4531 54.4922 -64.4531 L 72.0215 -64.4531 C 88.623 -64.4531 98.9746 -53.418 98.9746 -35.498 C 98.9746 -16.6016 88.7207 -6.05469 72.0215 -6.05469 Z M 56.7871 -9.91211 L 71.5332 -9.91211 C 85.4492 -9.91211 94.2871 -18.5547 94.2871 -35.4004 C 94.2871 -51.3184 85.3516 -60.5957 71.5332 -60.5957 L 56.7871 -60.5957 Z"/>
  </g>
  <g id="Ultralight-L" transform="matrix(1 0 0 1 487.616 1556)">
   <path d="M 72.1191 25.7324 C 105.566 25.7324 132.91 -1.61133 132.91 -35.1074 C 132.91 -68.5547 105.566 -95.8984 72.1191 -95.8984 C 38.623 -95.8984 11.2793 -68.5547 11.2793 -35.1074 C 11.2793 -1.61133 38.623 25.7324 72.1191 25.7324 Z M 53.6621 -6.10352 C 52.9297 -6.10352 52.3926 -6.68945 52.3926 -7.66602 L 52.3926 -62.5977 C 52.3926 -63.5742 52.9297 -64.1602 53.6621 -64.1602 L 71.3379 -64.1602 C 87.4512 -64.1602 97.8027 -52.9785 97.8027 -35.4004 C 97.8027 -16.6504 87.5977 -6.10352 71.3379 -6.10352 Z M 55.3711 -9.0332 L 71.0449 -9.0332 C 85.1074 -9.0332 94.3848 -17.9199 94.3848 -35.3027 C 94.3848 -51.5625 85.0586 -61.2305 71.0449 -61.2305 L 55.3711 -61.2305 Z"/>
  </g>
  <g id="Black-M" transform="matrix(1 0 0 1 2870.97 1126)">
   <path d="M 62.4023 18.457 C 91.9922 18.457 116.113 -5.61523 116.113 -35.2051 C 116.113 -64.7949 91.9922 -88.8672 62.4023 -88.8672 C 32.8125 -88.8672 8.74023 -64.7949 8.74023 -35.2051 C 8.74023 -5.61523 32.8125 18.457 62.4023 18.457 Z M 52.2461 -12.8418 C 45.5078 -12.8418 42.1875 -16.2109 42.1875 -22.998 L 42.1875 -47.2656 C 42.1875 -53.9551 45.5566 -57.4219 52.2461 -57.4219 L 64.5508 -57.4219 C 78.2715 -57.4219 86.0352 -49.3164 86.0352 -35.0586 C 86.0352 -20.8496 78.2715 -12.8418 64.5508 -12.8418 Z M 58.9844 -25.7324 L 61.4258 -25.7324 C 66.2109 -25.7324 68.0176 -28.2715 68.0176 -35.0586 C 68.0176 -41.7969 66.2109 -44.4336 61.4258 -44.4336 L 58.9844 -44.4336 Z"/>
  </g>
  <g id="Heavy-M" transform="matrix(1 0 0 1 2575.19 1126)">
   <path d="M 61.5234 17.5781 C 90.5273 17.5781 114.258 -6.15234 114.258 -35.2051 C 114.258 -64.2578 90.5273 -87.9883 61.4746 -87.9883 C 32.4707 -87.9883 8.74023 -64.2578 8.74023 -35.2051 C 8.74023 -6.15234 32.4707 17.5781 61.5234 17.5781 Z M 50.5859 -12.7441 C 44.7754 -12.7441 41.8945 -15.7715 41.8945 -21.582 L 41.8945 -48.9746 C 41.8945 -54.6875 44.8242 -57.8125 50.5859 -57.8125 L 63.0371 -57.8125 C 76.9531 -57.8125 84.8633 -49.6582 84.8633 -35.2539 C 84.8633 -20.8008 76.9531 -12.7441 63.0371 -12.7441 Z M 56.6406 -24.0723 L 60.4492 -24.0723 C 66.5039 -24.0723 69.1406 -27.3926 69.1406 -35.2051 C 69.1406 -42.9688 66.4551 -46.3867 60.4492 -46.3867 L 56.6406 -46.3867 Z"/>
  </g>
  <g id="Bold-M" transform="matrix(1 0 0 1 2279.5 1126)">
   <path d="M 60.498 16.5039 C 88.8672 16.5039 112.207 -6.78711 112.207 -35.2051 C 112.207 -63.623 88.8672 -86.9629 60.4492 -86.9629 C 32.0312 -86.9629 8.74023 -63.623 8.74023 -35.2051 C 8.74023 -6.78711 32.0801 16.5039 60.498 16.5039 Z M 48.6816 -12.5977 C 43.9941 -12.5977 41.6016 -15.2344 41.6016 -19.9707 L 41.6016 -50.8789 C 41.6016 -55.5664 44.043 -58.252 48.6816 -58.252 L 61.377 -58.252 C 75.5371 -58.252 83.4961 -50.0488 83.4961 -35.4492 C 83.4961 -20.752 75.4883 -12.5977 61.377 -12.5977 Z M 53.9551 -22.2168 L 59.3262 -22.2168 C 66.748 -22.2168 70.3613 -26.3672 70.3613 -35.4004 C 70.3613 -44.2871 66.6992 -48.584 59.3262 -48.584 L 53.9551 -48.584 Z"/>
  </g>
  <g id="Semibold-M" transform="matrix(1 0 0 1 1983.5 1126)">
   <path d="M 59.7656 15.8203 C 87.7441 15.8203 110.791 -7.22656 110.791 -35.2051 C 110.791 -63.1836 87.6953 -86.2793 59.7656 -86.2793 C 31.7871 -86.2793 8.74023 -63.1836 8.74023 -35.2051 C 8.74023 -7.22656 31.7871 15.8203 59.7656 15.8203 Z M 47.3633 -12.5 C 43.457 -12.5 41.4062 -14.8438 41.4062 -18.8965 L 41.4062 -52.1484 C 41.4062 -56.1523 43.457 -58.5449 47.3633 -58.5449 L 60.2051 -58.5449 C 74.5117 -58.5449 82.5684 -50.3418 82.5684 -35.5957 C 82.5684 -20.7031 74.4629 -12.5 60.2051 -12.5 Z M 52.1484 -20.9473 L 58.5449 -20.9473 C 66.9434 -20.9473 71.1914 -25.6836 71.1914 -35.498 C 71.1914 -45.2148 66.8945 -50.0488 58.5449 -50.0488 L 52.1484 -50.0488 Z"/>
  </g>
  <g id="Medium-M" transform="matrix(1 0 0 1 1687.3 1126)">
   <path d="M 59.2285 15.2832 C 86.9141 15.2832 109.766 -7.56836 109.766 -35.2051 C 109.766 -62.8906 86.8652 -85.7422 59.1797 -85.7422 C 31.543 -85.7422 8.74023 -62.8906 8.74023 -35.2051 C 8.74023 -7.56836 31.5918 15.2832 59.2285 15.2832 Z M 46.3867 -12.4512 C 43.0176 -12.4512 41.2598 -14.5996 41.2598 -18.0664 L 41.2598 -53.1738 C 41.2598 -56.5918 43.0176 -58.7891 46.3867 -58.7891 L 59.3262 -58.7891 C 73.7793 -58.7891 81.8359 -50.5371 81.8359 -35.6934 C 81.8359 -20.7031 73.7305 -12.4512 59.3262 -12.4512 Z M 50.7812 -19.9707 L 58.0078 -19.9707 C 67.0898 -19.9707 71.8262 -25.1465 71.8262 -35.5957 C 71.8262 -45.8496 66.9922 -51.2207 58.0078 -51.2207 L 50.7812 -51.2207 Z"/>
  </g>
  <g id="Regular-M" transform="matrix(1 0 0 1 1391.3 1126)">
   <path d="M 58.5449 14.5508 C 85.791 14.5508 108.35 -8.00781 108.35 -35.2539 C 108.35 -62.4512 85.7422 -85.0586 58.4961 -85.0586 C 31.2988 -85.0586 8.74023 -62.4512 8.74023 -35.2539 C 8.74023 -8.00781 31.3477 14.5508 58.5449 14.5508 Z M 45.0684 -12.3535 C 42.4805 -12.3535 41.0645 -14.209 41.0645 -16.9434 L 41.0645 -54.4434 C 41.0645 -57.1777 42.4805 -59.082 45.0684 -59.082 L 58.2031 -59.082 C 72.8027 -59.082 80.9082 -50.8301 80.9082 -35.8398 C 80.9082 -20.6543 72.7051 -12.3535 58.2031 -12.3535 Z M 48.9746 -18.7012 L 57.2266 -18.7012 C 67.2852 -18.7012 72.7051 -24.4629 72.7051 -35.6934 C 72.7051 -46.7773 67.1875 -52.6855 57.2266 -52.6855 L 48.9746 -52.6855 Z"/>
  </g>
  <g id="Light-M" transform="matrix(1 0 0 1 1095.42 1126)">
   <path d="M 57.7148 13.7695 C 84.5215 13.7695 106.689 -8.39844 106.689 -35.2051 C 106.689 -62.0117 84.5215 -84.1797 57.666 -84.1797 C 30.8594 -84.1797 8.74023 -62.0117 8.74023 -35.2051 C 8.74023 -8.39844 30.9082 13.7695 57.7148 13.7695 Z M 43.9941 -12.4512 C 42.041 -12.4512 40.918 -13.8672 40.918 -16.0156 L 40.918 -55.0781 C 40.918 -57.1777 42.041 -58.6426 43.9941 -58.6426 L 57.2754 -58.6426 C 71.2402 -58.6426 79.3457 -50.2441 79.3457 -35.6934 C 79.3457 -20.7031 71.2402 -12.4512 57.2754 -12.4512 Z M 47.1191 -17.5293 L 56.543 -17.5293 C 66.8945 -17.5293 72.8516 -23.6328 72.8516 -35.5957 C 72.8516 -47.1191 66.7969 -53.5156 56.543 -53.5156 L 47.1191 -53.5156 Z"/>
  </g>
  <g id="Thin-M" transform="matrix(1 0 0 1 799.806 1126)">
   <path d="M 56.6406 12.7441 C 82.9102 12.7441 104.492 -8.83789 104.492 -35.1562 C 104.492 -61.4746 82.9102 -83.0566 56.5918 -83.0566 C 30.3223 -83.0566 8.74023 -61.4746 8.74023 -35.1562 C 8.74023 -8.83789 30.3223 12.7441 56.6406 12.7441 Z M 42.5781 -12.5977 C 41.4062 -12.5977 40.7227 -13.4277 40.7227 -14.7461 L 40.7227 -55.8594 C 40.7227 -57.1777 41.4062 -58.0566 42.5781 -58.0566 L 56.1035 -58.0566 C 69.1895 -58.0566 77.2461 -49.5117 77.2461 -35.498 C 77.2461 -20.752 69.2383 -12.5977 56.1035 -12.5977 Z M 44.6289 -15.9668 L 55.6641 -15.9668 C 66.3574 -15.9668 73.0469 -22.5586 73.0469 -35.4004 C 73.0469 -47.5586 66.2598 -54.6387 55.6641 -54.6387 L 44.6289 -54.6387 Z"/>
  </g>
  <g id="Ultralight-M" transform="matrix(1 0 0 1 503.656 1126)">
   <path d="M 56.0547 12.207 C 82.0801 12.207 103.369 -9.08203 103.369 -35.1562 C 103.369 -61.1816 82.0801 -82.4707 56.0547 -82.4707 C 30.0293 -82.4707 8.74023 -61.1816 8.74023 -35.1562 C 8.74023 -9.08203 30.0293 12.207 56.0547 12.207 Z M 41.8457 -12.6465 C 41.1133 -12.6465 40.625 -13.1836 40.625 -14.0625 L 40.625 -56.2988 C 40.625 -57.1777 41.1133 -57.7148 41.8457 -57.7148 L 55.5176 -57.7148 C 68.1152 -57.7148 76.1719 -49.1211 76.1719 -35.4004 C 76.1719 -20.8008 68.2617 -12.6465 55.5176 -12.6465 Z M 43.3594 -15.1855 L 55.1758 -15.1855 C 66.0645 -15.1855 73.1445 -22.0215 73.1445 -35.3027 C 73.1445 -47.8027 66.0156 -55.1758 55.1758 -55.1758 L 43.3594 -55.1758 Z"/>
  </g>
  <g id="Black-S" transform="matrix(1 0 0 1 2884.57 696)">
   <path d="M 48.8281 6.78711 C 71.9727 6.78711 90.8203 -12.0605 90.8203 -35.2051 C 90.8203 -58.3496 71.9727 -77.1973 48.8281 -77.1973 C 25.6836 -77.1973 6.83594 -58.3496 6.83594 -35.2051 C 6.83594 -12.0605 25.6836 6.78711 48.8281 6.78711 Z M 40.8203 -17.6758 C 35.5957 -17.6758 33.0078 -20.3125 33.0078 -25.5371 L 33.0078 -44.7754 C 33.0078 -49.9512 35.6445 -52.6367 40.8203 -52.6367 L 50.4395 -52.6367 C 61.2305 -52.6367 67.334 -46.2891 67.334 -35.1074 C 67.334 -23.9746 61.2305 -17.6758 50.4395 -17.6758 Z M 46.0449 -27.6855 L 48.0469 -27.6855 C 51.9043 -27.6855 53.3691 -29.7363 53.3691 -35.1074 C 53.3691 -40.4785 51.9043 -42.5781 48.0469 -42.5781 L 46.0449 -42.5781 Z"/>
  </g>
  <g id="Heavy-S" transform="matrix(1 0 0 1 2588.47 696)">
   <path d="M 48.2422 6.15234 C 70.9961 6.15234 89.5996 -12.4512 89.5996 -35.2051 C 89.5996 -57.959 70.9961 -76.6113 48.1934 -76.6113 C 25.4395 -76.6113 6.83594 -57.959 6.83594 -35.2051 C 6.83594 -12.4512 25.4395 6.15234 48.2422 6.15234 Z M 39.6484 -17.5781 C 35.1074 -17.5781 32.8125 -19.9707 32.8125 -24.5605 L 32.8125 -45.9961 C 32.8125 -50.5371 35.1562 -52.9785 39.6484 -52.9785 L 49.4141 -52.9785 C 60.4004 -52.9785 66.6016 -46.6309 66.6016 -35.2539 C 66.6016 -23.9258 60.4004 -17.5781 49.4141 -17.5781 Z M 44.4336 -26.5625 L 47.3633 -26.5625 C 52.1484 -26.5625 54.1992 -29.1504 54.1992 -35.2539 C 54.1992 -41.3086 52.0996 -43.9941 47.3633 -43.9941 L 44.4336 -43.9941 Z"/>
  </g>
  <g id="Bold-S" transform="matrix(1 0 0 1 2292.44 696)">
   <path d="M 47.5586 5.46875 C 69.873 5.46875 88.2324 -12.8906 88.2324 -35.2051 C 88.2324 -57.5684 69.873 -75.9277 47.5098 -75.9277 C 25.1953 -75.9277 6.83594 -57.5684 6.83594 -35.2051 C 6.83594 -12.8906 25.1953 5.46875 47.5586 5.46875 Z M 38.3301 -17.4805 C 34.5215 -17.4805 32.6172 -19.6289 32.6172 -23.4375 L 32.6172 -47.3633 C 32.6172 -51.2207 34.5703 -53.3691 38.3301 -53.3691 L 48.2422 -53.3691 C 59.5215 -53.3691 65.7227 -47.0215 65.7227 -35.4492 C 65.7227 -23.877 59.4727 -17.4805 48.2422 -17.4805 Z M 42.6758 -25.293 L 46.582 -25.293 C 52.3926 -25.293 55.127 -28.4668 55.127 -35.4004 C 55.127 -42.2852 52.3438 -45.5566 46.582 -45.5566 L 42.6758 -45.5566 Z"/>
  </g>
  <g id="Semibold-S" transform="matrix(1 0 0 1 1996.2 696)">
   <path d="M 47.0703 4.98047 C 69.0918 4.98047 87.3047 -13.1836 87.3047 -35.2539 C 87.3047 -57.2754 69.0918 -75.4883 47.0215 -75.4883 C 25 -75.4883 6.83594 -57.2754 6.83594 -35.2539 C 6.83594 -13.1836 25.0488 4.98047 47.0703 4.98047 Z M 37.4023 -17.3828 C 34.1309 -17.3828 32.4707 -19.3848 32.4707 -22.7051 L 32.4707 -48.3398 C 32.4707 -51.6602 34.1797 -53.6621 37.4023 -53.6621 L 47.4121 -53.6621 C 58.8867 -53.6621 65.1855 -47.2656 65.1855 -35.5469 C 65.1855 -23.8281 58.7891 -17.3828 47.4121 -17.3828 Z M 41.4062 -24.4141 L 46.0938 -24.4141 C 52.5879 -24.4141 55.7617 -27.9785 55.7617 -35.498 C 55.7617 -42.9688 52.5391 -46.6309 46.0938 -46.6309 L 41.4062 -46.6309 Z"/>
  </g>
  <g id="Medium-S" transform="matrix(1 0 0 1 1699.83 696)">
   <path d="M 46.7285 4.63867 C 68.5547 4.63867 86.6211 -13.4277 86.6211 -35.2539 C 86.6211 -57.0312 68.5059 -75.1465 46.6797 -75.1465 C 24.8535 -75.1465 6.83594 -57.0312 6.83594 -35.2539 C 6.83594 -13.4277 24.9023 4.63867 46.7285 4.63867 Z M 36.7188 -17.334 C 33.8379 -17.334 32.373 -19.1895 32.373 -22.1191 L 32.373 -49.0723 C 32.373 -52.002 33.8867 -53.8574 36.7188 -53.8574 L 46.8262 -53.8574 C 58.3984 -53.8574 64.7461 -47.4609 64.7461 -35.6445 C 64.7461 -23.8281 58.3008 -17.334 46.8262 -17.334 Z M 40.4785 -23.7305 L 45.6543 -23.7305 C 52.7344 -23.7305 56.25 -27.6367 56.25 -35.5469 C 56.25 -43.457 52.6367 -47.4609 45.6543 -47.4609 L 40.4785 -47.4609 Z"/>
  </g>
  <g id="Regular-S" transform="matrix(1 0 0 1 1403.58 696)">
   <path d="M 46.2402 4.15039 C 67.7734 4.15039 85.6934 -13.7207 85.6934 -35.2539 C 85.6934 -56.7871 67.7246 -74.6582 46.1914 -74.6582 C 24.707 -74.6582 6.83594 -56.7871 6.83594 -35.2539 C 6.83594 -13.7207 24.7559 4.15039 46.2402 4.15039 Z M 35.8398 -17.2363 C 33.4961 -17.2363 32.2266 -18.9453 32.2266 -21.3867 L 32.2266 -50 C 32.2266 -52.4414 33.4961 -54.1504 35.8398 -54.1504 L 45.9961 -54.1504 C 57.7637 -54.1504 64.1602 -47.7051 64.1602 -35.791 C 64.1602 -23.7793 57.666 -17.2363 45.9961 -17.2363 Z M 39.2578 -22.8516 L 45.166 -22.8516 C 52.9297 -22.8516 56.8359 -27.1484 56.8359 -35.6934 C 56.8359 -44.0918 52.832 -48.5352 45.166 -48.5352 L 39.2578 -48.5352 Z"/>
  </g>
  <g id="Light-S" transform="matrix(1 0 0 1 1107.6 696)">
   <path d="M 45.5078 3.4668 C 66.6992 3.4668 84.2285 -14.0625 84.2285 -35.2051 C 84.2285 -56.3965 66.6504 -73.9258 45.5078 -73.9258 C 24.3164 -73.9258 6.83594 -56.3965 6.83594 -35.2051 C 6.83594 -14.0625 24.3652 3.4668 45.5078 3.4668 Z M 34.8633 -17.334 C 33.0566 -17.334 32.0801 -18.6523 32.0801 -20.5566 L 32.0801 -50.5371 C 32.0801 -52.4414 33.0566 -53.7109 34.8633 -53.7109 L 45.2148 -53.7109 C 56.3965 -53.7109 62.7441 -47.2168 62.7441 -35.6445 C 62.7441 -23.8281 56.3477 -17.334 45.2148 -17.334 Z M 37.5977 -21.8262 L 44.5801 -21.8262 C 52.5391 -21.8262 56.9824 -26.4648 56.9824 -35.5469 C 56.9824 -44.3848 52.4902 -49.2676 44.5801 -49.2676 L 37.5977 -49.2676 Z"/>
  </g>
  <g id="Thin-S" transform="matrix(1 0 0 1 811.867 696)">
   <path d="M 44.5801 2.53906 C 65.2832 2.53906 82.2754 -14.4531 82.2754 -35.2051 C 82.2754 -55.9082 65.2344 -72.9004 44.5312 -72.9004 C 23.8281 -72.9004 6.83594 -55.9082 6.83594 -35.2051 C 6.83594 -14.4531 23.877 2.53906 44.5801 2.53906 Z M 33.5938 -17.4316 C 32.5684 -17.4316 31.9336 -18.2129 31.9336 -19.4336 L 31.9336 -51.2695 C 31.9336 -52.4414 32.5684 -53.2227 33.5938 -53.2227 L 44.1895 -53.2227 C 54.5898 -53.2227 60.8887 -46.582 60.8887 -35.4492 C 60.8887 -23.877 54.6387 -17.4316 44.1895 -17.4316 Z M 35.4004 -20.459 L 43.75 -20.459 C 52.0508 -20.459 57.1777 -25.4883 57.1777 -35.4004 C 57.1777 -44.8242 52.002 -50.1953 43.75 -50.1953 L 35.4004 -50.1953 Z"/>
  </g>
  <g id="Ultralight-S" transform="matrix(1 0 0 1 515.644 696)">
   <path d="M 44.043 2.05078 C 64.502 2.05078 81.2988 -14.6973 81.2988 -35.1562 C 81.2988 -55.6152 64.502 -72.3633 44.043 -72.3633 C 23.584 -72.3633 6.83594 -55.6152 6.83594 -35.1562 C 6.83594 -14.6973 23.584 2.05078 44.043 2.05078 Z M 32.959 -17.5293 C 32.2754 -17.5293 31.8359 -18.0176 31.8359 -18.8477 L 31.8359 -51.6113 C 31.8359 -52.4414 32.2754 -52.9297 32.959 -52.9297 L 43.6523 -52.9297 C 53.6133 -52.9297 59.9121 -46.2402 59.9121 -35.3516 C 59.9121 -23.9258 53.7109 -17.5293 43.6523 -17.5293 Z M 34.2773 -19.7266 L 43.3594 -19.7266 C 51.8066 -19.7266 57.2754 -25 57.2754 -35.3027 C 57.2754 -45.0195 51.7578 -50.7324 43.3594 -50.7324 L 34.2773 -50.7324 Z"/>
  </g>
 </g>
</svg>
